<?xml version="1.0" standalone="no"?>
<!DOCTYPE svg PUBLIC "-//W3C//DTD SVG 20010904//EN"
 "http://www.w3.org/TR/2001/REC-SVG-20010904/DTD/svg10.dtd">
<svg version="1.0" xmlns="http://www.w3.org/2000/svg"
 width="128.000000pt" height="128.000000pt" viewBox="0 0 128.000000 128.000000"
 preserveAspectRatio="xMidYMid meet">
<metadata>
Created by potrace 1.14, written by Peter Selinger 2001-2017
</metadata>
<g transform="translate(0.000000,128.000000) scale(0.100000,-0.100000)"
fill="#000000" stroke="none">
<path d="M396 1125 c-84 -32 -106 -72 -106 -193 0 -78 3 -96 28 -142 63 -121
226 -126 292 -9 20 37 25 60 28 144 3 92 2 103 -20 135 -43 65 -145 94 -222
65z m152 -42 c53 -40 65 -67 65 -146 -1 -131 -55 -207 -148 -207 -22 0 -54 9
-72 20 -49 29 -66 72 -71 175 -4 88 -3 92 24 124 15 19 42 40 59 47 39 18 110
12 143 -13z"/>
<path d="M834 1032 c-6 -4 -16 -17 -23 -29 -9 -18 -17 -21 -41 -16 -42 8 -63
-12 -55 -53 5 -28 2 -36 -20 -50 -33 -22 -33 -58 1 -80 19 -13 24 -23 19 -41
-8 -33 11 -63 40 -63 23 0 25 -4 25 -50 0 -28 -5 -50 -10 -50 -6 0 -63 15
-128 34 -149 43 -214 42 -367 -3 -139 -41 -167 -54 -209 -101 -73 -81 -78
-311 -7 -349 11 -7 180 -11 437 -11 l419 -1 3 45 3 46 143 0 c97 0 146 4 154
12 9 9 12 77 12 243 l0 232 -59 56 c-42 40 -67 57 -86 57 -14 0 -42 12 -60 26
-30 22 -33 30 -28 56 8 40 -15 59 -63 51 -21 -3 -34 -1 -34 5 0 14 -29 42 -43
42 -7 0 -17 -4 -23 -8z m101 -78 c34 7 34 7 28 -27 -4 -28 -1 -37 21 -55 l27
-20 -27 -27 c-21 -21 -25 -32 -20 -56 5 -27 3 -30 -14 -24 -30 9 -58 -3 -74
-32 l-13 -27 -12 23 c-15 27 -60 46 -75 31 -19 -19 -28 -10 -21 20 6 26 2 35
-25 60 -29 27 -30 31 -13 37 26 9 33 23 33 63 0 35 1 36 34 32 28 -3 37 1 51
22 l17 26 25 -26 c20 -22 30 -25 58 -20z m157 -181 l3 -48 50 -5 50 -5 0 -210
0 -210 -190 0 -190 0 -3 188 -2 187 39 -6 c37 -6 41 -4 53 21 10 23 16 26 44
20 44 -8 68 16 59 61 -6 37 10 53 57 54 25 0 27 -3 30 -47z m68 -14 c0 -5 -6
-9 -14 -9 -15 0 -28 24 -19 34 7 7 33 -13 33 -25z m-730 -123 c0 -3 -9 -43
-20 -90 -23 -94 -21 -103 28 -149 l29 -28 36 41 c21 22 37 43 37 48 0 4 -7 45
-15 91 -8 47 -13 86 -11 88 5 5 136 -37 136 -43 0 -12 -181 -364 -188 -364 -5
0 -165 318 -180 360 -2 5 25 18 60 29 65 20 88 24 88 17z m61 -88 c15 -79 15
-82 -6 -105 l-20 -25 -19 21 c-19 20 -19 23 -1 106 10 47 21 85 24 85 4 0 14
-37 22 -82z m-150 -153 c49 -100 89 -186 89 -191 0 -5 -78 -8 -172 -7 l-173 1
-23 28 c-23 26 -24 34 -20 118 5 109 25 157 79 193 43 28 110 54 122 46 5 -3
49 -87 98 -188z m425 164 c11 -9 14 -42 14 -144 0 -148 2 -152 65 -157 35 -3
40 -6 43 -30 l3 -28 -195 0 c-108 0 -196 3 -196 6 0 9 159 335 175 361 13 18
19 20 46 13 17 -5 37 -14 45 -21z"/>
<path d="M824 930 c-86 -35 -61 -170 31 -170 42 0 95 44 95 80 0 33 -26 75
-55 88 -30 14 -42 14 -71 2z m74 -42 c18 -18 14 -63 -8 -83 -45 -41 -110 18
-76 70 18 27 63 34 84 13z"/>
<path d="M898 609 c-6 -4 -7 -12 -4 -18 5 -7 47 -11 117 -11 96 0 110 2 107
16 -2 14 -20 17 -106 18 -57 0 -109 -2 -114 -5z"/>
<path d="M897 504 c-17 -18 14 -24 114 -24 90 0 109 3 109 15 0 12 -19 15
-108 15 -60 0 -112 -3 -115 -6z"/>
<path d="M897 403 c-19 -18 3 -23 108 -23 96 0 115 3 115 15 0 12 -19 15 -108
15 -60 0 -112 -3 -115 -7z"/>
</g>
</svg>
