<?xml version="1.0" encoding="UTF-8"?><svg xmlns="http://www.w3.org/2000/svg" viewBox="0 0 64 57.81"><defs><style>.cls-1{isolation:isolate;}.cls-2{mix-blend-mode:multiply;}.cls-3{fill:#5f5c5d;fill-rule:evenodd;}</style></defs><g class="cls-1"><g id="Layer_2"><g id="Layer_1-2"><g class="cls-2"><path class="cls-3" d="M59.12.21c.77,1.96-.74,4.44-.61,6.95.37.46.65-.63,1.1-.12.21,1.57-1.18,2.65-1.46,4.02-.31,1.53-.15,3.22-.36,4.75-.47,3.32-1.4,6.43-1.71,9.63,1.81.71,5.29,0,7.8,0-.28,1.09.17,2.22,0,3.41-.1.68-.56,1.27-.61,1.95-.15,2.19,1.12,4.1.61,6.22-3.55,1.1-8.31,1.53-12.07,1.1-1.33,6.05.57,13.75-1.34,19.5-3.07.37-6.89.08-10.12-.12-.66-.75-.07-1.66,0-2.68.16-2.25-.12-4.95,0-7.56.14-3.17.55-6.45.73-9.39-.59-.41-1.69-.41-2.19,0-1.78-.79-3.5-.23-5.97-.61-.11-2.12.04-4.36.24-6.83.76-9.3,1.65-20.03,2.07-28.65,2.54.23,4.89-.57,7.07-.24.67-.22.44-1.35,1.34-1.34.57.21.16.65.24,1.34.82.25,1.68-.24,2.32.24-.02.95-.12,1.08-.37,1.83.4,3.38-.93,6.99-1.46,10.24.99,2.73-1.73,5.13-1.22,8.17.58.55,1.46.81,2.68.73.92-3.24,1.41-7.01,2.19-10.6.61-2.82,1.5-5.66,1.71-8.53.07-.92-.3-2.41.37-3.17.7-.24,1.59.13,2.44.12.75-.69,1.27-.86,1.95,0,1.41-.3,3.23.13,4.63-.37ZM43.89,3.38c.32.04.4-.17.37-.49h-.37v.49ZM38.4,6.07c.91-.71,1.4-1.85,1.95-2.93-1.29.25-1.8,1.94-1.95,2.93ZM36.09,5.09c.55-.14.48-.9.61-1.46-.16,0-.17-.16-.37-.12-.43.18-.18,1.04-.24,1.59ZM42.18,8.02c.78-1.01,1.86-3.01,1.58-4.27-.31,1.64-1.42,2.48-1.58,4.27ZM52.3,6.55c.54.01.66-.4.73-.85-.57-.04-.59.47-.73.85ZM53.64,11.43c.18-1.51.72-2.67.36-4.39-.44,1.35-1.15,3.17-.36,4.39ZM42.55,18.26c.41-2.43,1.04-4.43,1.34-7.19-.03-.1-.1-.14-.24-.12-1.2,1.88-1.17,4.97-1.1,7.31ZM55.47,15.45c.38.06.39-.26.37-.61h-.37v.61ZM36.33,15.94c-.17-.43.34-.78,0-.98-.13.13-.25.87,0,.98ZM54,23.86c.13-.35.39-.59.61-.85.13-2.58,1.12-5.44.85-7.31-.39,2.74-1.19,5.72-1.46,8.17ZM48.88,21.06c.65-1.21.82-3.56.97-4.88-.52,1.61-.76,3.23-.97,4.88ZM40.47,18.26c-.01-.2.4-.78-.12-.73.07.21-.15.72.12.73ZM39.99,21.79c.44-.66.53-2.31.37-3.17-.11.89-1.21,2.51-.37,3.17ZM40.96,23.13c.12.24.54.19.49.61-.3,2.71-1.78,4.88-1.83,7.44,1.01-2.36,1.67-5.07,2.68-7.44-.6-.18-.26-1.28-.73-1.58-.03-.1-.1-.14-.24-.12-.2.29-.27.71-.37,1.1ZM51.44,23.86c.21-.28.4-1.21.12-1.58-.13.38-.94,1.4-.12,1.58ZM39.01,27.76c.43-1.56,1.06-2.92,1.58-4.39-.29,0-.36-.21-.73-.12-.19,1.52-1,3.06-.85,4.51ZM41.57,32.52c1.34-2.44,1.82-5.74,2.93-8.41h-.37c-.76,2.81-2.21,5.59-2.56,8.41ZM46.57,27.4c.36-.09.71-1.34.24-1.46-.05.56-.44,1.01-.24,1.46ZM60.95,27.89c.47-.01.45-.53.49-.98h-.37c-.19.18-.11.62-.12.98ZM54.13,29.1c.28.04.47-.02.61-.12v-.49c-.43-.03-.64.17-.61.61ZM57.54,29.96c.09-.64.54-.92.73-1.46h-.49c-.06.43-.37,1.25-.24,1.46ZM48.52,30.32c.02-.21.55-.85,0-.85.16.38-.36.68,0,.85ZM49.37,32.15c.71-.51.82-1.62,1.22-2.44-.17-.03-.21-.2-.37-.24-.3.88-.66,1.69-.85,2.68ZM53.52,31.91c.01-.37.7-1.17.24-1.22,0,.42-.58.88-.24,1.22ZM51.57,33.62c.4-.35.92-1.68.61-1.95-.2.66-.42,1.28-.61,1.95ZM62.9,35.93c-.18-.71-.03-1.75-.49-2.19-.31.68-.7,2.6.49,2.19ZM35.6,36.05c.13-.2.45-.84.12-1.1.11.44-.53.76-.12,1.1ZM59.37,35.69c.09-.08.27-.68,0-.73-.17.16-.44.65,0,.73ZM40.84,36.18c.45.04.63-.83.37-1.1-.15.34-.36.62-.37,1.1ZM60.59,35.93c.38.18.59-.7.12-.61-.1.14-.16.33-.12.61ZM53.88,36.91h.37c.12-.12.05-.66-.12-.85-.07.31-.49.59-.24.85ZM55.22,36.91h2.07v-.61c-.52-.08-.5.4-.98.37-.36-.09-.24-.66-.73-.61-.13.28-.42.39-.37.85ZM46.2,45.68c1.46-2.32,2.41-5.8,2.93-8.66-.99,2.87-1.89,5.84-2.93,8.66ZM44.01,48.97c.65-.86,1.37-2.93,1.22-3.78-.35,1.31-1.4,1.93-1.22,3.78ZM49.25,46.29c.08-.25.46-.83.12-1.1,0,.33-.51.78-.12,1.1ZM44.25,52.75c.3-.31.25-.97.24-1.59h-.37c-.04.42-.1,1.12.12,1.59ZM46.93,56.29c.5.18.55-1.14.12-1.1.15.55-.45.73-.12,1.1Z"/><path class="cls-3" d="M21.95,3.26c-.21.85-1.61.5-1.83,1.34,1.16.63,1.58-.53,2.19-.85.51-.14.22.51.49.61.67.02.96-.34,1.71-.24.6,5.15,1.07,11.45.85,17.55-.1,2.89-.16,6.84.49,8.78,0,.57-.51.62-.73.98-1.49-.03-3.28-.03-5,.36-2.02.47-4.94,1.31-5.49,2.68-.48,1.21-.45,3.01-.73,4.63-.27,1.54-.62,3.08-.73,4.51,4.15-.12,8.49-1.75,12.8-1.71.3,2.54.09,5.76,0,8.53-.06,1.91.19,4.13-.73,5.49-1.23-.08-3.98-1.35-5.48-.37-3.51-1.02-8.1.44-11.09.73-1.17,1.81-5.46,1.36-7.19.37-.48-4.04-.63-9.82-.97-14.75.02-.39-.53-.2-.49-.61.09-1.29.98-2.9.24-3.9.41-2.77.8-7.6.85-10.61.02-.86-.31-1.83.37-2.44,3.65-.16,7.49-1.71,11.46-1.22.71-.07.62-.69,1.46-.37.24-1.72.49-3.03.61-4.63-.92.62-2.38-.38-3.17.61-3.07-.55-7.19,1.06-9.75-.49-.42-1.23-.05-2.92-.24-4.63-.21-1.79-.73-5.03,0-6.83,1.25.17,3.22.86,3.9-.49.48.05.59.47.98.61,3.76-2.53,9.93-2.67,15.24-3.66ZM21.46,7.41c.9-.32,1.19-1.25,1.95-1.71-1.35-.7-2.01.99-1.95,1.71ZM19.87,6.8c-1.29,2.28-2.96,4.84-3.54,7.44,1.43-2.35,2.77-4.79,3.9-7.44h-.37ZM23.29,7.77c.47.24.75-.65.24-.61-.05.23-.26.31-.24.61ZM8.53,12.04c.85-1.59,1.92-2.96,2.68-4.63-1.34,1.01-2.2,3.17-2.68,4.63ZM16.58,7.89c-1.17,2.33-2.27,4.72-3.29,7.19,1.84-2.14,3.18-4.78,4.51-7.44-.51-.03-.79.19-1.22.24ZM3.66,9.36c.31-.08.74-.83.24-.98-.21.2-.3.51-.24.98ZM22.92,16.79c0-1.68.55-4.07,0-5.49-.88,1.4-.53,3.86,0,5.49ZM7.93,13.14c.11-.27.65-.72.37-.98-.11.27-.65.72-.37.98ZM10.36,16.79c-.32-.06-.41-.67-.73-.37-.33.24-.58.55-.73.98.86-.08,1.79-.08,2.56-.24.33-1.21,1.24-2.5,1.34-3.54-.92.95-1.13,2.6-2.44,3.17ZM6.59,15.7c.14.06.28.13.37.24-.31.42-.38,1.08-.61,1.58.82-.39,1.95-2.34.73-2.92-.1.43-.37.69-.49,1.1ZM13.53,16.91c.77-.08,1.1-1.25.98-1.83-.26.61-1.2,1.13-.98,1.83ZM19.87,18.62c.38-.8.54-2.47.37-3.41-.76.67-.64,2.28-.37,3.41ZM15.97,16.43c.46.21.74-.76.24-.73-.07.25-.3.35-.24.73ZM4.88,17.4c.22-.27.84-1.3.36-1.46-.09.44-1.35,1.09-.36,1.46ZM21.58,20.69c.52-.38.68-1.11.73-1.95-.03-.1-.1-.14-.24-.12-.2.66-.62,1.08-.49,2.07ZM19.02,20.94c-.1-.32.37-.67,0-.85-.12.1-.26.78,0,.85ZM23.65,24.35c.4.06.51-.7.12-.73-.14.14-.14.43-.12.73ZM9.88,24.23c-.24,1.99-2,3.12-1.58,5.36.82-1.78,1.81-3.39,2.44-5.36h-.85ZM5.37,25.57c.4,0,.47-.35.49-.73-.45-.04-.37.44-.49.73ZM22.55,28.86c-.03.66-.82,1.08-.61,1.58.73-.21,1.6-.27,2.32-.49-.26-.8.1-2.22-.49-2.68-.12.81-.12,1.75-1.22,1.58ZM2.2,28.98c.19-.26.35-.54.49-.85-.57-.15-1.02.65-.49.85ZM14.51,31.18c.58-.52.89-1.31,1.1-2.19-.16,0-.17-.16-.37-.12-.24.77-.61,1.42-.73,2.32ZM19.14,29.71c-.67,0-1.08.93-1.1,1.59.91-.18,1.9-.29,2.44-.85-.72.32-.67-.74-1.34-.73ZM16.46,31.91c.27-.09.66-.07.73-.36-.31-.01-.17-.48-.49-.49-.16.2-.32.41-.24.85ZM11.7,32.76c.31-.07.9-.98.37-1.1,0,.48-.21.76-.37,1.1ZM2.81,33.98c-.46,1.33-1.24,2.99-1.1,4.51.75-1.36,1.41-2.81,1.95-4.39-.16-.17-.53-.12-.85-.12ZM7.56,38c.43-1.23.87-2.46,1.34-3.66-.75.77-1.39,2.91-1.34,3.66ZM3.66,44.34c.93-.19,1.18-1.38,1.46-2.19.75-2.19,1.52-4.59,2.07-6.95-.17,0-.27-.06-.36-.12-1.45,2.61-2.44,6.34-3.17,9.26ZM7.93,40.08c.6-1.11,1.69-3.43,1.83-5-.7,1.58-1.41,3.14-1.83,5ZM5.12,45.2c.22-.51.71-1.4.49-1.95,0,.73-.88,1.23-.49,1.95ZM23.9,43.37c-.12.29-.21.6-.24.98.37-.2.93-.21,1.34-.37v-.61c-.56-.03-.59-.13-1.1,0ZM2.07,46.05c.22-.51.71-1.4.49-1.95-.19.55-.89,1.22-.49,1.95ZM15.73,46.41c.31-.5.6-1.03.73-1.71-.16,0-.17-.16-.37-.12-.27.38-.64,1.31-.37,1.83ZM23.29,46.17c0-.45.65-.88.24-1.34-.22.23-.45,1.09-.24,1.34ZM13.53,45.2c-.62,2.87-2.5,5.14-2.8,7.92,1.5-2.44,2.84-5.04,3.78-8.04-.35.01-.8-.07-.98.12ZM16.82,50.68c1.15-1.09,1.98-3.14,2.07-4.88-.76,1.48-1.68,3.43-2.07,4.88ZM20.6,48.49c.36-.78.66-1.62.98-2.44-.48.58-1.06,1.7-.98,2.44ZM13.05,51.66c.7-.93,1.54-2.36,1.59-3.54-.55,1.15-1.27,2.14-1.59,3.54ZM2.32,50.07c.07-.28.71-1.07.12-1.22-.18.25-.62,1.05-.12,1.22ZM21.82,54.09c.56-.07.76.22,1.34.12,0-1.26.58-2.59.36-3.66-.53,1.21-1.17,2.33-1.71,3.53ZM18.9,54.09c.85-.06,1.19-1.88.85-2.32-.2.79-.96,1.62-.85,2.32ZM2.56,54.46c.79-.29.03-1.36.24-2.19h-.37c-.28.61.13,1.46.12,2.19ZM6.83,53.36c.4-.01.56-.89.36-1.1-.04.45-.48.49-.36,1.1ZM4.39,54.22c.45-.07.85-1.37.49-1.46-.01.64-.46.84-.49,1.46ZM15.85,54.09c.14.14.43.14.73.12.15-.35.1-.81-.24-.98-.09.35-.58.32-.49.85ZM6.46,54.46c-.06.18-.18.31-.24.49.28.77,2.65.71,2.8-.12-.53.14-.77-.35-1.1-.73-.19.7-.95.94-1.46.37ZM3.66,55.68c0,.4.55.26.85.36.06-.68-.52-.42-.85-.36Z"/></g></g></g></g></svg>