<?xml version="1.0" encoding="UTF-8"?><svg id="Layer_2" xmlns="http://www.w3.org/2000/svg" viewBox="0 0 64 59.63"><defs><style>.cls-1{fill:#5f5c5d;fill-rule:evenodd;}</style></defs><g id="Layer_1-2"><path class="cls-1" d="M37.58,9.68c-.34.71-1.23.85-1.87,1.25-1.13.7-2.22,1.59-3.82,1.64-.26-.65.49-.83,1.01-.94.88-.45,2.08-1.05,3.12-1.64.55-.31,1.08-.79,1.56-.31Z"/><path class="cls-1" d="M10.73,16.08c.06.32-.12.4-.08.7-.11,0-.22-.01-.23.08-.39-.03-.6-.23-.7-.55,0-.42.78-.51,1.01-.23Z"/><path class="cls-1" d="M11.04,19.36c.17.7-.56.92-.86,1.4-.13.21-.12.55-.23.78-.13.25-.4.42-.55.7-.79,1.6-1.23,4.11-1.56,6.01-.11.61-.34,1.29-.16,1.87-.37.55-1.09.14-1.79.16-.88-.6-2.51-.46-3.28-1.17.61-5.25,1.64-10.07,5.46-12.1,1.58.19,2.08,1.46,2.97,2.34ZM8.08,23.26c.45-.69.72-1.49,1.17-2.26.89-1.52.36-2.25-1.02-2.97-1.96.91-3.62,4.21-4.21,7.26-.2,1-.1,2.04-.16,3.04.77.47,1.66.84,2.89.86.18-2.24.82-4.02,1.33-5.93Z"/><path class="cls-1" d="M14.56,17.95c-.03.36-.27.51-.39.78h-.55c-.7-.61.52-1.68.94-.78Z"/><path class="cls-1" d="M33.21,17.72c-2.03,1.59-4.24,3-6.71,4.14-.02-.16-.29-.07-.31-.23.25-.9,1.92-1.05,2.5-1.87,1.42-.64,2.72-1.39,3.98-2.18.29-.05.42.05.55.16Z"/><path class="cls-1" d="M33.99,19.83c-2.16,1.67-4.76,2.88-7.1,4.37-.12.75.3.94.23,1.64-.74.51-1.58,1.16-2.58,1.48-.42.13-.86.07-1.25.23-.46.2-.7.77-1.25.7-.79-.55.11-1.29.7-1.4-.21-.52-.06-1.4-.39-1.79-.5.1-.65.55-.94.86-.35.03-.6-.02-.78-.16v-.47c.38-.48,1.01-.71,1.48-1.09-.4-.7.16-.63,0-1.48.27-.17.47-.38.86-.23,1.09-.6,1.82-1.56,3.04-2.03-.14,1.06-1.08,1.31-1.48,2.11.43.16,1.03.04,1.56-.08.26.24.38.61.55.94,1.58-.83,3.2-1.92,4.92-2.81.83-.43,1.55-.98,2.42-.78ZM23.45,23.89c-.38.65.02,1.63.16,2.26.98-.45,1.94-.02,2.5-.94-.18-.47-.26-1.04-.47-1.48-.72-.21-1.55.04-2.19.16Z"/><path class="cls-1" d="M16.98,21.62c-.22.12-.49.19-.86.16-.13-.18-.19-.44-.16-.78.52-.3,1.23-.02,1.02.62Z"/><path class="cls-1" d="M12.6,22.95c.37-2.47,2.03,1.03,0,0h0Z"/><path class="cls-1" d="M35.47,22.87c-1.26,1.29-3.78,2.75-5.23,3.75-.4.27-.82.77-1.01-.08,1.13-.98,2.57-1.85,3.98-2.73.73-.46,1.28-.98,2.26-.94Z"/><path class="cls-1" d="M10.57,24.35c.02.44-.11.72-.39.86-1.1-.1-.43-1.68.39-.86Z"/><path class="cls-1" d="M16.04,26.15c.29.75-.57,1.15-1.01.7-.2-.74.51-.92,1.01-.7Z"/><path class="cls-1" d="M13.31,26.77c.11,1.07-1.2,1.05-1.17.31.02-.5.76-.66,1.17-.31Z"/><path class="cls-1" d="M10.18,30.75c-2.06.1.39-2.03,0,0h0Z"/><path class="cls-1" d="M16.82,31.77c-1.43-.65.64-1.82.62-.62,0,.4-.41.29-.62.62Z"/><path class="cls-1" d="M1.99,32c-.85-2,2.4-.23,0,0h0Z"/><path class="cls-1" d="M20.33,32.24c-.17.25-.37.46-.86.39-.04-.11-.12-.19-.23-.23-.12-.9,1.08-1.01,1.09-.16Z"/><path class="cls-1" d="M13.23,32c.11.35.04.57,0,.94-.21.08-.48.09-.78.08-.46-.51-.12-1.21.78-1.02Z"/><path class="cls-1" d="M4.96,32.32c.22.34.29.55.31.94,1.09.16,1.61-.8,2.5-.63.43.08,1.01,1.12,1.33,1.64.48.8,1.32,1.84.7,2.58-.95.1-1.65.13-2.11.55-.42.38-.52,1.12-1.4.47-.27-.2-1.08-1.39-1.25-1.8-.43-1.04-.42-2.26-1.01-3.04-.01-.58.46-.84.94-.7ZM7.37,34.03c-.56-.13-1.25.16-1.87.31.22.97.62,1.77,1.09,2.5.64-.33,1.4-.53,2.11-.78-.1-.63-.5-1.83-1.33-2.03Z"/><path class="cls-1" d="M20.88,35.2c-.11-.17-.24-.34-.23-.62.56-1.15,1.75.78.23.62Z"/><path class="cls-1" d="M24.94,35.75c-.03.42-.32.56-.78.55-.02-.16-.21-.15-.23-.31-.03-.19.14-.17.08-.39.34-.14.81-.26.94.16Z"/><path class="cls-1" d="M12.6,36.69c-.01.27-.28.3-.31.55-.4.04-.67-.06-.78-.31-.02-.81.88-.83,1.09-.23Z"/><path class="cls-1" d="M14.79,36.69c.12.35-.09.85-.47.94-.34,0-.31-.37-.55-.47.08-.38.55-.72,1.01-.47Z"/><path class="cls-1" d="M17.99,36.61c.39,0,.57.21.78.39-.01.53-.93.63-1.09.16-.03-.31.19-.38.31-.55Z"/><path class="cls-1" d="M17.29,38.79c.04.81-.89.82-1.09.23.16-.49.78-.68,1.09-.23Z"/><path class="cls-1" d="M22.28,38.95c.19,1.94-2.22-.61,0,0h0Z"/><path class="cls-1" d="M9.01,39.34c-.08.52-.41.79-1.01.78-.14-.17-.21-.42-.23-.7.29-.38.84-.32,1.25-.08Z"/><path class="cls-1" d="M14.4,41.53c-.03.16.05.21.08.31-.11.28-.35.42-.55.62-.45,0-.58-.31-.62-.7.36-.19.66-.52,1.09-.23Z"/><path class="cls-1" d="M17.68,42.7c-.22-.15-.39-.33-.39-.7,1.06-.97,1.86.44.39.7Z"/><path class="cls-1" d="M39.92,6.17c1.12-.91,2.11-1.95,3.2-2.89,1.66-.68,3.35-1.81,5.62-2.11,3.1-.41,6.73.13,8.9,1.48.23.15.48-.02.62.08,1.9,1.44,3.82,3.25,4.76,5.78.65,1.75,1.11,3.39.94,5.85-.29,4.08-1.33,8.18-2.65,11.71-1.37,3.67-3.72,6.43-5.93,8.59-2.24,1.46-4.97,2.42-8.27,2.81-.35,1.81-1.31,3.82-3.28,3.28-.1-.44-.28-.81-.39-1.25-.15-.17-.24.38-.39.47-.16-.15-.52-.06-.7,0-2.81,1.52-6.2,2.34-7.49,5.23-.44.98-.39,2.26.23,3.04.72.91,2.06,1.36,3.2,2.11.38.25.68.72,1.09,1.01.46.33.94.5,1.25.86.58.66.84,1.42,1.25,2.34-.08.7-.3,1.44-.78,2.03-1.29,1.59-4.12,3-6.32,3.04-.57,0-1.21-.34-1.72-.39-.32-.03-.52.29-.78,0,.46-1.69-.33-3.69-1.17-4.84-1.75-2.4-4.99-3.38-6.87-5.23-.6-.59-.58-1.99-.7-3.04-.45-.09-.91-.18-1.33-.31-.18-.61-.74-.82-.63-1.72-2.4.77-4.88,1.67-7.41,1.17-.48-.09-.96-.41-1.48-.55-4.17-1.08-6.87-3-9.29-6.09-1.57-2-2.92-4.51-3.2-7.18-.23-2.18-.36-4.87.23-7.18.09-.34.34-.71.47-1.09.14-.42.1-.9.23-1.25.1-.26.36-.44.47-.7.12-.31.11-.69.23-.94.14-.29.42-.45.55-.7.5-1,.87-1.66,1.72-2.65.53-.62,1.04-1.32,1.56-1.72.81-.62,2.33-1.27,3.51-1.56,3.29-.82,5.85,1.33,8.43,2.11.24-4.33,1.6-9.1,4.29-12.02C24.05,1.41,26.55-.06,31.1,0c.93.01,1.9.14,2.81.47,1.3.47,3.17,1.33,3.98,2.19.96,1.01,1.31,2.29,2.03,3.51ZM24.23,3.28c2.06-.28,3.46-1.64,5.54-1.64-.58.49-1.21.92-2.11,1.09-.37.62-1.66.32-1.95,1.02,1.93.5,3.58-.31,5.07-1.09.82-.43,1.76-.51,2.26-1.17-3.06-.65-7.09-.29-8.82,1.79ZM33.99,1.72c-.52.04-.94.66-1.4.94-1.21.73-2.75,1.18-3.83,1.8-.04.54-.51,1.17-.7,1.8,1.26-.33,2.29-.88,3.28-1.48h.31c.81-.38,1.69-1.01,2.58-1.41.44-.2,1.14-.6,1.64-.31-.17.25-.65.18-.7.55.34-.04,1.17-.22,1.4-.62-.87-.32-1.67-1.32-2.58-1.25ZM51.55,6.01h.47c-.32-1.13.3-2.65,0-3.67-.47.96-.71,2.67-.47,3.67ZM47.88,4.37c.13.2.33.35.55.47.29-.7.41-1.57.55-2.42-1.05-.03-.77,1.26-1.09,1.95ZM54.83,2.73c.16,1.05-.55,3.32.39,3.83.12-1.03.16-2.46.16-3.75-.18-.03-.29-.12-.55-.08ZM45.85,5.39c.77-.33.83-1.76,1.02-2.42-.61.54-.8,1.48-1.02,2.42ZM57.56,7.03c-.22-1.23.66-3.25-.55-3.59.2,1.18-.45,3.07.55,3.59ZM37.19,3.51c-.94.17-1.22,1.02-2.34,1.01-.23-.08-.15-.47-.47-.47-2.19,1.27-4.56,2.36-6.87,3.51-.23.55-.5,1.06-.55,1.8,1.85-.76,3.5-1.7,5.23-2.58.14-.32.38-.55.94-.47-.03.28-.21.29-.08.55,1.9-.44,3.63-1.05,5.07-1.95-.21-.57-.66-.9-.94-1.41ZM50.15,5.7c.19.2.32.45.7.47-.35-.52-.27-1.68-.31-2.26-.13.59-.22,1.23-.39,1.8ZM22.05,5.54c.32,0,.58-.33.78,0-.31.79-.78,1.4-1.8,1.48-.41.53-.61,1.26-.86,1.95.75-.29,1.25-.83,2.03-1.09.48-1.13,1.09-2.13,1.64-3.2-.55.14-.43-.41-.7-.55-.4.43-.9.77-1.09,1.4ZM53.97,5.86c-.06-.49.14-1.24-.16-1.48-.1.43-.26,1.23.16,1.48ZM58.81,4.69c0-.2-.11-.3-.31-.31-.04.24.07.35.31.31ZM23.22,7.73c-.6,1.41-1.13,3.51-1.4,5.15-.34,2.05-.46,4.22,0,5.93.67.07.93-.27,1.48-.31.05.16-.13.54.16.47.37-.11.81.02,1.02-.39.25-.29.08-.53,0-.86.35-.67.37-1.88.31-2.73.51-3.36,1.61-6.69,2.58-9.84-2.27-1.33-3.43.92-4.14,2.58ZM59.12,7.34c.16.07.31.16.47.23-.01-.99.56-2.22-.39-2.5-.35.6,0,1.45-.08,2.26ZM46.79,5.93c-3.55,2.63-5.62,9.44-5.7,15.22.48.22,1.17.23,1.72.39,1.2-5.06,3.33-8.92,5.23-13.11.46-.55.93-1.1,1.17-1.87-.72-.57-1.59-1.24-2.42-.62ZM38.05,5.78c-1.29.48-3.47,1.76-4.92,2.03-.31-.02-.14-.54-.47-.55-1.91,1.13-3.71,2.38-6.09,3.04,0,.6-.35,1.17-.24,1.64,2.22-1.04,4.51-1.99,6.32-3.43.31-.03.57,0,.62.23.08.35-.13.39-.16.63,1.08-.41,2.26-.7,3.28-1.17.57-.26,1.14-1.03,1.79-.62-.54,1.14-1.96,1.42-3.12,1.87-.84.33-1.63.83-2.5,1.01-.38.01-.27-.46-.62-.47-1.97,1.1-4.06,2.08-6.01,3.2.02.41,0,.78-.08,1.09,1.99-.77,3.61-1.91,5.23-3.04.17.14.48.14.39.55-1.68,1.34-3.61,2.42-5.62,3.43-.18.44-.22,1.03-.23,1.64,2.26-.94,4.05-2.35,6.32-3.28.02.16.21.15.23.31-.03.2-.23.24-.23.47-2.24,1.15-4.39,2.38-6.48,3.67.08.49-.26.97.08,1.25,1.74-.89,3.52-2.11,5.23-3.04.58-.32,1.43-1,2.11-.55-1.47.92-2.97,1.95-4.53,2.89-1.39.84-2.48,1.76-4.14,2.03-1.2,1.09-2.59,1.99-4.06,2.81-.15-.19-.44-.24-.47-.55,1.1-1.06,3.08-1.66,3.82-2.81-2.27-.72-2.54,1.61-4.29,1.41.98,5.42,3.23,9.57,7.34,11.86.04-.25-.24-.18-.16-.47.43-.71,1.27-.83,1.95-1.25,1.29-.8,2.34-2.12,3.75-2.5-.06.62-.68.97-1.09,1.33-1.32,1.14-2.75,2.08-4.14,3.12.42.18.74.46,1.33.47.18-.03.08-.34.23-.39,1.06-.66,2.26-1.69,3.36-2.42.44-.29,1.24-.95,1.79-.55-1.32,1.38-3.12,2.29-4.45,3.67.41.24.96.34,1.48.47,1.29-.9,2.64-1.73,3.9-2.65-.94-.46.01-.93.63-1.33.79-.51,2.1-1.49,2.89-1.56-.25-.66-.39-1.43-.7-2.03-1.64.73-2.69,2.04-4.29,2.81-.03-.15-.3-.06-.23-.31.86-1.33,2.5-1.87,3.75-2.81h.7c-.12-.47-.31-.89-.39-1.4-1.75.75-3.47,2.2-5.46,2.97-.3.02-.1-.47-.39-.47-.5.38-.92.85-1.64,1.01-.65.67-1.57,1.08-2.26,1.72-.37.13-2.43,1.94-2.34.55.04-.55,1.69-1.02,2.42-1.48.63-.41,1.13-1.01,1.64-1.09.75-.68,1.76-1.1,2.65-1.64.16.15.27.22.16.47,1.55-.77,3.05-1.58,4.45-2.5h.62c-.53-2.31-.24-4.09-.39-6.63-.4-.13-2.23,1.75-2.42.7-.1-.54,2.13-1.22,2.5-1.64.23-.71.24-1.64.39-2.42-.56.07-1.16.62-1.79,1.01-.55.34-1.28,1.12-1.95.55.64-1,2.04-1.24,2.89-2.03.51-.06.63-.51,1.09-.62.11-.75.42-1.3.55-2.03-.71.47-1.72.92-2.58,1.48-.62.4-2,1.58-2.58.7,1.51-.96,3.14-1.81,4.76-2.65.3-.07.32.3.55.08.3-1.39.91-2.47,1.33-3.75-.3-.29-.07-2.38-1.01-2.03ZM52.18,6.09c-.08,1.03-.4,1.78.23,2.42-.12,1.96-.25,4.43,0,6.48-.22,1.01-.21,2.51-.16,3.83.03.74-.15,1.97.62,2.03.27-2.05.06-3.96,0-6.4-.53-1.1-.34-3.04-.31-4.53.03-1.36.11-2.63.16-3.82h-.55ZM53.58,6.71c.18.03.3-.01.39-.08.02-.2-.03-.33-.23-.31-.03.15-.17.2-.16.39ZM42.58,9.06c-.03.27.03.44.08.62.64-.79,1.14-1.72,1.64-2.65-1.02-.34-1,1.56-1.72,2.03ZM54.99,13.74c0,.29.58-.01.55.31-.18.6-.21,1.35-.55,1.8.33,1.98-.33,4.96.47,6.48.69-.08.4-.89.39-1.33-.06-2.16-.11-4.55,0-6.48.03-.56-.2-1.27-.24-2.03-.09-2.09.34-4.4-.39-5.23-.31,2.09-.18,4.14-.23,6.48ZM40.31,8.43c.17-.07.37-.51.16-.7-.15.12-.51.56-.16.7ZM61.39,8.74h.39c-.1-.31-.08-.75-.47-.78.02.27-.06.63.08.78ZM59.36,11.94c0,.8-.35,1.58.16,2.11.12-2.25.2-4,0-5.93-.42.92-.16,2.44-.16,3.82ZM47.49,11.55c.14.28.4.44.55.7.04-.64-.13-1.48.23-1.79.24.02.57-.05.7.08-.08-.92.85-1.74.23-2.26-.75.92-1.04,2.29-1.72,3.28ZM19.71,9.99c-.19.69-.5,1.27-.47,2.19,1.39-.38,2.71-1.66,2.42-3.2-.64.34-.99,1.24-1.95,1.02ZM57.87,14.91c.01.35.44.29.47.62-.63,1.06-.39,2.57-.39,4.06,0,.69-.33,2.05.55,2.03.41-4.17-.16-8.75-.23-12.41-.1,0-.11-.1-.23-.08-.26,1.48-.13,3.74-.16,5.78ZM61.7,10.15c.23-.03.31-.21.39-.39-.28-.02-.41.11-.39.39ZM42.11,10.7c.14-.02.18-.13.16-.31-.24.06-.29-.08-.47-.08.05.18.1.36.31.39ZM60.53,13.97c.28-.81.45-2.63.08-3.36-.14,1-.05,2.24-.08,3.36ZM62.71,12.65c.25-.05.06-.71-.16-.78.07.39-.22.67.16.78ZM18.93,13.43c.03.36-.08.86.08,1.09.63-.64,2.41-.97,1.79-2.34-.65.39-.96,1.12-1.87,1.25ZM40,16.47c.13.12.39-.07.7,0,.1-1.24.76-2.95.31-3.98-.5,1.33-.05,3.12-1.01,3.98ZM46.79,13.35c.3.06.3-.37,0-.31v.31ZM18.77,15.93c.08.57-.09,1.44.23,1.95.42-.57.93-1.05,1.48-1.48.14-.79.06-1.31.16-2.11-.02-.06-.06-.09-.16-.08-.54.61-.9,1.39-1.72,1.72ZM7.45,15.45c-2.11,1.04-3.6,3.44-4.6,5.54-.5,1.03-.94,2.16-1.25,3.51-.23,1.03-.53,2.04-.55,3.04-.16,8.67,5.06,13.98,11.79,16,1.08.33,2.58.68,3.75.55,2.41-.27,4.48-1.12,6.48-2.65,1.36-1.88,2.95-3.91,2.81-7.02-1.07-.72-2.13-1.33-2.96-2.26-3.14-3.52-5.09-9.08-5.23-14.91-2.63-1.75-6.83-3.47-10.23-1.8ZM53.82,15.45c.22.01.22-.19.23-.39h-.23v.39ZM38.36,15.85c-.05-.16.12-.54-.16-.47.05.16-.13.54.16.47ZM44.84,17.72c.1.11.34.08.55.08.24-.38.2-1.32,0-1.56-.16.51-.43.92-.55,1.48ZM49.06,20.61c.03-1.53.1-2.94-.08-4.06-.1,1.35-.61,3.16.08,4.06ZM56.86,21.62c.29-1.47.15-3.24,0-4.76h-.23c.23,1.43-.14,3.47.23,4.76ZM60.53,21.47c.08-1.24.62-3.14,0-4.21-.12,1.29-.6,3.03,0,4.21ZM18.93,18.5c0,1.1.11,1.87.39,2.81.1-.76.77-.95,1.25-1.33-.1-.94.08-1.64-.08-2.5-.82.04-.47,1.25-1.56,1.01ZM38.28,20.69c.56-.38.16-1.88.16-2.81-.32.67-.08,1.9-.16,2.81ZM61.78,20.45c.13-.19.39-.87.08-1.02.06.37-.29.75-.08,1.02ZM48.9,21.94c-.1.57-.36,1.1-.39,1.79-.06,1.48-.23,3.13.39,4.22.31-.08.36-.42.62-.55,0-1.53-.05-3.31.08-4.92-.42-.33-.31-1.2-.54-1.72-.27.34-.08.74-.16,1.17ZM54.2,21.39c.14-.14.09-.48-.08-.55-.11.11-.15.54.08.55ZM53.11,22.17c-.02-.26-.04-.53-.16-.7-.06.31-.3.67.16.7ZM46.56,24.67c.36-.63.19-1.79.23-2.73-.24.06-.28-.08-.47-.08.08,1.17.27,1.71.23,2.81ZM50.54,28.88c.24-2.2.14-4.25.39-6.4-.1,0-.11-.1-.23-.08-.52,1.59-.37,4.92-.16,6.48ZM45.54,25.76c.15-.84.38-2.88-.55-3.28.06.92-.12,2.71.55,3.28ZM59.75,23.73c-.15,1.01-.44,2.65-.23,3.51.77-1.01,1.26-3.1.86-4.76-.23.54-.2.88-.62,1.25ZM58.27,29.43c.11-1.69.73-4.95.31-6.87-.49,1.9-.58,4.9-.31,6.87ZM51.86,28.96c.06-2.13.37-4.37.08-6.09-.31,2.1-.66,4.53-.08,6.09ZM52.88,29.11c.76-.54.69-1.62.7-2.89.01-1.12-.01-2.19,0-3.12-.24,0-.3-.17-.47-.24-.24,1.89-.34,4.15-.23,6.24ZM42.81,24.35c-.04-.59.29-1.16-.16-1.41.11.58-.25,1.21.16,1.41ZM38.44,24.74c.13-.49-.09-1.25-.23-1.72.07.58-.18,1.48.23,1.72ZM44.22,25.21c-.08-.84.17-1.52-.39-1.87-.19.66-.08,1.62.39,1.87ZM57.09,28.1c.07-1.58.44-3.27.08-4.68-.06,1.65-.38,3.26-.08,4.68ZM54.83,29.11c-.06.17-.37.26-.16.47.48-.19.21-.92.23-1.48.05-1.29.12-2.71.24-3.67-.26-.18-.49-.39-.62-.7.07,1.9-.62,4.41.31,5.39ZM56.08,25.76c.03-.17.18-.42-.08-.47-.06.2-.12.36.08.47ZM41.64,26.31c-.01,1.38.71,2.66,1.4,3.59.25-.03.42-.15.7-.16.1-1.15-.21-2.4-.47-3.43-.53-.2-1.02-.12-1.64,0ZM55.85,28.65c.32-.18.31-1.14.08-1.41-.11.38-.08.91-.08,1.41ZM45.78,27.71c0,1.55-.05,3.15-.08,4.84-.01.7-.04,1.53.39,1.95.27-.63.19-1.73.16-2.58-.06-1.47-.23-3.05-.23-4.37-.1,0-.11-.1-.23-.08v.23ZM46.95,28.26c.24,1.81-.03,3.74.16,5.39.02.21-.02.71.31.78.4-1.93.02-4.26.16-6.17-.16-.1-.37-.15-.55-.23,0,.1-.1.11-.08.23ZM48.66,29.04c-.08.1-.13.24-.23.31.16,1.7-.16,3.23.16,5.07.11-.18.27-.3.39-.47-.07-1.8.02-3.4-.08-4.92h-.23ZM41.48,30.6c.3.01.37-.2.62-.23-.07-.32-.28-.5-.62-.55-.15.17-.07.59,0,.78ZM38.28,29.9c-1.27.34-2.17,1.06-3.04,1.79.29-.03.46.06.47.31-1.07,1.12-2.48,1.89-3.59,2.97,2.08.64,2.94-1.26,4.06-2.11,1.09-.29,1.63-1.13,2.65-1.48-.12-.56-.42-.94-.55-1.48ZM55.14,30.29c-.03.82-.54,2.23.08,2.73.67-.24.81-2.11.7-3.12-.09.41-.33.51-.78.39ZM50.15,34.19c-.11-1.27.53-3.22-.08-3.98h-.16c-.07,1.16-.3,3.16.23,3.98ZM57.02,31.07c.08-.2.19-.38.16-.7-.1,0-.11-.1-.23-.08-.08.26-.14.57.08.78ZM53.97,34.19c-.18-.93.35-2.37.08-3.59h-.23c-.03,1.25-.53,2.67.16,3.59ZM52.33,30.68c-.48,1.37.2,3.55-.39,4.45.31-.11.57-.27.86-.39-.27-1.5.04-2.81.08-4.06h-.55ZM40.55,31.93c.21-.27-.01-.62-.08-.86-.18-.02-.29-.12-.55-.08.2.32.19.85.62.94ZM51.24,32c.09-.1.16-.61,0-.7,0,.25-.32.61,0,.7ZM39.14,32c-1.5.48-2.12,1.83-3.59,2.34.02.31-.28.29-.23.62,1.93-.17,3.35-.86,4.45-1.87-.15-.43-.43-.71-.62-1.09ZM44.29,33.33c-.05-.26.1-.72-.08-.86-.03.24-.19.69.08.86ZM44.29,34.66c-.03-.27.21-.92-.08-1.17-.09.23-.2,1.06.08,1.17ZM40.55,34.19c-1.8,1.09-3.59,2.19-6.48,2.19-.07,1.43-.05,2.52-1.09,2.89-.29.1-.67-.04-1.02.08-.33.11-.95.83-1.17,1.17-.4.63-.57,1.42-.94,2.03-.32,2.79.79,5.08,2.34,6.63,1.71,1.25,4.2,3.16,3.98,6.09-.11,1.43-1.09,2.07-1.48,3.2,3.38-.03,7.95-3,5-5.78-2.04-1.92-7.05-2.87-6.16-7.18.39-1.11,1.16-1.86,1.72-2.81,1.67-1.61,4.15-2.4,6.24-3.59-.27-.82-.87-1.32-1.17-2.11.13-.89,1.18-.85,1.56-1.48-.2-.68-.79-.98-1.33-1.33ZM49.99,35.67c.24-.02.44-.08.62-.16-.17-.24-.28-.55-.55-.7.04.35-.04.59-.08.86ZM51.16,35.36c.29-.02.54-.09.62-.31-.21,0-.45.03-.55-.08-.06.09-.1.21-.08.39ZM27.04,35.2c-.29,2.8-1.39,4.8-2.65,6.63.24.85.66,1.16.7,1.87.06.91-.43.97-.55,1.56-.15.79.33,1.58.23,2.5.61,1.08,1.77,1.59,2.81,2.19.27.16.51.44.78.62.83.57,1.54.91,2.26,1.56,1.46,1.32,2.68,3.21,2.73,5.85,1.46-.89,2.21-3.5,1.09-5.23-1.77-2.05-4.49-3.55-5.46-6.56-.62-1.93-.27-4.17.39-5.78.63-.33.96-.96,1.33-1.56-.36-.17-.65.07-.94-.16-.37-1.06.62-1.52.55-2.73-1.31-.05-2.01-.69-3.28-.78ZM46.32,36.37c.29-.09.22-1.08-.08-1.09.15.41-.28.98.08,1.09ZM48.9,35.83c.05.15.35.25.39,0-.12-.09-.33-.27-.39,0ZM31.18,37.78c1.08.65,2.14,0,1.87-1.41-1.08-.31-2.04-.09-1.87,1.41ZM42.58,36.61c-.78.13-.92,1.23-.08,1.33.53.06.86-.65,1.48-.47.79.23.34,1.32.78,2.03.69-.35,1.2-.88,1.09-2.03-.37-.06-.5.12-.86.08-.17-.38-1.82-1.04-2.42-.94ZM22.28,43.63c.52.16.58.77,1.09.94.54-.27.42-1.29.23-1.87-.55.2-1,.51-1.33.94Z"/><path class="cls-1" d="M35.16,21.39c.16.35-.33.64-.7.7-1.38,1.09-3.1,1.84-4.45,2.97-.06.24.13.23.08.47-1.22,1.07-2.74,1.83-3.98,2.89-.95.37-1.58,1.07-2.73,1.25-.11-.26-.18-.54-.16-.94,2.19-.75,3.85-2.03,5.78-3.04-.26-.13-.67-.11-.7-.47.15-.49.65-.51,1.02-.7,1.73-.91,3.38-2.15,5.15-3.04-.02-.13.07-.13.08-.23.27,0,.55-.02.63.16Z"/></g></svg>