<?xml version="1.0" encoding="UTF-8"?><svg id="Layer_2" xmlns="http://www.w3.org/2000/svg" viewBox="0 0 48.26 64"><defs><style>.cls-1{fill:#5f5c5d;fill-rule:evenodd;}</style></defs><g id="Layer_1-2"><path class="cls-1" d="M35.31,7.92c-.3.45-.43,1.07-1.17,1.07-.64-.9.7-2.32,1.17-1.07Z"/><path class="cls-1" d="M26.64,9.74h-.54c-.33-.82-.23-1.87.54-2.14.79.27.09,1.49,0,2.14Z"/><path class="cls-1" d="M29.64,8.46c.09.09.06.29.22.32-.19.56-.2,1.3-.96,1.28-.12-.64-.35-1.74.75-1.61Z"/><path class="cls-1" d="M38.09,40.99c-.25,2.53-3.04,3.09-5.56,3-1.19.74-.7,6.57-2.78,4.07.45-3.46,1.77-7.32,1.5-10.49,2.92-.33,5.11,1.87,6.85,3.42ZM33.17,39.49c-.58.78-.49,2.22-.64,3.42,1.53-.08,2.45-.76,3.53-1.28-.56-1.11-1.75-1.6-2.89-2.14Z"/><path class="cls-1" d="M23.33,38.31c.51,1.46.78,3.14,1.18,4.39.28.87,1.02,2.14,1.18,3.32.14,1.06-.26,3-1.5,2.14-.1-.84-.28-2.18-.86-3.1-1.42,0-3.08.15-4.39-.21-1.2.87-.41,3.73-2.46,3.75-.89-1.79,1.04-4.46,2.03-6.21.96-1.69,1.5-3.44,2.78-4.28.74.14,1.32-.24,2.03.21ZM21.94,40.24c-1.19.45-1.64,1.64-2.03,2.89.88.16,2.16.47,3,.32-.13-1.26-.54-2.24-.96-3.21Z"/><path class="cls-1" d="M14.12,41.63c.01,1.8-1.41,2.16-2.46,2.89.74.93,3.46,1.72,2.14,4.07-.94,1.68-4.29.97-6.64,1.18-.71-.4-1.18-1.03-1.5-1.82.42-1.78.46-3.65.75-5.24.36-1.99-.47-4.94,2.35-4.17,1.81.5,4.27,2.05,5.35,3.1ZM8.45,40.35c-.32.93-.44,2.06-.54,3.21,1.48.05,3.35-.23,4.17-1.18-.71-1.18-2.08-1.7-3.64-2.03ZM7.81,45.7c-.34.72.01,1.69,0,2.67,1.6-.03,3.53.22,4.49-.86-.23-1.28-3.58-2.64-4.49-1.82Z"/><path class="cls-1" d="M35.2,44.09c.74.77,1.11,1.98,1.71,3,.52.88,1.74,1.9.86,3.1-1.42.08-2.16-1.52-2.89-2.89-.49-.91-1.17-2.06-.86-3,.3-.16.67-.26,1.18-.21Z"/><path class="cls-1" d="M44.83,6.96c-.33,2.76,2.77,2.93,3.1,4.81.15.84-.66,1.95-1.07,2.78-.44.9-.58,1.89-1.07,2.78-.95.33-1.92.65-2.67,1.18-.46,4.64-.72,9.56-1.61,14.55,1.41.37,2.26-.17,3.53.53,1.24.93,1.96,2.39,3.21,3.32-.83,6.06-.77,10.61-1.28,16.27-1.39,1.91-3.95,2.1-6.74,2.25-.8,1.91-.54,4.88-3.64,4.49-.44,1.08-.29,2.26-.54,3.1-1.44.08-3.06-.06-5.24.11-3.12.24-6.76.76-10.06.86-1.44.04-2.88-.27-4.06-.21-1.17.06-2.18.33-2.68-.96.15-.91-.24-2.35-.64-3.32-1.15-.41-2.36.07-2.89-.86-.48-.83.13-2.07-.54-3-2.52-.43-4.8.5-6.53.11-.36-.08-.66-.45-1.07-.75-.86-.63-1.29-1.02-2.03-1.82-.1-.37-.04-.88-.32-1.07.59-4.17-.34-11.12.43-16.37.07-.49.39-1.01.54-1.5,2.56-.3,4.69.13,7.81,0-.64-2.85-.46-5.82-.64-8.77-.19-2.98-.16-6.02-.21-9.31-.53-.57-1.27-.66-1.71-1.18-2.59-3.03-.21-8.62,2.46-10.38.29-.19.75-.21,1.07-.43.74-.49,1.21-1.33,1.82-1.6,1.43-.66,3.55.1,5.24,0,1.94-.12,3.6-1.69,4.92-1.93,3.08-.54,5.15,1.32,7.17,2.03C30.52,1.99,31.44.14,33.39,0c2.16-.14,5.13,2.36,5.78,4.39,1.56,1.18,4.04,1.46,5.67,2.57ZM38.2,6.32c-.88-.52-.9-1.53-1.39-2.46-.44-.85-1.34-1.21-2.03-1.71-2.84-.37-4.23,1.32-5.35,3-.92.21-1-.38-1.39-.64-1.43-.96-3.77-1.74-5.35-2.03-.46.35-.94.18-1.39.32-1.16.36-2.29,1.32-3.32,1.6-.92.26-1.81-.14-2.89-.11-2.25.06-3.67.34-4.82,1.82h-.86c-1.1,1.11-2.04,2.38-2.46,4.17,1.14-.79,1.96-2.46,3.53-2.46-.02.2.12.24.11.43-.79,1.07-5.24,2.91-3.1,4.92.72-1.2,1.44-2.41,2.57-3.21.57-.02.96-.94,1.39-.43.03.74-.62.81-1.07,1.07-.72,1.14-2.44,1.83-2.25,3.53,1.2-.33,1.9-1.17,3-1.61.5-1.03.99-2.08,2.14-2.46.08,1.25-.94,1.42-1.18,2.35.4.25.78.51,1.39.54.58-.49.66-1.48,1.39-1.82.24,1-.68,1.73-.64,2.89.6.47.94,1.2,1.93,1.28.3-.86.19-2.53,1.29-2.89.39.68-.23,1.62-.11,2.68.43.22.83-.05,1.18-.21,0-.65.15-1.13.22-1.71.35,0,.41-.3.86-.21.02.15.18.18.21.32-.13.33-.25.68-.21,1.18.61,0,1.03-.18,1.5-.32.15-.58.17-1.18.11-1.71.3-.16.7-.29,1.07-.11.05.62-.08,1.52,0,1.82.74-.03,1.04.38,1.82.32.15-.67.47-1.17,1.18-1.28.02.15.18.18.21.32-.01.77-.63.94-.75,1.61.22.39.48.73.75,1.07.28-.75.96-1.84,1.71-.96-.34,1.03-2.33,1.82-.96,3,.43-.43.55-1.17,1.5-1.07.23,1.19-2.08,2.9-.53,4.07.18-.46.31-.97.86-1.07.83.58-.1,1.77.32,2.35.72-.08.96-1.01,1.07-1.61.3-1.64-.02-3.59,1.39-4.28.36-1.31.44-2.91,1.39-3.64.4-.05.49.23.64.43-.25.75-.82,1.18-.86,2.14.26.2.86.07,1.28.11.35-.83.37-1.98,1.18-2.35,1.03.71-.24,1.76-.21,2.78.32.22.76.31,1.18.43-.04-1.36.21-2.43,1.18-2.78.67,1.33-.56,2.29-.64,3.53.66.11,1.71-.27,2.14-.75-.25-.83.04-2.03.86-2.14.63.38.14,1.38,0,1.93,1.12.16,1.36,1.33,2.36,1.28,1-.04,1.51-1.92,2.89-1.5.87-.94.76-2.88,1.5-3.96-.5-1.76-3.49-2.01-2.89-4.17-1.66-1.26-3.26-.8-4.6-1.6ZM22.9,15.95c-3.04-.52-4.32,1.49-7.28,1.39-1.21-.86-2.45-1.68-3.32-2.89-1.21-.38-1.97.31-2.68.75.3,5.83.44,12.67.96,18.94,1.27-.03,3.16.2,4.49-.21.01-.33-.13-.51-.21-.75-.99.04-2.32.76-2.36-.32-.02-.75.89-.8,1.93-.64.2-.3.52-.48.54-.96-.57-.25-1.74.1-1.82-.64,0-1.28,1.52-.19,1.82-.86-.2-.62-1.41-.29-1.82-.43-.08-.41-.08-.89.32-1.07.39-.11,1.24.24,1.28-.21-.21-.83-1.81.11-1.82-1.07.14-.88,1.52,0,1.71-.43.35-.89-1.53-.47-1.82-1.07-.18-1.36,1.24-.41,1.6-.86-.29-.63-1.52.32-1.71-.43-.05-.51.12-.81.43-.96.44-.01.67.19,1.18.11.05-1.41-1.89.16-2.14-.86.08-.27.11-.61.32-.75.47-.4,1.42.34,1.71-.21-.72-.69-2.12.02-2.14-1.18-.02-1.28,2.29-.75,3.64-.86.65.96.24,2.14.32,3.21.2,2.56,1.01,5.78.96,8.67.2.26.41.52.54.86-.35.45-.11.93-.32,1.61,1.91.29,4.74-.21,6.21-.75-.02-.34.07-.79-.11-.96-1.05.07-2.53.36-2.78-.64.2-.37.49-.66.86-.86-.23-.09-.38-.26-.32-.64.14-.97,1.6-.12,2.03-.64-.32-.46-1.5-.07-1.82-.54.09-.3-.15-.28-.11-.54.15-.62,1.12-.41,1.71-.32.12-.2.14-.51.22-.75-.54-.53-2.4.26-2.14-1.07.27-.7,1.64-.28,2.03-.32.08-.33-.11-.39-.11-.64-.44-.24-1.99.38-2.25-.32.06-1.28,1.62-.46,2.25-.86-.02-1.51-1.66-.58-2.57-.86-.05-.55.08-.92.43-1.07.7-.1,1.14.16,1.93.11-.75-.72-3.7-.44-2.46-2.14,1.39-.27,3.02.11,4.28.32-.32-1.67-.5-3.5-1.61-4.39ZM34.03,17.88c-2.45-1.51-3.09,1.7-3,4.07-.68,1.03-1.06,2.37-2.46,2.68-1.92-.61-2.97-2.1-3.96-3.64.23,3.73.07,8.47,1.07,12.41,2.8-.16,5.38-.1,8.03-.54-.09-.31-.09-.33,0-.64-.77.34-2.94.1-1.6-1.07.78-.1,1.81.74,1.71-.54-1.14.06-2.22,0-2.14-.75.13-1.17,1.7.18,2.25-.64-.45-.53-1.21-.14-2.03-.21-1.05-1.85,1.63-.79,2.14-1.39-.76-.23-3.09-.27-1.82-1.5.81-.06,1.18.31,1.93.32-.07-1.13-3.65-.09-2.03-1.93.96-.27,1.55.67,2.14.11-.25-1.07-2.19-.45-2.68-1.28-.02-.4.5-1.17,1.18-.86-.68-.48-.78-1.45,0-1.93,1.35.1,2.11.16,3.42.32.16,3.61-.69,8.05-.32,11.98,1.01.28,2.62-.05,3.64.21.94-4.58,1.17-8.63,1.5-13.7-.83-.35-1.51-.84-2.25-1.28-1.24.57-4.15,1.89-4.71-.21ZM34.35,23.12v-.54c-.28.04-1.15-.28-1.5-.11.41.3.89.54,1.5.64ZM21.83,30.82c.36.16,1.25.44,1.39-.11-.35-.22-1.13-.1-1.39.11ZM43.66,43.24c.03-2.63-.06-5.44-.96-7.7-1.4-.41-3.13-.48-4.71-.54-1.61-.06-3.27-.08-4.92,0-10.37.49-20.1,1.55-31.03,1.07-.28,5-.36,10.74-.11,15.94,6.2.82,13.47.43,20.55.43,7.22,0,14.36.14,20.44-.86.5-2.7.71-5.65.75-8.35ZM12.09,55.86c-.37,2.05,1.71,1.65,2.89,2.14,1.1-.24,2.22.17,3.42.21,2.04.07,4.23-.14,6.42,0,1.11.07,2.12-.02,3.21,0,3.25.05,6.99.18,9.63-.96.15-.55.57-1.32.43-1.82-8.9.05-17.71.06-26,.43ZM15.52,60.04c.16.27-.07.93.32.96.26-.35.46-.76.64-1.18-.45-.05-.72.06-.96.21ZM16.37,61.86c.32.03.38.33.86.21.68-.47.93-1.35,1.5-1.93-1.43-.38-1.95.75-2.36,1.71ZM20.97,62.18c1.52.4,2.49-1.12,2.67-2.03-1.51-.24-2.06,1.05-2.67,2.03ZM29.1,61.43c.92.26,1.83-.37,1.93-1.28-1.31-.48-1.64.45-1.93,1.28ZM32.32,60.14c-.03.44-.4.53-.32,1.07.96,0,1.74-.18,1.82-1.07-.54-.18-.88,0-1.5,0ZM18.4,62.18c1.51.46,2-.99,2.57-1.82-1.44-.69-1.85,1.11-2.57,1.82ZM26.22,61.75c.58.08.87-.13,1.39-.11.16-.55.6-.82.75-1.39-1.11-.32-1.57.92-2.14,1.5ZM23.97,61.96c1.2.03,1.46-.89,1.93-1.61-1.24-.45-1.54.86-1.93,1.61Z"/></g></svg>