<?xml version="1.0" encoding="UTF-8"?><svg xmlns="http://www.w3.org/2000/svg" viewBox="0 0 64 63.77"><defs><style>.cls-1{isolation:isolate;}.cls-2{mix-blend-mode:multiply;}.cls-3{fill:#5f5c5d;fill-rule:evenodd;}</style></defs><g class="cls-1"><g id="Layer_2"><g id="Layer_1-2"><g class="cls-2"><path class="cls-3" d="M35.06,4.54c.15.45.51,1.09.26,1.66-1.09.33-1.54-1.9-.26-1.66Z"/><path class="cls-3" d="M32.18,7.5c.21.84-.36,1.61-.61,2.27-.3.04-.49-.03-.7-.09,0-1.17.43-1.9,1.31-2.18Z"/><path class="cls-3" d="M30,12.56c-.3,1.13-.87,1.98-1.22,3.05-.38,0-.54-.22-.79-.35.12-1.25.79-1.95,1.31-2.79.37-.1.36,0,.7.09Z"/><path class="cls-3" d="M39.33,21.81c-.06.27.09.32.09.52-1.34.32-2.45-.34-3.32-.78-.5-.09-.27.54-.78.44-.68-.16-.9-.79-1.05-1.48-.32-.5-1.15-.48-1.4-1.05.37-1.31,1.76.01,2.62.61,1.19.83,2.09,1.52,3.83,1.74Z"/><path class="cls-3" d="M26.69,19.19c-.43.85-.78,2.89-1.92,2.18.29-1.01.78-2.59,1.92-2.18Z"/><path class="cls-3" d="M29.83,23.55c.23.85-.85.99-1.05.44-.06-.67.69-.89,1.05-.44Z"/><path class="cls-3" d="M7.68,24.77c-.25.74-2.04,1.24-2.53.44.04-.95,2.06-.96,2.53-.44Z"/><path class="cls-3" d="M44.57,26.34c-.75-.13-2.72.16-2.88-.7-.24-1.31,1.79-.42,2.62-.26.13.28.33.48.26.96Z"/><path class="cls-3" d="M11.95,25.47c.07.22.11.47.09.79-.69.43-2.09.16-2.53-.44.12-1.2,1.54-.19,2.44-.35Z"/><path class="cls-3" d="M22.24,26.52c-.45.17-.8.19-1.22,0-.25-.93,1.33-1.22,1.22,0Z"/><path class="cls-3" d="M34.54,25.82c-.05.31-.15.58,0,.87-.4.38-.81.17-1.22-.09-.19-.82.65-1.01,1.22-.79Z"/><path class="cls-3" d="M17.18,26.69c-.34.85-1.72.4-2.01-.26.21-1.1,1.65-.26,2.01.26Z"/><path class="cls-3" d="M50.15,26.78v.44c-1.03.24-2.36.04-2.88-.52.14-1.6,2.16-.14,2.88.09Z"/><path class="cls-3" d="M54.16,27.13c-.1.36.18.34.17.61-.88.22-2.16.3-2.96-.09-.34-1.55,1.8-.45,2.79-.52Z"/><path class="cls-3" d="M57.39,29.13c-.41-.34-.82-.69-1.22-1.05.16-1.65,2.64.28,1.22,1.05Z"/><path class="cls-3" d="M19.01,29.39c-.19.29-.59.58-1.05.35-.55-1.09,1.02-1.41,1.05-.35Z"/><path class="cls-3" d="M26.51,29.48c.34.07.68.13.78.44-.02.36-.25.51-.26.87h-.61c-.39-.51-.12-.82.09-1.31Z"/><path class="cls-3" d="M49.98,30c.08.24.21.43.26.7-.68.22-1.4.41-2.18.09.12-.26-.04-.31,0-.7.44-.52,1.07.08,1.92-.09Z"/><path class="cls-3" d="M14.13,30.7c-.28.73-.74,2.25-.09,3.23-.76.87.13,2.9-.44,3.84-.88-.49-.37-2.25-.61-3.4-.1-.37-.56-.37-.53-.87.02-.36.46-.3.53-.61-.18-.54.13-.84-.09-1.4-.21-.51-1.02-.71-.87-1.22.24-.85,1.73-.14,2.09.44Z"/><path class="cls-3" d="M43.26,30.96c.04.3-.04.49-.09.7-.91-.18-1.63,0-2.35-.35-.26-1.54,1.67-.52,2.44-.35Z"/><path class="cls-3" d="M33.4,30.7c.26.34-.05.73-.09,1.05-.33-.02-.62-.08-.87-.17-.04-.39.02-.67.18-.87.36.09.59-.18.78,0Z"/><path class="cls-3" d="M16.14,31.84c.29.76.3,1.38.35,2.27.02.32.66.04.7.35-.02.1.02.16.09.17-.14.44-.52.64-.78.96-.02.31.02.56.17.7-.09.2-.43.15-.52.35-.56-1.16-.44-2.99-.61-4.54.14-.15.26-.32.61-.26Z"/><path class="cls-3" d="M23.02,34.45c.07.59-.27.77-.7.87-.08-.12-.23-.17-.35-.26-.15-.83.67-1.02,1.05-.61Z"/><path class="cls-3" d="M45.26,35.59v.52c-.43.36-1.01.23-1.48,0-.19-.82,1.09-.84,1.48-.52Z"/><path class="cls-3" d="M41.69,36.2c-.05.18-.21.25-.17.52h-.79c-.13-.19-.26-.38-.26-.7.4-.31,1-.31,1.22.17Z"/><path class="cls-3" d="M30.18,36.98c.1.27.29.46.35.79-.29.23-.79.25-1.14.44-.25-.03-.17-.41-.35-.52.23-.38.42-.8,1.13-.7Z"/><path class="cls-3" d="M23.29,37.68c.16.55-.15.74-.44,1.05-1.25-.07-.69-1.54.44-1.05Z"/><path class="cls-3" d="M35.76,38.12c.06.32.33.42.26.87-.1.19-.3.28-.52.35-.41-.26-.75-.59-.79-1.22.26-.2.75-.04,1.05,0Z"/><path class="cls-3" d="M13.96,39.86c-.3.45-.27,1.24-.52,1.74-.41.06-.57-.12-.79-.26-.04-.93.52-2.47,1.31-1.48Z"/><path class="cls-3" d="M27.56,45.01c-.65-.11-.8-1.27-.87-1.92-.08-.72.06-1.5.26-1.92.14,0,.33.04.35-.09.43.83.4,2.79.26,3.93Z"/><path class="cls-3" d="M43.43,41.17c.92-.13.69.88,1.22,1.13-.29.2-.35.64-.96.52-.16-.54-.79-1.19-.26-1.66Z"/><path class="cls-3" d="M24.51,41.43c.64.88.91,2.57.87,3.84-.28.02-.37-.15-.7-.09-.16-1.04-.81-2.38-.7-3.66.27.06.32-.09.52-.09Z"/><path class="cls-3" d="M36.46,41.87c-.04.9-1.67.96-2.18.61-.06-.41.12-.57.26-.78.82.07,1.45-.2,1.92.17Z"/><path class="cls-3" d="M40.73,43.26c.24.71.45,1.36.18,2.18-1.06.09-1.74-2.94-.18-2.18Z"/><path class="cls-3" d="M12.3,44.31c-.1.49-.37.79-.61,1.13-.2-.06-.44-.08-.61-.17-.15-.83.61-1.44,1.22-.96Z"/><path class="cls-3" d="M18.23,44.31c.2.3.06.89-.09,1.13-.21-.2-.53-.28-.87-.35-.04-.59.53-.95.96-.78Z"/><path class="cls-3" d="M45.18,46.75c0,.52-.66.39-1.05.52-.12-.56-.7-.69-.44-1.4.79-.51,1.04.51,1.48.87Z"/><path class="cls-3" d="M15.96,46.4c.15.98-.66,1.57-1.4,1.13-.2-.74.9-1.35,1.4-1.13Z"/><path class="cls-3" d="M42.04,49.02c-1.14.06-1.61-1.91-.61-1.83.51.04,1.11,1.38.61,1.83Z"/><path class="cls-3" d="M10.12,47.8c-.2.53-.3,1.16-.87,1.31-1.03-.44.24-2.59.87-1.31Z"/><path class="cls-3" d="M13.52,49.28c.41.96-1.54,2.19-1.83.87.49-.55,1.01-.6,1.83-.87Z"/><path class="cls-3" d="M38.64,49.89c.4,1.2.09,3,.09,4.88.3.02,1,0,1.22.35.4-.56-.18-2.1.96-1.92.3,1.16-.29,2.72.44,3.84-.35.66-.36,1.08-.26,1.92-.13.13-.45.08-.7.09-.06-1.1-.32-1.86-.26-2.88-.36-.36-1.22-.24-1.4-.78-.24.42-.45.45-.87.17-.08-1.29.47-2.23.17-3.31-.2-.74-1.4-1.05-1.22-2.01.18-.03.17-.24.35-.26.45-.13.37.27.61.35.24-.19.3-.57.87-.44Z"/><path class="cls-3" d="M46.22,52.25c-.1-.01-.16.02-.17.09-.82-.11-.86-1-1.05-1.74.83-.95,1.58.65,1.22,1.66Z"/><path class="cls-3" d="M7.24,51.98c-.03.78-.18,1.44-1.14,1.31-.33-1,.41-1.74,1.14-1.31Z"/><path class="cls-3" d="M42.91,54.16c-1.01.26-1.3-.89-1.48-1.74.93-.41,1.62.81,1.48,1.74Z"/><path class="cls-3" d="M46.14,54.95c.61-.4,1.28.13,1.22.61-.12.87-1.54.49-1.22-.61Z"/><path class="cls-3" d="M42.91,55.65c.34,1.32.17,2.99.26,4.27.03.47.42,1.05-.17,1.31-.71-.76-.79-2.78-.87-4.1-.04-.61.04-1.08.26-1.57.22-.01.42-.01.52.09Z"/><path class="cls-3" d="M44.66,57.65c-.06.42-.65.53-1.05.35-.04-.31-.2-.5-.17-.87.46-.54,1.02.06,1.22.52Z"/><path class="cls-3" d="M45.61,58.35c-.16,1.59,1.48,2.55.87,3.75-1.1-.52-1.8-2.3-1.4-3.75h.52Z"/><path class="cls-3" d="M38.55,5.76c.02.34-.48.16-.44.52.17,1.28.45,2.46.61,3.75.52.17,1.49,1.15.26,1.31.24,1.36-.02,2.68.96,3.31.05.4-.39.3-.35.7.14,1.58.72,2.71,1.22,3.92,4.2,4.1,16,1.51,20.23,5.84.67.29,1.19.73,1.74,1.13.71,1.69,1.56,3.14,1.05,5.32-.1.42-.43.69-.52,1.05-.06.25.02.51-.09.78-.79,1.94-3.54,2.31-6.02,3.23-1.62.6-3.29,1.55-5.06,2.01-2.14.55-5.18.69-5.32,3.31-.06,1.01.3,2.3.61,3.23.46,1.37,1.31,2.7,1.83,4.19.8,2.3,1.48,4.92,1.75,7.85.21,2.39-.89,4.37-2.62,5.49-.57.37-1.46.98-2.09,1.05-.53.06-2.21-.24-2.88-.44-1.02-.3-2.32-.7-2.96-1.13-2.02-1.35-3.01-3.96-4.8-5.76-.63-1.43-1.39-3.35-2.36-4.62-.55-.72-1.18-1.51-2-1.66-.09-.23-.21-.43-.18-.79-.76-.62-2.04-1.31-3.23-1.92-.99-.51-1.48-.67-2.44.09-.21.23.1.49-.17.7-2.58,2.73-6.83,5.57-10.03,8.29-.55.47-1.16.88-1.75,1.31-1.36,1-2.3,1.66-4.18,2.44-1.35.56-2.4,1.3-4.19,1.13-.92-.09-1.47-.58-2.36-.78-1.69-1.13-.6-3.37-.44-5.32.16-1.88.04-3.29.7-4.62.19-.38.56-.73.78-1.13,1.11-2,2.36-3.74,3.75-5.58,1.7-2.27,3.27-5.09,1.74-9.07-3.59-2.31-8.05-3.75-9.33-8.37.08-1.68.19-4.8,1.74-5.15.65-.15,1.5.18,2.18.17,1.05-.01,2.21-.18,3.05-.09,1.56.17,3.05.67,4.62.79,1.37.1,2.67-.06,4.1-.17,2.21-.18,3.68-.38,4.97-1.57.78-.72,1.48-1.91,2.09-2.97.61-1.06,1.25-2.2,1.74-3.23,1.07-2.23,1.49-4.86,3.14-6.89.72-2.16,2.01-3.75,3.23-5.41.83-.36,1.3-1.2,2.09-1.57.36-.17,1.07-.41,1.57-.44,3.18-.14,2.47,4.08,4.01,5.76ZM32.27,2.62c-1.18,1.02-2.08,2.69-2.88,4.19-2,3.73-3.38,8.02-5.49,11.51-.44.73-.8,1.58-1.22,2.09-3.79,4.62-11.46,2.98-17.96,2.36-1.73-.17-2.58.61-3.4,1.66.1,2.66,1.71,3.81,3.31,4.97.27-.38.36-1.36.18-1.92-.69-.13-1.12-1.1-.26-1.39.6.3,1.44.36,1.66,1.05-.66.53-.6,1.78-.78,2.79,1,.34,1.75.92,2.7,1.31.23-1.31-.37-1.78-.7-2.53.35-.38.5-.96,1.22-.96-.34,1.05,1.02,1.34.96,1.92-.05.47-.52.27-.79.7-.32,1.69.46,1.84.96,2.62.24.37.04.74.52.87.31-1.27-.95-3.95.44-4.19.56,1.99-.15,4.09.44,5.84.19.57.78.99.87,1.57.19,1.13-.78,2.85-1.13,3.58-1.24,2.53-2.57,5.39-4.1,7.5-.03.21-.14.33-.09.61-.69.96-1.63,2.53-2.09,3.66-.98,2.38-1.16,5.23,1.22,6.02-.25-1-1.28-1.98-1.48-3.31.13-.22.3-.4.61-.44.79,1.25,1.1,2.97,2.36,3.75.52-.13,1.5-.14,2.09-.44-.25-.51-.51-1-1.05-1.22-.34.13-.73.2-1.22.17-.18-.31-.15-.44-.09-.87.29-.06.56-.14.87-.17-.09-.45-.94-1.28-.26-1.66,1.09.54,1.79,2.22,2.62,3.31.58-.32,1.27-.53,1.57-1.13-.88-.89-1.67-1.88-2.01-3.31.85-.24,1.21.66,1.57,1.22.4.61.6,1.42,1.31,1.66.52-.38,1.02-.78,1.48-1.22-.31-.85-.8-1.52-1.83-1.66.17-.77.3-1.07,0-1.83.16-.07.32-.15.52-.17.28.42.63.77,1.05,1.05.01.89.7,1.1.87,1.83.91-.3,1.3-1.14,2.01-1.66-.29-.61-.63-1.39-1.05-2.09-.33-.56-1.25-1.4-.44-2.01.46-.06.26.55.7.52.67-.05,1.2-1.08,1.92-.52-.36.59-.82,1.1-1.48,1.4.33.66.46,1.52,1.13,1.83,2.45-1.13.2-3.71-.09-5.76.16-.1.41-.11.61-.18.98,1.02.91,2.89,1.66,3.75.62-.6,1.46-.99,1.92-1.74-.27-.54-.34-1.29-.61-1.83-.23-.18-.71-.11-.87-.35.25-.77.37-1.51.35-2.36.76-.37.84.66.96,1.22.54.71.61,1.89.96,2.79,1-.13,1.91-.93,3.05-1.13,2.16-.38,4.05-.31,5.5,1.05.27-.98-.11-2.22.26-2.96.11-.12.38-.09.61-.09.28,2.17-.74,4.78,1.39,5.84.09-.76.26-1.7.26-2.7,0-.6-.43-1.61.26-1.92,1.08.53.42,1.89.35,2.88-.08,1.05.04,2.16-.17,3.05.51.57,1.07,1.08,1.57,1.66.06-1.94.16-3.6-.17-5.41.05-.21.34-.19.26-.52-.21-.43-.73-.54-.61-1.31,1.07-.38,1.7.9,2.01,1.83-.21.17-.61.15-.78.35.32,2.01.35,3.74-.26,5.76,2.54,2.69,3.29,7.18,7.41,8.29.67.32,1.36.72,2.09.78,5.7.51,3.43-8.35,2.62-11.6-.9-3.61-3.47-7.95-2-11.51.31-.04.48-.22.7-.35.06-1.27-.22-2.47-.44-3.66-.13-.71-.64-1.65.18-1.92.42.13.61.56.44,1.05.58,1.02.43,2.25.7,3.58.69-.04.82-.63,1.48-.7.1-.88-.33-1.24-.26-2.09-.12-.29-.68-.14-.7-.52,0-.47.27-1.07,0-1.75.24-.07.36-.28.7-.26.36.4.45,1.06,1.13,1.13-.61.76,0,2.14.17,3.14.2-.06.45-.08.61-.17.05-1.46-.7-2.8-.7-4.27.24-.05.22-.36.52-.35.77.93.84,3.08,1.13,4.45.34-.03.84.08,1.05-.09-.09-1.71-.4-3.21-.7-4.71.22-.39.72-.5,1.4-.44.76-.26,1.32-.72,2.18-.87.53,1.57.46,3.32.7,5.06.38.03,1-.3,1.4-.52-.29-1.48-.55-2.77-.44-4.1.04-.42-.19-1.08.61-.96.18,1.71.33,2.81.7,4.45.65-.53,1.8-.53,2.01-1.4.2-.86-.58-2.08-.35-3.14.19-.1.36-.22.7-.17.25.84.33,2.06.44,2.79.44-.17.74-.48.96-.87-.46-1.97-.49-3.68-1.48-4.97-.88-1.15-2.9-1.38-4.71-1.74-1.94-.39-3.95-.64-5.58-.87-5.06-.73-11.2-.34-12.3-4.62-1.84-.86-4.25-1.15-5.15-2.97.46-.6,1.13-.06,1.75-.61.43.21.23,1.05.52,1.4.9.32,1.59.85,2.62,1.05-.06-.9-.37-1.55-.44-2.44-1.92-.96-4.36-1.39-5.76-2.88.1-.13.11-.36.26-.44,1.66.38,3.36,1.93,5.23,2.09.12-.56-.54-.76-.87-.96-1.2-.72-2.45-1.44-3.23-2.53.58-.34,1.18-.2,1.74-.61.02.1.14.1.26.09.15,1.27.6,2.03,1.92,2.27-.26-.85-.24-1.98-.44-2.88-.87-.94-2.86-1.2-2.88-2.7,1.25.12,1.64,1.09,2.7,1.4-.17-1.33.15-3.09-.44-4.19-.37-.69-1.2-.83-1.57-1.4.03-.32-.01-.57-.09-.78-.8-.29-1.8-.14-2.27.26ZM7.59,32.45c-.52-.67-1.37-1.01-2.27-1.31.44.75,1.45.93,2.27,1.31ZM53.29,32.1c.04,1.45.5,2.6.44,4.36.75-.03,1.24-.33,1.83-.52-.18-1.58-.17-2.84-.61-4.19-.86-.11-1.02.73-1.66.35ZM21.28,50.94c.14-.29.44-.43.61-.7-.33.06-.73.49-.61.7ZM4.71,60.27c-.43-.88-1.35-1.26-1.66-2.27h-.26c.02,1.38.7,2.09,1.92,2.27ZM6.28,59.57c.58.54,1.67.14,2.27-.26-.86,0-1.92,0-2.27.26Z"/></g></g></g></g></svg>