<?xml version="1.0" encoding="UTF-8"?><svg id="Layer_2" xmlns="http://www.w3.org/2000/svg" viewBox="0 0 48 46.98"><defs><style>.cls-1{fill:#5f5c5d;fill-rule:evenodd;}</style></defs><g id="Layer_1-2"><path class="cls-1" d="M24.84.08c-.02-.07.03-.08.08-.08,5.67.4,10.94,1.36,14.49,3.99.56.41.98,1.12,1.55,1.71,1.36,1.41,2.55,2.68,3.34,4.8.79.94,1.32,2.77,1.79,4.23,1.02,3.16,2.16,8.16,1.87,12.05-.03.35-.19.8-.24,1.14-.07.46-.07.91-.16,1.3-.71,3.16-2.9,5.46-4.23,7.98-1.1.81-1.95,1.85-2.85,2.85-2.25,1.63-4.85,2.91-6.76,4.89-2.12.64-4.32,1.87-6.92,1.87-1.88,0-3.8-.11-5.7-.08-.49,0-.98.21-1.46.24-1.03.07-2.15-.32-3.26-.57-.52-.12-1.03-.02-1.47-.16-.53-.18-1.01-.59-1.55-.81-.96-.41-1.61-.56-2.36-1.06-.23-.16-.58-.22-.73-.32-.29-.21-.48-.71-.81-.98-.55-.45-1.11-.82-1.71-1.38-1.17-1.1-1.95-1.94-2.93-3.42-.95-1.44-1.45-2.67-2.28-4.15-.35-1.35-.73-2.69-1.38-3.75C.72,27.39.09,24.46,0,21.33c-.03-1.14.04-2.3.41-3.34.04-.31-.14-.4-.08-.73.56-1.72,1.35-3.43,2.04-5.05.19-.45.35-1.06.57-1.38.46-.67,1.31-.99,1.38-1.87,1.34-.91,2.58-1.93,3.74-3.01,1.92-1.27,3.95-2.63,6.51-3.5,1.57-.54,2.74-1.2,4.48-1.55.52-.1,1.03-.11,1.55-.24.44-.12.88-.34,1.3-.41.92-.15,2.06.06,2.93-.16ZM26.38,2.28c.24,0,.49,0,.49-.24-.08-.17-.31-.18-.57-.16-.03.19.01.31.08.41ZM28.25,2.44c.03-.11.12-.15.08-.33h-.24c-.02.19.02.31.16.33ZM31.02,9.12c-.03-2.36-.78-4.7-1.3-6.84-.22.06-.16-.16-.33-.16.47,2.4.76,4.99,1.63,7ZM21.17,3.09c.12-.23.17-.54.24-.81-.09-.07-.22-.11-.41-.08.05.44-.06.78.17.9ZM17.83,3.58c.27-.05.44-.21.41-.57-.33-.31-.67.28-.41.57ZM34.2,5.94c.13.65-.07,1.58.57,1.79-.12-1.42-.48-3.31-1.06-4.56-.1,1.19.34,2.02.49,2.77ZM21.17,4.4c.11.12.39.26.57.08-.05-.25-.02-.58-.33-.57-.07.17-.25.24-.24.49ZM37.37,6.51c.09-.24.49-.16.57-.41-.05-1.01-.62-1.5-1.3-1.87.2.8.27,1.74.73,2.28ZM28.82,5.05c-.2-.27.19-.66-.24-.73.04.24.13.84.24.73ZM24.02,5.37c0-.34.23-.8-.08-.98-.09.25-.18.85.08.98ZM22.07,8.39c.87-3.19-6.31-3.94-6.59-1.06-.09.87.41,1.63.81,2.2.3.05.31-.18.57-.16.12.26.27.49.49.65,1.4-.68,4.4.29,4.72-1.63ZM13.85,6.68c.08-.24.13-.52.24-.73-.12-.04-.21-.12-.32-.16.05.27-.11.76.08.9ZM11,6.76v-.65h-.33c.06.27.04.61.33.65ZM10.26,12.13c.13-.14.18-.37.33-.49-.12-1.3.51-3.31.24-4.48-.32,1.35-.74,3.49-.57,4.97ZM37.94,7.9c-.05-.17.13-.57-.16-.49,0,.21-.04.48.16.49ZM6.93,9.28c.17.26.78.19.98,0-.05-.3.1-.81-.08-.98-.27.35-.78.47-.89.98ZM11.57,10.91c.12-.55.51-1.89.08-2.2-.08.55-.4,1.61-.08,2.2ZM41.85,12.46c.07-1.16-.21-2.67-.57-3.66.14,1.11-.03,2.86.57,3.66ZM28.58,9.69c.13.01.42.27.49.08-.15-.08-.38-.44-.49-.08ZM14.42,10.66c-.24-.37.38-.87-.16-1.06,0,.34-.28.98.16,1.06ZM31.51,11.15c.19-.03.34-.1.49-.16-.01-.37-.26-.5-.41-.73-.11.21-.27.65-.08.89ZM22.23,11.15c.37.02.57-.14.81-.24-.04-.26.15-.29.08-.57h-.24c-.04.45-.58.4-.65.81ZM24.51,10.91c.14,0,.25-.02.33-.08.02-.21-.12-.27-.33-.24v.33ZM4.73,11.8c.23-.04.29-.69.16-.81-.05.27-.23.42-.16.81ZM18.08,13.03c.2.14.46-.2.9-.08.03-.6-.04-1.11-.16-1.55-1.1-.48-.83.95-.73,1.63ZM20.03,13.11c0-.3.13-1.28-.16-1.55-.07.34-.09,1.27.16,1.55ZM37.94,24.1c-.48.62-.75,1.75-1.3,2.36-.27.3-.72.38-.73.81,0,.33.51.71.73.98.51.6,1.67,2.75,2.52,2.77.29,0,1.21-.67,1.55-.98.93-.87,1.12-1.78,1.95-2.69,0-.25-.29-.2-.24-.49.82-1.71.34-3.72.24-5.37-.02-.3-.28-.71-.32-1.06-.42-2.91-2.14-5.04-3.5-7-.27-.4-.4-.89-.73-1.22-.11,0-.12-.1-.25-.08,1.05,3.61,1.4,8.17.08,11.97ZM11.4,12.62h.49c0-.21-.12-.32-.32-.33-.04.12-.12.21-.16.33ZM15.23,12.94c.13.68.66.97,1.14,1.3-.18-.66-.22-1.46-.65-1.87-.06.29-.42.29-.49.57ZM8.31,13.43c-.05-.25.11-.7-.08-.81-.03.16-.26.8.08.81ZM24.92,14.17c-.09.69-.56.73-.65,1.3-.13.85.49,1.89,1.22,2.28.44.24,1.04.15,1.3.57,1.63-.07,3.29-.55,3.75-2.03.03-1.9-1.35-3.26-3.18-3.26-.95.24-1.82.56-2.44,1.14ZM23.37,13.6c0-.19.42-.39.16-.57-.02.18-.37.44-.16.57ZM21.01,14.17c-.05-.17.13-.57-.16-.49-.02.23.02.41.16.49ZM22.39,15.88c.05-.79.66-1.46.65-2.04-.38.46-.73,1.39-.65,2.04ZM10.26,14.82c-.97,1-1.18,2.75-.41,3.99.45,0,.5.49.89.73.4.25.94.16,1.38.32.26.09.43.37.73.41,1.06.13,2.02-.61,2.52-1.38,1.46-3.02-2.1-5.73-5.13-4.07ZM20.93,15.63c-.12-.5.22-.97,0-1.3-.03.32-.38,1.11,0,1.3ZM19.3,17.83c-.13-.69-.03-2.22-.32-3.01-.14.76-.31,2.8.32,3.01ZM42.17,15.96c.06-.23.09-.82-.16-.98,0,.27-.29.98.16.98ZM7.33,16.77c.58-.02.51-1.12.49-1.47-.11.52-.55,1.03-.49,1.47ZM44.54,16.36c.43.03.24-.7,0-.73-.12.13-.12.6,0,.73ZM42.91,17.5v-.98c-.26.01-.27-.22-.57-.16.09.48.25.89.57,1.14ZM4,18.97c-.11-.82.37-1.48.08-2.2-.24.42-.44,1.72-.08,2.2ZM2.77,17.91c.29.07.39-.74.08-.73-.13.28-.14.43-.08.73ZM22.56,17.91c.21.06-.06.6.24.57.1-.28.26-.51.41-.73-.06-.52-.51.02-.65.16ZM2.61,21.57c.73-.69.15-2.28.41-3.34-.15,0-.06-.27-.24-.24-.08,1.08-.32,2.35-.16,3.58ZM18.89,26.3c0-.41.22-.59.41-.81-.19-2.22.46-5.05.41-6.76h-.24c-.3,2.2-1.13,5.29-.57,7.57ZM16.78,23.45c-.07.83-.53,2.41.32,2.6-.07-2.22-.13-4.63.33-7,0-.1-.02-.19-.16-.16-.42,1.47-.36,3.18-.49,4.56ZM6.68,20.92c.24-.44.23-1.48,0-1.87.11.68-.24,1.33,0,1.87ZM24.84,21.66c-.02,1.05-.67,2.61.32,3.09-.1-1.65.09-3.84.08-5.37-.1,0-.11-.1-.25-.08-.09.81-.15,1.64-.16,2.36ZM34.2,24.42c.18-1.61.34-3.61.16-4.97-.4,1.29-.33,3.61-.16,4.97ZM7.9,20.51c-.05-.25.1-.7-.08-.81.04.3-.27.7.08.81ZM9.12,20.11h-.16c-.2.84-.39,2.45-.49,3.34-.1.91.04,1.84.08,2.69.02.41-.24,1.07.33,1.22.69-1.66-.37-4.18.08-6.35.29-.14.72-.25.98,0,.02.24-.3.28-.08.49.71-.51-.56-.96-.73-1.38ZM26.22,24.42c.06-1.22.46-3.24.16-4.23-.25,1.16-.59,3.17-.16,4.23ZM22.31,20.51c-.06,1.67-.43,3.16.16,4.4.6-.63.21-1.76.25-2.77.02-.62.21-1.2,0-1.79-.15.02-.18-.09-.33-.08,0,.1-.1.11-.08.24ZM4.81,21.98c.43-.07.15-1.2,0-1.47-.21.45.07.9,0,1.47ZM3.91,21.49c.11-.1.14-.49-.08-.49-.12.1-.14.49.08.49ZM29.15,22.06c.32.06.16-1.09.08-.9.05.37-.14.51-.08.9ZM37.05,22.55c.05-.33.26-.93.08-1.22-.02.36-.49.95-.08,1.22ZM11.24,26.54c.12-1.29-.23-3.98.41-4.8-.26.04-.19-.25-.49-.16-.29,1.53-.44,3.56.08,4.97ZM23.78,22.31c.08-.21.14-.55-.08-.65.05.19-.1.59.08.65ZM13.19,26.05c.62-.35.3-1.36.33-2.03.03-.65.15-1.29.08-1.95-.02-.06-.07-.09-.16-.08-.07,1.33-.84,3.06-.24,4.07ZM30.86,24.99c.28-.8.42-2.24.16-2.85-.15.96-.32,1.85-.16,2.85ZM29.23,23.85c-.04-.54.25-1.23-.08-1.63.02.61-.21,1.18.08,1.63ZM21.25,25.64c.26-.85,0-2.37-.08-3.18.02.9-.29,2.16.08,3.18ZM15.56,22.96c.08.53-.2,1.13-.24,1.71-.04.54-.22,1.55.49,1.63-.03-1.18.17-2.52-.08-3.58,0,.14-.06.21-.16.24ZM10.02,23.61c0-.22.04-.48-.16-.49-.12.12-.14.56.16.49ZM2.37,27.11c-.02-1.33.09-2.22,0-3.26-.02-.06-.07-.09-.16-.08-.28,1.08-.28,2.65.16,3.34ZM9.86,25.72c.04.68.09,1.54.49,2.04-.15-1.34-.13-2.86-.49-3.99.09.66-.03,1.31,0,1.95ZM5.38,25.89c.65.81-.31,2.79.57,3.42-.19-1.6.43-3.6-.33-4.97-.16.44-.06,1.14-.24,1.55ZM46.41,25.07c-.02-.23.07-.56-.16-.57-.01.27-.19.53.16.57ZM35.34,24.99c-.05.26.06.38.08.57.36-.1.5-.43.65-.73-.33-.09-.5-.02-.73.16ZM3.67,25.89c.19-.19,0-.99-.08-.9.07.4-.24.71.08.9ZM24.84,29.55c.33-.97.56-2.91.24-3.99-.08,1.42-.75,2.85-.24,3.99ZM44.05,26.05c.15.11.81.21.73-.16-.38.08-.49-.1-.73-.16v.33ZM28.5,29.31c.17-1.09.17-2.03.24-3.26-.1,0-.11-.1-.24-.08-.08,1.09-.59,2.49,0,3.34ZM34.12,26.46c.1.1.52.04.49-.24-.11-.03-.15-.12-.33-.08-.04.12-.12.21-.16.33ZM30.94,28.82c.09.85.43,1.61-.49,1.95v.49c.28.1.54.22.81.33.2-.29.39-.58.57-.89-.75-1.1-.25-2.59-.41-4.23-.1,0-.11-.1-.24-.08.09.72-.34,1.55-.24,2.44ZM30.05,30.2c-.38-1.02.31-2.71-.24-3.42-.16,1-.51,2.77.24,3.42ZM32.98,29.71c.06-.66.09-1.91-.16-2.85h-.25c-.11.79-.53,2.58.41,2.85ZM22.64,31.26c-.18-1.12.37-3.3-.16-4.23-.49,1-.67,3.65.16,4.23ZM14.9,27.6c-.38,1.1,0,2.69.08,3.99.05.77-.14,1.57.41,1.95.46-.37.28-1.24.24-1.87-.08-1.3-.2-2.81-.32-4.07-.26.05-.25-.15-.41,0ZM11.65,30.04c.1.73-.24,1.65.33,2.03.02-1.26-.14-2.54-.24-3.91-.11,0-.18-.04-.25-.08-.28.65.08,1.29.16,1.95ZM19.46,30.77c.65.19.39.88.57,1.22.2-.88.09-2.78-.08-3.83-.1,0-.11-.11-.24-.08-.28.7-.08,1.88-.24,2.69ZM34.77,29.63c.26-.15.29-.87.16-1.14-.11,0-.11-.1-.25-.08-.02.46.15.72.08,1.22ZM42.99,29.8c.15-.23.59-.85.16-1.14-.12.26-.74.96-.16,1.14ZM17.59,32.48c-.03-1.02.15-2.5-.16-3.42.1.9-.48,2.63.16,3.42ZM10.51,30.12c.09-.34.12-.8-.16-.98-.11.31-.32.93.16.98ZM34.93,30.37c-.03-.32.19-.5-.08-.65-.11.12-.17.64.08.65ZM27.36,30.45c-.02-.25.01-.56-.25-.57.01.26-.08.62.25.57ZM8.47,34.27c.57-.04.28-.7.24-1.14-.08-.88-.1-2.11-.41-2.69-.07,1.43-.08,2.35.16,3.83ZM4.57,33.3c-.02-.7.07-2.18-.41-2.69.06.81-.29,2.21.41,2.69ZM43.4,33.38c.47-.47.36-1.74,0-2.28-.59.12-.31,1.1-.49,1.63.16.25.5.47.49.65ZM37.29,33.13c-.02-.52.17-1,.33-1.55-.15-.15-.28-.32-.49-.41-.11.66-.04,1.54.16,1.95ZM27.52,37.77c-.31.29-.89.3-1.06.73,2.59.36,6.49-.4,8.55-1.79.75.02.81-.66,1.38-.81-1.04-1.64-2.25-3.13-3.5-4.56-1.23,2.71-3.05,4.82-5.38,6.43ZM39.73,31.83c-.1.54.35.77.25,1.38.45-.26-.02-1.35.89-1.3.12-.9-.86-.22-1.14-.08ZM13.44,33.79c-.1-.77-.07-1.67-.49-2.12.14.73-.13,1.87.49,2.12ZM30.45,33.38c.17-.21.41-.35.41-.73h-.65c.17.34-.02.52.25.73ZM38.59,37.12c.56.38.21,1.1.49,1.63.08-1.04.14-2.9-.33-3.91.26-.39.4-1.49.08-1.95-.28,1.4-.37,2.61-.24,4.23ZM5.71,34.44c.3.05.43-.06.57-.16-.14-.45-.08-1.12-.57-1.22-.22.39.1.85,0,1.39ZM11.24,35.17c-.14-.54.03-1.75-.65-2.12v1.22c.55-.04.37.67.65.9ZM24.1,34.52c.25-.18.43-1.22.16-1.38,0,.39-.21.75-.16,1.38ZM19.38,36.47c.2-1.09,0-1.97-.08-3.01-.2.03-.18-.15-.41-.08.18,1.21-.17,2.27.49,3.09ZM16.94,34.76c.43-.07.66-.14.98-.16-.04-.39-.13-.74-.33-.98.03.63-.43.76-.65,1.14ZM20.52,37.61c0-1.06.56-2.82.16-3.99h-.24c.12,1.33-.24,2.87.08,3.99ZM25.24,36.15c.27-.73.23-1.74.16-2.44,0,.94-.49,1.8-.16,2.44ZM28.99,34.84c.35-.03.48-.28.57-.57-.3.09-.23-.2-.49-.16.04.31-.14.4-.08.73ZM22.88,34.84c.28.08.19-.61.08-.65-.12.12-.07.42-.08.65ZM24.02,35.25c.28.08.2-.61.08-.65.06.3-.14.35-.08.65ZM16.21,36.39c.07-.27.28-1.29-.16-1.3-.11.3-.22,1.23.16,1.3ZM22.8,37.29c-.02-.58.35-1.58.08-1.87-.13.56-.3,1.44-.08,1.87ZM11,37.29c-.09-.37.19-1.12-.16-1.22-.05.36-.2.98.16,1.22ZM18.08,37.69c.1-.22.21-1.04-.08-1.14-.05.32-.21.96.08,1.14ZM12.95,38.51c.17-.23.22-1.37-.16-1.55-.08.35-.26,1.44.16,1.55ZM8.63,38.75c.26-.36.18-1.38-.08-1.71,0,.57-.23,1.17.08,1.71ZM25.41,37.53c.08-.23-.13-.57-.24-.32.22-.03-.08.46.24.32ZM7.09,38.51c.1.09.29.09.49.08.23-.36-.08-.76-.08-1.14-.62.03-.2.6-.41,1.06ZM36.72,38.59c-.02-.28.06-.66-.08-.82-.66-.11-.43.93.08.82ZM35.01,39.24c.43.01.27-.94,0-.98-.19.43.15.52,0,.98ZM16.04,39.65h.41c-.11-.54.24-1.09-.41-1.14-.09.26-.15.88,0,1.14ZM22.56,40.7c0,.92-.54,2.48.41,2.52,0-1.25.21-3.25-.32-4.07-.23.49-.09,1.04-.08,1.55ZM10.83,41.76c.15-.58.26-1.49,0-2.04-.05.4-.35,1.49,0,2.04ZM29.88,41.76c.42-.18.18-1.59,0-1.95v1.95ZM25.49,42.98c.5-.39.2-1.46.16-2.2-.02-.35.19-.72-.08-.9h-.41c.11,1.21-.29,2.41.33,3.09ZM26.71,42.41c.65.39.51.97.32,1.79h.49c-.12-1.16-.12-3.09-.32-4.23-.89.23-.15,1.63-.49,2.44ZM28.74,42.9c.02.38-.28.76-.16.98.63.1.29-.42.24-.73.13-.87-.17-2.23-.08-3.09h-.33c.29.74-.33,2.18.33,2.85ZM12.71,42.01h.57c.08-.51-.05-1.24-.08-1.71-.2.03-.18-.15-.41-.08-.25.45-.15,1.22-.08,1.79ZM31.35,40.95c.02-.34-.13-.38,0-.65-.1,0-.11-.1-.24-.08.07.26-.03.69.24.73ZM15.23,42.74c-.11-.57.07-1.43-.24-1.79.1.57-.24,1.6.24,1.79ZM24.27,43.47c.1-.77-.12-1.93-.25-2.52.1.56-.45,2.18.25,2.52ZM16.13,42.74c.19-.03.3-.13.57-.08.07-.67-.21-.98-.16-1.63-.84-.15-.43,1.26-.41,1.71ZM18.32,43.96c.11-.77.22-2.22-.16-2.77-.16.82-.1,2.11.16,2.77ZM20.11,43.8h.49c0-.87.04-1.77-.16-2.44h-.33c-.08.92-.2,1.71,0,2.44ZM13.44,43.64c-.01-.23.07-.56-.16-.57-.12.13-.17.65.16.57ZM25.73,43.88c.12-.02.19-.67-.08-.57.13.27-.28.58.08.57ZM17.26,44.94c-.12-.26-.32-1.07-.57-1.47.11.67-.38,1.43.57,1.47ZM23.04,44.45c.19-.19-.01-.4,0-.65-.33-.03-.33.68,0,.65Z"/></g></svg>