<?xml version="1.0" encoding="UTF-8"?><svg id="Layer_2" xmlns="http://www.w3.org/2000/svg" viewBox="0 0 64 61.5"><defs><style>.cls-1{fill:#5f5c5d;fill-rule:evenodd;}</style></defs><g id="Layer_1-2"><path class="cls-1" d="M36.71,4.78c.13,1.12-.73,1.72-1.63,1.3-.14-1.11.83-2.14,1.63-1.3Z"/><path class="cls-1" d="M31.32,5.27c-.34.69-.48,1.58-1.63,1.47-.64-1.07.7-2.46,1.63-1.47Z"/><path class="cls-1" d="M43.07,5.27c.04.8-.39,1.14-.82,1.47-.38-.05-.67-.2-.98-.33-.07-1.03,1.08-1.89,1.8-1.14Z"/><path class="cls-1" d="M26.1,5.6c0,.92-.63,1.22-1.3,1.47-.92-.72.41-2.56,1.3-1.47Z"/><path class="cls-1" d="M20.06,6.74c-.15.67-.5,1.13-1.14,1.3-.16-.22-.55-.21-.65-.49.13-.98,1.31-2.02,1.79-.82Z"/><path class="cls-1" d="M49.27,8.04c.18.48-.57,1.23-1.31,1.31-1-.75.5-2.37,1.31-1.31Z"/><path class="cls-1" d="M41.28,9.02c.56-.07.91.06,1.3.16-.08.82-.61,1.59-1.3,1.31-.25-.27-.25-1.2,0-1.47Z"/><path class="cls-1" d="M34.58,9.35c.31.76-.25,1.58-1.3,1.47-.54-.88.1-1.81,1.3-1.47Z"/><path class="cls-1" d="M26.91,10c.16.82-.51.8-.49,1.47h-.98c-.57-1.02.45-2.04,1.47-1.47Z"/><path class="cls-1" d="M58.9,16.53c-.14,1.22-.22,2.5-.98,3.1-1.19-.39-.84-4.52.98-3.1Z"/><path class="cls-1" d="M54.98,16.53c.42,1.48.1,3.56-.65,4.41-.86-.73-1.27-4.57.65-4.41Z"/><path class="cls-1" d="M51.23,16.69c.24,1.4-.48,3.2-1.47,3.92-.29-1.45-.26-3.94,1.47-3.92Z"/><path class="cls-1" d="M9.13,49c-.1.77-.4,1.35-.82,1.79-.55-.1-.58-.72-.98-.98.32-.66,1.08-1.48,1.79-.82Z"/><path class="cls-1" d="M57.75,49c.02.51-.2.78-.33,1.14-.83.18-1-.3-1.3-.65.23-.57,1.09-1.18,1.63-.49Z"/><path class="cls-1" d="M31.97,50.14c.13,1.02-.67,1.53-1.47,1.14-.32-1.21.87-1.83,1.47-1.14Z"/><path class="cls-1" d="M18.1,51.77c-.08.62-.19,1.22-.65,1.47-1.6.08-.58-2.51.65-1.47Z"/><path class="cls-1" d="M40.46,52.1c.05.87-.33,1.3-1.14,1.3-.83-.78.21-2.18,1.14-1.3Z"/><path class="cls-1" d="M59.39,53.73c-.14,1.82-1.07,2.84-2.12,3.75.1-1.12.36-4.29,2.12-3.75Z"/><path class="cls-1" d="M51.23,53.89c.05,1.66-.91,3.63-2.45,4.24.59-1.64.46-4,2.45-4.24Z"/><path class="cls-1" d="M24.3,54.71c-.16.65-.47,1.16-1.47.98-.55-1,1.04-2.32,1.47-.98Z"/><path class="cls-1" d="M14.35,54.55c.39,1.24-.9,1.67-1.47.98.01-1.08.7-1.47,1.47-.98Z"/><path class="cls-1" d="M53.84,54.22c.38,1.02-.48,4.08-2.12,3.59.7-1.21.66-3.14,2.12-3.59Z"/><path class="cls-1" d="M46.17,54.55c.37,1.69-.33,3.69-1.8,4.08-.04-1.36.19-3.82,1.8-4.08Z"/><path class="cls-1" d="M61.51,23.05c3.61,1.31,3.26,8.04-1.31,8,.26,4.02-.47,7.04-2.45,8.81.8,1.35-.24,2.36-.65,3.42,1.55,2.04,5.32,1.34,6.36,3.59,1.2,2.56-.02,8.8-1.3,10.77-1.37,2.09-5.4,3.03-9.14,3.43-6.23.66-12.51.37-18.93.33-6.75-.05-13.49-.03-18.28-.33-4.33-.27-9.98-1.55-12.89-3.75-1.18-.9-2.55-1.94-2.78-2.77-.47-1.73.24-4.46.49-6.2.21-1.47.81-2.86,1.47-4.08,1.55-1.28,5.17-1.23,5.06-3.59-.06-1.33-1.29-1.42-1.8-2.61-.45-2.08.46-3.75.82-5.87-6.78.65-2.92-7.48.82-8.32-.8-1.78-2.51-2.12-2.77-4.24-.41-3.27,1.39-6.98,2.61-8.98,1.06-1.73,4.21-4.62,6.04-6.04,3.09-2.4,6.32-3.4,11.42-4.08,7.25-.97,14.47-.56,21.05.65,3.22.59,6.37.97,8.81,1.79,5.62,1.9,9.3,8.03,9.79,13.06.28,2.89-.81,5.09-2.45,7.01ZM59.87,19.79c.21-1.15.33-2.39,1.14-2.94-1.13-10.07-9.35-11.89-19.42-13.7-7.46-1.35-16.04-.3-22.19,1.14-5.34,1.25-7.87,5.66-11.42,8.98-.43,2.02-2.43,5.6-.33,7.18.58-1.87,1.17-3.73,2.61-4.73,1.56,1.59-2.27,3.78-1.47,6.2.52.47,1.82.63,2.61.33.19-2.31.71-4.29,2.28-5.22.69,1.64-1.26,3.25-1.31,5.22h2.45c.24-2.15.76-4.02,2.45-4.73.4,1.73-1.19,2.82-1.3,4.57.99.18,2.26.12,3.26,0,.3-1.87-.09-4.44,1.96-4.57.4,1.71-1.07,2.81-1.14,4.57.92-.06,1.71-.25,2.78-.16,1.03-1.32.63-4.91,2.45-4.89.4,1.76-.8,3.33-1.3,4.73.41.02,2.13.11,2.77-.16.5-1.46.17-3.75,1.79-4.08.75,1.16-.56,2.7-.65,4.08.95.41,2.14-.22,3.43,0,.32-1.29-.13-4.24,1.63-4.57.89,1.41-.48,2.86-.49,4.4,1.58-.09,2.2.23,3.26,0,.56-1.49.21-4.64,2.12-4.24.09,1.78-.75,2.62-.98,4.08.59.34,1.76.08,2.61.16.63-1.22.13-3.56,1.63-3.91.74.83-.17,2.59-.33,3.59.9.36,2.43.07,3.59.16-.31-1.56-.32-3.94,1.47-3.92.2,1.05-.46,2.42-.49,3.75,4.78.19,10.52.35,15.01,0,.45-.72-.56-.52-.49-1.31ZM59.39,24.2c-14.5-.77-29.72.59-43.4.82-4.5.07-10.63-.2-11.26,4.57,3.28.82,6.26-4.05,9.63-2.61,1.04.45,1.01,1.92,2.45,2.29,1.99-.24,2.75-1.8,4.73-1.63,1.64.14,3.01,2.42,4.57,2.45,1.59.03,2.56-2.18,4.24-2.45,3.58-.58,5.43,3.38,9.63,2.94.95-.96.99-2.82,2.12-3.59,2.18.45,2.76-.72,4.08-1.14.4.51-.34,1.14.49,1.14,1.46-.28,2.83.7,4.08.65.96-.04,1.9-.79,2.77-.82,2.82-.1,5.01,3.04,8.16,1.3.62-2.08-1-3.2-2.28-3.91ZM41.44,38.23c1.47.14,1.96-1.84,2.61-2.94.78-1.32,1.55-2.7,2.12-3.92.63-.57,1.26-1.14,1.47-2.12-.46.13-.42-.23-.82-.17-1.15,3.69-3.95,5.73-5.38,9.14ZM44.54,29.26c-1.16,1.4-2.16,2.82-3.1,4.57-.76,1.41-1.98,3.06-1.63,4.57,2.17-2.73,3.96-5.83,5.55-9.14h-.82ZM48.78,37.74c.27.27.96.13,1.47.16.21-3.33,2.81-5.67,4.24-8.32-.21,0-.22-.21-.49-.16-1.71,2.81-3.98,5.05-5.22,8.32ZM50.41,30.23c-1.76,1.89-3.59,5.09-4.24,7.67,2.12.04,2.38-2.49,3.1-3.76.89-1.56,2.09-2.74,2.77-4.24-.71-.06-1.38.06-1.63.33ZM55.8,29.91c-1.47,2.73-4.03,5.22-4.9,8,1.43-.39,1.56-2.55,2.45-3.92.94-1.45,2.29-3.7,3.59-2.94-.71,1.42-2,2.24-2.45,3.92.3.19,1.01-.19,1.14.49-.18,1.01-1.09,1.3-1.3,2.29,4.2.26,3.29-4.25,3.1-7.34-.62-.09-.88-.53-1.63-.49ZM20.72,30.23c-.97.93-1.38,2.36-2.29,3.75-1.12,1.71-3.47,3.11-2.77,4.73,1.79-2.89,3.94-5.42,5.55-8.49h-.49ZM27.08,39.05c1.16.02,1.3-.99,1.47-1.96,1.48-2,2.58-4.38,3.92-6.53-.21,0-.23-.21-.49-.16-1.81,2.71-3.68,5.34-4.89,8.65ZM8.8,34.64c-.38-.06-.16-.71-.65-.65-.21,1.04-.26,1.52-.16,2.61,1.57-1.58,3.52-3.66,3.91-5.87-1.03,1.31-1.78,2.9-3.1,3.92ZM20.72,33.5c-1.29,1.43-3.62,3.37-3.26,5.38,2.3-1.88,3.21-5.17,5.06-7.51-.02-.2-.05-.39-.33-.33-.41.9-1.28,1.33-1.47,2.45ZM14.52,31.21c-.49.43-.56,1.29-1.31,1.47-.56,1.86-2.64,2.98-2.77,4.73.92-.06,1-.95,1.31-1.63,1.33-1.23,2.37-2.74,3.26-4.41-.21,0-.22-.21-.49-.16ZM29.36,38.39c.39.1.27.71.98.49,1.13-2.62,3.12-5.26,3.92-7.67-2.18,1.85-3.69,4.36-4.9,7.18ZM13.21,38.72c1.41-.48,2.12-2.18,2.94-3.43.83-1.26,1.85-2.62,2.12-3.92-1.73,2.3-4.31,4.61-5.06,7.34ZM43.89,38.07c1.34-.09,1.67-2.15,2.28-3.26.3-.54.64-1.2.98-1.79.23-.41,1.12-1.24.49-1.31-1.32,2.05-2.82,3.93-3.75,6.36ZM19.08,39.05c1.35-.58,2-2.08,2.77-3.26.82-1.25,1.53-2.64,2.29-3.92-.21,0-.23-.21-.49-.16-1.28,2.69-3.37,4.58-4.57,7.34ZM34.26,34.48c.92-.44,1.17-1.55,1.79-2.28-.21,0-.22-.21-.49-.16-.23,1.02-1.18,1.32-1.3,2.45ZM21.2,39.21c1.28-.39,1.67-1.93,2.29-2.94.69-1.12,1.51-2.2,1.96-3.43.25-.04.02-.27-.16-.33-1.24,2.35-3.15,4.03-4.08,6.69ZM24.63,39.21h1.14c.74-2.36,2.72-4.35,3.1-6.53-1.34,2.24-3.12,4.06-4.24,6.53ZM37.2,32.85c-1.04,1.95-3.1,3.74-3.43,5.88h.82c1.11-1.99,2.38-3.82,3.43-5.88h-.82ZM11.9,38.07c1.5-1.22,2.35-3.09,3.43-4.73-.04-.13-.14-.19-.33-.17-1.02,1.64-2.44,2.89-3.1,4.9ZM23,39.21c.98-.61,2.24-2.63,1.96-3.43-.44,1.35-1.55,2.04-1.96,3.43ZM32.3,38.07c.25-.56.82-.81.82-1.63h-.49c-.04.51-.68,1.27-.33,1.63ZM36.05,38.56c1.32.06.85-1.65,1.63-2.12-.96.29-1.06,1.44-1.63,2.12ZM31.65,38.88c.44-.01.79-.37.49-.65-.43-.05-.54.23-.49.65ZM29.2,41.82c-3.06.14-6.12.44-8.32.33-3.5-.18-6.77-1.27-10.12-.98,11.36,1.48,23.39,3.48,35.08,1.8,3.39-.49,7.27-.11,9.63-2.12-8.41-.7-17.39.59-26.27.98ZM43.4,45.74c-5.81.6-11.62.19-17.3-.33-3.59-.33-7.08-1.11-10.61-1.47-2.36-.24-5.39.24-6.85-.98-.46,1.08-.7,2.46.16,3.26,3.05-.23,6.39-1.75,9.79-.65,1.29.41,2.26,2.39,3.59,2.61,1.56.26,3.71-.9,5.71-1.14,1.87-.23,4.25-.24,6.04.16,1.28.29,2.35,1.24,3.43,1.3,2.42.15,4.28-1.34,6.04-1.63,1.5-.25,3.24-.37,5.22-.16,2.08.21,6.48.6,6.53-2.61-3.8.65-8.66,1.31-11.75,1.63ZM49.92,49.49c-1.1.04-2.25-.46-3.26-.49-3.51-.12-5.54,1.56-8.48,1.79-1.46.12-2.61-.94-4.24-1.3-1.2-.27-3.73-.4-5.06-.33-2.59.15-5.23,2.07-8,1.14-1.58-.53-2.19-2.03-3.26-2.45-2.57-1.01-6.5.25-8.65.65-.57-.52-1.69-.49-2.12-1.14-.48-.72-.61-1.78-1.31-2.28-2.79,1.17-2.35,5.58-2.45,8.32.21.63.93-.1,1.14.65.23,2.06,2.12,2.45,3.92,2.94.58-.84.62-2.01-.16-2.61.25-.46.4-1.01,1.14-.98,1.03,1.08.88,2.12.49,3.75,1.26.54,2.76.83,4.57.82.41-.79-.21-2.6.98-2.61,1,.53.16,2.29.49,2.94.79.22,2.48.29,3.26,0,.18-.57-.09-2.45,1.14-2.45.95.34.08,1.53.33,2.61,1.32.31,3.16.1,4.73.16.22-1.19-.44-2.59.98-2.78.97.42.12,1.67.33,2.78,1.36.11,2.65.29,4.08.33.36-1.67.57-3.66.16-4.41.21-.44.48-.82,1.14-.82.94,1.52.09,3.44,0,5.22,1.16-.09,2.7.19,3.59-.16.54-.98-.16-3.21,1.63-2.94.54,1.03-.48,1.77-.33,2.94,1.05.36,2.76.07,4.08.16,0-1.26-.11-3.88,1.63-3.92.51,1.46-.72,2.52-.98,3.75,5.7.01,14.52.19,18.44-2.29.88-2.7,1.75-5.51.98-8.65-.87-.87-2.34-1.14-3.59-1.63-.92,2.17-4.46,3.16-7.34,3.26Z"/></g></svg>