<?xml version="1.0" encoding="UTF-8"?><svg xmlns="http://www.w3.org/2000/svg" viewBox="0 0 64 52.08"><defs><style>.cls-1{isolation:isolate;}.cls-2{mix-blend-mode:multiply;}.cls-3{fill:#5f5c5d;fill-rule:evenodd;}</style></defs><g class="cls-1"><g id="Layer_2"><g id="Layer_1-2"><g class="cls-2"><path class="cls-3" d="M43.23,10.55c-.04.78-.8.85-.92,1.55.51.38,1.4.76,2.2.55.33-.09.08.41.37.37,1.29.43,2.74.59,4.12.91,2.28.54,4.59.99,6.5,1.83.11.9-.77.91-1.28.82-.43-.07-.61-.54-1.1-.64-2.21-.47-5.8-1.17-8.32-1.83-1.3-.34-2.1-.96-3.48-.73-.5-.75-2.07-.43-2.1-1.65.49-.6,1.38-.07,1.83.18.9-.23,1.08-2.5,2.2-1.37Z"/><path class="cls-3" d="M41.5,16.22c-.12,1.38-2.26,2.4-3.75,2.1.05-.35-.16-.45-.09-.82-.61-.03-1.1.35-1.65.09,0-.3-.26-.35-.18-.73,1.5-.62,4.16-.84,5.67-.64Z"/><path class="cls-3" d="M18.71,16.31c-.22.36-.62.53-1.19.55.26-.31.67-.49,1.19-.55Z"/><path class="cls-3" d="M19.72,20.43c0,.76-.87.66-1.37.91-1.38-.79-3.81-.99-3.93-2.74,2.11-.46,3.5,1.68,5.31,1.83Z"/><path class="cls-3" d="M26.13,20.52c-.17.32-.56.42-.64.82-.87-.04-.63-1.2-1.1-1.65.78-.42,1.28.38,1.74.82Z"/><path class="cls-3" d="M59.61,23.27c.06.22.13.42.09.73-.4.24-.88.2-1.19-.09-.27-.89.58-.79,1.1-.64Z"/><path class="cls-3" d="M46.16,25.09c-.23.38-1,.67-1.46.27.04-1.03,1.2-1.28,1.46-.27Z"/><path class="cls-3" d="M32.71,25.64c-.22.95-1.59.74-1.55,0,.04-.77,1.17-.5,1.55,0Z"/><path class="cls-3" d="M38.48,25.55c-.26.7-1.03,1.94-1.65.73.25-.55,1.04-1.36,1.65-.73Z"/><path class="cls-3" d="M55.58,26.1c-.07.35-.32.54-.55.73-1.47-.24.09-2.12.55-.73Z"/><path class="cls-3" d="M49.18,25.92c.05.69-.32.96-.92,1.01-.14-.22-.34-.39-.27-.82.26-.17.8-.43,1.19-.18Z"/><path class="cls-3" d="M20.36,27.29c.08.75-.62.9-1.19.73-.49-1.04.76-1.51,1.19-.73Z"/><path class="cls-3" d="M16.34,27.11c.07.61.06.71-.18,1.1-1.49.24-1.31-1.77.18-1.1Z"/><path class="cls-3" d="M40.67,27.84c-.49.12-1.12.1-1.46.37-.36,0-.42-.31-.64-.46.06-1.17,1.88-.48,2.1.09Z"/><path class="cls-3" d="M8.74,37.08c-.15.46-.48.74-1.19.64-.07-.36-.29-.57-.28-1.01.55-.32,1.26-.16,1.46.37Z"/><path class="cls-3" d="M36.01,37.99c-.55.39-1.54.22-1.65-.27-.24-1.11,1.59-.77,1.65.27Z"/><path class="cls-3" d="M45.8,37.72c.1.26.29.44.46.64-.1.2-.31.3-.37.55-1.12.28-1.43-1.48-.09-1.19Z"/><path class="cls-3" d="M24.02,38.73c-.36,0-.44.29-.64.46-1.84-.39.06-2.26.64-.46Z"/><path class="cls-3" d="M52.29,38.36c.83,1.35-1.3,1.52-1.1.46.09-.44.39-.48,1.1-.46Z"/><path class="cls-3" d="M13.87,39c.44,0,.47.39.92.37.19.81-.66,1.28-1.28.73-.13-.44.08-.83.36-1.1Z"/><path class="cls-3" d="M39.3,39.18c.26.05.39.22.64.27-.28.43-.46.94-.73,1.37h-.55c-.86-.75.25-1.12.64-1.65Z"/><path class="cls-3" d="M31.34,39.73c.09.36-.28.28-.18.64-.34.06-.7.16-1.01,0-.52-1.08.79-1.36,1.19-.64Z"/><path class="cls-3" d="M8.47,39.92c.01.79-1.01.89-1.46.46-.29-1.08,1.19-.94,1.46-.46Z"/><path class="cls-3" d="M28.05,41.01c-.75.29-1.02.03-1.37-.46.24-.99,1.49-.6,1.37.46Z"/><path class="cls-3" d="M20.45,40.74c-.22.39-.37.85-.82,1.01-.33-.04-.4-.33-.64-.46-.08-.82,1.08-1.27,1.46-.55Z"/><path class="cls-3" d="M54.4,42.39c-.3-.06-.58-.15-.92-.18-.21-1.73,1.86-.85.92.18Z"/><path class="cls-3" d="M49.64,42.2c.06,1-1.5,2.44-1.46.55.6-.02.85-.83,1.46-.55Z"/><path class="cls-3" d="M27.41,3.05c.66-.73.11-3.38,1.74-2.56.34,1.09.15,2.31.28,3.38,1.3-.71,1.2-2.82,2.93-3.11,1.48,1.84.38,5.02-.55,7.04.37.36.92.54,1.37.82-.06-1.61,1.25-3,2.65-3.66.37-.18.85-.17,1.28-.37,1.72-.77,3.03-2.37,5.67-1.74.67.51,2.32.55,2.38,1.37-1.22.11-4-1.51-5.4-.09.73.2,1.37-.05,2.01.27.02,1.24-1.23.9-2.2,1.1-1.84.38-3.12,1.63-4.21,2.84-.31.08-.57.23-.92.28.09.49.67.49.82.91,0,.4-.29.5-.36.82,2.48,4.57-6.8,8.96-9.79,5.76-.47-.5-.5-1.15-1.01-1.74-1.78.53-3.12,1.52-5.12,1.83.5-.47,1.43-.52,2.1-.82,1.01-.48,1.94-1.05,3.02-1.46-.88-.17-1.78.31-2.65.64-2.47.92-5.26,1.97-7.41,3.29,1,.26,1.43-.82,2.56-.73-1.73.88-4,1.94-6.13,2.65-.61.2-1.72.63-2.11-.09.25-.81,1.52-.61,1.92-1.28-1.56-.09-2.66.26-3.48.91-1.19.02-2.1.42-3.2,1.01-.78.41-2.06,1.46-1.92,2.1.27,1.25,2.36-.59,2.93-.55.84.06,2.06,2.68,2.65,3.2.26.23.62.21.82.55.57-.43,1.33-.17,2.01-.27.85-.13,1.64-.54,2.47-.73,2.11-.49,4.32-.96,6.5-1.28,6.91-1.02,13.97-2.21,21.96-2.01,1.46.04,2.99-.22,4.48-.27,1.13-.04,2.25.19,3.39.18.4,0,.79-.16,1.19-.09.32.05.6.37.92.46,1.93.52,4-.34,5.3-.91.24,0,.1.39.46.27,1.16-.33,2.14-.85,2.65-1.83.07-.55-.53-.44-.37-1.1,2.12.73.5,2.59-.73,3.39-.75.48-1.74.53-2.65.82-1.54.5-3.88,2.21-5.31.46-4.68-.75-9-.13-13.54-.09-1.62.02-3.32.44-5.03.64-.75.09-1.5,0-2.2.18-.89.23-1.59.89-2.29,1.37-1.02.71-2.32,1.98-4.21,1.46-1.4-.38-2.16-1.72-3.93-1.56-1.33.12-2.33.97-3.48,1.46-1.1.47-2.5.97-3.66,1.19-1.72.32-3.69-.24-4.76-.92-.84-.53-1.36-1.43-2.93-1.55-.48,1.48-.69,3.43-.82,5.49,4.39-.32,9.4.21,13.63-.27.69.31,1.21.17,1.92.09,2.02-.21,4.24.16,6.4,0,11.1-.81,23.52-.74,34.95-1.46.53-3.64.28-7.45.55-11.07-.23-.3-.75.22-1.01-.09.58-1.71,1.66-2.91,2.38-4.48-3.19-1.44-6.74-2.42-10.15-3.75-1.06-.41-2.05-1.16-3.2-1.19-.68-.8-2.37-.09-2.93-.92-.09-.58.41-.56.73-.73-.87-.59-2.28-.65-3.2-1.19-.23-.41.09-.66.27-.92,2.62.79,5.09,1.7,7.5,2.74,2.67,1.16,5.86,2.21,8.69,3.57,1.13.55,2.13,1.38,3.66,1.65.12.49-.02.73.27,1.1-.73,4.97-1.24,9.74-1.92,14.64-.22,1.57-.88,2.86.18,3.48-.36.74-.02.96-.09,1.65-.12.34-.64.28-.92.46-.06.72-.42,1.53-.09,2.1-.92,2.48-.75,6.22-.73,9.15-.18.25-.3.55-.73.55-.43,2.1-1.9,2.9-4.3,3.11-3.95.35-8.89-.61-12.08-1.19,1.42-.24,3.89.21,6.13.18-2.08-.63-4.58-.43-6.77-.82-.36.14.39.38.09.46-.87.1-2.27-.04-2.75-.64-3.98-.27-8.32-.63-12.35-.92-3.64-.26-6.69-.75-10.34-.27-1.53.2-3.03.44-4.58.55-2,.14-4.03.08-6.04.27-1.36.13-2.7.48-4.12.37-.51.91-.28,2.6.09,3.84.19.63.83,1.18.46,1.65-1.03-.84-.99-2.77-1.28-4.12-.66-.46-.53-1.72-1.1-2.29.37-1.7-.43-3.98-.64-5.85-.25-2.18-.19-4.72.27-6.95.12-.6.45-1.14.55-1.74.11-.66.14-1.34.27-2.01.23-1.16.59-2.09.37-3.57-.11-.69-.36-1.17.46-1.46-.49-.64-1.93-.64-2.01-1.46-.11-1.07,1.88-1.41,2.38-2.38,4.19-1.97,8.26-4.36,12.99-5.76,2.21-.65,4.95-1.46,7.68-2.01-.54-1.54.22-2.81.92-3.66-.11-2.85-.33-6.23.55-8.69,1.25-.76,2.17,2.3,2.83,2.93ZM25.21,7.8c1.44-1.33,4.07-.97,5.95-.27.52-1.37,1.05-3.38.64-5.12-1.33.93-1.36,3.16-3.02,3.75-.14-.19-.49-.18-.46-.55-.49-.06-.4.45-.82.46-.81-1.19-1.18-3.24-2.38-4.3-.72,1.76-.35,4.25.09,6.04ZM35.09,6.8c.3-.07.48-.25.55-.55-.45-.09-.44.29-.55.55ZM24.39,12.01c.76-1.16.96-2.89,2.29-3.48.57.08.88-.09.91-.55-1.76-.1-4.38,2.15-3.2,4.03ZM27.59,11.46c.68-.5,1.49-.89,1.83-1.74-1.42-.23-1.48.89-1.83,1.74ZM30.43,10.73c.37-.14,1.02-.02,1.1-.46-.38-.44-1.22-.3-1.1.46ZM29.33,12.56c.2-.25.57-.34.73-.64-.38-.31-.88.43-.73.64ZM28.14,14.85c.31.14.68,0,.91-.18-.08-.94.74-.97,1.01-1.56-.81.36-1.83.96-1.92,1.74ZM10.02,17.5c2.08.07,3.23-.36,4.85-1.1,2.05-.94,4.08-1.52,5.86-2.47-3.94.82-7.84,1.67-10.7,3.57ZM62.35,15.12c.23-.01.28.14.46.18.06-.17.42-.85,0-.92-.14.26-.4.39-.46.73ZM29.51,15.76c.89.09,2.06-.31,2.56-.91-1.07-.03-2.04.17-2.56.91ZM4.17,23.45c.46.06.5.54.92.64-.21-.46-.32-1.02-.82-1.19,0,.22-.16.27-.09.55ZM21.83,24c1.68,2.12,4.98.69,6.13-1.01-2.12.26-4.13.62-6.13,1.01ZM11.49,26.28c1.15,0,1.83-.49,2.75-.73-.55-.12-2.22.22-2.75.73ZM56.22,29.94c1.66.23,2.65.07,4.12.27-.8-.61-2.99-.56-4.12-.27ZM45.89,31.5c.52-.09.96-.26,1.28-.55-.5-.36-1.1.06-1.28.55ZM49.55,31.41c.42-.09.83-.2,1.01-.55-.5-.25-1.04,0-1.01.55ZM52.84,30.86c-.27.37-.53.75-.82,1.1.94-.25,1.61-.77,2.56-1.01.13.05.22.14.28.27,0,.76-.41,1.11-.73,1.55,1.44-.57,2.92-1.1,4.21-1.83-1.98-.17-3.76-.19-5.49-.09ZM38.02,31.77c.64-.12,1.13-.4,1.56-.73-.55-.09-2.03-.32-1.56.73ZM35.27,31.13c.06.37-.09.52-.09.82.74-.14,1.44-.33,1.74-.91-.57,0-1.01.15-1.65.09ZM31.43,32.05c1.22.36,2.2-.3,2.84-.82-.74.13-2.98-.49-2.84.82ZM59.61,31.86c.41,0,.63-.16.55-.64-.32.07-.34.45-.55.64ZM28.14,31.77c.52.22,1.04-.13,1.37-.37-.36-.11-1.33-.14-1.37.37ZM8.1,31.68c.56.02,1.4.16,1.83-.18-.67.06-1.48-.32-1.83.18ZM3.35,33.05c.32-.2,1.04-.48.91-.82-.27.26-1.25.28-.91.82ZM23.65,32.69c.36,0,.67-.07.73-.37-.4-.03-.57.17-.73.37ZM3.25,34.52c1.88.32,2.79-1.11,4.02-1.74-1.83-.27-3.26.64-4.02,1.74ZM11.85,34.34c-.08-.23-.12-.49-.09-.82-1.04.18-1.55.88-2.29,1.37,3.35.39,4.9-.63,6.31-2.2-1.41.45-2.12,1.6-3.93,1.65ZM39.76,33.6c-.78.12-1.41-.49-2.1-.46-.78.04-1.28.74-1.92,1.1,2.71.09,5.4.02,8.24.09.1-.35.22-.7.36-1.01-.84.19-2.84,1.51-2.93.18-.03-.38.68-.62.37-.82-.84.35-1.18.79-2.01.92ZM1.24,34.79c.71-.02.58-1.66.37-2.01-.33.46-.25,1.33-.37,2.01ZM56.31,32.78c-.98.63-2.31.92-3.2,1.65,1.57.03,2.81,0,4.48.18.14.2.26.41.37.64.47-.07.7.16,1.01,0,.12-.28.06-.73.18-1.01-.36-.13-.49-.49-.55-.91-.42.07-.9.08-1.28.18-.39-.19-.46-.69-1.01-.73ZM25.39,34.52c1.31.29,2.16-.64,2.75-1.37-1.11.27-2.02.72-2.75,1.37ZM45.89,34.24c.35.03,1.29.21,1.83,0-.13-.23.06-.79-.27-.82-.46.33-1.13.46-1.56.82ZM51.28,33.42c-.66.23-1.42.35-1.74.91.93-.03,1.34.1,2.1.09.06-.2-.1-.84-.37-1.01ZM18.62,34.61c.36.18.57-.04,1.01.09.05-.56.71-.51.82-1.01-.8.12-1.25.58-1.83.91ZM33.53,34.24c.04.21.45.04.64.09v-.46c-.3.04-.59.08-.64.37ZM22.37,34.52c.33.18.53,0,.92,0,0-.24.05-.54-.18-.55-.12.3-.73.12-.73.55ZM7.19,34.7c.47-.07.67.13,1.1.09,0-.24.05-.54-.18-.55-.12.33-.88.03-.92.46ZM28.23,35.98c-4.69.15-9.51-.1-14.18-.09-3.9.01-7.51-.19-10.98.73.24,1.4-.04,2.76.28,4.02,2.36.34,4.89,1.03,7.41,1.01.39,0,.73-.13,1.1-.09.63.07,1.2.39,1.83.46.74.08,1.52.03,2.29.09,6.29.47,12.28,1.4,18.02.82.06-.6.22-1.59,1.19-1.56.04.65.01.95-.09,1.65,5.73.64,12.05,1.41,18.39,1.19.46-.15.43-.79,1.01-.82.26.34.97.65.82,1.1-2.12.52-5.16.77-8.05.64-2.37-.1-4.99-.28-7.41-.55-2.57-.28-5.01-.82-7.04-.55-.63.08-1.54.2-1.83.82,4.65.67,10.04.79,14.82,1.19.9.08,1.83.39,2.74.27.37-.05.74-.29,1.1-.37,2.64-.56,5.44-.45,7.87-1.28.25-2.98,1.17-5.29,1.37-8.33-10.15-.92-20.34-.7-30.65-.37ZM1.24,35.8c-.14.89-.23,2.6,0,3.57.53-.87.16-2.57.37-3.57h-.37ZM7.65,42.39c-1.3-.2-2.63-.36-3.93-.55.71.74,2.77.83,3.93.55ZM27.31,43.94c-4.9-.16-10.93-.87-15.92-1.19-.13.08-.29.14-.27.37,1.8.51,3.77.39,5.76.64,3.4.42,7.28.76,10.89,1.01.71.05,1.67.3,2.2-.18-.34-.98-1.84-.61-2.65-.64ZM2.25,43.39c.07.63.04,1.36.18,1.92.82.15,1.6.26,2.29,0-.54-.37-1.07-.76-2.01-.73-.42-.81.28-1.14,1.01-1.1-.13-.54-1.2-.4-1.46-.09ZM10.39,44.4c-.61-.15-1.51-.02-2.1-.18.4.28,1.61.6,2.1.18ZM42.32,46.78c-.28.06-.79-.12-.91.09.3.09.82.32.91-.09ZM51.01,47.42c.73.43,2.12.35,3.2.27,1.26-.09,2.44-.27,3.11-.73-1.7-.29-4.45.08-6.31.46Z"/></g></g></g></g></svg>