<?xml version="1.0" encoding="UTF-8"?><svg id="Layer_2" xmlns="http://www.w3.org/2000/svg" viewBox="0 0 68 64.23"><defs><style>.cls-1{fill:#5f5c5d;}</style></defs><g id="Layer_1-2"><path class="cls-1" d="M44.89,57.29c0,.52,0,.97,0,1.41,0,.26.04.52.05.78.06,1.34.11,2.67.17,4.01,0,.09.02.17.01.26-.02.34-.17.47-.5.42-.74-.12-1.48-.15-2.23-.04-.36.05-.73.03-1.09.03-1.49,0-2.99,0-4.48,0-.71,0-1.42-.07-2.13-.09-.31,0-.62.05-.93.06-.59,0-1.18,0-1.77,0-.78-.02-1.56,0-2.34.08-.72.08-1.46,0-2.18-.01-2.38-.03-4.76-.25-7.14-.1-.4.03-.8-.02-1.2-.02-.71,0-1.42.03-2.14,0-1.23-.04-2.46-.11-3.69-.16-.15,0-.32-.03-.45.03-.41.19-.79.07-1.16-.08-.37-.15-.46-.51-.48-.86-.02-.43.01-.87.03-1.3,0-.28.02-.56.02-.83,0-.97.01-1.94,0-2.91,0-.92.12-1.87-.06-2.75-.22-1.11-.03-2.21-.17-3.31-.1-.78.02-1.55.13-2.33.11-.79.11-1.59.12-2.39,0-1.3-.06-2.61-.04-3.91.02-1.94-.11-3.89.06-5.83.03-.4,0-.8-.04-1.2-.03-.34-.25-.44-.53-.24-.32.23-.64.46-.87.81-.34.53-1,.57-1.3.06-.63-1.07-1.54-1.88-2.42-2.71-.95-.9-1.82-1.84-2.63-2.87-.38-.49-.89-.88-1.33-1.32-.62-.63-1.24-1.26-1.83-1.92-.48-.54-.45-.81.04-1.35.69-.75,1.38-1.51,2.08-2.26.18-.19.44-.3.59-.5.7-.95,1.68-1.6,2.49-2.43,1.35-1.37,2.77-2.68,4.14-4.03.67-.66,1.3-1.35,1.95-2.03.18-.19.37-.26.64-.28,1.67-.09,3.33-.2,4.99-.32.08,0,.18-.03.23-.08.36-.33.79-.35,1.25-.29.69.09,1.38.17,2.07.25.11.01.25-.03.33-.1.27-.23.55-.47.79-.75.7-.8,1.26-1.7,1.79-2.62.05-.09.1-.18.14-.28.12-.36.23-.43.59-.42.24,0,.47-.02.71-.04.48-.04.96-.08,1.49-.12,0-.12.04-.25.02-.38-.05-.51-.12-1.03-.18-1.54-.01-.1-.01-.21,0-.31.14-.85.45-1.59,1.18-2.11.38-.27.78-.53,1.11-.86.32-.31.64-.66.82-1.05.24-.56.05-1.14-.24-1.64-.67-1.16-1.68-1.1-2.66-.75-.22.08-.4.31-.57.5-.26.3-.48.64-.74.94-.21.25-.5.39-.83.36-.61-.05-.89-.72-.55-1.25.38-.58.85-1.1,1.38-1.55.86-.74,1.89-.89,2.98-.68.12.02.23.1.35.11,1.05.1,1.63.85,2.2,1.6.7.91.61,1.92.31,2.93-.27.89-.86,1.57-1.52,2.2-.3.29-.56.62-.84.92-.27.29-.33.63-.33,1.01,0,.5,0,1.01,0,1.55.61.06,1.16.07,1.7-.02.43-.07.76.03,1.02.35.28.35.52.74.81,1.08.57.67,1.17,1.32,1.89,1.85.14.1.26.22.37.36.29.36.58.74.88,1.13.75-.05,1.5-.04,2.23-.16.32-.05.65-.33.88-.59.77-.84,1.51-1.72,2.25-2.59.24-.28.46-.56.68-.86.2-.27.44-.42.79-.4.48.02.96,0,1.46,0-.02-.18-.02-.3-.04-.42-.18-1.38.21-2.53,1.29-3.44.17-.14.34-.29.52-.43.82-.62.96-1.45.71-2.37-.07-.28-.17-.58-.36-.78-.62-.68-1.59-.7-2.32-.05-.33.3-.59.68-.9,1.01-.44.48-1.04.39-1.26-.22-.07-.2-.03-.48.04-.7.21-.63.72-1.03,1.24-1.36.45-.28.97-.44,1.46-.64.63-.25,1.27-.11,1.9.02.52.1.9.47,1.21.86.62.8,1.01,1.7,1.01,2.74,0,1.08-.35,2.01-1.27,2.65-.86.61-1.12,1.5-1.15,2.49,0,.15.02.31.03.52.37.04.74.09,1.12.13.19.02.38.01.57,0,.52-.05.87.14,1.04.65.05.16.18.3.27.44.28.44.56.88.85,1.31.23.34.49.67.74,1,.12.15.27.27.37.44.31.51.8.73,1.33.94,1.21.48,2.46.84,3.6,1.48.72.41,1.52.68,2.26,1.07.94.48,1.85,1.02,2.78,1.52.38.2.77.39,1.17.55.79.32,1.54.71,2.19,1.29.06.06.13.12.21.15,1.06.5,1.85,1.33,2.62,2.19.1.11.25.19.37.29.22.19.46.37.65.6.32.38.3.61,0,1.01-.05.07-.1.15-.17.2-1.03.82-1.88,1.86-2.97,2.62-.54.38-1.03.82-1.55,1.23-.13.11-.29.27-.43.26-.25-.02-.52-.1-.72-.24-.65-.46-1.27-.96-1.89-1.45-.08-.06-.17-.15-.19-.24-.09-.38-.4-.55-.69-.74-.49-.34-.94-.18-1.05.4-.09.47-.13.97-.12,1.45.02,1.25.09,2.5.13,3.75.03.9.07,1.8.07,2.71,0,.69-.08,1.39-.1,2.08-.01.8,0,1.6.02,2.39.03,1.16.13,2.31.05,3.48-.1,1.34.02,2.71.03,4.06,0,2.55,0,5.11,0,7.66,0,.33.06.65.09.98.02.21.05.42.04.62-.02.43-.14.55-.57.55-.66,0-1.32-.02-1.98-.04-.36,0-.73-.02-1.09-.01-.19,0-.38.04-.57.04-1.8.05-3.61.11-5.42.13-1.06,0-2.12-.06-3.18-.08-.19,0-.38.02-.63.03ZM57.12,50.19c.54-.51.58-.67.38-1.29-.11.12-.22.23-.32.34-.02.03-.05.05-.07.07-.18.23-.18.59.01.87-.12.33-.12.63.11.92.43-.24.46-.34.31-1.09-.14.06-.28.12-.42.18ZM56.61,50.65c.24-.3.19-.63.13-1.03-.26.14-.47.26-.71.4.1.27-.02.61.33.75-.2.31-.03.57.08.88.2-.12.35-.22.51-.31-.04-.21-.06-.4-.12-.58-.02-.05-.15-.07-.22-.1ZM52.35,31.97s-.09.09-.13.14c-.21.04-.28.19-.25.39.05.28-.07.51-.23.72-.14.19-.27.38-.4.58-.12.18-.22.39-.37.55-.32.34-.76.55-1.02.97-.04.06-.2.05-.33.08.02-.18.03-.31.04-.44-.14.09-.26.21-.24.32.06.35-.1.63-.28.86-.22.28-.34.62-.77.76-.34.11-.46.52-.27.94-.3-.13-.57.26-.77-.1-.16.25-.31.48-.49.75-.41-.38-.79-.73-1.17-1.08v.43c-.33-.37-.59-.66-.9-1.01.19.78.37,1.49.55,2.21h-.29c.04.2.08.36.13.6-.15-.12-.23-.2-.42-.36.06.26.07.4.12.54.09.23.2.44.29.67.2.46.27.96.05,1.41-.1.21-.1.33-.02.51.08.18.21.35.11.59-.09-.08-.15-.15-.28-.27.12.42.22.75.33,1.12-.16-.05-.25-.07-.37-.11.16.34.3.64.43.94-.03.02-.06.04-.09.05-.12-.13-.23-.25-.35-.38l-.09.05c.14.31.28.61.41.91-.09.07-.23.17-.23.18.15.24-.11.37-.16.53.14.46.29.89.4,1.34.03.14-.04.32-.07.47-.02.08-.08.18-.06.24.22.54.07,1.09.12,1.65-.11-.02-.18-.03-.29-.05.14.31.26.56.34.75-.05.16-.11.28-.1.38.05.53.12,1.05.19,1.58-.11.02-.18.03-.2.03.1.45.18.86.27,1.29-.12-.03-.18-.05-.24-.06.04.15.07.27.1.4-.04-.02-.08-.03-.13-.05-.1-.13-.19-.26-.35-.47-.02.3-.03.5-.05.73.18-.12.3-.2.41-.28.07.28.14.55.22.88-.08.17-.19.4-.33.66.12.22.26.48.42.77-.16.03-.25.04-.41.07.11.12.18.26.27.26.53.05,1.07.08,1.61.08.45,0,.9-.08,1.35-.07,1.2.02,2.39.08,3.59.09.9.01,1.81-.01,2.71-.03.99-.02,1.97-.05,3.01-.08,0-.12,0-.31,0-.49,0-.23-.04-.45-.04-.68,0-.82.03-1.63.02-2.45,0-.18-.04-.38-.12-.55-.15-.31-.35-.59-.54-.9-.18.12-.34.24-.55.38.35.84.68,1.64,1.02,2.44-.04.02-.07.03-.11.05-.36-.78-.72-1.57-1.1-2.39-.14.08-.3.17-.49.28.4.91.78,1.78,1.16,2.64-.72-.69-.93-1.66-1.36-2.52-.3.13-.57.24-.84.36-.02-.04-.04-.07-.06-.11.27-.18.53-.36.79-.54-.14-.56-.28-1.09-.42-1.62.04-.01.08-.02.12-.03.18.51.36,1.02.55,1.56.21-.13.37-.22.51-.3-.12-.57-.2-1.09-.35-1.59-.09-.29-.02-.33.24-.41.43-.13.78-.38.72-.93,0-.07.03-.14.08-.33.04.28.07.43.1.63.41-.3.6-.63.58-1.1-.05-1.56-.07-3.12-.09-4.69-.02-1.51-.03-3.02-.05-4.53,0-.52,0-1.04,0-1.56.05-1.67.14-3.33.05-5-.08-1.35-.03-2.71-.07-4.06-.01-.47.11-.88.27-1.3.13-.34.41-.5.73-.62.28-.11.45.11.63.26.11.09.23.16.34.24.77.59,1.54,1.18,2.32,1.77.31.24.63.46.9.65.3-.27.53-.49.78-.71.74-.63,1.44-1.32,2.24-1.86.67-.45,1.1-1.08,1.67-1.61-.05-.09-.08-.16-.12-.21-.54-.54-1.05-1.11-1.63-1.6-.28-.23-.6-.4-.8-.72-.03-.05-.11-.1-.17-.11-.48-.12-.8-.47-1.16-.77-.32-.27-.65-.52-1.07-.63-.2-.05-.38-.17-.56-.27-.81-.44-1.6-.89-2.42-1.31-.98-.51-1.98-1-2.97-1.49-.61-.3-1.21-.62-1.84-.84-1.21-.41-2.35-.98-3.47-1.59-.27-.15-.52-.19-.78-.05-.33.18-.66.38-.99.57-.36.2-.48.49-.39.91.23,1.01-.03,1.85-.96,2.46.22.2.43.39.63.58.38.36.75.72,1.12,1.09.36.35.71.71,1.06,1.07.31.31.66.58.92.92.43.57.98.97,1.53,1.4.65.51,1.39.93,1.88,1.63.17.24.35.48.51.72.3.45.35.92.11,1.41-.21.43-.48.84-.38,1.36,0,.05-.05.12-.07.17-.1-.03-.16-.05-.25-.07.04.2.07.35.12.6-.2-.04-.34-.07-.49-.1.01.19.03.39.04.58-.22-.03-.42-.06-.62-.09.01.12.02.21.03.32h-.25c-.24.6-.44.81-.81.83-.02-.14-.05-.29-.09-.53-.24.28-.43.5-.62.72ZM38.29,15.79c.36.35.39.74.44,1.12.04.36.08.72.15,1.08.17.96.35,1.91.53,2.86.12.68.24,1.37.36,2.05.04.26.07.52.11.77.11.74.04,1.49.28,2.21.14.41.23.84.3,1.26.08.49-.2.74-.68.59-.41-.12-.81-.3-1.22-.45-.26-.1-.52-.19-.77-.29-.52-.19-1.03-.39-1.55-.58-.49-.18-.98-.36-1.47-.53-.3-.1-.61-.15-.9-.26-1.11-.39-2.16-.93-3.33-1.17-.03,0-.06-.03-.1-.04-.74-.23-1.49-.46-2.23-.68-.09-.03-.18-.03-.32-.04.03.46.07.87.08,1.29.02.69.03,1.39.04,2.08.01.88.02,1.77.02,2.65,0,.26-.02.52-.02.78.02.88.04,1.77.07,2.65.02.87.05,1.73.08,2.6.03.88.1,1.77.1,2.65,0,1.56-.08,3.12-.09,4.69-.01,2.81.27,5.62.13,8.44-.08,1.68-.02,3.37-.03,5.06,0,.5-.03,1.01,0,1.51.05,1.35.25,2.7.13,4.06-.04.38,0,.76,0,1.16.48.03.91.08,1.34.08,1.61,0,3.23.08,4.84-.08.54-.05,1.1.09,1.66.09.99,0,1.98-.03,2.97-.05.64-.01,1.3-.11,1.92-.01.52.08,1.03.1,1.55.05.52-.04,1.03-.1,1.55.01.03,0,.06-.02.1-.04.01-.04.04-.09.03-.14-.15-1.55.05-3.12-.16-4.67-.06-.43-.02-.87-.02-1.3,0-1.11-.01-2.22,0-3.34.01-.89.06-1.77.08-2.66,0-.21-.02-.42-.05-.62-.11-.71-.17-1.41-.11-2.13.05-.62.07-1.25.07-1.87,0-1.23,0-2.47-.02-3.7,0-.16-.02-.31-.04-.46-.03-.31-.08-.61-.09-.92-.03-.69-.05-1.39-.06-2.08,0-.38-.03-.77.05-1.14.09-.42.07-.82.07-1.24,0-.47.02-.93.07-1.4.04-.35.19-.43.53-.41.42.03.75.23,1.05.52.33.32.7.6,1.06.9.13-.09.22-.14.3-.21.68-.65,1.36-1.29,2.02-1.96.58-.6,1.13-1.23,1.68-1.84.97-1.07,1.93-2.14,2.89-3.21.42-.46.85-.92,1.28-1.37.19-.2.26-.51.09-.76-.13-.2-.31-.36-.49-.52-.24-.22-.52-.41-.76-.63-.56-.54-1.12-1.09-1.67-1.64-.47-.46-.93-.94-1.39-1.4-.09-.09-.16-.2-.27-.25-.43-.2-.68-.58-.97-.92-.32-.36-.66-.71-1-1.05-.6-.6-1.29-1.11-1.78-1.82-.23-.34-.55-.62-.86-.89-.56-.49-1.12-.99-1.54-1.62-.16-.24-.37-.46-.58-.67-.1-.1-.27-.16-.41-.17-.66-.03-1.32-.02-1.97-.04-.43-.01-.86-.07-1.29-.06-.54.01-1.07.07-1.77.12ZM11.93,63.1c.23-.01.45-.02.67-.03.15-.01.33-.1.46-.06.6.2,1.21.05,1.81.11.46.04.93.11,1.39.12.99.02,1.98,0,2.97,0,.21,0,.41.05.62.07.24.03.48.09.71.09.59.01,1.18,0,1.77,0,1.72,0,3.44-.01,5.16-.02.15,0,.29-.03.47-.05,0-.21,0-.36,0-.52-.03-.57-.1-1.14-.11-1.71-.02-1.34-.02-2.68-.02-4.01,0-1.74.02-3.47.02-5.21,0-2.05,0-4.1-.02-6.15,0-.87-.07-1.73-.07-2.6-.01-1.81.02-3.62,0-5.42-.01-1.81-.06-3.61-.09-5.42-.02-1.35.02-2.71-.08-4.06-.07-.86-.14-1.73-.14-2.59,0-.49.01-.97.01-1.46,0-.13-.02-.26-.04-.46-.63.19-1.21.35-1.78.54-.7.24-1.4.52-2.1.78-.21.08-.42.15-.63.23-.93.37-1.85.79-2.81,1.11-1.27.42-2.56.76-3.85,1.12-.16.05-.34.07-.51.06-.31-.02-.42-.19-.35-.49.22-.94.45-1.88.66-2.83.1-.42.17-.85.25-1.27.11-.61.19-1.22.3-1.83.04-.2.14-.4.16-.6.04-.66.18-1.3.39-1.92.04-.13.07-.27.06-.41-.03-.47.05-.91.14-1.37.09-.43.12-.86-.28-1.28-.52,0-1.09,0-1.66,0-.24,0-.49-.01-.73,0-.48.05-.96.16-1.44.16-.52,0-.92.09-1.31.53-.76.85-1.63,1.61-2.45,2.41-.1.1-.22.19-.27.31-.25.54-.7.9-1.15,1.26-.54.43-1.09.86-1.61,1.33-.49.44-.94.92-1.4,1.39-.34.35-.67.7-1.01,1.05-.73.74-1.47,1.47-2.21,2.21-.37.37-.73.74-1.09,1.11.44.48.81.92,1.21,1.33.65.66,1.33,1.27,1.96,1.94.4.43.78.88,1.28,1.21.13.09.23.21.33.33.47.53.94,1.07,1.41,1.6.08.09.16.18.26.25.66.48,1.15,1.11,1.59,1.77.13.19.3.36.45.55.26-.24.46-.47.71-.63.25-.17.55-.29.83-.42.57-.26,1.14.2,1.15.74.02.75.04,1.49.04,2.24,0,.68-.05,1.36-.04,2.03.02,1.69.09,3.37.08,5.06,0,2.07-.09,4.13-.1,6.2-.01,1.56.12,3.13-.05,4.69-.01.1.01.21.01.31.04,1.58.09,3.16.12,4.74,0,.1-.03.21-.03.31,0,.47,0,.93,0,1.51ZM16.17,26.83c.46-.13.78-.21,1.09-.31,1.04-.33,2.08-.67,3.11-1.01.25-.08.51-.14.74-.24,1.79-.8,3.66-1.39,5.52-2,.47-.15,1-.24,1.48-.18.61.08,1.19.34,1.78.52.13.04.27.06.4.09.34.07.69.12,1.01.23,1.29.45,2.55.98,3.87,1.36,1.24.35,2.43.92,3.64,1.4.2.08.39.15.64.25-.45-3.82-.94-7.55-1.8-11.28-1.26.11-2.56-.06-3.83.18-.05.96.01,1.86-.23,2.75-.34,1.27-1.05,2.2-2.2,2.8-.23.12-.47.23-.69.36-1.1.64-2.26.95-3.53.71-.24-.04-.48-.09-.72-.12-.97-.13-1.9-.36-2.59-1.12-.23-.26-.42-.55-.63-.82-.55-.75-.93-1.58-1.14-2.49-.16-.72-.28-1.46-.42-2.24-1.19-.17-2.39-.33-3.6-.5-.01.09-.04.17-.03.25.06,1.03-.08,2.05-.25,3.05-.23,1.37-.5,2.73-.74,4.09-.03.15-.03.31-.06.46-.14.75-.27,1.5-.43,2.25-.1.49-.24.96-.4,1.57ZM24.41,20.47c.47-.24.9-.47,1.34-.67.55-.25,1.11-.48,1.67-.72.7-.31,1.37-.68,2.09-.93,1.02-.36,1.93-.95,2.9-1.4.02-.01.03-.06.04-.09-.11-.39-.3-.71-.63-.97-.27-.21-.55-.4-.83-.59-.82-.56-1.71-.88-2.69-.99-.89-.1-1.73.04-2.54.38-1.18.49-2.03,1.43-2.97,2.25-.17.15-.12.3-.06.47.25.66.52,1.32.75,2,.18.51.52.89.93,1.25ZM24.92,20.8c.54.43,1.09.37,1.59.39.04.14.04.29.11.34.15.11.18-.07.27-.14.06-.05.15-.09.23-.09.24,0,.48.03.74.05v.44s.06,0,.09,0c.01-.16.02-.32.04-.51.58-.1,1.14-.22,1.6-.6.04-.03.1-.03.15-.05.44-.13.88-.26,1.43-.42-.19.21-.32.35-.44.49.01.03.03.05.04.08.25-.12.5-.23.81-.38-.38-.15-.42-.19-.3-.39.06-.1.15-.19.25-.25.19-.11.39-.2.62-.31-.03.15-.05.27-.07.39.14-.21.47-.33.28-.66-.02-.03.02-.15.07-.17.12-.07.31-.09.36-.18.06-.11-.02-.29-.02-.43,0-.04.04-.1.08-.13.25-.28.15-.6.17-.94-2.71,1.17-5.37,2.32-8.07,3.49ZM43.09,14.98c.28.13.6.21.83.39.6.49,1.17,1.03,1.74,1.56.64.6,1.26,1.22,1.9,1.83.77-.35,1.14-1.19.89-2.01-.03-.08-.05-.18-.11-.23-.39-.29-.67-.7-1.15-.87-.42-.15-.84-.33-1.23-.55-.94-.51-1.9-.32-2.86-.14ZM57.59,52.18v-1.07c-.38.29-.39.37,0,1.07ZM29.62,21.39c.23-.27.23-.28.06-.63-.02.23-.04.41-.06.63ZM51.69,32.64c-.36.21-.36.4-.19.67.06-.22.11-.4.19-.67ZM44.95,52s-.02,0-.03,0v.71s.06,0,.09,0c-.02-.24-.04-.47-.06-.71ZM54.24,30.13s-.06-.07-.09-.1c-.07.09-.14.17-.21.26.03.03.06.05.09.08.07-.08.15-.16.22-.24ZM45.47,36.55c.13.19.19.28.28.41.1-.26-.04-.3-.28-.41ZM44.91,40.92s.05-.02.08-.03c-.04-.1-.08-.2-.12-.31-.03.01-.05.02-.08.03.04.1.08.21.12.31ZM46.24,37.52s.04-.03.06-.04c-.04-.08-.08-.15-.13-.23-.02.01-.04.03-.07.04.04.08.09.15.13.23ZM51.26,33.34c-.05-.05-.08-.07-.11-.09-.04.07-.08.14-.12.21,0,0,.06.06.07.06.05-.05.1-.1.16-.17Z"/><path class="cls-1" d="M52.35,31.97c.19.23.36.47.15.76-.06.08-.18.12-.28.17-.06-.1-.17-.2-.16-.3.01-.17.1-.33.15-.49.04-.05.09-.09.13-.14Z"/><path class="cls-1" d="M29.45,38.04c-.23.13-.35.25-.46.24-.09,0-.24-.17-.23-.26,0-.09.16-.25.25-.25.11,0,.23.12.45.26Z"/><path class="cls-1" d="M28.9,29.53c.11.19.21.29.22.4.02.16-.1.25-.26.26-.16,0-.32-.16-.26-.3.04-.11.15-.19.3-.35Z"/><path class="cls-1" d="M29.48,46.06c-.23.13-.35.25-.46.24-.09,0-.23-.17-.23-.26,0-.09.15-.25.24-.25.11,0,.23.12.45.26Z"/><path class="cls-1" d="M29.32,54.09c-.19.09-.31.18-.41.17-.08,0-.19-.16-.2-.25,0-.16.13-.25.28-.21.09.03.16.14.32.28Z"/><path class="cls-1" d="M8.56,33.61c-.12-.1-.24-.19-.35-.29-.44-.39-.85-.8-1.3-1.17-.98-.81-1.8-1.78-2.56-2.8-.08-.1-.21-.19-.1-.37.02-.04-.04-.16-.1-.21-.19-.17-.38-.36-.6-.49-.55-.32-1.12-.61-1.79-.97.45-.04.64-.29.82-.55.1-.14.23-.26.36-.38.54-.54,1.07-1.09,1.62-1.62.23-.23.43-.49.79-.57.12-.02.21-.17.31-.26.36-.38.7-.77,1.07-1.14.19-.19.42-.33.63-.5.03.02.06.05.08.07-.04.1-.06.22-.12.3-.16.2-.34.39-.53.58-.96.96-1.91,1.92-2.87,2.88-.16.16-.36.28-.52.43-.23.21-.44.42-.7.67.71.47,1.43.79,1.95,1.36-.02.11-.09.24-.05.29.15.21.32.41.51.59,1.15,1.12,2.24,2.28,3.23,3.54.13.17.25.35.37.53-.04.03-.08.06-.12.09Z"/><path class="cls-1" d="M16.92,56.77c.15-.08.29-.15.44-.23.02.03.04.06.07.09-.36.53-.9.86-1.46,1.22-.1-.13-.19-.25-.29-.37h-.4c.1-.11.18-.19.25-.27-.09-.35-.34-.18-.62-.16.23-.21.31-.38.14-.63-.11-.17-.1-.41-.15-.63.21.04.24.37.44.2.08-.06.04-.27.05-.34h.39c-.01-.12-.01-.25-.03-.37-.02-.1-.06-.19-.09-.29.3-.02.27.53.65.29-.02.1-.04.2-.05.3-.04.22.34-.01.28.26-.02.12.03.25.06.49.47-.38.86-.7,1.25-1.02-.11.37-.38.59-.64.83-.1.09-.23.16-.32.27-.07.09-.08.22-.11.33.04.02.09.03.13.05ZM16.57,56.65c-.19.18-.43.3-.13.55.2-.13.42-.24.13-.55ZM16.22,56.66c.08-.13.33-.15.18-.39-.03-.04-.16-.07-.21-.04-.19.12-.2.26.03.43ZM15.86,56.64q-.35.14-.12.4c.23-.08.22-.23.12-.4ZM15.7,56.23q-.46.02-.2.35c.08-.13.14-.24.2-.35ZM16.29,57.38c-.1-.25-.21-.33-.36-.16-.05.05-.02.17-.02.26.12-.03.25-.07.38-.1ZM15.98,55.7c-.08.15-.13.23-.17.32,0,.01.08.09.11.08.15-.05.23-.14.06-.4Z"/><path class="cls-1" d="M26.46,54.55c-.27,0-.48-.23-.48-.5,0-.27.23-.5.49-.5.28,0,.53.26.52.53-.02.26-.25.48-.52.47Z"/><path class="cls-1" d="M26.56,29.53c.25,0,.46.21.46.47,0,.25-.21.46-.47.46-.25,0-.47-.22-.47-.46,0-.25.22-.46.47-.46Z"/><path class="cls-1" d="M27.03,37.97c0,.26-.2.46-.46.46-.25,0-.47-.21-.47-.45,0-.25.21-.46.46-.46.26,0,.46.19.47.45Z"/><path class="cls-1" d="M26.49,45.7c.23-.01.43.16.46.4.02.26-.16.48-.42.49-.23.01-.43-.17-.45-.4-.02-.26.16-.48.41-.49Z"/><path class="cls-1" d="M63.01,28.17c.23-.7.67-1.25,1.26-1.7.57-.43,1.12-.87,1.68-1.31.07-.05.14-.09.27-.18-.72-.67-1.37-1.27-2.01-1.88.09-.2.22-.18.34-.08.32.24.64.47.94.74.32.29.62.6.93.91.26.26.26.36-.02.57-.66.5-1.34.99-1.99,1.51-.25.2-.47.46-.68.71-.21.25-.4.52-.6.78-.04-.02-.08-.04-.12-.07Z"/></g></svg>