<?xml version="1.0" encoding="UTF-8"?><svg id="Layer_2" xmlns="http://www.w3.org/2000/svg" viewBox="0 0 61.16 64"><defs><style>.cls-1{fill:#5f5c5d;fill-rule:evenodd;}</style></defs><g id="Layer_1-2"><path class="cls-1" d="M28.78.18c-.24,1.04-2.19,1.3-2.08,2.74.11,1.49,3.67,2.05,3.29,4.72-.77,1.6-1.86,3.47-4.16,3.18-.28-1.25.99-1.14,1.53-1.43.68-.36,1.63-1.17,1.64-2.08.04-1.98-3.15-2.15-3.29-4.28-.05-.72,1.33-3.81,3.07-2.85Z"/><path class="cls-1" d="M20.12.84c-.43.92-1.47,1.24-2.08,1.97-1.02,2.28,1.78,3.03,2.3,4.39.83,2.13-1.05,3.66-3.4,3.84-.1-.22-.22-.44-.33-.66.66-1.24,2.74-.53,2.96-1.97.21-1.43-2.84-2.38-2.52-5.15.17-1.45,1.22-2.59,3.07-2.41Z"/><path class="cls-1" d="M10.58,1.17c-.31,1.34-1.96,1.34-1.86,2.74.08,1.24,3.65,2.41,2.74,4.82-.34.91-1.47,1.31-2.74,1.76-.06-.2-.06-.46-.22-.55.5-.98,2-.92,2.08-2.08.1-1.43-2.59-2.02-2.74-3.62-.06-.61.34-1.04.55-1.86.5-.54,1.28-1.79,2.19-1.21Z"/><path class="cls-1" d="M37.77,2.05c-.21.59-.58,1.03-1.1,1.32.86,1.86,3.2,3.41,1.75,6.03-.92.49-2.38.95-3.62.77-.21-.35-.23-.65-.11-1.1,1.13-.22,2.5-.21,3.29-.77.71-2.09-2.79-3.5-2.63-5.15.1-.98,1.16-1,2.41-1.1Z"/><path class="cls-1" d="M20.12,18.38c.41.26-.2,1.12-.33,1.54-3.46-.63-8.01.7-11.18,0-.36-.39.22-.51.22-.88,3.04.06,7.94-.43,11.3-.66Z"/><path class="cls-1" d="M23.73,18.82c.28.44.05,1.18-.55,1.1-.3-.49-.26-1.17.55-1.1Z"/><path class="cls-1" d="M34.7,19.04c.09.71-.18,1.06-.44,1.42-1.87-.39-5.21.12-6.91-.77.15-1.47,2.11-.48,3.62-.44,1.51.05,2.69-.34,3.73-.22Z"/><path class="cls-1" d="M44.68,14c.2,1.27.56,3.39.33,4.82,5.56-.22,10.92-.45,15.24,1.53,2.34,6.57-.52,15.5-.88,22.37-.7,1.42-1.13,3.1-1.98,4.39-3.51,1.5-9,2.5-13.7,1.75-1.13,2.24-2.17,4.56-5.48,4.6.07,1.29.03,2.82-.44,4.06,4.44.33,10.27.17,15.02.33.96.03,2.01-.4,2.74.33.02,2.39-2.76,3.2-3.73,5.48-4.74-.1-10.6.25-15.9.33-2.88.04-6.11-.49-9.21-.88-5.85-.73-11.52-.32-17.21-.99-.9-.1-2.02-.54-3.07-.55-.6,0-1.09.29-1.64.22-1.04-.14-1.42-1.17-2.52-1.42-.66-1.64-2.85-2.8-2.08-5.15,2.44.12,5.93.15,8.77.22.51-.74.34-2.48.22-3.51-1.89-1.2-4.24-2.19-5.04-4.28-.81-2.09-.8-4.8-.88-7.35-.12-3.84.12-8.2.22-12.39.07-2.93-.08-5.87.44-8.88.17-1,.6-2.06.55-2.74-.04-.53-.53-.86-.44-1.32.29-.96,1.21-.61,2.08-.66,1.1-.06,1.97-.24,3.29-.22,1.14.01,2.27-.21,3.4-.22,8.18-.1,16.4.29,24.89-.11,2.3-.11,4.67-.37,7.02.22ZM15.62,51.5c1.72-3.5,2.8-7.66,4.93-10.75.26.04.42-.02.55-.11,1.13-2.23,2.3-4.42,4.17-5.92.28,0,.12.47.55.33.36-1.03.99-1.78,1.42-2.74-.49-.08-.8-.1-1.54-.11-1.06,1.39-1.68,3.22-2.96,4.39-.21-.05-.28-.24-.55-.22-.51.65-.97.94-1.42,1.75-.45.82-.46,1.77-.88,2.41-.32.49-1.08.64-1.42,1.1-.22.28-.2.84-.44,1.21-.52.78-.92,1.47-1.32,2.3-.9,1.91-2.08,3.68-2.63,5.81.39.36.29-.44.66-.44-.56.75.32.98.88.99ZM6.3,16.19c-1.43,3.35-.98,8.2-1.1,12.83,3.89-.08,7.76.34,11.29.55,2.82.17,5.62-.07,8.44.11,6.04.39,12.25,1.09,18.2.55-.11-4.67.69-9.85.11-14.47-11.74.26-24.95.04-36.95.44ZM58.27,23.87c.38.08.61-.55.33-.77-.22.15-.43.3-.33.77ZM45.01,25.95c-.04,6.83-.37,11.9-.77,17.65,3.71-.02,7.33-.13,9.87-1.32.12-5,1.8-11.22.66-16.01-2.89-.91-6.69-1.24-9.76-.33ZM56.96,27.49c.06-.23.27-.31.22-.66h-.33c.06.19-.13.64.11.66ZM56.85,30.01c.28-.01.42-.16.44-.44-.34-.05-.49.1-.44.44ZM6.96,35.38c-.6,1.19-1.42,2.16-1.97,3.4.28,1.64.07,3,.33,4.38.83-1.03,1.28-2.44,1.75-3.84-.33-.03-.67.31-.77-.11.09-1.17,1.3-2.12,1.64-3.4-.27-.08-.45.49-.66.11.36-2.02,1.89-2.86,2.52-4.61-.25-.16-.53-.27-.99-.22-.19,1.76-2.34,2.56-1.86,4.28ZM8.82,34.39c1.43,1.21-1.44,2.69-.88,3.73,1.31-2.28,3.06-4.1,3.95-6.8-1.66-.04-2.13,2.03-3.07,3.07ZM5.31,36.92c.54-.44.32-.82.22-1.54.66-1.39,1.52-2.58,2.3-3.84-.01-.13-.03-.26-.22-.22-.75,1.79-3.41,2.98-2.3,5.59ZM13.21,31.43c-2.5,3.86-5.29,7.51-7.13,12.28-.21.01.09.41.11.55-1.43.97.1,3.26.99,3.95,1.46-3.62,3.22-6.94,4.83-10.42.17-.16.43-.23.66-.33.88-2.16,2.5-3.57,3.29-5.81-.87-.44-1.41.64-1.75,1.2-.88,1.46-1.91,2.82-2.63,4.28-.84.4-.98,1.5-1.64,2.08-.5,2.39-1.95,3.83-2.63,6.03-.09.46.21.52.22.88-.59-.15-.29.58-.88.44-.34-1.3.51-2.54.99-3.73.49-1.22,1.1-2.46,1.42-3.73,1.42-1.36,2.34-3.21,3.07-5.26,1.2-.22,1.5-1.35,1.86-2.41-.4.1-.58-.19-.77,0ZM5.1,33.3c.8-.23.94-1.11,1.21-1.86h-1.1c-.15.5-.34,1.31-.11,1.86ZM13.65,37.68c.95-.98,1.39-2.49,2.41-3.4,1.11-.35,1.41-1.51,1.97-2.41-.16-.17-.56-.1-.88-.11-1.04,2.03-2.67,4.05-3.51,5.92ZM17.7,33.84c.77,2.2-2.26,3.21-1.54,5.37-2.28,3.2-4.06,6.9-5.48,10.96.34.24.65.52,1.21.55,2.29-6.08,5.03-11.71,8.55-16.56.21-.22.52-.05.77,0,.26-.8.87-1.25,1.1-2.08-2.22-.54-2.11,3.06-3.95,3.62-.13-1.53,1.38-2.34,1.64-3.84-1.4.03-1.35,1.5-2.3,1.97ZM21.54,35.38c.79-.2.79-1.19,1.87-1.1.26-.79.9-1.22.99-2.19-1.84.21-2.02,2.08-2.85,3.29ZM25.05,36.8c-.03-.39.2-.53.22-.88-1.48,1.34-2.71,2.92-3.29,5.15-.32.3-.74.5-1.21.66-1.62,3.1-3.16,6.27-4.28,9.87.56-.09.8.15,1.32.11.87-3.01,1.99-6.04,3.4-8.44.44-.76.9-1.96,1.97-2.08.22.21.07.63,0,.88.68-.08.26-.51.22-.99,1.46-2.08,2.53-4.56,4.39-6.25.33-.08.21.3.55.22.48-.87,1-1.71,1.43-2.63-3.4-.44-2.39,4.11-4.71,4.38ZM30.97,32.42c-1.27,1.25-1.86,3.19-2.96,4.6-.41.04-.29-.44-.77-.33-1.18,1.6-2.15,3.41-3.29,5.04.1.19.3.28.22.66-2.09,2.48-3.29,5.84-4.38,9.32.36.22,1.11.06,1.64.11.19-.25.26-.61.22-1.1,1.24-3.44,2.73-6.63,4.17-9.87,1.39-1.68,2.82-3.32,4.06-5.15.24-.25.38.09.77,0,.46-1.07,1.23-1.84,1.64-2.96-.37-.18-.9-.2-1.32-.33ZM30.97,36.48c-.15.4-.01,1.08-.55,1.1-.41.05-.39-.34-.66-.44-.93,1.37-2.57,2.62-2.85,4.28,0-.14.3-.14.33,0-2.43,2.68-3.93,6.31-4.93,10.42h1.42c1.36-3.79,2.33-7.98,4.6-10.85h.88c1.01-1.77,2.3-3.26,3.4-4.94.16-.21.53-.2.77-.33.37-.98,1.07-1.64,1.32-2.74-2.34-.97-2.36,2.49-3.73,3.51ZM34.04,36.37c.46-.02.7.18.77.55-.92,1.48-2.62,2.67-2.52,4.82.46-.1.62.11.77.33,1.71-2.6,2.43-6.2,4.17-8.77-2.1-.74-2.42,1.78-3.18,3.07ZM37,35.38c-.12.49.19.55.22.88-1.14,1.86-2.21,3.79-3.29,5.7.17.2.4.34.33.77-1.85,2.54-3.2,5.57-4.17,8.99.51.15,1.07.31,1.64.11-.13-3.14,1.83-5.39,2.74-8,.51-1.45.73-2.79,1.43-4.06.69-1.25,1.37-2.37,2.3-3.29.3-1.17.96-1.96,1.42-2.96-1.62-.81-1.96,1.05-2.63,1.86ZM39.42,36.37c-1.3,1.33-2.25,3.01-3.18,4.71.13.2.58.08.44.55-1.43,2.48-3.85,5.82-3.95,9.32-.14.37-.58.44-.66.88h1.21c.05-.39.18-.63,0-.99,2.03-6.01,4.56-11.52,7.89-16.23.23-.37.61-.02.88-.22,0-.4.27-.53.33-.88-2.26-.58-2.65,1.49-2.96,2.85ZM56.63,35.16c.1-.23.33-.32.33-.66-.45-.19-.59.5-.33.66ZM42.59,36.37c-.85,1.96-2.24,3.39-2.74,5.7-.42.31-.6.86-.88,1.32-.06.42.2.54.11.99-.34.03-.49.24-.77.33-.87,2.2-2.43,4.3-2.41,7.02h.88c.17-1.32.73-2.44,1.2-3.62.48-1.19.7-2.5,1.21-3.62.37-.81,1.16-1.38,1.54-1.97.87-1.38.85-3.26,2.08-4.38.03-.98.39-2.48,0-3.18-.65.44-.17.97-.22,1.42ZM12.66,50.84c.26-.03.42.02.55.11,2-3.31,2.75-7.54,5.04-10.42.28-.36.82-.52,1.09-.88.89-1.13,1.13-2.76,2.08-3.84-.48.38-.79.12-1.21-.11-2.81,4.68-5.87,9.7-7.57,15.13ZM38.32,41.74c.75.33.88-.8,1.21-1.43.61-1.15,1.78-3.15,1.54-4.28-1.02,1.72-2.32,3.74-2.74,5.7ZM14.31,39.22c-.75.57-1.05,1.71-1.54,2.52-.13.21-.41.22-.55.44-.55.85-1.16,2.1-1.64,3.18-.71,1.58-1.72,3.26-1.21,4.39.26-.04.24.2.55.11,1.23-2.86,2.67-5.52,3.84-8.44-.12-.17-.36-.23-.33-.55.83-1.62,2.07-2.83,2.63-4.71-1.02.33-1.23,1.48-1.97,2.08-.05.45.36.44.22.99ZM32.51,37.46c-.91,1.28-1.73,2.65-2.74,3.83.1.26.2.53.33.77,1.56-.93,1.98-2.99,2.96-4.5-.13-.09-.29-.14-.55-.11ZM11.56,40.75c-.88,1.58-1.69,3.06-2.52,4.83-.6,1.28-1.72,2.45-.77,3.4,1.61-3.86,3.7-7.36,5.15-11.07.12,0,.09-.14-.11-.11-.76.79-1.09,1.77-1.75,2.96ZM37.77,51.61c.93-.56,1.15-1.84,1.53-2.85.66-1.72,1.49-3.38,2.08-4.82.27-.24.55-.47.99-.55.08-.66.25-1.79,0-2.41-2.05,2.99-4.08,6.8-4.6,10.64ZM28.67,46.13c-.75,1.94-1.67,3.94-2.08,5.7.66.05.79.07,1.32.11.99-3.62,2.34-6.87,4.06-9.76-.02-.09-.09-.13-.22-.11-1.14.3-2.66,2.99-3.07,4.06ZM36.67,43.82c-.51.82-.86,2.14-1.32,3.29-.77,1.92-1.51,3.39-.88,4.71.74-.46.84-1.55,1.1-2.3.92-2.68,2.01-5.22,2.85-7.46-.33.75-1.27.98-1.75,1.75ZM57.39,42.95c.03-.34.11-.62.22-.88-.44-.06-.87.84-.22.88ZM28.89,42.73c-.28-.01-.16-.43-.44-.44-1.51,2.73-2.89,5.59-3.73,8.99.58-.24.34.04.33.55h.77c.92-3.54,2.92-6.58,3.95-9.65-.2.28-.54.41-.88.55ZM21.1,44.81c-.33,1.15-1.08,2.3-1.54,3.51-.42,1.11-.91,2.37-.77,3.4.68-.16.32-1.36.88-1.64.46-1.84,1.16-3.44,1.97-4.94v-.66c.48-.73,1-1.41,1.43-2.19-.86.64-1.23,1.77-1.97,2.52ZM29.11,50.73c.72-.17.86-1.07,1.1-1.64.82-2.03,1.8-3.99,2.52-6.03-.02-.09,0-.22-.11-.22-1.63,2.17-2.68,4.91-3.51,7.9ZM52.46,44.7c-.06.7.92,0,.33-.11-.02.13-.17.12-.33.11ZM39.3,51.06c.8-.14,1.15-1.28,1.54-2.08.63-1.32,1.47-2.69,1.43-4.17-.02-.08-.09-.13-.22-.11-.94,2.1-2.13,3.94-2.74,6.36ZM50.6,44.92c-.08.42.71.24.55-.11-.25-.03-.42.02-.55.11ZM52.13,46.78c.45-.03.35-.6.66-.77-.37.1-.59.36-.66.77ZM12.88,53.58c.37,0,.58-.15.77-.33-.3-.27-.83-.29-.77.33ZM24.17,54.68c.35-.24.9-.27.99-.77h-.88c.06.34-.2.39-.11.77ZM35.36,55.11c.16-.2.46-.27.55-.55-.46-.16-.79.37-.55.55ZM24.61,55.88c.41.01.59-.22.66-.55-.32-.3-.93.27-.66.55ZM4,58.63c.29.26.41.68.88.77.44-.77,1.22-1.19,1.32-2.3-1.39-.44-1.71.75-2.19,1.54ZM2.79,57.86c.43.29.98-.07.88-.66-.42-.28-.79.26-.88.66ZM6.08,59.39c1.07-.1,1.16-1.18,1.54-1.97-.02-.09-.09-.13-.22-.11-.4.74-.99,1.28-1.32,2.09ZM7.73,59.5c.19,0,.34.02.44.11.4-.69.89-1.3,1.2-2.08-1.15-.37-1.1,1.38-1.64,1.97ZM10.69,57.53c-.53.64-1.07,1.26-1.42,2.08,1.35.47,1.97-1,2.52-1.97-.47.06-.73-.08-1.1-.11ZM11.67,59.83c.83-.38,1.28-1.13,1.64-1.97-.71-.01-1.56,1.35-1.64,1.97ZM13.54,60.05c1.1-.29,1.53-1.25,1.97-2.19-1.16.16-2.03,1.17-1.97,2.19ZM15.4,60.27c.82-.54,1.34-1.36,1.75-2.3-.7.66-1.7,1-1.75,2.3ZM17.27,60.38c.79-.52,1.29-1.34,1.75-2.19-1.21.11-1.43,1.2-1.75,2.19ZM19.24,60.38c.46-.64,1.03-1.16,1.32-1.97-1.04.22-1.07,1.36-1.32,1.97ZM20.88,60.49c1.15.29,1.27-1.35,1.97-1.86-1.38-.53-1.55,1.07-1.97,1.86ZM23.08,60.71c1.03.19,1.33-1.2,1.86-1.86-1.36-.78-1.35,1.13-1.86,1.86ZM25.49,59.83c.42.42-.15.75,0,1.1.76-.33,1.06-1.13,1.54-1.75-.78-.45-1.17.34-1.54.66ZM27.24,61.04c.41-.47,1.48-1.32,1.09-1.86-.3.63-1.36,1.04-1.09,1.86ZM30.42,61.37c.16.17.56.1.88.11.38-.64.85-1.19.99-2.08-1.04-.13-1.54,1.05-1.86,1.97ZM29.11,60.27c.27-.02.34.17.55.22.11-.44.58-.51.55-1.1-.64.02-.92.4-1.1.88ZM32.4,61.58c1.41.35,1.65-1.42,2.41-2.08-1.54-.46-1.92,1.13-2.41,2.08ZM34.48,61.92c1.29-.17,1.54-1.39,1.97-2.41-.98.48-1.55,1.38-1.97,2.41ZM36.56,61.92c.25-.04.42.02.55.11.64-.75,1.34-1.44,1.76-2.41-1.33-.22-2,1.14-2.3,2.3ZM38.76,61.58c1.3.62,2-1.1,2.63-1.86-1.53-.44-2.05,1-2.63,1.86ZM41.06,61.8c.26.21.53-.12.87.11.4-.81,1.1-1.32,1.43-2.19-1,.03-1.72,1.27-2.3,2.08ZM44.35,61.8c.48-.61.96-1.24,1.32-1.97-1.02-.48-3.09,1.68-1.32,1.97ZM46.65,61.58c.35-.6.87-1.03,1.1-1.75-.85-.38-2.1,1.28-1.1,1.75ZM48.41,61.48c.31.21,1.09.12,1.42,0,.1-.7.66-.94.77-1.64-1.37-.43-2.22.34-2.19,1.64ZM51.26,61.26c.47-.34.73-.88,1.1-1.32-.46.27-1.25.79-1.1,1.32ZM29,61.26c.28.05.62-.39.33-.55-.03.26-.38.2-.33.55Z"/></g></svg>