<?xml version="1.0" encoding="UTF-8"?><svg id="Layer_2" xmlns="http://www.w3.org/2000/svg" viewBox="0 0 64 49.53"><defs><style>.cls-1{fill:#5f5c5d;fill-rule:evenodd;}</style></defs><g id="Layer_1-2"><path class="cls-1" d="M56.21,30.96c.4.57,1.05,1.24.88,2.14-1.02.13-1.15-1.25-1.7-1.84.11-.26.39-.35.81-.29Z"/><path class="cls-1" d="M55.7,33.03c-.07,0-.06.09-.07.15-1.15.04-1.81-1.03-2.87-1.33-.03-.25.03-.41.07-.59.15-.14.46-.22.59-.15.65.35,2.01,1.19,2.29,1.92Z"/><path class="cls-1" d="M9.93,32.22c.03.34-.24.57-.29.81-.37,1.58.44,2.92.88,4.05-.47.51-1.14-.4-1.4-.89-.62-1.16-.64-3.44.07-4.2.38-.06.58.06.74.22Z"/><path class="cls-1" d="M7.42,33.99c.34,1.2.6,2.24,1.4,2.95.46.4,1.09.54,1.4,1.1-1.48.53-4.38-2.48-3.17-4.05h.37Z"/><path class="cls-1" d="M50.76,41.72c.05.22-.07.27-.07.44-1,.44-2.31-.47-2.21-1.18.03-.24.19-.42.44-.44.48-.05,1.2,1.23,1.84,1.18Z"/><path class="cls-1" d="M50.39,43.05c-.43.59-2.12.54-2.58.22-.33-.23-.63-.96.07-1.03.36-.04.96.53,1.62.66.37.08.6-.1.88.15Z"/><path class="cls-1" d="M24,4.65c-.63-.03-1.04.18-1.47.52-.13.71-.94.73-1.03,1.47-.57-.23-.97-.04-1.11.52,1.39.67,2.72,1.27,4.13,1.69.6.18,2.06.43,2.8.3,2.72-.5,5.92-1.96,8.26-2.65.37-.11.73-.35,1.03-.3.56.09.75.82,1.03,1.25.23.07.39.36.59.59.6.7.56,1.44-.74,1.62-.98.97-2.69,1.29-3.54,2.36h-.52c-.79.51-1.83.88-2.87,1.33-.96.42-2.13.99-3.17,1.03-1.06.05-2.12-.55-3.17-.52-.36,1.8-.87,3.32-1.25,5.38-.09.5-.42,1.44-.22,1.77.28.47,4.16.71,5.23.81,2.53.23,6.48.26,8.85.22.75-.01,2.03,0,2.36-.29.48-.44.63-2.48.88-3.17-1.7-.14-4.4-.43-6.34-.81-.48-1.19.15-2.8.52-3.91.14-.43.26-1.1.52-1.33.53-.46,1.68-.27,2.58-.44.25-.05.48-.2.66-.22.75-.07,1.59.21,2.21-.3,1.59.51,4.06.23,6.26.3,1.01.03,2.02.24,2.87.22.5-.01.94-.23,1.33.07.49,2.14-.06,3.89-.37,5.9-1.11.71-3.23.79-5.01.59-.48,1.06-.94,2.15-1.1,3.54.48.38,1.22.25,1.84.3,1.57.11,3.96.33,6.12.52.24.27.25.78.29,1.25,2.29.4,4.33.81,6.04,1.69,2,1.03,3.15,2.84,4.35,4.64.91,2.6,1.4,5.35,1.03,8.11-.45,3.32-2.31,6.02-3.98,8.03-1.5.88-3.01,1.98-4.79,2.43-.26.07-.55-.06-.81,0-.1.02-.38.25-.66.29-1.81.27-3.78-.26-5.53-.81-1.25-.39-2.66-.98-3.61-1.55-1.18-.7-1.98-1.74-2.95-2.29-.46-.72-.89-1.46-1.55-1.99.02-.53-.2-.83-.37-1.18-4.98.63-10.93,1.18-14.74-.66-1.13,2.36-3.59,4.21-6.49,4.94-1.71.43-3.61.8-5.75.59-5.34-.54-10.5-3.55-12.16-7.96-.98-2.59-.32-5.25.44-7.59.59-1.83,1.53-2.9,2.8-3.98,1.15-.98,2.23-1.8,3.76-2.73,1.75-1.07,3.02-1.87,5.45-2.07,1.08-.09,2.24-.03,3.32.44,1.25-3.27,2.75-6.68,3.54-10.17-1.75-.99-4.74-1.34-5.82-2.95-.36-.54-.36-1.53,0-2.21,1.08-2.03,3.64-3.79,5.31-5.16.11-.27-.05-.65.22-.88.38-.22.54.13.88.15.29-.31.73-.3,1.11-.66.25-.24.15-.65.74-.74,1.12-.16,3.39,1.73,3.39,2.43,0,.76-1.49,1.34-1.62,2.21ZM21.64,1.78c.09.36.51.11.81.07.52.31.48,1.19,1.03,1.47.43-.88-.61-1.22-.29-1.99-.42-.42-1.22.11-1.55.44ZM21.28,4.43c.15-.58-.53-.93-.81-1.33h-.15c.25.51.37,1.15.96,1.33ZM19.58,4.28c.08-.45-.49-.25-.37-.74h-.29c.11.36.27.67.66.74ZM22.68,3.99c.04-.26-.22-.22-.44-.22-.1.33.3.36.44.22ZM18.03,4.28c-.41.47-1.07.84-1.62,1.4-1.31,1.32-2.27,2.77-.66,3.9.64.45,1.69.74,2.65,1.11,2.57.99,6.14,2.51,8.84,2.51,1.64,0,3.29-.79,4.35-1.47-.36-.55-.77-2.2-1.4-2.36-.9-.22-2.43,1.12-3.17,1.11-.5-.46-1.3-.43-2.06-.59-1.01-.21-1.98-.76-3.02-1.11-.92-.3-1.84-.35-2.43-.74-1.25-.81.35-1.67.81-2.43-.78-.43-1.63-.78-2.28-1.33ZM34.91,7.67c-.07.27.36.29.37.07-.1-.02-.12-.12-.22-.15-.02.06-.06.08-.15.07ZM33.22,8.26c.21.34.53.93.88.88-.03-.44-.25-.69-.44-.96-.18,0-.36-.01-.44.08ZM35.65,9.37c-.23-.04-.31-.23-.59-.22-.04.31.05.49.07.74.77-.24,1.41-.61,1.84-1.18-.16-.11-.32-.22-.59-.22-.11.43-.24.84-.74.88ZM32.33,9c.05-.27-.12-.33-.37-.3.01.21.13.31.37.3ZM33.07,10.11c-.1-.31-.14-.7-.52-.74.09.32.22.61.52.74ZM32.63,11.29c-.29-.54-.63-1.04-1.03-1.47.29.55.41,1.26,1.03,1.47ZM43.68,12.76v.66c-.97,1.34-2.04,2.58-3.02,3.91.42.02.64.25,1.11.22.9-1.15,1.94-2.26,2.73-3.39.31-.45.48-1.07,1.11-1.18.25.07.23.41.37.59-.85,1.46-2.15,2.47-2.8,4.13h.88c.45-.85,1.1-1.59,1.7-2.36.55-.71,1-1.94,2.06-2.06.51,1-.79,1.33-.96,2.14.2.1.15.44.44.44.93-.68,1.18-2.4,2.36-2.58-1.61-.51-3.87-.5-5.97-.52ZM40.22,12.76c-1.07,1.34-1.97,2.84-3.1,4.13-.18-.16-.59-.1-.59-.44.66-1.33,1.74-2.24,2.43-3.54-.28-.15-.49.06-.88,0-.75.78-1.23,1.82-1.99,2.58-.1.54-.37.91-.81,1.11-.18-.16-.26-.43-.59-.44-.16,1.15,1.67.93,2.65,1.18,1.21-1.44,2.69-3.01,3.54-4.57h-.66ZM42.21,12.76c-1.13,1.59-2.67,2.79-3.54,4.64.28.09.34-.01.66.07,1.19-1.54,2.6-2.85,3.54-4.64-.12-.12-.43-.06-.66-.07ZM20.83,12.83c-2.18,6.42-4.65,12.95-6.71,19.24.54.58,2,.46,2.58.59.61-.75.98-1.81,1.62-3.17.22-.47.78-1.16,1.11-1.77.24-.45.29-1.18.88-1.11.37.04.4.5.44.81,1.08.98,2.03,2.1,3.17,3.02.37-.48.96-.41,1.47-.15-.04-.72-.86-1.11-1.33-1.62-.43-.47-.7-1.05-1.11-1.47-.38-.24-1.13-1.39-.44-1.62.51-.17.98.68,1.33,1.11.46.56.92.97,1.03,1.4.39.33.73.57,1.1.96.3.31.56.89,1.03,1.03.33.1.67-.06,1.03-.07,1.92-.05,4.47-.05,6.56.07,1.16-1.08,2.35-2.12,3.1-3.61-1.13-.07-2.38-.21-3.61-.15-3.05.15-6.37-.57-9.14-.66-.77-.03-1.91.15-2.21-.81.25-.56.71-.27,1.18-.22,1.18.12,2.65.02,3.83.15,1.1.12,2.23.41,3.39.52,2.3.22,4.94-.11,6.71.29.62-.43,1.47-.1,1.47.44,0,.21-.5.72-.74,1.03-.76,1.03-1.79,2.15-2.36,2.95.77.34,1.6.07,2.43.15.51.05,1,.41,1.47.3.63-.15,1.02-1.26,1.33-1.7.48-.69.9-1.3,1.03-2.06.53-.29,1.07-.02,1.7,0,2.03.08,4.48-1,5.6.22-.1,1.71-.74,3.67-.88,5.31.4.26.77.56,1.33.66.05-.34.25-.53.37-.81.25-2.69.87-5.34.74-7.81-.87-.56-2.44-.53-3.61-.66-1.81-.21-4.05.06-4.94-.81.46-1.34.96-2.62,1.25-4.13-.86-.12-2.02-.08-2.73-.15-.72,1.02-.76,2.73-1.18,4.05-.7.69-1.96.32-3.24.37-5.07.2-10.82-.2-15.18-.81-.84-.48-.1-1.05.07-1.62.08-.27,0-.59.07-.88.41-1.87,1.3-4.2,1.25-5.97-.65-.38-1.4-.66-2.28-.81ZM48.03,17.25c-.07.18-.3.19-.22.52.67.15.84-.69,1.11-1.18.39-.72,1-1.25.88-2.28-.02-.06-.06-.09-.15-.08-.44,1.06-1.72,1.67-1.62,3.02ZM45.3,17.7c.2.14.64.04.96.07.18-.36.41-.67.59-1.03-.07-.35-.39-.44-.66-.59-.29.53-.75.87-.89,1.55ZM14.57,23.81c.24-.13.68-.06.59-.52-.2.05-.58-.09-.66.07.23.1-.14.33.07.44ZM10.15,23.89c-.01.18.11.23.22.29.17-.19.46-.28.52-.59-.31.04-.43.26-.74.29ZM12.87,24.63c.27-.05.37-.27.52-.44-.22.1-.46.19-.52.44ZM13.83,25.58c.26.28.79.3,1.25.37.24-.53.54-.98.59-1.69-.81.24-1.27.84-1.84,1.32ZM10.59,25.29c.27-.22.95-.43.81-.81-.31.23-.6.48-.81.81ZM8.08,26.03c.7-.07,1.29-.86,1.69-1.47-.66.4-1.3.81-1.69,1.47ZM11.55,25.88c.27.02.41-.08.59-.15,0-.2.04-.43-.15-.44-.09.25-.41.28-.44.59ZM52.53,25.88c.23.03.24-.16.22-.37h-.22c-.09.1-.09.27,0,.37ZM53.7,26.17c.14-.3.46-.42.96-.37.36.82-.63,1.07-.44,1.69.55-.36.86-.96,1.18-1.55-.4-.31-1.05-.37-1.77-.37.04.18-.09.54.07.59ZM8.75,26.98c.51.03,1.05-.65.81-.89-.18.39-.69.44-.81.89ZM55.62,27.87c.51-.33.78-.9.96-1.55-.57.26-.68.99-.96,1.55ZM12.58,26.69c-2.55.46-4.97,2.21-6.34,3.83-.05.06-.18.23-.22.29-2.03,3.25-1.09,7.71,1.55,9.29,3.86,2.31,9.87,3.14,13.71.3.13-.19.03-.61.3-.66.33-.22.62.29.88-.07-.06-.42-.48-.5-.66-.89-.29-.63-.25-1.5-.52-2.21.58-1.75,1.17-3.5,1.99-5.01-1.07-1.07-2.02-2.26-3.17-3.24-1.04,1.86-1.87,3.92-2.8,5.89.49.74,0,1.49-.29,2.07-1.87,1.82-5.23.78-5.82-1.55-.23-.9.05-2.21.96-2.8.33.06.44-.1.74-.07.74-1.49,1.4-3.07,1.84-4.86-.66-.33-1.35-.44-2.14-.3ZM56.73,28.38c.14.03.18.16.37.15.26-.52.53-1.05.74-1.62-.09,0-.1-.09-.22-.07-.24.57-.66.96-.88,1.55ZM47.59,27.43c.21.45.28.49.15,1.03.32,0,.47.17.81.15.12-.37.06-.79-.07-1.11-.24-.06-.65-.24-.88-.07ZM7.05,28.24c.41-.08.58-.41.81-.66-.11-.02-.12-.12-.22-.15-.27.2-.44.5-.59.81ZM43.17,28.02c.54-.1.97,0,1.47-.22-.24-.35-1.47-.41-1.47.22ZM58.64,27.57c-.19.69-1.08,1.53-.44,1.99.39-.52.68-1.14.81-1.91-.09-.06-.2-.1-.37-.08ZM49.06,44.75c1.23.2,2.01.45,3.32.3,3.12-.36,5.68-3.15,6.63-5.6.14-.35.23-.82.3-1.18.81-4.74-1.68-10.47-7.15-9.58-.29,1.7-.17,3.44-.81,5.01.35.24.69.49.81.96.6-.42,1.28-.98,2.28-.59.67.98,1.84,2.46,1.33,3.98-.35,1.04-1.68,1.75-2.8,1.4-.46-.14-.73-.68-1.25-.81-1.77,1.52-4.58,2.01-7.44,2.43.6,1.37,2.11,2.46,3.61,3.17.27.12.4-.24.81-.07.24.08.26.38.37.59ZM59.01,30.82c.34-.45.9-1.45.66-1.99-.27.61-.63,1.14-.66,1.99ZM44.49,31.11c1.01.32,2.2.45,3.24.74.3-.81.41-1.8.66-2.65-1.82.12-2.96.92-3.91,1.92ZM60.56,30.3c.12-.19.57-.62.22-.81-.09.21-.42.56-.22.81ZM41.54,30.52c.27.05.29-.15.29-.37-.23-.01-.25.19-.29.37ZM43.02,30.82c.1.1.32.07.52.08.03-.14.16-.19.15-.37-.24-.16-.52.14-.66.29ZM59.45,31.48c.46,1.41,1.08,2.65,1.11,4.5.4-.49.62-1.15.81-1.84-.31-.01-.41.14-.66,0-.27-.49.09-.97.15-1.55-1.37.14-.33-1.58-.44-2.06-.26.35-.3,1.23-.96.96ZM61.44,31.48c.12-.11.4-.48.07-.59-.1.13-.34.54-.07.59ZM3.88,31.77c.15.04.21.18.44.15.09-.18.11-.43.15-.66-.1-.08-.27-.07-.37-.15-.09.2-.21.37-.22.66ZM1.38,33.4c.52-.31.73-.94,1.1-1.4-.27-.1-.06-.67-.44-.66-.46.45-.5,1.32-.66,2.06ZM27.1,33.03c-.35.1-1.43.74-1.62.96-1.28,1.46-.08,3.87,1.18,4.72,1.66,1.11,4.96.96,5.31-1.4-.91.1-2.32-.22-3.46-.15-.26.02-.56.19-.81.15-1.26-.23-.23-1.69.52-1.84,1.01-.2,2.52.39,3.39-.07-.42-1.23-2.63-2.9-4.5-2.36ZM12.51,33.1c-.51,1.17-.12,2.36.88,2.87,1.48.76,3.69-.55,2.87-1.92-1.32-.21-2.35-1.07-3.76-.96ZM31.81,33.25c.08.77.98,1.32,1.33,2.06,1.01.36,3.44-.93,3.91.44-.48.65-.82,1.44-1.47,1.92-.57-.27-1.43-.24-2.21-.3-.13.44-.42.71-.52,1.18-.33.36-1.18.98-1.11,1.25,2.25-.08,4.68-.47,6.93-.74.05-1.87.15-3.55.44-5.31-2.54.03-4.97-.82-7.3-.52ZM1.82,38.26c.67-1.49,1.63-2.69,2.06-4.42h-.22c-.49,1.51-2.08,2.68-1.84,4.42ZM40.14,35.09c.49-.05.82-.26,1.33-.3-.02-.29.17-.37.15-.66-.29-.2-.84-.14-1.33-.15-.1.32-.12.71-.15,1.11ZM42.94,34.13c-.24.75-.57,1.84-.44,2.88.07.6.6,1.19-.07,1.47-.55-.16-1.03.19-1.33.52,2.07-.02,3.29-.44,5.09-.66-.83-.9-1.21-2.75-.52-3.98-1.03,0-1.75.06-2.73-.22ZM47.66,38.04c.24.02.83-.27,1.18-.44.69-.35,1.19-.6,1.33-1.25-.59-.59-1.2-1.16-2.06-1.48.01-.18.01-.35-.07-.44-2.46-.28-1.87,3.48-.37,3.61ZM54.81,37.45c.12-.84-.42-1.6-.81-2.21-.71-.22-1.27.09-1.47.59.22.67.11,1.43-.07,2.06.65.88,2.21.66,2.36-.44ZM62.4,35.97c.15.04.21.18.44.15,0-.27-.03-.51-.15-.66-.09.19-.29.25-.29.52ZM2.7,39.14c.38-.89.96-1.59,1.25-2.58-.09,0-.1-.09-.22-.07-.33.81-1.23,1.81-1.03,2.65ZM61.96,38.33c.33.03.49.25.66.44.19-.58.35-1.52.15-2.06-.34.47-.62,1-.81,1.62ZM39.92,37.6c-.04.24.05.34.07.51.62.15,1.09-.02,1.69-.07.05-.32-.13-.41-.22-.59-.45.1-1.02-.01-1.55.15ZM4.18,41.28c.33-.68.7-1.31.89-2.14-.09,0-.1-.09-.22-.07-.28.59-.9,1.59-.66,2.21ZM25.85,39.44c.02-.24-.09-.35-.29-.37-.06.28.16.28.29.37ZM61.96,39.81c.13.06.19.21.44.15.11-.21.15-.49.22-.74-.15,0-.09-.2-.29-.15-.12.25-.25.49-.37.74ZM3.15,40.62c.12-.5-.47-.66-.66-.59.24.17.23.61.66.59ZM5.28,41.95c.36-.32,1.16-1.6.44-1.84-.31.48-.65,1.28-.44,1.84ZM6.9,41.5c.06-.2.41-.36.22-.59-.36-.1-.51.5-.22.59ZM41.03,41.5c.17.64.45,1.17.88,1.55.32-.47.63-.94.59-1.77-.54.02-1.07.06-1.47.22ZM22.31,42.31c.34-.18.77-.27.81-.74-.54-.02-.74.3-.81.74ZM9.12,42.53c.02-.13.39-.29.15-.44-.06.1-.29.39-.15.44ZM4.91,42.31c-.03.23.06.33.29.29v-.37c-.14-.01-.16.08-.29.08ZM9.85,43.35c.14.08.35.09.52.15.09-.33.43-.4.37-.88-.56-.39-.78.25-.88.74ZM57.76,43.57c.15,0,.09.2.3.15.08-.27.56-.74.22-.96-.15.29-.48.4-.52.81ZM18.48,43.79c.13-.32.37-.52.44-.89-.09,0-.1-.09-.22-.07-.14.21-.57.73-.22.96ZM11.55,44.16c.28-.29.54-.59.59-1.1-.14-.06-.27-.12-.44-.15-.25.43-.29.72-.15,1.25ZM16.85,43.27c-.09.38-.42.51-.37,1.03.47-.17.69-.59.81-1.11-.22-.05-.22.13-.44.07ZM12.8,44.08c.07.15.33.12.29.37-.12.32-.62.58-.37,1.03.78-.3.7-1.46,1.11-2.14-.61-.3-.98.23-1.03.74ZM19.95,43.86c.29,0,.54-.05.59-.3-.01-.21-.13-.31-.37-.29-.09.18-.18.36-.22.59ZM14.5,44.45c.07.15.38.06.37.29-.1.23-.51.43-.3.74.77-.28.73-1.38,1.03-2.14-.9-.16-.9.58-1.11,1.11ZM7.27,43.86c.27,0,.36-.35.15-.44-.07.13-.21.19-.15.44ZM42.5,44.01c.2.19.29.5.66.52.23-.48-.16-.82-.37-1.11-.02.28-.23.36-.3.59ZM9.41,44.89c.09.09.26.08.44.08-.13-.31.55-.94.22-1.18-.27.32-.56.62-.66,1.1ZM11.03,45.26h.22c.12-.25.33-.8.22-1.03-.13.33-.62.63-.44,1.03ZM57.91,45.48c.16-.3.37-.56.44-.96-.19-.06-.29-.2-.52-.22.08.49-.22.9.07,1.18ZM56.51,44.45c-.17,1.03-.4,1.99-.07,2.95.61-.11.23-1.08.3-1.77.04-.44.26-.82.15-1.18h-.37ZM45.82,45.85c.54,0,.35-.73.44-1.18-.09,0-.1-.09-.22-.07-.07.42-.27.71-.22,1.25ZM47.07,46.22c.55.05.72-.27.74-.74-.46-.4-.86.11-.74.74ZM53.34,46c-.14.5-.31,1.28-.22,1.77.27.05.4.23.44.51.37.03.51-.17.88-.15-.41-.8.24-1.88-.07-2.5-.28.19-.75.18-1.03.37ZM48.55,46.66c.11.04.19.11.3.15.19-.18.11-.62.22-.88-.1-.02-.14-.11-.29-.07-.1.24-.19.5-.22.81ZM49.95,47.1h.52c.14-.22.21-.61.07-.88-.17-.03-.28-.12-.52-.08.02.36-.13.56-.07.96ZM51.71,46.22c-.08.26-.19.5-.22.81.1.17.47.07.44.37-.14.33-.52.41-.59.81.21.1.42.19.66.07-.1-.89.28-1.29.3-2.06-.17-.18-.36.01-.59,0ZM57.68,46.88c.2-.05.35-.15.44-.3-.09-.08-.26-.08-.44-.07v.37ZM47.22,47.1c.15.04.21.18.44.15.02-.17-.01-.28-.07-.37-.23-.04-.3.09-.37.22ZM50.17,48.06c.09.09.26.08.44.07,0-.27-.15-.39-.29-.52-.07.13-.21.19-.15.44Z"/></g></svg>