<?xml version="1.0" encoding="UTF-8"?><svg id="Layer_2" xmlns="http://www.w3.org/2000/svg" viewBox="0 0 64 56.18"><defs><style>.cls-1{fill:#5f5c5d;fill-rule:evenodd;}</style></defs><g id="Layer_1-2"><path class="cls-1" d="M33.56,15.68c-.26.43-.68.7-.78,1.3-1.92.19-3.03-.43-4.66-.52-.72-1.18.94-2.56,1.81-4.27.45-.89.33-1.49.91-1.94,2.49.23,1.76,3.68,2.72,5.44Z"/><path class="cls-1" d="M22.03,26.94c-3.09,1.08-5.8-.98-4.53-3.89.48-1.09,4.04-1.89,5.05-.65.89,1.1.33,3.7-.52,4.53Z"/><path class="cls-1" d="M37.7,21.89c.51.71-.04,1.61-.52,2.07-.61-.3-.69-2.41.52-2.07Z"/><path class="cls-1" d="M30.71,30.44c.6,1.11.36,2.43-.39,3.24-.41-.71-.81-2.98.39-3.24Z"/><path class="cls-1" d="M24.88,35.36c-.24-.73-.4-3.08.78-2.72.36.88.42,2.67-.78,2.72Z"/><path class="cls-1" d="M10.51,33.94c-.47.92.41,2.53-.39,2.98-1.34-.22-1.48-4.09.39-2.98Z"/><path class="cls-1" d="M12.71,34.32h.65c.53.69.39,1.78-.13,2.33-.95.06-.68-1.7-.52-2.33Z"/><path class="cls-1" d="M25.53,40.02c.53.12.68.61,1.29.65-.45.58-.41,1.66-1.55,1.55-.08-.59-.31-1.72.26-2.2Z"/><path class="cls-1" d="M6.24,40.41c.66.29.23.99.13,1.55-.48-.17-.67-.63-.78-1.17.15-.19.49-.2.65-.39Z"/><path class="cls-1" d="M63.99.27c.11.45-.43,1.26-.65,1.81-3.14,2.55-6.21,5.42-8.93,8.55-1.54,1.77-2.92,3.21-4.01,5.44.84.5,1.84.84,2.46,1.55-1.22,7.59-3.66,13.95-4.66,21.75-2.1,5.54-3.29,11.99-6.22,16.7-3.03.5-6.08-1.04-9.06-1.42-.28-.74.11-1.28.13-2.07-.97.29-1.43,1.11-2.46,1.04-1.69-.12-3.18-2.97-4.79-2.98-1.76,0-2.39,2.5-4.53,1.68-.84-.32-2.06-1.97-2.98-2.07-1.23-.13-3.12,1.93-4.27,2.07-1.98.24-3.04-1.98-4.92-2.46-2.02.32-4.33,4.38-6.6,2.59C.28,50.72.11,45.01.02,41.45c-.06-2.52.03-5.98.13-8.94.05-1.48.18-2.61.26-3.88.11-1.88.99-8.09,2.07-9.32.39-.44,1.5-1.09,1.94-1.3,5.52-2.61,12.4-2.86,19.55-3.37.66-1.03,1.33-2.37,2.2-3.63,1.48-2.12,2.26-3.5,4.02-5.44.84-.93,1.46-1.96,2.85-1.68,1.22.25,2.45,2.23,3.11,3.62,1.21,2.57,1.48,4.98,2.46,7.51,1.76.31,3.25,1.23,4.79.65.38-.14.58-.71,1.04-.78.89-.13,1.86,1,2.85.9,1.18-.11,2.71-2.83,3.5-3.75,3.19-3.75,7.28-7.61,10.62-10.75.3-.83,1.55-1.78,2.59-1.04ZM35.5,11.02c-.26-1.01-1.99-4.61-2.98-4.66-.93-.05-2.39,2.28-2.85,2.85-.81,1-.89,1.36-1.42,2.33-.38.7-1.23,1.21-1.42,1.55-.15.26-.02.68-.13.91-.36.76-1.11,1.12-1.42,1.81-3.93,1.17-9.22.97-13.34,1.94-1.06,5.55-4.47,9.43-9.45,10.62-.24.28-.09.95-.13,1.43-.57,4.26-.98,9.01-.52,13.6.06.62.59,1.49.13,2.07.62.76.5,2.26,1.16,2.98.24-.28.16-.88.78-.78.94.38.07,1.76.52,2.59.52-.13.9-.39,1.16-.78.2-.85-.79-3.13.78-3.24.41.59.26,1.81.13,2.59.61.14,1.2-.76,1.68-1.16.19-.67-.27-1.98.78-2.07.18,1.27.68,2.58,2.33,2.72.3-1.2-.39-3.05,1.16-2.59.12,1.32-.48,1.94-.39,3.24.58.42.94,1.05,2.07.91.51-1.29-.6-2.96.65-3.37,1.12.3.04,2.06.39,2.72,1.02-.19,1.53-.89,2.33-1.3-.02-.97-.02-1.92.91-1.94.35.51-.05,1.2,0,1.81.76.36,1.31.93,2.07,1.3.53-.85-.19-2.95,1.3-2.85.25,1.09-.42,2.33-.26,3.76.86.49,1.51-.15,2.2-.52.43-.95-.05-2.82.78-3.37.88-.07.48,1.56.39,2.07.78-.1,1.6.22,2.33.52.4-.68-.06-2.22,1.04-2.2.38.89-.15,1.9,0,2.98.4.16.52.6,1.17.52.3-1.21-.52-3.1,1.16-3.11.3,1.55-1.22,4.19.39,4.4,2.28.3-.04-3.72,1.81-4.01.62.59.36,1.65.13,2.46.66.06.71-.5,1.3-.52v-1.17c.46-.18.92-.37,1.04-.91,2.82-9.92,5.49-19.18,8.16-29.26-2.05-.58-4.97-.77-6.6-1.04-.33-1.98-.79-3.87-1.29-5.83ZM44.69,19.82c.85-.57,1.64-1.21,2.07-2.2-.38-.22-.9-.3-1.55-.26-.2.97-.51,1.59-.52,2.46ZM47.8,18.27c-1.3,1.33-3.04,2.23-3.88,4.02,2.06-1,4.35-2.47,5.31-4.14-.59-.07-.81.23-1.42.13ZM8.31,18.66c.74,2.03-1.79,2.82-2.07,4.66,1.44-1.32,2.44-3.09,3.37-4.92-.6-.09-.83.2-1.3.26ZM5.98,19.69c-.5,2.69-3.2,3.19-3.24,6.34,1.2-.1,1.55-1.42,2.07-2.2.56-.82,1.33-1.69,1.56-2.72.56-.61,1.04-1.29,1.3-2.2-.7.12-1.07.57-1.68.78ZM43.01,25.78c2.7-1.23,5.41-3.57,7.51-5.83-2.75,1.69-5.81,3.08-7.51,5.83ZM48.32,23.06c-1.69,2.11-5.24,2.36-5.96,5.44,2.21-1.72,4.62-3.24,6.34-5.44h-.39ZM49.48,23.71c-1.28,1.21-2.68,2.43-4.14,3.5-1.32.96-3.04,1.83-3.63,3.5,1.5-.93,2.98-1.95,4.27-3.11,1.31-1.17,2.63-2.39,3.76-3.75-.03-.1-.11-.15-.26-.13ZM48.71,26.3c-1.86,1.35-3.51,2.99-5.18,4.53-.8.74-2.27,1.01-2.46,2.33,3-1.97,5.72-4.21,8.03-6.86h-.39ZM40.29,35.1c.08.42-.09.6-.13.9,1.68-.84,3.15-2.05,4.53-3.24,1.38-1.19,2.94-2.39,3.88-4.02-3.27,1.61-5.36,4.39-8.29,6.35ZM40.03,39.76c-.3-.09-.39-.39-.52-.65,1.2-1.06,2.87-1.91,4.27-3.11,1.43-1.21,3.66-2.83,4.14-4.66-3.06,1.69-4.95,4.55-8.16,6.09-.61,2.54-1.62,4.69-1.94,7.51,1.46-.87,3.13-2.65,4.92-3.63,1.06-1.83,3.63-2.84,4.01-4.92-1.81.99-3.1,2.51-4.79,3.63-.15.15-.15.46-.13.78-1.2.4-1.54,1.66-2.98,1.81-.21-1.26.82-1.76,1.68-2.46,1.52-1.24,3.3-2.39,4.27-3.88.91-.47,1.77-.99,2.33-1.81-2.63,1.52-4.48,3.81-7.12,5.31ZM38.22,45.98c-.48.14-.2-.48-.65-.39-.35.64-.23,1.76-.78,2.2,1.77-.86,3.3-2.51,4.92-3.88,1.65-1.41,3.55-2.73,4.53-4.66-3,1.92-5.08,4.77-8.03,6.73ZM45.08,42.22c-2.94,2.46-5.8,4.99-8.8,7.38-.24.96-.69,1.73-.78,2.85,1.98-1.34,3.39-3.26,5.05-4.92,1.65-1.64,3.53-3.17,4.79-5.18-.03-.1-.11-.15-.26-.13ZM40.42,48.83c-.79.76-2.21,1.52-2.07,2.59.22-.41.6-.16,1.04-.13,1.56-2.02,4.58-2.58,4.92-5.83-.03-.1-.11-.15-.26-.13-1.27.87-2.41,2.33-3.62,3.5ZM39.77,52.71c-.45.24-1.14.93-1.81.52-.02-.8.43-1.12.78-1.55-.86.35-1.53.88-1.94,1.68.82.13,1.37.52,2.33.51,1.22-1.19,2.71-2.12,3.5-3.75-.03-.1,0-.26-.13-.26-1.03.82-2.41,1.3-2.72,2.85Z"/></g></svg>