<?xml version="1.0" encoding="UTF-8"?><svg id="Layer_2" xmlns="http://www.w3.org/2000/svg" viewBox="0 0 75.43 51.35"><defs><style>.cls-1{fill:#5f5c5d;}</style></defs><g id="Layer_1-2"><path class="cls-1" d="M53.2,25.47c.15.61.26,1.09.39,1.57.41,1.43.8,2.87,1.26,4.27.5,1.51,1.08,2.98,1.6,4.48.18.51.36,1.05.42,1.59.1.85-.24,1.14-.98,1.06-1.21-.14-2.38.17-3.52.57-1.91.69-3.52,1.98-5.06,3.4-1.46,1.34-2.96,2.63-4.42,3.97-.74.68-1.44,1.41-2.13,2.16-.72.79-1.39,1.63-2.09,2.45-.45.53-.81.49-1.42-.15-.72.3-.72.26-1.24-.36-.84-1-1.72-1.96-2.59-2.94-1.86-2.09-3.92-3.91-6.03-5.65-1.38-1.14-2.76-2.28-4.18-3.35-.5-.38-1.09-.61-1.67-.82-.62-.23-1.27-.36-1.91-.51-.57-.13-.77-.48-.57-1.14.31-1.05.68-2.08.96-3.15.5-1.89.95-3.79,1.41-5.69.14-.56.23-1.13.37-1.8-2.31-.77-4.56-1.63-6.69-3.1-.07.8-.19,1.39.3,1.98.62.75.52,1.38-.18,2.06.18.54.46.99.82,1.43.98,1.19,1.52,2.63,1.57,4.28.01.47-.04.95.01,1.42.08.67-.18,1.23-.32,1.84-.08.33-.33.38-.58.38-.78.02-1.56.03-2.34.04-.1,0-.2-.05-.29-.02-.98.27-1.91.12-2.86-.28-.66-.28-1-.56-1.04-1.36-.05-1-.04-2.01.22-2.98.37-1.36.79-2.69,1.7-3.73.25-.29.52-.56.76-.82-.26-.33-.53-.58-.66-.89-.09-.22-.06-.59.05-.8.19-.34.46-.65.75-.87.42-.32.42-.29.22-.81-.24-.6-.6-1.14-.63-1.84-.02-.4-.3-.6-.62-.74-1.14-.48-2.28-.97-3.42-1.46-1.27-.55-2.54-1.11-3.82-1.64-1.03-.42-2.06-.84-3.17-.92-.14,0-.3-.04-.41-.13-.36-.27-.71-.57-1.15-.94.91-.6,1.62-1.42,2.67-1.64.67-.14,1.31-.43,1.95-.68.55-.21,1.11-.43,1.65-.67.43-.19.85-.41,1.27-.63.16-.08.31-.18.46-.24,1.58-.65,3.15-1.31,4.73-1.94,1.61-.63,3.23-1.21,4.84-1.85,1.08-.42,2.17-.83,3.21-1.37,1.09-.57,2.25-.89,3.38-1.29.53-.19,1.05-.44,1.57-.67.5-.22.99-.45,1.49-.67.98-.42,1.96-.82,2.94-1.24,1.07-.46,2.13-.95,3.2-1.41,1-.43,2-.89,3.03-1.22.38-.12.85.03,1.27.12,1.82.4,3.52,1.26,5.26,1.96,1.21.49,2.45.9,3.66,1.37.87.34,1.74.71,2.61,1.06.5.2,1.03.33,1.52.55,1.93.84,3.85,1.72,5.79,2.54.82.35,1.67.58,2.52.85,1.43.46,2.84,1,4.29,1.33,2.05.46,4.07,1.05,6.04,1.8,1.29.49,2.54,1.13,3.8,1.71.54.25,1.07.53,1.62.77.37.17.66.38.64.89-.01.46-.43,1.12-.79,1.19-1.22.23-2.31.84-3.43,1.38-2.29,1.1-4.54,2.3-6.94,3.06-2.3.73-4.54,1.64-6.78,2.57-1.47.61-2.81,1.48-4.29,2.27ZM36.3,33.04c0-.8-.03-.87-.53-1.01.2.36.37.68.54.99.05.32.08.65-.23.79-.48.22-.58-.36-.85-.6-.03.09-.03.18-.08.24-.14.17-.27.41-.44.45-.12.03-.34-.19-.43-.35-.15-.31-.25-.66-.35-1-.17-.57-.31-1.16-.46-1.72-.36-.15-.66-.28-1.06-.45.1.43.17.72.23,1.01.12.56.05.84-.22.93-.28.1-.49-.09-.65-.61-.03-.08-.04-.16-.07-.24-.13-.31-.26-.63-.38-.94-.72.37-.91.28-1.14-.48-.04-.13-.07-.27-.1-.4q-.12-.45-.63-.47c.04.22.13.45.1.65-.04.21-.16.48-.32.58-.23.14-.41-.07-.51-.32-.07-.18-.09-.38-.16-.55-.18-.44-.37-.88-.56-1.31,0,.48.11.9.23,1.32.09.32.02.6-.25.67-.16.04-.39-.11-.55-.25-.1-.09-.13-.29-.18-.44-.18-.57-.34-1.15-.54-1.72-.04-.13-.21-.2-.31-.3,0,.41.14.71.19,1.02.03.18-.05.52-.15.56-.17.06-.41-.01-.58-.11-.11-.06-.18-.26-.23-.41-.18-.48-.41-.96-.5-1.46-.08-.45-.3-.47-.66-.58.12.31.22.5.28.7.06.21.14.44.11.64-.03.18-.18.43-.32.47-.13.04-.34-.12-.46-.26-.1-.1-.1-.31-.17-.45-.23-.47-.39-.99-.87-1.41-.58,3.33-1.42,6.47-2.44,9.58.23.08.39.13.55.19.87.35,1.79.59,2.59,1.09,1.06.66,2.06,1.48,3.04,2.3,1.39,1.17,2.74,2.41,4.11,3.6,2.04,1.77,3.87,3.8,5.66,5.88.1.12.24.21.42.36.02-.33.04-.55.04-.77,0-.19-.02-.38-.03-.64-.67.32-.94-.22-1.16-.69-.34-.72-.88-1.16-1.46-1.58-.2-.15-.4-.33-.54-.55-.07-.12-.07-.43.01-.52.11-.13.33-.18.5-.17.13,0,.25.16.37.25.38.28.75.56,1.23.91.05-1.1.11-2.07.15-3.03.03-.63.14-.89.44-.91.33-.03.52.26.5.92-.04,1.17-.11,2.33-.18,3.49,0,.16-.1.31-.15.46-.02.08-.03.16-.05.25.12.19.25.39.45.71.64-4.36.77-8.59.65-12.85-.78.07-.81.04-1.1-.74-.09-.25-.22-.47-.33-.71ZM73.04,15.02c-.1-.08-.17-.15-.26-.2-1.66-.96-3.4-1.66-5.18-2.22-1.45-.46-2.93-.77-4.38-1.2-1.48-.43-2.94-.99-4.43-1.38-1.36-.36-2.66-.9-3.95-1.48-1.47-.66-2.95-1.31-4.43-1.94-.45-.19-.94-.28-1.4-.45-1.48-.56-2.95-1.14-4.42-1.72-1.29-.51-2.59-.96-3.84-1.58-1.17-.58-2.41-.87-3.62-1.25-.19-.06-.44,0-.64.08-.79.29-1.57.59-2.35.9-.96.39-1.93.78-2.88,1.19-1.32.57-2.63,1.15-3.95,1.73-.27.12-.54.25-.81.37-.66.29-1.3.63-1.97.86-1.31.44-2.61.88-3.86,1.51-.84.43-1.72.77-2.6,1.1-1.45.55-2.92,1.03-4.36,1.61-1.47.59-2.91,1.27-4.36,1.89-.39.17-.79.28-1.17.45-.52.23-1.02.53-1.54.74-1.01.41-2.03.77-3.05,1.16-.07.03-.13.09-.2.15,3.17,1.32,6.3,2.62,9.47,3.93.21-.32.39-.77.7-.98.3-.21.74-.14,1.1-.27,1.09-.4,2.21-.61,3.35-.77.53-.08,1.06-.14,1.59-.2.7-.08,1.41-.13,2.1-.26.99-.18,1.96-.44,2.94-.62,1.94-.35,3.89-.65,5.83-1,.74-.14,1.46-.43,2.2-.54.69-.1,1.28-.23,1.73-.97.39-.64.98-1.14,1.73-1.09.7.05,1.41.15,2.08.37,1.81.6,1.93,1.98,1.54,3.67-.32,1.39-1.98,2.1-3.2,1.64-.65-.24-1.17-.68-1.63-1.2-.25-.28-.51-.41-.85-.35-.26.05-.54.06-.79.14-.73.22-1.46.45-2.17.72-1.17.46-2.44.53-3.57,1.18-.21.12-.47.15-.71.19-1.44.25-2.87.52-4.31.74-1.25.19-2.5.33-3.76.46-.53.05-1.07-.02-1.61.02-.57.04-1.08.27-1.61.69,1.85,1.18,3.67,2.09,5.6,2.72,1.26.41,2.52.88,3.74,1.41,1.25.55,2.45,1.23,3.68,1.83,1.68.82,3.36,1.61,5.04,2.42,1.3.63,2.58,1.29,4.01,1.44.07,0,.13.07.21.08.2.03.42.1.61.07,1.07-.19,2.03-.76,2.98-1.29.83-.47,1.7-.83,2.55-1.22.81-.38,1.57-.87,2.36-1.3.44-.24.87-.49,1.32-.69,1.38-.61,2.78-1.17,4.16-1.8.65-.3,1.23-.79,1.89-1.07,1.28-.55,2.41-1.44,3.73-1.88,1.52-.51,2.98-1.21,4.48-1.76,1.88-.69,3.79-1.23,5.6-2.14,1.82-.92,3.67-1.75,5.54-2.63ZM52.26,27.65s-.08,0-.12,0c0,.38,0,.76,0,1.15,0,.35-.14.62-.47.61-.29,0-.41-.26-.43-.57,0-.25,0-.5-.01-.75-.03-.51-.07-1.01-.11-1.52-.06-.02-.12-.03-.18-.05-.07.14-.21.28-.2.41.02.78.07,1.55.12,2.33.02.3-.02.58-.32.65-.33.07-.51-.19-.56-.51-.07-.41-.1-.82-.12-1.24-.02-.34,0-.69,0-1.04-.06,0-.12-.02-.18-.02-.04.13-.11.26-.12.39-.01.67,0,1.34,0,2,0,.31-.12.58-.4.59-.32.02-.47-.25-.48-.6-.01-.36,0-.72-.01-1.09,0-.24-.03-.47-.04-.72-.3,0-.45.04-.45.41,0,.61-.07,1.21-.11,1.82-.02.32-.05.68-.37.71-.19.02-.41-.19-.63-.31,0,.02-.02.12-.05.22-.08.29-.23.52-.53.45-.34-.07-.37-.38-.35-.71.01-.24.02-.48.03-.73-.17.3-.19.62-.25.94-.05.3-.1.61-.22.87-.06.13-.3.28-.4.24-.15-.06-.29-.26-.36-.44-.05-.13.03-.32.04-.49.03-.35.05-.7.08-1.12-.36.15-.63.26-.8.33,0,.88,0,1.68,0,2.48,0,.28-.15.47-.42.48-.26,0-.4-.19-.44-.46-.03-.26-.03-.53-.05-.79-.18.42-.23.85-.28,1.27-.04.31-.19.52-.48.51-.26-.02-.4-.23-.4-.5,0-.39.03-.77.07-1.16.03-.26.09-.52.13-.78-.15.06-.19.15-.21.24-.11.65-.19,1.32-.34,1.96-.04.19-.27.43-.44.45-.28.04-.42-.24-.43-.55,0-.22.03-.44.06-.66.03-.29.07-.57.12-.96-.43.18-.76.33-1.1.47,0,.19,0,.33-.02.46-.07.41-.12.82-.22,1.22-.08.31-.27.56-.6.45-.33-.11-.36-.39-.28-.73.06-.24.1-.49.13-.73,0-.04-.04-.09-.07-.17-.12,0-.25.02-.35.02.02.4.05.72.05,1.05,0,1.64.02,3.28,0,4.93-.03,1.53-.09,3.05-.17,4.58-.04.86-.15,1.71-.24,2.56-.14,1.31-.3,2.62-.46,4.04.57-.31.81-.79,1.14-1.19-.61-.4-.65-.55-.33-1.17.11-.22.23-.43.37-.62.69-.94,1.39-1.86,2.08-2.8,1.08-1.49,2.4-2.68,3.77-3.81.19-.16.42-.3.65-.36.2-.05.45-.01.62.11.13.09.24.38.22.55-.02.16-.25.41-.37.4-.42-.04-.68.25-.98.48-1.85,1.41-3.26,3.34-4.7,5.22-.3.4-.54.86-.81,1.29.93-.81,1.78-1.69,2.66-2.52.6-.57,1.23-1.09,1.85-1.63,1.9-1.64,3.65-3.5,5.76-4.83,1.35-.85,2.75-1.38,4.25-1.64.45-.08.89-.16,1.28-.23-1-3.07-2-6.1-2.99-9.13ZM12.24,34.7c.06-.16.16-.3.15-.41-.03-.25-.2-.5-.17-.73.11-.91.25-1.81.41-2.7.05-.3.26-.48.55-.39.29.09.34.37.3.67-.1.71-.15,1.45-.35,2.13-.17.58-.1,1.04.22,1.54.24-.06.49-.12.7-.17.07-.53.14-.99.2-1.45,0-.07-.01-.16-.05-.22-.47-.81-.19-1.66-.09-2.5.04-.33.22-.57.56-.5.31.07.34.36.32.65-.05.72-.12,1.44-.18,2.15,0,.1-.01.21,0,.31.07.4.14.79.22,1.19.03.13.08.25.13.38.14-.29.13-.57.22-.82.06-.18.26-.43.37-.41.17.03.36.23.47.41.08.14.04.38.05.57.03.34.21.28.43.22,0-.96.07-1.89-.02-2.79-.12-1.23-.52-2.38-1.31-3.27-.46-.52-.81-1.1-1.03-1.83-.16-.03-.32-.07-.4-.09-.31.44-.53.9-.86,1.19-1.08.95-1.4,2.35-1.82,3.66.26.2.63.33.65.51.09.77.34,1.59-.21,2.3-.02.03-.02.1-.03.19.17.07.34.15.55.24ZM33.13,15.8c-.02-.06-.05-.12-.07-.18-.38.09-.76.18-1.14.26-1.58.34-3.15.68-4.73.99-.98.19-1.97.32-2.95.49-1.82.3-3.64.61-5.47.91-.36.06-.72.13-1.08.13-.26,0-.51-.08-.77-.14-.12-.03-.23-.1-.34-.11-.82-.07-1.33.77-2.08.96-.25.06-.47.38-.66.62-.57.7-.29,1.46-.07,2.19.05.17.24.37.38.39.26.03.36-.23.37-.5,0-.22,0-.44-.01-.67-.01-.88.16-1.16.89-1.5.29-.13.55-.33.84-.46.15-.07.33-.1.49-.1,1.19.04,2.38.13,3.56-.11,1.31-.27,2.63-.44,3.95-.67.67-.11,1.34-.24,2.01-.38.45-.09.9-.19,1.34-.33.52-.15,1.02-.36,1.53-.52,1.33-.43,2.67-.85,4-1.28ZM35.53,16.2c.27.3.4.46.55.59.58.54,1.21.78,1.95.4.73-.37.98-.85.94-1.94-.03-.67-.32-1.08-1.05-1.29-.56-.16-1.14-.28-1.71-.31-.34-.02-.72.13-.97.66.33.05.6.1.87.14.5.07.73.34.72.84-.02.5-.27.79-.73.84-.13.01-.26.03-.56.06ZM13.25,25.25c.5-.11,1.02.61,1.54.01-.41-.84-.63-.85-1.54-.01ZM37.57,33.62c.06-.01.12-.02.18-.03,0-.25-.04-.5.01-.74.05-.23.19-.44.29-.65-.29.02-.56.04-.89.06.15.49.28.93.41,1.36ZM34.99,15.42c-.19-.1-.24-.15-.27-.14-.29.08-.59.17-.88.25.01.05.02.1.03.15.33-.08.66-.15,1.12-.26Z"/><path class="cls-1" d="M71.14,15.56c-.98-.07-1.83,0-2.57-.58-.35-.27-.62-.25-.89.1-.02.02-.04.04-.06.05-.96.92-1.11.91-2-.18-.06.16-.12.29-.16.44-.19.78-.68.99-1.26.53-.18-.14-.32-.33-.53-.56-.09.2-.18.37-.25.56-.12.33-.21.68-.34,1.01-.12.32-.32.57-.65.59-.35.02-.64-.18-.75-.54-.19-.57-.39-1.15-.44-1.75-.08-.91-.03-1.83-.04-2.75,0-.06,0-.11,0-.17.03-.31.15-.54.45-.54.3,0,.43.22.44.54.01.47,0,.95.01,1.42.02.71.06,1.42.1,2.3.43-.41.46-.84.59-1.2.11-.31.18-.65.33-.92.26-.47.74-.46,1.01.01.14.25.24.52.4.85.17-.3.28-.54.42-.76.35-.51.79-.53,1.18-.07.19.21.35.46.54.72.22-.21.4-.39.59-.56.6-.54.95-.58,1.59-.13.4.28.81.49,1.3.48.39,0,.67.14.64.68,0,.09.14.19.33.43Z"/><path class="cls-1" d="M39.71,4.61c-.21-.08-.32-.13-.44-.17-.93-.31-1.86-.63-2.79-.92-.14-.04-.38-.03-.46.07-.62.83-1.52,1.06-2.35,1.45-1.08.51-2.16.98-3.25,1.46-.13.06-.29.15-.42.11-.17-.05-.4-.16-.45-.31-.05-.14.06-.46.18-.55.37-.25.77-.48,1.19-.62.54-.19,1.03-.42,1.47-.86.3-.3.71-.46,1.09-.65.82-.42,1.66-.79,2.47-1.23.3-.16.53-.19.81.04.17.14.39.21.6.28.81.29,1.62.56,2.43.85.11.04.26.11.3.21.07.15.13.41.07.51-.11.17-.33.25-.45.33Z"/><path class="cls-1" d="M38.33,28.62c1.18-.94,2.35-1.88,3.54-2.8.17-.14.4-.27.6-.25.18.01.4.2.49.38.05.1-.09.42-.22.52-.98.77-1.99,1.49-2.97,2.26-.39.31-.73.71-1.07,1.1-.24.27-.52.37-.68.08-.76-1.36-2.1-1.52-3.22-2.12-.17-.09-.37-.18-.49-.33-.09-.12-.14-.38-.08-.52.05-.14.25-.23.4-.28.1-.03.24.03.35.08,1.13.57,2.36.9,3.36,1.89Z"/><path class="cls-1" d="M41.54,15.37c.02,1.26-.52,1.88-1.03,2.5-.16.19-.4.22-.59.02-.19-.2-.19-.44-.06-.68.1-.19.22-.37.35-.53.52-.61.45-1.29.23-2.01-.03-.1-.09-.19-.14-.29-.12-.29-.09-.55.17-.71.28-.17.56-.09.67.24.19.56.31,1.15.39,1.45Z"/><path class="cls-1" d="M34.18,11.39c.4-.02.65.19.67.53.01.37-.17.57-.49.56-.35,0-.52.25-.68.53-.09.16-.13.37-.25.5-.13.13-.32.26-.47.25-.27-.02-.36-.31-.3-.56.07-.31.19-.62.34-.89.29-.5.69-.85,1.19-.92Z"/><path class="cls-1" d="M16.12,31.45c0,.08,0,.17,0,.25-.03.32-.11.6-.44.64-.28.03-.46-.21-.5-.67,0-.08,0-.16,0-.25.01-.53.16-.79.45-.81.33-.02.49.25.49.83Z"/><path class="cls-1" d="M14.08,28.86c.02.45-.23.76-.48.74-.24-.02-.39-.18-.4-.48,0-.31.24-.66.48-.58.17.05.31.25.4.33Z"/></g></svg>