<?xml version="1.0" encoding="UTF-8"?><svg id="Layer_2" xmlns="http://www.w3.org/2000/svg" viewBox="0 0 28.45 30.61"><defs><style>.cls-1{fill:#5f5c5d;fill-rule:evenodd;}</style></defs><g id="Layer_1-2"><path class="cls-1" d="M4.37.54C10.78-.03,16.93.79,22.87.54c1.78-.08,3.57-.43,5.25,0,.76,3.54-.02,7.92-.36,11.94-.13,1.5-.19,3.05-.36,4.54-.46,4.1-.74,8.28-1.43,12.18-6.44,1.84-15.68,1.62-22.92.84-1.13-.12-2.11-.66-2.99-1.19-.25-4.58.3-10.71.12-16.6C.05,7.77.35,3.36,1.74.18c.63-.4,2.06-.05,2.63.36ZM2.93,2.33c-1.39,7.68-.76,17.51-.84,25.07,3.03,1.26,7.29,1.47,11.22,1.55,3.97.08,7.85-.46,10.98-1.31.8-4.04,1.25-8.39,1.55-12.66.3-4.19,1.04-8.37.6-12.42-7.26-.03-16.29-.66-23.52-.24Z"/><path class="cls-1" d="M20.25,9.73c-.99.23-1.25-.65-2.03-.84-2.32-.54-4.88,1.77-5.85,3.34,1.92.31,4.69.47,6.81.24.93-.1,2.79-.83,2.86.6.08,1.35-3.98,1.27-5.37,1.31-1.72.06-4.51-.67-5.61-.36-1.01.28-1.12,1.79-1.43,2.87,2.75.61,5.85.18,9.31.24,1.12.02,2.44-.13,2.99.72-1.01,1.77-4.38.99-6.81,1.07-1.67.06-3.75.05-5.49,0,.39,2.44,3.14,3.97,6.33,3.22,1.43-.34,2.34-1.56,3.46-1.91,1.03,1-.54,2.53-1.31,2.98-3.68,2.19-10.43.12-10.39-4.3-.94-.23-2.26.33-2.51-.6-.28-1.08,1.15-1.21,2.39-1.31.51-.89.78-2.01,1.19-2.98-.69-.78-3.11-.56-2.15-2.27.91-.44,2.28.21,3.34.36,1.88-1.48,3.54-4.7,7.04-5.01,1.51-.13,4.13.55,3.22,2.63Z"/></g></svg>