<?xml version="1.0" encoding="UTF-8"?><svg id="Layer_2" xmlns="http://www.w3.org/2000/svg" viewBox="0 0 63.62 64"><defs><style>.cls-1{fill:#5f5c5d;}</style></defs><g id="Layer_1-2"><path class="cls-1" d="M63,23.98C59.92,9.67,46.71-.11,32.26.59c-.08-.32-.33-.6-.76-.59C19.16.23,7.37,7.72,2.49,19.17.52,23.81-.27,28.9.08,33.91c-.02.26,0,.51.06.76.68,7.4,3.83,14.56,9.28,19.76,2.95,2.81,6.48,4.7,10.2,6.18.15.08.31.14.46.18,2.88,1.12,5.86,2.01,8.79,2.91,2.89.89,6.61-.41,9.5-1.03,3.7-.79,7.36-1.92,10.69-3.74,5.99-3.27,9.41-8.43,11.68-14.74,2.36-6.57,3.74-13.28,2.25-20.21ZM31.51,21.18c.16-3.67.32-7.34.48-11.01,2.59-.84,5.17-1.68,7.76-2.52.06-.02.12-.05.17-.07.21,0,.43-.09.59-.33.75-1.13,1.08-2.44.88-3.79-.01-.09-.04-.16-.07-.23,6.31,1.73,11.9,5.56,15.68,10.95-.03,0-.05,0-.08.02-.68.24-1.37.49-2.05.73-.44-.17-1.05-.02-1.19.58-.66,2.78-1.1,5.59-1.32,8.44,0,.09,0,.17.02.25-3.98,1.84-7.96,3.69-11.94,5.53-1.97-3.44-5.9-5.87-8.92-8.33,0-.02-.02-.05-.03-.07.01-.05.02-.1.02-.15ZM21.83,3.42c.06.71.12,1.42.18,2.14-.28.38-.28,1.01.26,1.3,2.52,1.35,5.13,2.5,7.82,3.45.09.03.18.04.27.05-.16,3.61-.32,7.22-.48,10.83,0,.08,0,.16.02.23-2.43,3.03-5.13,5.8-8.12,8.29-.04.04-.08.08-.11.12-.06.02-.12.05-.18.08-.05,0-.11-.01-.17,0-3.65.21-7.23-.03-10.81-.74-.57-2.82-1.15-5.64-1.72-8.47-.01-.06-.03-.12-.05-.17.03-.21-.04-.43-.26-.62-1.04-.88-2.3-1.35-3.67-1.3-.09,0-.16.02-.24.04,3.48-7.13,9.84-12.57,17.27-15.21ZM2.28,37.99c.07.02.15.04.23.04.73.02,1.45.04,2.18.06.34.32.97.4,1.32-.11,1.59-2.3,2.99-4.7,4.22-7.21,3.67.71,7.34.98,11.08.77.01,0,.03,0,.04,0,1.41,2.95,2.59,5.99,3.54,9.12.01.04.03.08.05.12,0,.01-.01.02-.02.03l-4.46,9.2c-.1-.08-.21-.14-.36-.18l-8.76-1.93c-.06-.01-.12-.02-.18-.02-.18-.11-.41-.14-.67-.01-1.12.55-2.01,1.4-2.54,2.52-2.82-3.6-4.73-7.89-5.66-12.39ZM45.85,48.13c-1.64,2.5-3.29,4.99-4.93,7.49-.04.05-.06.11-.08.16-.17.13-.28.34-.25.63.12,1.36.67,2.58,1.68,3.51.02.01.03.02.05.04-2.9.89-5.91,1.48-8.88,1.96-3.24.52-5.86-.32-8.78-1.31.31-.64.62-1.28.92-1.93.43-.18.76-.73.44-1.25-1.32-2.16-2.78-4.21-4.38-6.17.03-.04.05-.08.07-.12,1.54-3.17,3.08-6.35,4.61-9.52.03-.06.05-.13.07-.19h10.18c.14.01.26-.02.37-.07.1.04.2.04.3.04h0c2.61,2.22,5.37,5.29,8.67,6.66-.02.03-.05.05-.06.08ZM60.68,39.11c-.83,2.93-1.8,5.87-3.15,8.59-.48-.51-.96-1.02-1.44-1.52-.02-.47-.41-.97-1.01-.85-2.37.44-4.69,1.04-6.98,1.77-.08-.07-.19-.12-.32-.15-3.62-.87-6.61-4.37-9.37-6.7-.07-.06-.15-.1-.23-.14,1.17-2.82,2.03-5.71,2.57-8.72,4.07-1.88,8.14-3.77,12.2-5.65,1.48,2.3,2.97,4.59,4.45,6.89.04.05.07.1.11.14.05.21.2.39.47.48,1.27.43,2.59.42,3.83-.1-.2,1.99-.59,3.98-1.15,5.96Z"/></g></svg>