<?xml version="1.0" encoding="UTF-8"?><svg id="Layer_2" xmlns="http://www.w3.org/2000/svg" viewBox="0 0 64 63.76"><defs><style>.cls-1{fill:#5f5c5d;fill-rule:evenodd;}</style></defs><g id="Layer_1-2"><path class="cls-1" d="M27.88,23.39c.78,1.28-.33,3.23-1.67,3.47-1.66.3-3.41-1.17-2.96-3.21,1.4-.62,1.58.95,2.44,1.29,1.16-.08.8-1.68,2.18-1.54Z"/><path class="cls-1" d="M31.47,24.55c.18.81.45,1.52,1.03,1.93.75-.08,1.39-.25,1.8.26-.2,3.29-4.54.9-4.5-1.28,0-.48.41-1.92,1.67-.9Z"/><path class="cls-1" d="M22.09,26.22c-.42,1.21-2.07,4.02-3.86,4.11-1.51.08-2.92-2.29-1.54-3.34.9.04,1.3.59,1.54,1.29,1.77-.12,2.17-4.62,3.86-2.06Z"/><path class="cls-1" d="M30.57,31.1c-1.12,2.72-6.6,2.24-6.17-1.16,1.01-1.77,1.68.75,2.7,1.03,1.18.32,2.68-1.13,3.47.13Z"/><path class="cls-1" d="M33.66,32.39c.16,1.04,2.37,3.26.39,3.47-1.59.17-3.24-3.89-.39-3.47Z"/><path class="cls-1" d="M59.24,0h.26c.29,1.04-1.28,1.27-1.54,2.18-1.38.46-2.18,1.51-2.96,2.57,1.94-1.22,4.34-3.11,6.42-4.63.95.24,1.75-.14,2.57.26.09.76-.51,1.12-.13,1.8-.97,1.78-1.79,3.75-2.44,5.79-.67,2.09-1.56,4.17-2.18,6.3-.4,1.37-.53,2.78-1.03,4.11-.67,1.8-1.41,3.43-1.93,5.27-1,3.6-2.3,7.18-3.6,10.8-.62,1.73-1.13,3.58-1.8,5.27-1.08,2.72-3.1,5.41-3.73,8.74-2.25,3.49-3.78,7.71-6.56,10.67-2.26.31-3.99,1.3-6.68,1.41-1.46.06-3.73-.07-5.14-.26-.51-.07-1.02-.36-1.41-.26-1.61.42-.96,3.2-2.57,3.73-1.78.07-1.8-1.78-2.44-2.83-.4-.65-1.05-1.03-1.03-1.8-4.47.74-10.87-.58-15.04-1.29-2.52-.43-5.53-.73-5.91-3.47-.54-3.85-.4-9.64-.13-13.5.33-4.6.75-8.66,2.31-11.95,2.63-.73,6.44-.63,9.38-.64,2.09-4.24,6.29-9.3,12.47-10.16,6.87-.94,13.46,1.23,14.78,6.69.48,1.97.15,3.88.77,5.91,2.16.29,2.88-1.07,3.99-2.18,1.92-7.12,5.78-13.34,7.97-20.31.72-2.28,1.2-4.75,2.7-6.68.85-.04,1.28.35,1.16,1.29,1.3-.8,2.03-2.17,3.47-2.83ZM61.42,1.28c-2.59,1.27-4.63,3.08-6.81,4.76-.09.39.22.38.13.77-.47.22-.93.44-.9,1.16,2.84-1.23,4.78-3.36,7.33-4.88.14-.58.59-.87.51-1.67-.03-.1-.11-.15-.26-.13ZM57.31,6.81c.4-.04,1.07-.47.77-.77-.11.4-.74.29-.77.77ZM52.17,12.85c.86-.21,1.13-1.02,2.06-1.16,1.13-1.53,3.05-2.27,4.37-3.6.46-.36,1.2-.43,1.03-1.41-2.67,1.87-5.98,3.1-7.46,6.17ZM53.45,9.9c1.45-.65,2.38-1.82,3.6-2.7.03-.16.2-.26-.13-.26-1.12,1.03-3.06,1.23-3.47,2.96ZM50.88,15.42c2.7-1.63,4.88-3.77,7.33-5.66-2.78,1.54-5.31,3.35-7.33,5.66ZM57.95,11.18c-2.69,2.41-6.59,3.79-8.23,7.2,2.33-1.58,4.66-3.29,6.68-5.01.67-.57,1.59-1.16,1.93-2.05-.17,0-.18-.16-.38-.13ZM56.54,14.65c.19.15.15.54.51.52.03-.44.32-.62.26-1.16-.49-.01-.69.25-.77.64ZM55.51,15.42c-.46-.05-1,.4-1.54.77-.5.34-1.09.84-1.67,1.29-1.47,1.11-3.6,2.04-3.47,3.73,2.1-2.06,4.57-3.74,6.68-5.78ZM53.45,18.38c-2.06,1.61-4.83,2.75-5.66,5.27,3.3-1.71,5.12-4.9,8.61-6.43-.05-.57.67-1.04.26-1.54-1.08.87-2.09,1.82-3.21,2.7ZM49.08,24.04c1.28.54,2.14-1.07,2.96-1.8.96-.86,2.06-1.61,2.83-2.44.35-.25,1.01-.19.9-.9-2.78,1.16-4.75,3.13-6.68,5.14ZM33.27,21.08c-2.17-.86-4.69-.77-7.07-.9-3.81-.21-7.56,2.09-9.77,4.37-1,1.04-2.65,2.98-2.18,4.76-1.18,1.44-.03,3.93.51,5.53,1.1-.32.67-2.16,1.93-2.32.28,1.89-2.48,2.79-1.29,4.88,1.12-.52,1.1-2.83,2.44-2.7.08,1.19-2.07,2.7-1.8,4.24.04.25.34.94.9.9.89-.82.65-2.78,2.32-2.83-.27,1.53-1.39,2.21-1.8,3.6.65.59,1.2,1.29,2.31,1.41.59-1.12.37-3.06,1.8-3.34.4,1.56-1.11,2.31-1.03,3.98.52.29,1.01.62,1.8.64.26-1.47.21-3.88,1.67-3.73.18,1.19-.88,2.87-.77,3.98.67.17,1.51.61,2.19.39.22-1.47-.62-3.25.64-3.73.64.85,0,2.38.51,3.47.73.09,1-.29,1.54-.38.16-1.32-.56-2.76.64-3.08.67.61.08,1.86.51,2.83.56-.17,1.33-.12,1.67-.51.09-1.05-.46-2.34.13-3.09h.64c.51.69-.23,1.61.13,2.44.49.22,1.03-.47,1.54-.64.17-1.03-.74-2.9.52-3.08.41.49.37,1.43.51,2.18,1.71-.12.26-2.6,1.42-3.21.51-.11.35.79.77.39,1.98-6.09,2.19-14.25-3.34-16.45ZM51.01,24.55c.47.09.98.14,1.41.26.61-1.24,2.7-1.66,2.31-3.47-1.31,1-3.02,1.61-3.73,3.21ZM39.57,32.9c-.66,2.14-.56,4.39-.9,6.68.42.19,1.08.12,1.67.13.38-.89-.76-2.65.64-2.83.92.73.23,1.92-.13,2.7.37.27,1.07.22,1.16.77-.21.52-.28,1.18-.77,1.42-1.5-.31-3.5-.11-4.88-.52-.85,1.21-2.28,1.84-3.47,2.7,2.05-.2,2.82.94,2.32,2.96,1.2.3,3-.23,3.86.64.02.71-.1,1.27-.52,1.54-1.41.04-2.15-.16-3.6-.26-.7,2.21-4.15.79-6.04,1.29-.48.99-.76,2.51.13,3.21,2.68-.21,5.07-.23,7.58-.38,1.02.34.9,2.03-.26,2.19.49.78.11,1.91.13,2.96.48-.33,1.48-.14,1.93-.52.41-.74-.38-2.69.9-2.57.59.34.07,1.43.13,2.05,1.8-.4,1.04-2.64,1.8-3.6.53-.15.5.27.9.26.58-.79.83-1.91,1.41-2.7-.25-.48-.98-1.66-.13-2.06.63-.16.43.51.9.51,1.62-2.08,1.83-4.85,2.95-7.2.65-1.35,1.58-2.53,2.06-3.98,1.18-3.58,2.37-7.12,3.6-10.8-1.56-1.1-3.98-1.34-6.04-1.93-1.17,3.72-2.04,7.73-7.33,7.33ZM4.1,30.72c-2.28,6.36-2.59,15.48-1.67,22.5.39.32.64-.39,1.16,0v1.8c.66.22.86.4,1.54.38.02-.8-.28-1.14-.13-1.93.27-.07.37-.32.77-.26.93.59-.24,2.57,1.03,2.7.41-.66-.41-2.55,1.03-2.18.27.68.02,1.87.38,2.44.5-.03.95,0,1.29.13.44-.72-.09-2.4,1.03-2.44.51.48-.06,1.49.13,2.44.44.32,1.78.31,2.19.26.14-1.2-.58-2.06.77-2.18.2.66.29,1.43.26,2.31.54.22,1.74.36,2.19.26.27-.77-.6-2.74.9-2.57.26.77.05,2,.26,2.83.47-.04,1.14.11,1.41-.13.06-.84-.22-2.02.52-2.18,1.01.26.08,1.71.51,2.44h.77c-.22-1.21.93-1.8,1.03-3.08-3.47-.16-8.41-.6-11.31-.9-1.02-.11-2.71-.38-2.83-1.16-.25-1.63,1.71-1.02,2.57-.9,4.02.55,8.08.78,11.7,1.29.12-1.02.1-1.42.13-2.44-1.87-.14-3.85-.18-5.27-.77-.23-.59-.2-1.43-.51-1.93-2.97-.27-11.09.01-8.87-2.83.21.21.75.1,1.16.13.24-.62.03-1.69.77-1.8.45.58.1,1.09,0,1.8.43.34,1.14.4,1.93.38.12-.95-.36-2.5.9-2.31.03.85,0,1.62-.13,2.31.58.28,1.65.06,2.44.13.14-.88-.9-2.33.38-2.44.87.33.08,2.15.26,2.57,1.38.19,1.04-1.36,1.54-2.06.28-.23,1.05.03,1.28-.26-1.47-.89-2.54-2.17-3.6-3.47-1.67-.16-7.73-.29-7.71-2.05,0-.6.54-.92,1.28-1.03-.04-.83-.31-1.52.64-1.54.26.42.07,1.3.13,1.93.59.19.95.19,1.41.26.58-.62.06-2.88,1.41-2.31-.04.94-.44,1.53-.51,2.44,1.02-.23,2.11.78,2.83,0-.8-.37-.83-1.15-.52-2.06-.65-1.42-.94-3.38-1.03-5.01-2.26-.1-5.67-.19-7.84.51ZM18.24,46.91c.46-.4.73-.98,1.03-1.54-.64.09-1-.12-1.54-.13-.28.55-.04,1.54.52,1.67ZM20.68,46.27c.34.18.87-.36.9-.9-.31.05-.28-.24-.64-.13-.13.3-.22.63-.26,1.03ZM23.25,46.14c.22.23.51-.04.51-.38-.34-.04-.55.05-.51.38ZM24.66,48.07h.51c-.05-.65.76-1.12.52-1.54-.36.5-.92.79-1.03,1.54ZM32.24,47.94c.36.11.33-.18.64-.13-.31-.35-.14-.89-.26-1.16-.33.2-.78.76-.39,1.28ZM28.52,55.01c-.26,1.02-.68,1.88-.77,3.08.53.08.88.54,1.41.26.33-.87-.09-2.49,1.16-2.44.47.67-.1,1.53-.13,2.44.96.28,1.76.16,2.83.13-.11-1.29.14-2.35-.26-3.47-1.36-.2-2.78.48-4.24,0ZM23.76,55.79c.36.02.37-.32.38-.64-.16,0-.18-.17-.38-.13v.77ZM33.66,58.48c.74.02,1.5.04,1.93-.26.09-.96-.3-2.02.13-3.09-2.25-.91-1.63,2.02-2.06,3.34Z"/></g></svg>