<?xml version="1.0" encoding="UTF-8"?><svg id="Layer_2" xmlns="http://www.w3.org/2000/svg" viewBox="0 0 35.49 64"><defs><style>.cls-1{fill:#5f5c5d;fill-rule:evenodd;}</style></defs><g id="Layer_1-2"><path class="cls-1" d="M10.78,5.41c-.04,1.01-.2,1.9-1.02,2.14-.24-1.05-.45-2.57,1.02-2.14Z"/><path class="cls-1" d="M23.08,6.73c.04.62-.71.74-1.22.51v-.71c.5-.15,1-.33,1.22.2Z"/><path class="cls-1" d="M7.93,9.78c-.24-.45-1-1.03-.91-1.53.28-1.56,2.28.79.91,1.53Z"/><path class="cls-1" d="M5.49,12.63c.12,1.13.89,1.62,1.12,2.64-1.11.05-1.99-.99-2.04-2.34.23-.18.41-.4.91-.31Z"/><path class="cls-1" d="M10.17,12.73c.16,1.02,1.1,1.27,1.42,2.14-1.26.61-3.54-1.88-1.42-2.14Z"/><path class="cls-1" d="M24.81,15.17c-.08.69-.61.94-1.22.61-.19-.79.8-1.05,1.22-.61Z"/><path class="cls-1" d="M10.37,18.94c-.91-.18-1.39-.78-1.93-1.32.52-1.19,2.22.45,1.93,1.32Z"/><path class="cls-1" d="M18,18.83c-.54.39-2.04.29-2.24-.31.02-1.27,1.96-.3,2.24.31Z"/><path class="cls-1" d="M7.42,21.17c.91.17,1.39.78,2.13,1.12-.48.92-1.7-.21-2.24-.51-.01-.25-.02-.49.1-.61Z"/><path class="cls-1" d="M16.17,21.48c.19.24-.05.71-.2.91-.85.08-1.81.08-2.44-.3-.18-1.45,1.77.09,2.64-.61Z"/><path class="cls-1" d="M21.96,23.21c-.66.45-1.86.17-2.34-.41.17-1.16,2.16-.29,2.34.41Z"/><path class="cls-1" d="M25.32,22.39c.2.39.15.39,0,.81-.38.12-1.26.19-1.63,0,.02-.12-.02-.18-.1-.2.15-1.01.97-.47,1.73-.61Z"/><path class="cls-1" d="M20.34,24.02c.35.79-.77,1.38-1.42.92v-.51c.53-.08.92-.3,1.42-.41Z"/><path class="cls-1" d="M9.15,26.46c-.4.1-1.23-.17-1.52-.51.11-1.44,1.8-.17,1.52.51Z"/><path class="cls-1" d="M15.45,26.36c-.07.38.17.44.1.81-.38.07-.9.21-1.12-.1-.12-.76.51-.86,1.02-.71Z"/><path class="cls-1" d="M31.93,22.8c1.26.3,3.09,1.94,3.46,3.56.61,2.69-1.66,4.29-4.07,2.95-.36.18-.22.87-.61,1.02.05,2.3.09,5.43-.51,8.03-.17.74-.6,1.37-.81,2.14-.65,2.39-1.29,4.91-2.04,7.22-.36,1.12-.82,2.4-1.22,3.76-.23.79-.37,1.66-.61,2.44-.15.48-.58.95-.71,1.43-.22.77-.01,1.39-.81,1.73-.72,1.29-1.42,3.23-2.64,4.27-.81.7-2.27,2.54-3.46,2.64-2.47.22-2.68-2.64-4.78-3.15.08-.24.33-.58.1-.81-3.32-4.92-5.4-11.08-7.83-16.88-.75-4.08-2.91-6.68-2.64-11.59-.4-.59-.94-.64-1.42-1.12-2.37-2.34-1.41-6.82,1.83-7.53-.11-.83-.56-.9-.81-1.42-.73-1.51-1.38-4.32-1.52-6.41-.13-1.96.19-3.92.71-5.39.55-1.58,1.91-3.72,3.15-4.98C6.61,2.72,9.73.75,12.71.22c3.52-.62,9.03.17,11.8,1.02,4.27,1.31,7.07,4.41,8.24,8.85,1.11,4.22,1.08,8.76-.81,12.71ZM31.32,20.77c.37-2.26,1-4.14.81-6.41-.37-4.51-2.34-9.14-5.7-10.88-2.63-1.37-6.65-1.89-9.97-2.04-1.12-.05-2.56-.02-3.66.2-3.91.8-7.89,4.12-9.46,7.32-1.96,4.01-1.06,11.24,1.83,13.93-.19.46-.16,1.13-.61,1.32-3.46-.6-4.15,4.47-2.03,5.59,2.11,1.12,3.65-1.17,4.98-1.83,1.44.35.12,2.99,1.42,3.76.75-.37.9.27,1.52.31.94-.43,2.25-1.23,2.85-1.83.55-.55.7-1.42,1.63-1.22.41.09.75.98,1.22,1.42.53.51,1.68,1.39,2.54,1.52,1.88.31,2.5-.8,3.56-1.63,0-.76-.24-1.61.41-1.93.99-.48,1.55,1.14,2.24,1.73,1.88,1.61,4.14.84,4.98-1.12-.22-.29-.57-.45-.61-.92.25-.53.54-1.02,1.22-1.12.91.56,1.7,1.75,3.25,1.32,1.13-2.19-.85-4.31-3.15-4.37.24-.88-.52-.77-.61-1.32.67-.38.76-1.34,1.32-1.83ZM4.98,31.44c1.65.45,1.07,3.13,2.03,4.27-.45-1.83-.27-3.26-.81-4.88-.62,0-1.01.21-1.22.61ZM22.88,31.85c.28.16.77.11.92.41-.02-.49.06-1.08-.41-1.12-.08.33-.37.44-.51.71ZM13.52,31.95h.51c.1-.21.21-.4.31-.61-.42.06-.73.22-.81.61ZM26.24,36.02c-.58-1.32-.03-3.77-1.42-4.27.34,1.56.47,3.32,1.42,4.27ZM15.55,31.95c-1.85,3.08-3.71,6.27-6.2,8.64-.67.64-1.58.95-2.03,1.83.62,1.72,1.16,3.52,1.83,5.19,4.73-3.95,8.64-8.72,11.59-14.44-2.06.99-3.44-.73-5.19-1.22ZM26.74,32.77c.14.47.28.94.31,1.53.45-.25.33-1.42.3-1.83-.31,0-.52.09-.61.31ZM8.54,34.6c.49-.08.81-.35.81-.91-.33-.28-.62-.6-1.22-.61.03.61.23,1.05.41,1.52ZM25.01,38.26c.25-.15.36-.46.51-.71-.5-1.16-1.07-2.26-1.53-3.46.17,1.24.27,3.19,1.02,4.17ZM20.94,35.92c.17.14.52.09.61.31.35,1.93.57,3.97,1.12,5.69,1.03-.47.03-1.45-.2-2.24-.41-1.41-.34-3.33-.61-4.88-.13,0-.14-.13-.31-.1-.14.46-.59.63-.61,1.22ZM11.28,36.12c0-.3,0-.62-.3-.61-.05.36.09.52.3.61ZM10.06,37.75c.67-.51-.12-1.36-.2-2.03-1.42,0-.32,1.82.2,2.03ZM12.71,55.75c.86,1.07,1.27,2.59,2.24,3.56,2.65-1.8,5.3-4.59,7.73-7.02.84-.84,1.94-1.76,2.44-2.64.41-.73.63-1.89.91-2.95.93-3.44,2.48-7.23,2.14-10.98-4.07,7.76-9.23,14.43-15.46,20.03ZM7.93,39.78c.45-.12.66-.49.92-.81-1.52.1-.75-2.1-1.83-2.44.19,1.2.52,2.26.91,3.25ZM20.03,37.14c1.04,1.53.31,5.01,1.83,6.31-.62-1.95-.79-4.73-1.52-6.71-.1.13-.1.38-.31.41ZM24.2,39.89c-.07-.95-.49-1.55-.81-2.24,0,.79-.14,2.13.81,2.24ZM20.84,44.66c-.87-1.7-.95-4.2-1.63-6.1.08,2.5.14,5.01,1.63,6.1ZM19.11,46.6c-.24.65-.95.19-1.32.41.12.32.2.68.51.81.62-.67,1.27-1.31,1.73-2.13-1.07-1.14-1.63-2.77-1.73-4.88-.14-.02-.17-.17-.3-.2.11,2.33.1,4.44,1.12,6ZM16.27,44.16c0-.38-.04-.7-.2-.92-.02.39,0,.74.2.92ZM15.96,50.67c.06-.28.42-.25.41-.61-.92-1.19-.81-4.28-1.52-6-.1,1.89,0,5.27,1.12,6.61ZM14.03,52.39c.54-.07.77-.45.91-.91-1.77-.67-1.29-3.59-2.14-5.19-.28,1.88.91,4.46,1.22,6.1ZM17.39,48.94c-.22-.76-.5-1.47-.81-2.14,0,.98.23,1.74.81,2.14ZM11.79,48.33c-.02-.35.04-.78-.3-.81.1.27.16.58.3.81ZM11.28,53.41c.36.32.64.55.61,1.02.32-.12.66-.22.71-.61-1.6-1.16-.92-4.01-2.34-5.29-.03,1.59.78,3.21,1.02,4.88ZM22.27,54.63c.37.11.69.26.92.51.31-.29.68-1.42.2-1.83-.43.39-.89.74-1.12,1.32ZM21.66,55.14c-.2.2-.48.33-.61.61.14.2.71-.03.71.31-.1.57-.02.68,0,1.42.67-.38.09-1.84-.1-2.34ZM20.13,56.56c-.18.87,0,2.23.41,2.85.41-.68.21-2.42-.1-3.05-.03.14-.23.12-.31.2ZM19.32,60.43c.47-.62-.23-1.7-.2-2.54h-.41c-.12.78-.09,2.25.61,2.54ZM17.79,61.55c.45-.03.84-.11.91-.51-.34,0-.54-.14-.71-.31-.04-.7-.01-1.48-.51-1.73-.31,1,.51,1.84.3,2.54ZM15.66,60.33c.2.38.36.79.92.81.23-.33-.01-.89-.1-1.22-.45-.05-.54.28-.81.41Z"/></g></svg>