<?xml version="1.0" encoding="UTF-8"?><svg id="Layer_2" xmlns="http://www.w3.org/2000/svg" viewBox="0 0 58.74 64"><defs><style>.cls-1{fill:#5f5c5d;fill-rule:evenodd;}</style></defs><g id="Layer_1-2"><path class="cls-1" d="M50.43,44.28c1.01,1,1.06,2.96,1.63,4.39,1.35,1.24,4.83.08,6.18,1.3.92.83.3,2.67.16,4.56-.13,1.84.53,3.25-.33,4.72-1,.25-1.8.69-2.77.98.91,5.02-6.16,4.71-6.51.98-2.03-.59-4.08.28-6.02.32-1.84.04-3.47-.48-4.88,0-1.5.51-1.92,1.89-3.42,1.95-1.84.08-2.54-1.2-3.26-2.6-1.45.02-3.46-.21-4.72-.49-1.2-2.8.64-6.28.98-9.12.98-1.5,2.95-1.99,5.05-1.95,1.5-1.34,1.08-4.08,2.93-4.88.91-.4,3.07-.43,4.23-.49,3.55-.19,7.74.17,10.74.33ZM36.43,46.72c-1.06,1.1-1.19,3.15-2.11,4.4-1.46.76-3.01.1-4.23.81-1.31.76-2.46,5.01-1.63,6.84,2.85,1.65,3.62-2.39,5.86-2.6,1.69-.16,3.24,1.08,3.74,2.93,3.71.28,7.64-.31,10.74-.16,1.03-.99,1.43-2.16,2.93-2.12,1.51.05,3.06,2.71,4.56.81.38-1.61.67-4.06.32-5.86-2.27-.96-5.41-.2-6.67-2.12-.58-.88-.3-1.94-.98-3.09-4.25-.68-8.56-.55-12.53.16Z"/><path class="cls-1" d="M38.87,47.69c3.67-.53,3.25,3.94,1.79,5.7-1.37-.04-2.58-.24-3.74-.49.1-2.07.4-3.94,1.79-4.72-.05-.26.15-.28.16-.49ZM38.22,51.76c.27.27.96.13,1.47.16.41-.51.67-1.17.65-2.12-1.43-.88-2.23.36-2.12,1.95Z"/><path class="cls-1" d="M47.34,53.06c-1.36.29-3.17-.68-4.56,0-.59-1.29.24-2.55,0-4.39.98-.89,2.63-.89,4.23-.49.74.92,1.29,3.77.33,4.88ZM43.92,51.76c.48.19,1.41-.38,2.44-.16.35-.62,0-1.07-.16-1.63-1.43-.63-2.63.13-2.28,1.79Z"/><path class="cls-1" d="M17.55,47.2c-.84,4.12-.73,9.97-.49,14.48-1.04,1.44-3.99.05-5.21,1.14-1.59-1.23-4.39-1.04-6.67-.97-1.35-.71-2.93-1.19-4.39-1.79C-.55,52.05.24,44,.14,35.81,0,24.85.71,13.17,1.6,1.47,2.06.95,2.87-.08,3.39,0c10.92.17,20.09,1.88,26.53,7.16,5.19,4.26,9.27,8.17,10.74,16.11.48,2.57.96,4.55.65,7-.47,3.73-2.4,7.86-5.05,10.42-.54.52-1.38.77-2.12,1.3-.67.48-1.14,1.28-1.79,1.63-2.34,1.23-6.59,2.41-9.77,2.77-1.88.21-3.54-.2-5.04.81ZM3.56,5.05c.86-.44,1.19-1.42,1.63-2.28-1.45-.76-1.79.9-1.63,2.28ZM7.3,2.61c-2.37,2.57-4.62,5.25-4.23,10.58,1.01-.87,2.06-2.38,1.47-3.91,1.6-1.98,3.17-3.99,4.23-6.51-.5-.2-.66-.08-1.46-.16ZM10.39,2.94c-1.21,1.67-2.41,3.34-3.58,5.04-.04.48.37.5.33.98-1.3,2.98-3.96,4.61-4.39,8.46,3.65-4,5.43-9.87,8.63-14.32-.19-.19-.58-.18-.98-.16ZM13,3.26c-1.33,2.08-3.05,3.78-4.39,5.86-.13,3.75-3.42,5.67-4.72,8.79.88-.18.76.65,1.3.82,1.22-2.18,3.38-4.28,4.07-6.84.95-3.54,3.62-5.43,4.56-8.63h-.81ZM15.44,3.75c-1.31,2.55-3.67,4.04-4.88,6.67-.1,4.19-3.79,6.19-5.05,9.76-1.57.71-1.99,2.56-2.93,3.91v2.28c1.88-1.81,2.42-4.96,4.07-7,.36-.38.63.06,1.14,0,1.48-2.37,2.79-4.91,4.23-7.32.08-.51-.29-.58-.16-1.14,1.37-2.27,3.7-4.44,4.07-7.16h-.49ZM17.88,4.24c-1.48,2.26-3.13,4.36-4.88,6.35-.16.65.49.49.32,1.14-2.97,6.19-7.33,11-10.9,16.6.22,1.5-.43,2.9,0,4.07.76-.22.69-1.37.49-2.12,1.65-3.34,4.05-5.94,5.37-9.6.38-.05.67-.32.98,0-.95,3.39-2.89,5.79-4.72,8.3,1.24,2.85-2.57,4.63-2.28,8.14,2.02-1.44,2.83-4.3,3.74-6.84,1.01-2.8,3.19-5.15,4.23-7.81-.03-.51-.88-.21-.82-.81,1.67-2.94,3.67-5.55,4.56-9.28,2.18-2.11,3.48-5.1,5.05-7.81-.36-.13-.63-.34-1.14-.33ZM20.48,5.05c-1.43,2.69-3.44,4.81-5.21,7.16-.12,3.36-2.87,5.47-4.07,8.3.5.06.83-.43.98.16-1.02,3.7-3.42,6.02-5.05,9.11,0,.53.46.62.33,1.3-1.44,1.72-2.73,5.01-4.07,7-.52.77-1.95,1.4-.81,2.6.31-.4.61-.81.49-1.63.32-.22.77-.31,1.14-.49,3.29-4.36,4.9-10.4,7.81-15.14-.17-.82.37-.93.33-1.63.33-.16.64-.33.98-.49.29-2.1,1.81-2.96,1.46-5.7.85-.83,1.47-1.89,2.77-2.28,1.46-2.66,3.35-4.89,4.39-7.98-.42-.17-.8-.4-1.46-.32ZM23.41,6.35c-1.43,2.53-3.42,4.5-4.72,7.16.66.26,1.47.37,2.44.32,1.19-2.49,3.3-4.07,4.23-6.83-.6-.22-1.43-.88-1.95-.65ZM22.11,14.33c.46.14.67.53,1.3.49,1.41-1.51,2.57-3.29,3.25-5.53.46-.17.68-.17,1.14,0-.19,3.01-2.26,4.15-3.42,6.18.56.47.88,1.18,1.79,1.3,1.55-1.87,2.66-4.17,4.07-6.18-1.26-.86-2.05-2.18-3.58-2.77-1.16,2.53-3.47,3.9-4.56,6.51ZM30.25,21c1.62-1.39,4.31-5.23,4.23-6.02-.07-.65-2.65-2.97-3.42-3.26-.77,2.86-5.43,4.39-3.58,7.81,1.87-1.49,2.92-3.81,4.23-5.86.37-.08.83-.32,1.14,0-.75,4.13-5.76,5.19-5.04,9.76.52-.9,1.65-1.76,2.44-2.44ZM25.69,20.68c-1.52-2.69-3.94-5.25-8.14-4.72-1,2.97-.94,6.85-1.47,10.25-.18,1.19-.83,2.3-.49,3.42,5.9-.45,10.2-2.49,10.09-8.95ZM29.76,23.6c.41-.14.87-.21,1.46-.16,1.31-2.05,3.01-3.72,4.07-6.02-.02-.2-.05-.38-.33-.33-1.54,2.36-4.31,3.51-5.21,6.51ZM30.25,31.26c1.98-2.94,2.72-4.89,4.56-7.65,1.06-1.6,3.68-3.95,1.63-5.04-1.83,2.4-4.25,4.21-5.7,7,.31.4.44-.74,1.14-.49.22.32.31.78.49,1.14-.75,2.94-3.75,4.78-4.88,7.49-.35.83-.25,1.84-.65,2.6-.63,1.21-1.77,1.86-2.12,3.26,1.75,1.13,2.32-2.5,3.25-3.74-.24-1.92,1.03-2.71,2.28-4.56ZM2.58,21.33c.67,0,1.1-2.02.33-1.95-.39.33-.74,1.34-.33,1.95ZM13.65,21.33c-.43,3.4-2.72,6.26-4.23,9.11.36,1.85-1.2,3.74-2.44,5.7-1.6,2.52-2.97,4.81-4.56,6.84-.13.85-.34,1.99.16,2.6.94-1.72,1.9-3.41,2.44-5.54,1.99-.7,2.05-2.08,3.09-4.07.5-.96,1.23-1.97,1.46-2.77.08-.28-.1-.87,0-1.14.52-1.36,1.64-2.7,2.28-4.07,1.1-2.36,2.49-4.01,2.6-7-.04-.12-.13-.19-.32-.16-.09.23-.25.4-.49.49ZM33.34,27.19c.75,3.59-4.42,4.9-4.23,8.46,2.88-1.57,3.34-5.56,5.69-7.65.94-1.83,2.1-3.44,2.93-5.37-.04-.13,0-.32-.16-.33-1.38,1.66-2.81,3.27-4.23,4.88ZM21.78,35.97c.66-.78.85.87,1.3.33,1.17-1.32.92-4.07,2.77-4.72,1.16-2.53,2.99-4.39,3.74-7.32-.02-.2-.05-.38-.32-.32-3.1,3.3-5.39,8.28-7.49,12.04ZM35.29,28.32c-.61,4.06-3.66,5.67-5.53,8.46h-.81c-.56,1.91-2.48,3.25-2.44,5.21,1.7-1.06,1.97-3.57,3.74-4.56.15.28.6.27.65.65-.77,1.94-2.33,3.09-3.42,4.72,2.95.02,3.23-2.63,4.88-3.91,1-.02.43,1.01.98,1.14,2.08-1.41,2.45-3.94,3.74-6.35-1.01.94-1.34,2.57-2.6,3.26-.33.75-.21,1.96-1.3,1.95-.5-1.61,1.51-2.92,1.3-4.23-.51.79-1.13,1.47-1.79,2.12-.34.59-.09,1.76-1.3,1.47.9-3.45,3.57-5.11,4.56-8.46.63-.18.75-.38,1.46-.16.48-1.31,1.97-3.46.81-4.88-.9,1.27-1.89,2.45-2.93,3.58ZM25.85,32.72c.17,2.94-2.49,3.04-2.44,5.86,1.62-.71,1.83-2.89,2.6-4.56,1.13-2.42,3.39-4.45,4.23-6.84-.04-.13,0-.32-.16-.33-1.45,1.92-2.55,4.17-4.23,5.86ZM11.37,31.9c.21.48,1.2-.46,1.3.33-.55,2.54-1.56,4.05-2.77,6.02-1.81,2.96-2.6,6.2-4.56,8.95-1.4,1.97-3.41,3.4-2.93,6.02,4.63-6.27,8.11-13.7,11.56-21.16-.62-.24-1.06-.68-1.3-1.3.04-.76.6-1.28-.16-1.63-.35.92-1.67,1.48-1.14,2.77ZM37.41,31.26c.62.55.1,1.25,0,1.95,1.5-.08,1.2-1.94,1.46-3.25-.86.06-1.11.73-1.46,1.3ZM20,35.81c.74-2.3,3.05-3.02,3.42-5.7-.7.06-1.15.37-1.63.65-.26,1.91-1.7,3.5-1.79,5.04ZM16.58,35c.94-.51,1.9-2.6,1.46-3.42-.39,1.24-.83,2.43-1.46,3.42ZM15.44,32.07c0,.21-.29.15-.33.32-.94,3.7-4.06,6.53-5.21,9.93-.15.44.02,1.01-.16,1.46-.75,1.86-2.37,3.77-3.74,5.7-1.59,2.23-4.48,5.57-3.09,8.79.72.31,1.43.63,2.44.65,1.87-5.89,6.09-9.43,7.33-15.95.72-1.18,1.9-2.76,1.79-4.23-.51,1.06-1.4,1.74-1.46,3.26h-.49c.17,1.36-.48,1.9-1.14,2.44.09.53-.11.76-.16,1.14-1.26,2-2.66,3.95-3.91,6.02-1.24,2.07-2.19,4.35-3.58,6.35-.42-1.43.67-2.88,1.3-4.07,2.05-3.88,4.79-7.52,6.35-11.72.19-.14.44-.22.81-.16,1.04-3.63,3-6.34,4.07-9.93h-.81ZM19.34,33.7c.07-.4.82-.97.16-1.14.09.43-.67.83-.16,1.14ZM10.56,34.02c.47-.03.87-.96.49-1.3-.14.46-.39.81-.49,1.3ZM13.97,42.65c.32.16.37.61.65.82,1.56-3.05,3.16-6.06,4.56-9.28-.02-.2-.05-.38-.33-.32-1.36,3.2-3.96,5.15-4.88,8.79ZM15.76,36.46c.51-.14.68-.63.81-1.14-.73-.08-.36.94-.81,1.14ZM6,42.16c-1.42,2.14-3.71,4.16-3.74,7.16,1.79-1.2,3-4.38,4.07-6.84,1.37-1.99,3.08-4.51,3.42-7-1.07,2.41-2.98,3.97-3.74,6.67ZM14.79,38.42c.45-.31,1.28-1.1.82-1.79-.23.64-.81.93-.82,1.79ZM15.11,44.44c1.1.15,1.03-2.21,2.11-2.6.47-1.8,1.58-2.97,2.12-4.72.17,0,.13-.21-.16-.16-1.6,2.25-2.78,4.93-4.07,7.49ZM18.53,44.11c1.79.42,1.84-2.27,2.61-3.42-.21-.01-.23-.21-.49-.16-.64,1.26-1.84,1.96-2.12,3.58ZM20.81,44.11c1.88.09,1.93-1.65,2.6-2.77-.51.08-.64-.23-.98-.33-.49,1.08-1.59,1.56-1.63,3.09ZM17.07,44.11c.86-.11,1.72-1.7.81-2.11-.34.63-.89,1.06-.81,2.11ZM13.65,44.93c-2.08,5.2-5.87,8.67-7.49,14.32.63-.09.79.29,1.46.16,2.7-4.46,5.12-9.2,7.32-14.16-.66.12-.56-.52-1.3-.33ZM14.62,49.32c.52.24.78-.94.16-.81-.14.19-.21.44-.16.81ZM8.93,59.41c.97.04,1.27-1.14,1.63-1.79,1.26-2.3,2.55-4.61,3.42-7.16-.04-.13-.14-.19-.33-.16-1.29,3.32-3.52,5.7-4.72,9.11ZM10.88,59.58c.32.22.93.15,1.3.32.77-2.11,2.86-4.62,2.28-7-1.33,2.08-2.8,4.03-3.58,6.67ZM13.81,59.74c.25.27.63-.06.98-.16-.09-.4-.14-.84-.65-.82-.09.34-.4.46-.33.98Z"/></g></svg>