<?xml version="1.0" encoding="UTF-8"?><svg id="Layer_2" xmlns="http://www.w3.org/2000/svg" viewBox="0 0 54.66 60.51"><defs><style>.cls-1{fill:#5f5c5d;}</style></defs><g id="Layer_1-2"><path class="cls-1" d="M.7,18.52c-.67-.88-.83-1.96-.62-3.13.1-.54.13-1.1.24-1.64.19-.89.56-1.68,1.23-2.33.22-.22.38-.5.6-.72.24-.25.52-.46.83-.73.26-.83.5-1.76.84-2.66.57-1.54,1.74-2.58,3.07-3.45.38-.25.82-.4,1.21-.65.3-.19.53-.47.83-.66,1.08-.71,2.17-1.41,3.28-2.09.26-.16.58-.23.89-.27.67-.08,1.34-.2,2-.15.65.05,1.28.03,1.93,0,1.49-.08,2.97-.03,4.45.23.69.12,1.37.22,2.02.46.18.07.37.11.56.14,1,.16,1.42.6,1.4,1.62-.04,2.87-.13,5.73-.13,8.6,0,1.27.14,2.54.25,3.81.1,1.12.28,2.24.36,3.37.03.39-.13.79-.21,1.26.47.91.65.47.59,3.58.18.02.36.06.54.05,1.47-.04,2.94,0,4.39-.16,4.76-.54,9.53-.14,14.29-.27.54-.01,1.03.14,1.53.46.77-1.07,1.53-2.14,2.12-3.34.74-1.51,1.53-3,2.28-4.5.21-.43.39-.88.54-1.34.32-.98.89-1.81,1.51-2.62.07-.09.16-.22.26-.24.19-.04.42-.08.6-.02.26.09.31.36.24.61-.04.16-.14.31-.24.44-.68.83-1.08,1.8-1.48,2.79-.53,1.31-1.19,2.58-1.82,3.85-.39.8-.8,1.59-1.26,2.35-.57.95-1.2,1.86-1.83,2.82.22.65.47,1.32.67,2.01.1.34.15.71.16,1.06.05,1.54,0,3.08-.22,4.62-.06.45-.05.91-.05,1.37,0,.4.07.81-.25,1.16-.09.09-.09.27-.11.41-.19,1.56-.73,3-1.51,4.34-.61,1.03-1.28,2.04-1.98,3.01-.3.42-.77.72-1.15,1.08-.24.23-.46.48-.68.72-.06.07-.1.17-.17.23-.54.48-1.08.96-1.62,1.44-.65.58-1.48.68-2.27.84-1.26.25-2.53.24-3.8.05-.71-.11-1.44-.11-2.15-.17-1.15-.09-2.3-.2-3.44-.27-.33-.02-.67.03-1,.06-.12,0-.23.06-.35.06-1.88.05-3.76.19-5.63.12-1.67-.06-3.36-.14-5.02-.5-1.07-.23-2.18-.33-3.27-.49-.19-.03-.38-.07-.56-.13-1.07-.35-2.12-.74-3.2-1.04-.97-.27-1.67-.94-2.4-1.56-.38-.33-.76-.67-1.14-.99-1.41-1.19-2.66-2.54-3.48-4.19-.54-1.09-.82-2.31-1.19-3.48-.51-1.61-.94-3.24-1.18-4.91-.1-.71-.11-1.44-.1-2.16,0-.98-.11-1.97.17-2.95.05-.18-.06-.48-.19-.64-.63-.76-.83-1.64-.7-2.57.09-.63.32-1.24.53-2ZM7.17,40.11c.72.63,1.47,1.24,2.15,1.91.54.53,1.2.78,1.9.98.28.08.54.19.82.27.79.25,1.58.56,2.39.72,1.05.22,2.15.25,3.19.49,1.65.38,3.34.43,5.01.51,1.68.08,3.37-.07,5.05-.12.12,0,.23-.07.35-.07.98,0,1.98-.09,2.95.02.54.06,1.08.21,1.63.2.24,0,.48,0,.72.02,1.39.09,2.78.26,4.16.24.82-.01,1.69-.2,2.44-.52.97-.42,1.79-1.12,2.49-1.93.69-.8,1.41-1.58,2.07-2.4.54-.67,1.19-1.32,1.5-2.1,1.18-3.04,2.2-6.13,1.92-9.47-.07-.86-.19-1.72-.39-2.56-.18-.74-.5-1.45-.76-2.2-.58-.07-1.15-.21-1.72-.21-3.62-.02-7.24-.01-10.85,0-.24,0-.48.02-.72.04-.84.08-1.67.19-2.51.24-1.39.07-2.79.1-4.18.16-.45.02-.9.11-1.35.18-.09.01-.16.1-.25.14-.58.29-1.17.56-1.74.88-.59.33-1.22.31-1.83.2-.46-.08-.88-.43-1.33-.48-.46-.04-.94.15-1.41.23-.12.02-.24,0-.36,0-1.23-.05-2.45-.1-3.68-.14-.63-.02-1.26.03-1.88-.01-1.05-.07-2.11-.15-3.15-.31-.88-.14-1.75-.27-2.65-.27-.91,0-1.83-.05-2.73-.14-.74-.07-1.46-.23-2.27-.36-.26,1.32-.1,2.64-.11,4.13.28-.33.41-.54.59-.68.1-.08.35-.09.44-.02.1.07.13.28.13.43,0,.1-.12.2-.17.31-.22.47-.45.93-.66,1.4-.02.04,0,.1,0,.14.12.49.23.98.35,1.48.15-.24.19-.47.24-.7.06-.31.11-.62.21-.91.08-.24.26-.43.55-.33.25.09.27.3.22.54-.13.61-.27,1.22-.34,1.84-.04.37-.16.64-.52.79.21.76.41,1.48.62,2.2.13-.15.12-.27.13-.38.05-.53.08-1.06.17-1.58.02-.15.21-.35.35-.37.25-.04.37.17.38.42,0,.14.02.29,0,.43-.04.43-.09.86-.14,1.29-.02.21,0,.46-.09.63-.09.15-.33.2-.5.3.1.28.17.53.28.77.11.23.27.43.4.64l-.02-.02c.47,1.16,1.35,2,2.24,2.83.09.1.18.19.28.29ZM24.34,2.15c-.68-.2-1.21-.36-1.74-.5-.32-.09-.65-.16-.98-.21-.62-.09-1.23-.21-1.85-.24-1.08-.06-2.16-.19-3.23.1-.21.06-.46-.02-.68-.06-.11-.02-.22-.13-.32-.12-.76.07-1.56.05-2.28.27-1.35.4-2.49,1.23-3.59,2.08-.02.01-.02.04-.03.08,1.04.66,1.87,1.55,2.62,2.52.62.8,1.2,1.63,1.84,2.41.59.72,1.23,1.41,1.86,2.1.53.59,1.09,1.15,1.59,1.77,1.14,1.4,2.21,2.85,3.12,4.4.25.43.54.85.81,1.27.87-.11,1.7-.15,2.49.27.21.11.49.07.83.11-.79-5.47-.69-10.87-.45-16.25ZM20.58,18.76c-.91-1.37-1.74-2.72-2.68-3.99-.87-1.17-1.8-2.32-2.81-3.37-1.13-1.16-2.09-2.45-3.07-3.73-.76-.99-1.52-1.98-2.5-2.77-.27-.22-.53-.46-.87-.76-.66.44-1.39.89-2.08,1.41-.78.59-1.37,1.36-1.7,2.29-.2.57-.38,1.14-.55,1.72-.28.94-.2,1.16.61,1.78.25.19.49.4.76.55,2.22,1.24,4.45,2.48,6.68,3.71.99.55,1.99,1.08,2.98,1.61,1.29.69,2.6,1.36,3.89,2.05.37.2.68.2.97-.13.09-.11.2-.2.39-.37ZM3.18,11.35c-.9.9-1.67,1.84-1.83,3.13-.05.41-.05.82-.13,1.22-.16.73,0,1.38.36,2.01.1.16.23.34.23.51,0,.52.33.8.72,1,.4.2.84.38,1.28.46.82.15,1.67.19,2.49.34.96.18,1.91.45,2.88.63,1.03.19,2.08.35,3.12.48.81.09,1.63.1,2.44.15.12,0,.24-.01.36-.02,1.31-.08,2.61-.16,3.95-.24.04-.14.09-.3.13-.45-1.37-.73-2.71-1.43-4.04-2.15-1.04-.56-2.07-1.13-3.11-1.69-1.31-.7-2.65-1.37-3.94-2.11-1.31-.75-2.6-1.56-3.87-2.38-.38-.24-.68-.59-1.03-.89ZM2.09,22.64c.46.46.97.56,1.49.67,1.45.31,2.91.29,4.38.28.36,0,.72.04,1.07.1,1.59.26,3.17.56,4.79.48.77-.04,1.54-.02,2.31,0,.41,0,.81.1,1.21.11.66.02,1.33.14,1.89-.07-.14-.76-.27-1.44-.38-2.07-.46.04-.91.09-1.35.13-.79.05-1.58.1-2.37.14-.22.01-.43.01-.65,0-.67-.04-1.34-.08-2.01-.14-.74-.06-1.49-.1-2.22-.23-1.18-.21-2.35-.5-3.53-.74-.47-.09-.95-.12-1.43-.19-1.19-.18-2.39-.29-3.46-.93-.12-.07-.25-.11-.44-.19-.05.36-.09.66-.13.94.29,0,.57-.08.72.02.16.11.19.4.28.61.04.09.08.17.13.26.21.37.13.65-.31.82ZM25.2,21.99c0-.2,0-.29,0-.39.04-.91-.43-1.58-1.15-2.02-1.2-.74-1.82-.64-2.91.26-.66.54-.96,1.21-1.04,2.05-.08.88.11,1.61.86,2.14.12.08.19.22.32.29.2.11.41.23.63.27.74.13,1.34-.28,1.97-.55.94-.4,1.43-1.1,1.32-2.05Z"/><path class="cls-1" d="M37.44,60.48c-.23,0-.41-.02-.57,0-1.14.13-2.05-.4-2.92-1.02-.1-.07-.17-.17-.27-.23-1.7-.96-2.06-2.63-2.24-4.36-.14-1.35.19-2.66.66-3.89.31-.82,1.04-1.45,1.85-1.86,1.22-.62,2.53-.95,3.9-.77.46.06.9.28,1.35.43,1.26.42,2.4,1.03,3.2,2.11.86,1.16,1.55,2.44,1.97,3.82.19.64-.09,1.29-.38,1.87-.21.42-.53.8-.84,1.16-.95,1.11-2.09,1.97-3.49,2.48-.76.28-1.52.21-2.21.24ZM37.45,59.34c1.66,0,2.63-.36,3.89-1.42.54-.45.89-1.01,1.23-1.64.51-.95.6-1.8.05-2.71-.25-.41-.5-.82-.72-1.25-.56-1.12-1.5-1.78-2.63-2.24-.57-.23-1.26-.06-1.74-.58-.06-.06-.23-.02-.35-.02-1-.05-1.92.26-2.75.74-.5.29-1.06.75-1.24,1.25-.62,1.71-1,3.48-.14,5.26.24.5.32,1.16,1.12,1.09.02,0,.05.01.06.03.37.63,1.07.8,1.62,1.19.25.18.44.3.74.3.29,0,.58,0,.87,0Z"/><path class="cls-1" d="M16.17,54.29c.19,1.16-.24,2.19-.64,3.23-.09.23-.3.42-.48.61-.29.31-.6.61-.91.91-.22.21-.43.45-.7.6-.44.25-.92.4-1.36.64-.5.28-1.03.24-1.55.21-1.22-.06-2.41-.3-3.36-1.12-1.47-1.29-2.58-2.81-2.53-4.89.03-1.59.72-2.92,1.76-4.09,1.23-1.38,2.77-2.01,4.61-1.89.17.01.37-.01.49.08.82.58,1.92.63,2.61,1.42.31.36.62.72.93,1.09.09.11.13.26.23.36.73.82,1.09,1.75.89,2.85ZM15.05,54.36c.09-.82-.06-1.58-.71-2.1-.56-.45-1.17-.82-1.78-1.21-.39-.25-.94-.29-1.06-.87-.01-.05-.09-.1-.16-.13-.56-.28-1.13-.54-1.77-.19-.15.08-.31.15-.47.18-.7.16-1.3.49-1.74,1.06-.36.48-.76.94-1.03,1.47-.39.75-.69,1.6-.5,2.43.51,2.29,2.03,4.17,4.78,4.35.44.03.82-.09,1.23-.29.79-.38,1.51-.81,2.02-1.53.07-.09.2-.14.28-.23.14-.16.31-.31.39-.5.31-.78.64-1.57.52-2.43Z"/><path class="cls-1" d="M6.89,39.82c-.07-.28-.13-.56-.2-.84-.21-.06-.51-.05-.63-.19-.15-.18-.19-.48-.21-.73-.03-.36,0-.72,0-1.08,0-.25.15-.45.39-.4.14.03.31.24.33.39.04.4.02.81.02,1.28.16-.03.26-.05.37-.08.31-.08.45.07.5.35.05.28.09.57.16.85.13.52.13.54-.45.74-.09-.1-.18-.19-.28-.29Z"/><path class="cls-1" d="M44.17,26.34c.01-.31-.28-.72.17-.87.23-.07.52.07.81.11-.04-.09-.15-.25-.16-.41,0-.14.05-.35.15-.43.1-.07.37-.08.45,0,.5.51,1.25.72,1.62,1.38.14.24.27.43.1.72-.07.12-.06.3-.05.45.04.59-.09.72-.7.66-.09,0-.17-.04-.35-.08.09.21.14.34.21.45.15.26.2.52-.07.71-.27.19-.56.12-.78-.12-.18-.19-.36-.39-.54-.58-.08-.09-.18-.16-.38-.34.17.61.48.99.71,1.4.09.17.22.31.32.48.14.24.23.51-.03.72-.28.23-.55.1-.78-.11-.23-.21-.43-.45-.74-.63.17.27.36.55.52.83.15.25.33.49.4.76.04.17-.05.44-.18.56-.1.1-.38.11-.52.04-.3-.15-.58-.35-.82-.57-.42-.39-.81-.81-1.28-1.28-.04.18-.05.27-.08.34-.17.36-.42.44-.66.18-.9-1.01-1.75-2.05-2.28-3.31-.1-.24-.13-.49.1-.66.26-.2.5-.06.7.14.64.62,1.29,1.23,1.94,1.84.09.09.2.16.39.17-.33-.52-.67-1.03-.99-1.55-.25-.41-.47-.84-.68-1.27-.12-.26-.2-.58.1-.79.3-.21.54,0,.75.22.03.03.08.05.11.08.16-.17.3-.46.48-.48.22-.03.5.11.7.26.43.3.83.65,1.25.98.02.01.05.01.1.03Z"/><path class="cls-1" d="M46.41,36.05c-.06.19-.11.35-.17.51-.6,1.59-1.5,3-2.61,4.28-.11.13-.23.29-.37.33-.15.04-.38.02-.5-.07-.07-.05-.07-.33,0-.44.2-.3.46-.55.68-.84.84-1.06,1.54-2.2,2.03-3.47.07-.18.13-.38.26-.51.09-.09.3-.13.44-.1.1.02.17.2.24.3Z"/><path class="cls-1" d="M37.53,44.8c-.3-.02-.48,0-.62-.06-.13-.06-.3-.21-.3-.32,0-.12.17-.25.28-.37.03-.03.09-.03.14-.02.89.1,1.54-.45,2.26-.8.21-.1.43-.24.66-.28.15-.02.37.07.46.19.06.07-.06.29-.12.43-.02.06-.11.09-.17.12-.53.28-1.04.6-1.59.84-.34.15-.73.2-.99.26Z"/><path class="cls-1" d="M4.67,37.01c0-.33,0-.67.03-1,.03-.33-.16-.78.36-.89.27-.06.38.21.4.85,0,.26.06.52.05.79,0,.17-.02.4-.13.51-.19.19-.39.04-.56-.12-.05-.05-.11-.1-.16-.15,0,0,.02.02.02.02Z"/><path class="cls-1" d="M7.86,39.74c.02-.2-.01-.34.05-.43.08-.12.22-.26.36-.28.09-.02.28.13.31.23.09.29.14.61.18.91.03.23-.04.48-.31.47-.14,0-.33-.16-.41-.3-.11-.2-.14-.45-.18-.61Z"/><path class="cls-1" d="M16.26,2.23c-.16.09-.32.24-.5.27-.42.08-.85.12-1.28.15-.95.08-1.83.37-2.61.92-.08.05-.16.15-.24.15-.15,0-.36.01-.45-.08-.08-.09-.09-.32-.04-.45.06-.14.22-.25.36-.34.81-.53,1.7-.87,2.67-.96.5-.04,1-.13,1.5-.13.19,0,.38.17.58.27,0,.06,0,.12,0,.19Z"/><path class="cls-1" d="M23.11,8.99c-.06.91.28,1.74.49,2.6.06.26.15.51.2.76.04.23,0,.45-.26.52-.26.07-.42-.09-.48-.32-.27-1.04-.71-2.04-.7-3.14,0-.36,0-.72,0-1.08,0-.25.14-.44.38-.43.25,0,.37.19.38.44,0,.22,0,.43,0,.65Z"/><path class="cls-1" d="M5.84,8.99c-.31-.05-.5-.25-.39-.45.35-.65.75-1.26,1.16-1.87.04-.06.35-.03.43.06.16.18.38.42.17.7-.36.47-.74.93-1.12,1.39-.07.08-.19.13-.26.17Z"/><path class="cls-1" d="M1.89,15.27c.08-.39.13-.8.25-1.18.03-.11.26-.25.37-.23.12.02.24.2.31.33.05.1.02.23,0,.35-.04.38-.09.75-.12,1.13-.02.28.04.61-.36.67-.26.04-.38-.19-.39-.71,0-.12,0-.24,0-.36-.02,0-.04,0-.05-.01Z"/><path class="cls-1" d="M23.42,22.03c-.08.25-.12.56-.28.78-.11.15-.41.25-.61.23-.16-.02-.39-.22-.43-.38-.07-.32-.05-.66-.04-1,.01-.36.24-.58.58-.62.34-.04.52.18.62.48.05.16.09.32.15.51Z"/><path class="cls-1" d="M38.63,54.51c.01.54-.26.87-.73.89-.5.03-1.08-.54-1.08-1.07,0-.52.46-1.05.91-1.05.47,0,.88.57.9,1.22Z"/><path class="cls-1" d="M42.19,54.49c-.06.06-.17.28-.32.33-.25.08-.35-.15-.43-.37-.13-.36-.27-.72-.46-1.05-.18-.32-.41-.59-.85-.57-.12,0-.33-.15-.35-.27-.03-.13.08-.36.19-.41.2-.09.47-.15.67-.09.7.22,1.58,1.56,1.56,2.43Z"/><path class="cls-1" d="M33.76,54.29c.16.33.28.5.33.68.12.41.16.85.32,1.24.11.27.38.48.55.73.1.14.23.34.2.47-.06.25-.32.26-.54.2-.15-.05-.33-.13-.42-.25-.58-.71-.95-1.51-.83-2.45.02-.17.2-.32.4-.62Z"/><path class="cls-1" d="M11.5,54.5c-.16.31-.26.67-.48.92-.41.46-1.02.32-1.27-.24-.07-.15-.09-.32-.15-.48-.17-.41-.18-.78.21-1.09.33-.26.67-.33,1.06-.15.42.2.58.54.63,1.03Z"/><path class="cls-1" d="M6.72,53.6c.27-.02.48.21.41.48-.22.92-.1,1.76.47,2.53.16.21.2.46-.06.63-.27.18-.45,0-.6-.21-.39-.53-.69-1.1-.66-1.79.02-.36,0-.72,0-1.08,0-.31.16-.49.43-.56Z"/><path class="cls-1" d="M14.13,54.14c0,.17.03.36-.04.5-.07.14-.23.29-.38.33-.08.02-.28-.18-.31-.31-.07-.3-.06-.62-.11-.92-.04-.25-.05-.52-.39-.62-.25-.07-.3-.33-.22-.54.06-.16.22-.37.36-.39.18-.03.45.06.56.2.38.51.55,1.11.54,1.76Z"/></g></svg>