<?xml version="1.0" encoding="UTF-8"?><svg xmlns="http://www.w3.org/2000/svg" viewBox="0 0 64 61.13"><defs><style>.cls-1{isolation:isolate;}.cls-2{mix-blend-mode:multiply;}.cls-3{fill:#5f5c5d;fill-rule:evenodd;}</style></defs><g class="cls-1"><g id="Layer_2"><g id="Layer_1-2"><g class="cls-2"><path class="cls-3" d="M20.26,9.37c-.53,1.22-1.64,1.86-2.39,2.86-.47,1.77-2.56,4.12-2.1,6.49.08.44.52.56.57,1.05-.31.17-.82-.16-1.05-.38-.41-4.35,1.85-7.53,3.92-10.03h1.05Z"/><path class="cls-3" d="M53.02,9.75c.95,2.12,1.65,6.3-.76,7.35.5-.87,1.12-1.8,1.05-3.15-.05-.9-.4-2.03-.67-2.77-.23-.64-.98-1.69.38-1.43Z"/><path class="cls-3" d="M20.17,12.33c-.62,2.31-1.72,4.14-1.91,6.88,0,.44.54.35.48.86-1.33.48-1.16-1.41-.96-2.67.26-1.59.99-3.49,1.34-4.49.38-.16.57-.51,1.05-.57Z"/><path class="cls-3" d="M50.63,12.43c.76.61.88,2.31.76,3.92-.06.76-.17,1.85-.96,1.72.62-1.68-.01-3.91.19-5.63Z"/><path class="cls-3" d="M49.96,13.86c1.08.74.52,3.59-.86,3.63-.02-.45.45-.56.57-1.15.16-.79-.1-1.89.29-2.48Z"/><path class="cls-3" d="M44.71,22.74c.26-.55.64-2.17-.28-2.67-.21.46,0,1.34-.48,1.53-1.65-.39-.93-3.15-2.48-3.63v-.57c-2.06-2.6-8.36-.77-9.64,1.82-.42.85-.13,1.59-.95,2.1-1.07-.96-1.96-2.11-3.82-1.91-2,.21-4.64,2.76-4.3,5.73.15,1.27.77,3.29,2.2,3.53.33-1.96.12-5.69,2.48-6.21.18.17.34.36.38.67.09.44-.52.18-.67.38-1.21,1.45-2.14,5.3-.67,7.16-.68.15-1.15-.69-1.34-1.34-.35.06-.69.13-1.15.1-.86-.32-1.03-1.32-1.53-2.01-.29-1.55-.71-2.95-.29-4.39.8-2.73,4.24-5.58,7.54-4.01,2.08-2.3,5.03-5.62,9.26-4.39.8.23,1.66.86,2.48,1.34,1.12.65,2.03.99,2.77,1.91,1.06,1.32,2.63,3.77.48,4.87Z"/><path class="cls-3" d="M47.67,19.3c-.23-.8.47-2.26.29-3.63.14-.05.23-.15.29-.29.36-.04.34.3.57.38.07,1.63-.54,2.58-1.15,3.53Z"/><path class="cls-3" d="M20.84,15.48c.71,1.25-.44,3.31-.1,4.58-.94.17-.89-1.14-.86-1.81.04-1.08.35-2.51.95-2.77Z"/><path class="cls-3" d="M22.94,17.59c.35.47.13,1.53.19,2.29-.99.05-1.49-2.3-.19-2.29Z"/><path class="cls-3" d="M57.12,23.7c.55,1.26.31,3.41-.19,4.97-.2.62-.49,1.56-1.15,1.24.65-1.62,1.02-3.84.67-5.92.22-.1.31-.33.67-.29Z"/><path class="cls-3" d="M29.81,24.37c-.39,2.1-1.29,5.46,0,7.26-1.93.35-1.77-6.79-.19-7.26h.19Z"/><path class="cls-3" d="M54.64,25.8c1.05.94.33,4.28-1.05,4.01.93-.94.13-3.21,1.05-4.01Z"/><path class="cls-3" d="M52.64,27.04c.3.63-.15,1.13-.1,1.81-.54.32-.54,1.58-1.24,1.43.28-.75.37-2.49.86-3.34.27-.08.25.13.48.1Z"/><path class="cls-3" d="M31.53,27.9c.33.94.21,3.25.19,3.91-1.04-.25-1.45-3.72-.19-3.91Z"/><path class="cls-3" d="M33.73,28.95c-.12.85.24,1.23.48,1.72-1.14.98-1.96-2.54-.48-1.72Z"/><path class="cls-3" d="M10.05,36.78c.85.95,1.86,1.85,1.91,3.34.06,1.84-1.23,3.12-1.91,4.39-.98-.19-1.29.53-2.2.29-2.73-.73-1.14-8.06,1.62-7.73-.05-.34.29-.29.58-.29ZM9.47,38.98c.37-.05.42-.41.48-.76-.12,0-.13-.12-.29-.1-.2.15-.22.48-.19.86ZM11.1,41.27c.05-.38.35-1.56-.29-1.72-.24.5.06,1.16.29,1.72ZM8.8,43.94c.44.07.74-.33.48-.67-.34.04-.46.3-.48.67Z"/><path class="cls-3" d="M54.26,43.18c.5,1,.04,2.51-.57,3.82-.38.81-.87,2.2-1.62,2.2-.65,0-1.05-1.02-1.05-1.72,0-1.55,1.37-3.04,1.72-4.2.66.07,1,.11,1.53-.1Z"/><path class="cls-3" d="M39.36,45.66c-.84,1.23-.44,3.69-2.1,4.11-1.19-.73-1.08-3.16-.57-4.58.25,0,.54-.04.67.1.43-1.15,1.73-.46,2,.38Z"/><path class="cls-3" d="M22.36,46.04c1.02.41,1.34-.6,2-.48,1.49,1.04.84,6.59-.95,6.78-1.72.18-.89-2.17-1.91-2.87.05-.69-.15-1.46,0-2.29.36-.31.72-.61.86-1.15Z"/><path class="cls-3" d="M9.47,47.09c1.79,1.17.99,5.33.86,7.16-.95.11-1.15,1.35-2,1.05-.74-.26-.84-1.95-.86-3.15-.02-1.72.48-3.79.67-4.87.37-.14.8-.22,1.33-.19ZM8.52,50.15c.44-.06.55.21.95.19.02-.5.56-1.95-.38-2.1-.27.56-.37,1.28-.57,1.91ZM8.52,54.06c.47.27.88-.24.86-.76-.4-.2-.86.26-.86.76Z"/><path class="cls-3" d="M39.46,52.73c.96,1.63-.04,6.24-1.91,5.92-1.52-.26-1.18-3.59-.86-4.87.11-.11.34-.11.57-.1.11-.53.02-.79.38-1.15.67-.11,1.39-.17,1.82.19ZM38.69,55.88c.34.05.57-.9.19-.95-.12.26-.23.53-.19.95Z"/><path class="cls-3" d="M52.54,59.13c-1.36-1.75-1.49-4.56-.67-6.49,3.4-.59,3.92,6.17.67,6.49ZM53.59,57.12c.43-.23.61-1.72.1-2.01.06.65-.63,1.51-.1,2.01Z"/><path class="cls-3" d="M23.03,54.83c1.22.33,2.26,1.56,2.48,3.06.2,1.33-.33,3.19-1.43,3.25-1.78.1-1.6-3.48-1.53-5.06.11-.3.53-.3.67-.57-.08-.21-.2-.37-.19-.67ZM23.51,56.64c.11.08.26.13.48.1.07-.36-.11-.46-.38-.48.02.18-.11.21-.1.38ZM24.08,59.98c.04-.49-.04-.85-.48-.86-.04.48.21.68.48.86Z"/><path class="cls-3" d="M55.4,16.73c1.2.88,2.85,1.08,4.01,2.2,1.08,1.04,1.96,2.52,2.49,4.39.16.58.48,1.28.47,1.72,0,.95-.82,1.84-.76,2.77.07,1.18,2.43,3.03,2.39,5.25-.02,1-.8,2.38-2.1,1.81,1.03-.46,1.81-2.02.95-3.25-.49.02-.6.42-.86.67-.41,3.66-4.49,2.94-7.45,3.72.78,1.82-.07,6.48-1.91,6.4-2.04-.09-1.17-4.93-1.14-6.3-3.59-.02-6.86-.45-10.7-.19-.5.81-.4,2.28.86,2.29-.26.71-1.28.22-1.62-.1-1.05,1.37-1.05,3.79-2.86,4.39-1.17-1.25-.6-4.39-.1-5.92,1.02.17,1.07-.57,1.72-.95.54-.04,1.16.19,1.43-.48-.38-.52-.95-.26-1.43-.29-4.43-.27-9.39-.87-13.27.29.13,1.06.67,2.42.48,4.01-.22,1.82-1.44,4.24-2.77,4.01-1.32-.23-.38-2.49-1.34-3.25.99-1.23.91-3.54,2.2-4.49-2.39-.13-5.36.24-8.59.1-1.5-.07-3.13-.33-4.49-.1-.91.15-1.52.67-2.96.67-3.91,0-6.09-1.36-7.35-4.01-.52-1.1-1.03-3.36-.38-4.3.67-.97,2.55-.78,4.01-1.15.44-5.48,2.5-9.34,6.78-10.98.58.22,1,.84.76,1.34.36.01.84.23,1.05.1-.4-2.27.72-4.78,1.72-7.07,1.62-3.72,4.07-7.43,8.31-8.31,2.03-.42,2.92.1,4.58.76,1.35.54,2.88.92,3.06,2.48,1.14-.65,3.03-1.26,4.39-.38.99-1.12,1.78-2.13,3.34-2.96,1.41-.75,2.35-1.53,4.2-1.62,4.2-.2,8.18,1.63,9.55,4.77.25.59.24,1.36.57,1.91.65,1.08,2.86,1.62,3.91,2.67.44.44,1.04,1.12,1.24,1.81.64,2.23-1.35,4.14-2.39,5.54ZM43.47,1.07c-2.76-.34-4.49,1.36-6.02,2.77-.43,1.01-.5,2.12.38,2.67-.07.37-.14.75-.48.86-.33-.12-.56-.33-.86-.48-.26.12-.34.42-.76.38-1.27-.52-3.4-1.96-4.78-1.34-1.83.82-4.3,4.66-4.77,7.35-.34,1.93.38,2.99.86,4.2-.14.02-.16.16-.28.19-.74.13-.68-.53-1.15-.67-.31.53-.86.31-1.24,0,.76-3.78,1.55-7.5,3.63-9.93.5-.58,1.27-.8,1.43-1.62-1.07-.68-1.84-2.12-3.34-2.39-2.08-.36-3.42.82-4.87,1.53-2.95,3.15-6.82,7.04-6.59,12.8.03.73.28,1.85-.38,2.29-.5-.04-.67-.41-.86-.76-4.52-1.87-6.87,2.02-6.11,6.59-.28.17-.36.53-.67.67-.5-.26-.7-.83-1.14-1.15-.49.78.16,1.32.19,2.1.03.7-.32,1.01-.48,1.34-.68,1.46-.84,3.62-.67,5.25.24.19.64.34.96.19.03-1.76-.59-4.75.86-5.54.39,1.21-.71,3.43-.19,5.35.35.18,1.17.12,1.53,0-.08-1.42-.84-3.87.19-4.68.87,1.13-.22,3.65.76,4.68,1.01-.22.08-1.77.19-2.58.39-.15.32-1.17.76-.96.4.81.02,2.66.48,3.53.4-.4.81-.78,1.62-.76-.12-.95-.45-2.47.38-3.06.58.87.09,2.27.57,3.15.55.08,1.43.26,1.81.19.17-.7-.53-1.73.29-2.2.63.45.36,1.8.86,2.39.79,0,1.52-.07,2.2-.19-.05-.81-.91-2.16.19-2.48.55.64.32,1.53.67,2.29.37.18,1.24.12,1.62,0-.11-.62-.06-.98.29-1.34.38.29.67.67.76,1.24,8.85-.5,19.44-1.16,27.79.29-.14,1.17-1.42.49-2.2.38-1.01-.14-2.04-.19-2.96-.19.89.89,2.65.64,4.2.57,1.93-.09,3.75-.04,5.25-.38-.03.32-1.18.42-.67.67,1.31.12,2.43.43,3.91.38,0-.44-.08-.97.19-1.15,1.91.06,3.09-.6,3.53-2.01-.37-.81-1.19-1.16-1.72-1.81-.51-.14-.55.53-.96.19,1.27-2.33,1.83-6.16.38-8.5.22-.22.31-.59.86-.48,1.18,2.05.82,5.64,0,7.93.84.08,1.28-.25,1.53-.76-.03-.32-.28-.42-.19-.86,1.76-1.35.78-4.69-.38-6.21-1.33-1.73-3.96-2.35-5.44-3.25-2.37-.12-.16-1.66.67-1.91.27-1.28,1.82-2.13,1.82-3.63,0-1.19-.87-1.71-1.62-2.48-.64-.11-2.22-1-3.34-1.24-.95-.2-1.9.14-1.91-.67-.01-.62.66-.55,1.34-.48.87-1.92-1.87-5.46-4.2-5.73.36.61,1.13,1.32,1.72,2.2.5.75,1.36,1.85.76,2.77-1.48-2.13-2.98-5.15-6.21-5.54ZM14.05,13.77c.68-.97,1.07-2.03,1.62-3.06,1.63-3.02,3.63-5.78,6.59-7.45,0-.16-.07-.24-.19-.29-4.49,1.78-6.56,5.98-8.02,10.79ZM6.42,23.98c-.12-.68.39-1.69,0-2.01-.37.31-.68,1.78,0,2.01ZM3.84,27.8c-.6,1.3-2.68,5.06-.1,5.54-.16-2.06.47-3.8.67-5.54h-.57ZM1.07,29.33c.1-.1.2-.68,0-.76-.17.11-.35.7,0,.76ZM61.52,30.76c-.06-.8-.26-1.46-.86-1.72-.02.52.11,1.66.86,1.72ZM38.12,33.92c1.18.17,2.87.29,4.01.19-.78-1.04-2.65-.48-4.01-.19ZM14.92,34.39c-.29.06-.82-.12-.96.1.14.09.98.27.96-.1ZM18.35,34.68c-.25-.55-1.84-.26-2.39-.19.67.4,1.45.13,2.39.19ZM19.12,34.58c.39.13,1.47.22,1.72-.1-.42-.05-1.46-.29-1.72.1ZM52.92,41.36c.23-.12.39-.31.38-.67-.5.02-.58-.38-.86-.57-.42.4.03,1.12.48,1.24Z"/></g></g></g></g></svg>