<?xml version="1.0" encoding="UTF-8"?><svg xmlns="http://www.w3.org/2000/svg" viewBox="0 0 46.14 64"><defs><style>.cls-1{isolation:isolate;}.cls-2{mix-blend-mode:multiply;}.cls-3{fill:#5f5c5d;fill-rule:evenodd;}</style></defs><g class="cls-1"><g id="Layer_2"><g id="Layer_1-2"><g class="cls-2"><path class="cls-3" d="M34.1,24.35c2.36-3.09,6.28-7.24,4.72-13.01-.43-1.6-1.39-2.86-1.57-4.3-.06-.23.2-.15.21-.31.12-.02.19.02.21.11,1.96,2.17,2.94,6,2.31,9.65-.41,2.36-2.82,5.71-4.3,7.03-.46.41-1.09.73-1.57.84Z"/><path class="cls-3" d="M9.56,51.62c1.56-.37,2.47.91,2.41,2.62-.04,1.37-1.1,2.63-2.1,1.57-.08-.32.18-.31.1-.63-1-.54-.85-2.42-.42-3.57ZM10.71,55.19c.65-.54.49-2.25-.32-2.52-.66.21-.74,2.71.32,2.52Z"/><path class="cls-3" d="M43.96,2.64c-.82.3-1.16-.71-1.78-1.05-.97-.52-2.17-.47-3.57-.63,2.48,1.09,4.39,2.74,5.98,4.72.02-1.1-.38-1.78-.63-2.62,1.38.37,1.58,1.91,1.78,3.46.06.38-.31.32-.63.31.35.49.41,1.27.74,1.78,1.47,8.77-3.06,15.26-6.4,20.87.64,2.53.93,7,.74,10.07-.27,4.37-1.13,8.36-1.36,12.59-.17,3.09.52,6.35-.94,9.13.32.58,1.33-.18,1.78.21.14,1.17-1.49.83-1.99,1.05-.86.36-1.06,1.39-2.2,1.47-.35-.25-.14-.81,0-1.15-1.16.13-1.93-.14-3.04.11-.86.19-1.87.96-2.73.73-.81-.21-1.11-2.16-1.15-3.15-.06-1.35.1-3.24.1-4.41.02-4.17.76-9.69.94-13.74.03-.74-.07-1.43.1-1.99,0-.35.24-.45.42-.63.56-2.77-.4-5.79.1-8.29.08-.4.33-.67.32-1.05-.04-1.52-1.7-2.67-2.31-4.09-.33-.76-.2-1.42-.84-1.99-.58-2.03-.8-3.94-1.15-5.77.1-1.43-.21-2.94-.21-4.51,0-3.54,1.27-6.57,2.52-9.13,1.05-.75,1.66-1.88,2.83-2.62,1.29-.81,2.76-1.02,4.3-1.47.43-.12.83-.5,1.37-.63,2.68-.67,6.38.17,6.92,2.41ZM39.14,27.92c.22-.32.62-.53.84-.84,1.13-1.61,1.78-3.58,2.62-5.46-.01-.37-.39-.38-.31-.84.56-2.25,1.3-4.51,1.99-6.71.24-.75.7-1.68.73-2.31.03-.56-.42-1.45-.52-2.31-.18-1.43-.78-2.86-1.26-3.57-2.02-2.99-7.04-5.33-10.6-2.83-.32.28.45.22.1.52-2.66,3.25-4.55,7.27-5.14,12.59-.13.25-.27.5-.42.73.35,4.05,1.4,9.03,3.67,11.22.39.38.95.45,1.15.94.12.28-.15.57.1.73-.08.48-.56.56-.63,1.05-.45,4.02-.22,7.73-.52,12.27-.27,3.98-1.22,8.5-1.05,12.38.09,2.11-.16,4.02-.32,5.98.45.22.77.56.94,1.05.25-.14.1-.67.52-.63.98.07,1.73-.08,2.52-.21,1.17-.89,1.58-2.14,1.99-3.88.22-.92.61-1.85.73-2.62.26-1.64.17-3.41.32-5.24.44-5.71.58-12.16.21-17.83.43-.41.19-1.49.53-1.99-1.14-.06-1.14-2.43.1-1.99.55.32.14.97.21,1.68.92-.22,1.03-1.23,1.47-1.89ZM28.02,9.56c.29-1.04.88-1.78,1.15-2.83.22-.03.21-.28.42-.31-.07-.71,1.01-1.23.63-1.57-1.07,1.29-2.1,3.06-2.2,4.72ZM38.19,48.27c.21-1.6.69-3.61.1-5.14.03,1.76-.27,3.69-.1,5.14ZM38.09,49.1c.1-.09.22-.67,0-.73-.15.23-.32.56,0,.73ZM37.25,56.87c.01-.48.47-1.38,0-1.68-.11.58-.3,1.22,0,1.68ZM36.3,58.75c.27-.01.54-.02.52-.31-.27.01-.54.02-.52.31ZM35.47,61.69c.15-.23.32-.45.31-.84-.35.01-.72.72-.31.84Z"/><path class="cls-3" d="M13.96,2.74c.92.17.7,1.47,1.36,1.89.48,2.66.79,5.5.94,8.5,1.23-1.31,2.15-4.42,3.15-6.71.14-.34,1.3-3.29,1.99-3.25,1.14.06.45,2.12,1.37,2.62-.35.57-.31,1.16,0,1.78-.75,1.26.07,2.75-.63,4.09,0,.32.53.1.52.42.12.57-.58.33-.52.84-.14.98.38,1.91.31,2.83-.03.41-.37.75-.42,1.15-.04.33.21.62.21.94,0,.36-.27.66-.32,1.05-.08.74.27,1.56.21,2.1-.04.33-.3.64-.32.94-.02.4.21.76.21,1.15,0,.44-.27.84-.32,1.26-.12,1.12.14,2.28,0,3.36-1.65.63-3.29,1.8-5.56,1.47-.52,1.35-.27,2.86-.1,4.41-.8,2.26-.59,6.01-.52,8.6.11.39-.39.17-.32.52.36,1.29.02,2.71,0,4.2,0,.67.23,1.34.21,1.99-.07,2-.57,4.06-.52,6.08,0,.48.15.91.1,1.36-.05.55-.45,1.05-.52,1.57-.18,1.21.06,2.42-1.05,3.15-2.74.99-7.69.4-6.29-2.94-1.34-3.4-.26-7.19-.21-10.8.01-1.04-.19-1.99-.1-2.94.1-1.03.39-2.33.32-3.67-.23-4.12-.38-8.22-.1-12.27-1.25-.64-3.95-.2-5.35-.52C.8,25.17-.12,22.23.01,18.89c.11-2.87,1.32-6.5,1.47-9.76.08-1.74.01-3.19.73-4.3,1.44.02,1.92,1.54,2.52,2.83,1.12,2.41,1.99,5.42,3.99,6.92,1.49-4.21.98-10.42,5.24-11.85ZM13.96,3.69h-.32c-.09.19-.25.31-.31.52,1.16,1.57,1.02,4.43,1.89,6.29-.02-2.32-.52-4.89-1.26-6.82ZM12.39,5.36c-.12.05-.24.11-.32.21-.91,3.91-2.43,6.9-2.2,11.54-.4.37-.29,1.25-1.05,1.26-.28-.5-.99-.97-.73-1.68-.19-.33-.36.35-.52,0-.13-.82-.74-1.15-.63-2.2-1.56-1.86-2.03-4.82-3.67-6.61-.31,5.85-1.31,12.72.32,17.62,1.46.8,3.74,1.61,5.56.84.22.65,1.1.65,1.05,1.57-.66,1.01-.73,2.47-.63,3.88-.66,2.6-1.16,5.66-1.36,8.71-.27,3.99-.48,7.31-.42,10.49-.53,2.3-.41,5.48.73,7.24,2.14.33,4.14-.39,5.35-1.57.31-.77-.02-1.51-.1-2.31-.41-3.85.43-8.58.63-13.22.16-3.84.18-7.63.31-10.8.05-1.16.15-1.77.63-2.41.93.37,1.48-.04,2.31-.1.42-.03.85.15,1.15.1,1.51-.24,1.32-1.93,1.57-3.46.28-1.69.59-4.08.63-5.66.12-4.64.53-9.38.11-13.11-.59.79-.75,2.04-1.57,2.83.02.34-.19.44-.1.84-.27.46-.71.76-.63,1.57-.47.66-1,1.39-1.36,2.41-.31.85-.37,2.54-1.16,2.73-1.3.31-1.35-1.65-1.57-2.52-.75-2.9-.94-6.43-2.2-8.18h-.1ZM2,24.35c-.3-3.35-.25-7.38-.1-10.59-.02-.08-.09-.12-.21-.11-.38,3.22-1.26,7.78.32,10.7ZM3.16,26.76c-.12-.4-.34-.71-.84-.73.07.45.25.8.84.73ZM11.65,59.17c0,.45.67.32.84.1-.21-.12-.59-.34-.84-.1Z"/></g></g></g></g></svg>