<?xml version="1.0" encoding="UTF-8"?><svg id="Layer_2" xmlns="http://www.w3.org/2000/svg" viewBox="0 0 64 45.3"><defs><style>.cls-1{fill:#5f5c5d;fill-rule:evenodd;}</style></defs><g id="Layer_1-2"><path class="cls-1" d="M49.01,7.49c-.11.35-.14,1.01-.54,1.04-.45-.29-.3-.61-.6-1.17-1.25-2.38-3.83-3.46-6.23-1.78-.79.56-1.02,1.72-2.02,1.95-.02-.74.66-1.91,1.39-2.57,3.15-2.83,6.48-.47,8,2.54Z"/><path class="cls-1" d="M50.05,9.9c-.23.34-.05,1.06-.61,1.07-.1-.23-.2-.45-.29-.68.1-.37.57-.57.91-.39Z"/><path class="cls-1" d="M29.86,23.85c.1,1.85-.67,3.36-.83,5.11.1.42.21.83-.17,1.06-.62-2.08.31-4.08.62-6,.13-.05.25-.11.38-.16Z"/><path class="cls-1" d="M53.86,14.34c1.2-.4,2.73-.8,3.77-1.63-.72-.42-2.21-.59-2.72-1.51-1-1.83,1.08-2.87,2.69-2.69,1.94.22,4.65,1.2,6.33,1.38.21.58-.13.95.03,1.51-.84,1.25-.83,3.5-1.53,5.14-.52,1.22-1.88,2.79-3.72,2.15-1.17-1.53-.35-3.12-.27-4.54-1.51.33-2.85.92-4.44,1.75-.04,5.98-1.62,11.36-3.13,16.76-.69.57-1.1,1.71-1.91,2.62-.34.38-.86.67-1.24,1.07-.34.35-.53.87-.84,1.17-.49.47-1.15.88-1.81,1.41-.75.6-1.87,1.91-2.59.85-1.94,0-3.72-.4-5.39-1.07-1.4,1.63-2.58,3.35-3.05,5.35-.57.62-1.2.42-1.74.13-1.9.35-3.79-.14-5.48-.67-2.72-.85-5.52-1.99-7.97-3.71-.22-.12-.56.05-.81,0-.71-1.53-2.31-1.73-3.29-3.05-.6.26-1.21.52-1.81.79-.73,2.34-1.58,4.63-1.83,7.15-1.06-.01-2.17.23-3.33.37-1.07.12-2.23.42-3.17.12-.24-.89.47-1.55.71-2.28.4-1.18.77-2.35.93-3.63-1.11-.57-3.09-.63-4.7-.92-.71-.12-1.68-.18-1.56-1.12,1.88-.95,3.34-1.8,5.2-2.88.41-.24.92-.85,1.3-.92.48-.09,2.14,1.11,2.57,1.39.97.63,1.64,1.15,2.45,1.72.7-.4,1.02-.45,1.88-.82-.88-1.27-2.14-2.34-3.22-3.71-1.14-1.45-1.91-3.18-2.87-4.76-.17-.27-.49-.51-.62-.8-.1-.23-.01-.5-.07-.78-.18-.93-.6-1.94-.58-2.79.03-2.08.84-5.14,2.08-6.99.45-.68.58-1.23,1.16-1.67,2.5-1.9,6.28-2.14,9.1-2.15,2.02-2.95,6.83-5.84,10.72-5.63,1.94.1,3.44,1.01,5.09,1.2,1.78-2.9,2.81-6.3,7.44-7.43,1.7-.41,3.34-.14,4.73.37.35.13.83.29,1.08.43.12.06.19.36.38.46.16.09.35-.03.47.06,3.57,2.43,5.4,8.37,5.56,12.82ZM30.35,8.05c-2.11-.35-4.92.06-7.26,1.63-1.11.74-2.74,1.59-3.32,2.87-.4.89-.32,2.17-.03,3.24.73-.78,1.16-2.58,2.38-2.55-.04,1.45-2.28,2.15-2.26,3.67,0,.49.36,1.15.57,1.72.41-.4.74-1.18,1.14-1.92.32-.6.57-1.78,1.48-1.54-.94,1.89-3.35,3.87-1.16,6.41.83-1.44.97-3.16,2.09-4.49.3.67-.27,1.5-.61,2.32-.64,1.59-1.98,2.99-.11,4.7.48-.7.68-1.73.99-2.67.25-.74.47-2.35,1.37-2.21.24.57-.46,1.11-.72,1.65-.22.47-.48,1.29-.7,1.91-.21.62-.61,1.55-.48,2,.18.6.86.93,1.24,1.62.37-.74.56-1.64.8-2.5.22-.77.3-2.03,1.05-2.33.41,1.84-2.57,4.81-.47,6.56.71-1.3.21-3.74,1.57-4.44.06,1.14-.64,2.32-.82,3.49-.08.51-.16,1.47.04,1.95.19.46.86.81,1.22,1.17.72.71,1.39,1.71,2.24,2.07.01-.98.1-2.07.28-3.08.16-.94.16-2.25.85-2.79.21,1.04-.16,2.09-.32,3.18-.16,1.08-.42,2.15-.25,3.33.53.14.79.94,1.38.92.24-.76.21-1.74.26-2.71.04-.85-.27-2.15.72-2.46.03,2.03-.49,3.85-.4,5.9.63.36,1.13,1.05,1.85,1.17.04-.82.16-1.67.25-2.53.09-.8-.08-1.81.57-2.4.57.73.13,1.78-.03,2.61-.18.93-.4,1.86-.3,2.82.54.33,1.02.8,1.69.79.01-.73-.05-1.62-.09-2.47-.03-.74-.18-1.8.41-2.15.89,1.61-1.04,5.79,1.84,5.47.29-1.2-.65-2.88.21-3.85.75,1.1,0,2.86.51,4.08.46.22.96.3,1.53.23.13-1.11-.82-2.66.12-3.45.68.87.15,2.29.62,3.49.73.38,1.61-.03,2.1-.73-.19-.88-1.2-1.71-.21-2.15.4.44.65,1.33.71,1.84,1.57-1.22,2.82-2.55,3.93-3.94,2.1-2.64,2.14-6.32,2.99-9.63.62-2.42,1.01-5,.84-7.35-2.58.9-5.4,3.16-8.23,4.37-1.26.54-3.08,1.76-3.77,1.01.04-.21-.03-.47.07-.66,3.78-1.67,7.75-4.05,11.86-6.12-.07-2.39-.02-4.91-1.13-7.57-1.71-4.06-5.46-6.71-9.27-6.1-4.19.67-5.35,4.31-6.98,7.05-.17.22.08.62-.19.8-1.56.11-2.96-1-4.68-1.29ZM10.91,15.05c-.4,2.36-1.15,4.58-1.45,6.99.32-.36.2-.88.33-1.31.16-.12.3-.26.57-.34.34-1.95,1.1-3.73,1.27-5.75-.34.09-.48.27-.72.4ZM12.21,14.75c-.05,2.12-1.48,3.71-1.17,5.97-.56.34-.62.88-.96,1.31-.16,2.12-.9,4.02-1,6.17.24.44.27.55.53,1.02.35-.57.24-1.32-.03-2.14.1-.29.32-.54.67-.74.38-1.85.71-3.72.86-5.66.15-.21.43-.07.57-.34.25-1,.44-2.04.72-3.09.27-.99.73-2.04.57-3.02-.43-.11-.49.36-.76.51ZM9.4,16.32c.05.25.23.17.27.42-.92,1.8-1.46,3.76-1.79,5.79.04.26.27.06.32.31-.49.65-.95,1.61-.47,2.44.5-.99.47-2.19.73-3.27.05-.15.29-.22.49-.3.38-1.99.91-3.93,1.07-6.01-.34.16-.4.43-.62.63ZM13.94,14c-.23.49-.2.98-.38,1.6-.36,1.22-1.82,3.63-.58,4.64-.07,2.14-.7,4.06-1.14,6.05.11.35.27.33.26.6-.19.2-.34.41-.55.6.13,1.49-.3,2.75-.02,4.31.39.22.6.9,1.09.87-.08-.34-.28-.34-.37-.65-.05-2.02.18-3.93.21-5.91.2-.17.38-.35.58-.52-.04-1.66.55-3.07.55-4.72-.04-.32-.33,0-.39-.28.38-2.29,1.29-4.36,1.36-6.77-.16-.07-.41.1-.64.19ZM15.39,13.82c-.19.75-.3,1.61-.58,2.58-.23.81-.7,1.68-.61,2.32.02.11.24.31.27.42.14.44-.06,1.17-.13,1.76-.23,1.86-.88,3.55-.95,5.25-.08.2.14.16.2.45-.73,1.07-.5,2.51-.8,3.75.34.18.42.33.63.62.32-1.64.07-3.51.57-5.08.22-.12.4.11.48-.12.12-2.08.78-3.94.88-6.02-.11-.1-.36.18-.4-.1.18-2.08,1.11-3.85,1.07-6.01-.16-.07-.41.1-.63.19ZM16.8,14.19c-.21,1.03-.63,2.16-.76,3.2.19-.05.2.34.43.17.31-1.17.9-2.56.61-3.76-.29.08-.25.25-.28.39ZM17.09,17.11c-.19.58,0,1.55-.01,2.24-.04,1.83-.7,3.44-.72,5.15.19,0,.53-.28.86-.29-.11-1.17.22-2.32.34-3.55.14-1.46-.18-3.51.62-4.57.02-.72.33-1.99-.08-2.47-.12,1.15-.63,2.34-1,3.48ZM7.61,20.68c.3-.07.44-.69.43-1.08-.35.28-.35.69-.43,1.08ZM17.72,22.93c.28.13.51.39.82.45.08-1.61.44-3.12.12-4.89.17-.22.21-.5.3-.76-.16-.23-.21-.74-.44-.8-.09,2.07-.58,3.98-.81,5.99ZM11.71,20.61c.15.5-.17.81.04,1.33-.26.78-.27,1.63-.47,2.44-.19.8-.74,1.62-.39,2.41.75-.13.56-.96.63-1.44.23-1.62.86-3.16.67-4.86-.18.09-.36.17-.48.12ZM15.49,22.73c-.15.67-1.03,2.62.26,2.66.25-1.96.45-3.95.66-5.93-.05-.09-.1-.17-.22-.08-.17,1-.44,2.17-.7,3.35ZM9.2,22.68c-.6.5-.38,1.58-.62,2.51-.13.54-.54,1.28-.17,1.87.63-.53.48-1.44.6-2.14.13-.77.5-1.48.45-2.26-.1.04-.14-.05-.26.02ZM19.33,21.87c.48-.11.25-.81.12-.95.05.35-.36.52-.12.95ZM20.74,27.62c.58-.38.46-1.02.35-1.67.14-.96.73-2.36-.19-3.32.09,1.72-.3,3.25-.16,5ZM10.74,30.79c.12-1.1.38-2.48-.03-3.57-.45,1.07-.41,2.49.03,3.57ZM19.3,28.42c.89,2.5-.42,5,.69,7.58.05.77-.64,3.79.85,3.4-.26-1.6-.18-3.07-.52-4.7.08-.24.39-.39.33-.68-.37-1.61.49-3.24-.52-4.7.17-1.87-.06-3.9-.01-5.82-.04-.05-.06-.15-.14-.12-.2,1.69-.57,3.32-.68,5.04ZM15.32,30.6c.03.19.2.36.26.6.14.62.15,1.6.13,2.36-.03,1.14-.58,2.6.66,2.76.22-2.6-.56-5.16-.28-7.67.1-.93.33-1.83.23-2.79-.26.09-.42-.1-.66-.07.37,1.4-.64,3.03-.34,4.8ZM14.51,26.47c.12,1.18-.68,2.76-.45,4.13.13.79.5,1.51.61,2.24.12.77-.18,1.59.32,2.19-.08-1.12.14-2.44-.25-3.47-.2-1.77.57-3.48,0-5.19-.08.03-.15.07-.23.1ZM17.11,25.43c-.1,1.75-.51,3.38-.65,5.12.91,1.21.33,2.81.54,4.15.76-.43.28-1.35.26-2.08.18-.51.12-1.12-.05-1.77.22-1.77.28-3.6.34-5.43-.16.03-.26-.08-.44.01ZM18.35,24.99c-.15,1.67-.38,3.31-.53,4.98.11.25.22.5.32.75.18,1.13-.38,2.97-.18,4.55.06.42.31.82.34,1.2.04.47-.28,1.06-.08,1.47.18.36.79.56,1.1.69-.07-1.26-.12-2.83-.7-4.09.04-.34.26-.61.42-.9-.26-1.52.08-2.8-.39-4.4.3-1.36.35-3.15.32-4.44-.18-.04-.35.23-.64.19ZM21.86,26.69c.59-.36.4-1.67.14-1.94.01.67-.35,1.2-.14,1.94ZM56.14,10.93c.45-.22.31-.67.46-1.01-.53-.16-.83.45-.46,1.01ZM22.86,25.89c-.26,2.48-.55,4.95-.16,7.68.12.28.42.09.49.5.53,2.36-.16,5.01.83,7.08.27-.87-.08-1.84-.14-2.8-.06-.94-.11-1.91-.03-2.76-.18-.53-.26-1.02-.18-1.44-.08-.18-.22-.17-.27-.42.27-1.1-.25-2.39-.24-3.66,0-.54.08-1.02.05-1.54-.03-.54-.18-1.13-.17-1.63.01-.38.39-.75.06-1.1-.08.03-.15.07-.23.1ZM21.71,28.19c-.49.48-.27,1.14-.32,1.75-.06.72-.32,1.49-.35,2.3-.03.82.03,1.7.3,2.56.34-.24.41-.39.87-.47-.27-2.41-.32-4.8-.43-6.98-.36.15-.22.49-.08.84ZM24.01,27.73c-.03-.2.22-.66-.18-.64.03.16-.08.59.18.64ZM14.05,34.28c-.12-.87-.06-2.05-.67-2.58-.02.72-.34,2.23.67,2.58ZM5.1,35.74c.84.78,1.84,1.14,2.74,1.77-.07.16.1.42.19.64.86-.39,1.47-.68,2.15-1.02-.72-.87-1.54-1.47-2.48-1.79.37.89,1.68,1.06,1.43,2.07-1.32.02-2.03-1.51-3-2.37-.36.23-1.15.29-1.03.71ZM2.45,37.07c1.13.63,2.54.53,3.82.76-1.14-.8-2.22-2.42-3.82-.76ZM23.96,28.02c-.02,1.41-.39,3.01.12,4.42.26-1.19.17-3.28-.12-4.42ZM24.81,31.23c.6-.64.12-2.03.29-2.63-.05-.08-.13-.08-.21-.09-.03.91-.2,1.75-.08,2.72ZM25.88,29.96c.21-.06.2-.21.1-.4-.21.06-.2.21-.1.4ZM24.88,41.5c.64.21,1.17.72,1.96.59-.71-3.86-.16-7.56-1.04-11.28.02,1.58-.1,3.21-.12,4.89-.02,1.52-.04,3.26.26,4.72.1.5.67.98-.07,1.28-.78-2.91-.49-5.4-.84-8.14-.18-.17-.52.04-.65-.26,0-.11,0-.53-.12-.49.31,3.01-.28,5.54.63,8.69ZM27.6,41.58c-.16.35-.27,1.07.39.9-.11-1.42-.42-2.91-.64-4.38.11-.14.32-.25.46-.38-.39-2.4-.2-4.91-1-7.27-.04-.05-.1-.06-.18-.01.29,3.75-.12,7.42.98,11.13ZM60.76,16.63c.52.1.8-.71.6-.89-.2.29-.31.63-.6.89ZM10.35,38.57c.19,1.64-.06,3.1-.25,4.59.59-1.06.59-2.35,1-3.48.4-.43.62-1.24.53-1.67-.28.27-.81.27-1.28.56ZM9.03,39.23c-.05,1.52-.5,2.89-.39,4.47.34-.03.65.03,1.08-.2-.06-1.5.35-2.82-.05-4.46-.16-.07-.41.1-.63.19ZM6.05,43.93c.72.08.8-.86.92-1.39.15-.64.19-1.35.36-1.86-.05-.09-.1-.17-.22-.08-.43,1.08-.78,2.19-1.06,3.33ZM17.04,36.84c.25-.07.17-.27.06-.47-.24.09-.22.41-.06.47ZM28.26,37.53c.54-.83.09-1.91,0-2.87-.08-.99.12-2.01-.21-2.96-.04-.05-.1-.06-.18,0,.2,1.97.12,3.84.38,5.83ZM7.08,43.84c.33-.04.59.08,1-.17-.06-1.07.38-2.27.03-3.24-.34,1.14-.85,2.2-1.03,3.4ZM21.89,40.2c.38-.18.1-.63.02-.99.07-1.22-.04-2.52-.34-3.88-.04-.05-.07-.15-.14-.12-.39,1.45-.31,3.46.46,5ZM23.19,40.71c-.29-1.69-.27-3.76-.68-5.71-.1.04-.15-.05-.26.02.56,1.92-.3,4.1.94,5.68ZM28.97,34c.33-.16.32-.71.81-.62-.26-.3-.46-.74-.89-.6.14.45-.02.79.08,1.22ZM30.41,37.94c-.18.68-.12,1.73-.08,2.72.04.75-.08,2.38.98,2.26,0-1.66-.47-3.91-.67-5.89-.13-1.24.39-3.16-.83-3.58.2,1.5.18,2.9.6,4.49ZM28.99,36.94c.8,1.87.19,4.03.93,5.87.33-.48,0-1.21-.19-1.89.18-1.03-.2-2.12-.34-3.26-.14-1.16.26-2.54-.4-3.41.02.9.12,1.84,0,2.69ZM31.56,41.2c.09.63.28,1.63.68,1.77.23-.51.04-1.15-.02-1.69-.18-1.78-.16-4.1-.76-5.67.28,1.79-.14,3.84.1,5.6ZM32.49,36.32c.36-.11.33-.72-.12-.49.08.18-.04.28.12.49ZM28.32,38.49c-.19.54,0,1.08.08,1.85.08.79-.12,1.97.68,2.39.17-1.29-.28-2.82-.5-4.26-.1.04-.14-.05-.26.02ZM33.36,40.6c.17-.02.2.33.39.28.14-1.38-.13-2.93-.09-4.35-.15.06-.19-.17-.37-.02-.07,1.33.18,2.78.07,4.09ZM34.41,38.09c.26-.13.16-.4.51-.49-.14-.28-.32-.45-.61-.37.02.27-.13.7.1.85ZM35.36,39.02c.4-.21.5-.55.49-.93-.25-.06-.36-.46-.68-.33.05.42.09.83.19,1.26ZM32.68,40.09c.16-.13.22-.61-.04-.7.07.25-.08.43.04.7ZM34.39,39.26c.24.06.37-.32.18-.62-.08.03-.15.07-.23.1.11.21-.07.3.04.52ZM34.51,39.75c.21-.06.13-.24.1-.4-.08.03-.15.07-.23.1.04.1.09.2.13.3ZM32.81,41.2c-.18-.27.16-.9-.17-.82.06.23-.09.71.17.82ZM33.09,42.69c.33-.37.82-1.01.55-1.41-.16.48-.63.83-.55,1.41Z"/></g></svg>