<?xml version="1.0" encoding="UTF-8"?><svg id="Layer_2" xmlns="http://www.w3.org/2000/svg" viewBox="0 0 64 47.7"><defs><style>.cls-1{fill:#5f5c5d;fill-rule:evenodd;}</style></defs><g id="Layer_1-2"><path class="cls-1" d="M22.45,36.1c2.93-.49,6.31.14,5.35,3.41-.59,2.04-5.08,5.54-7.29,2.86-.85-1.03-1.11-2.87-.55-4.06.52-1.1,1.68-1.5,2.49-2.22ZM25.77,40.07c.9-.33,1.28-2.8-.18-2.49.8.58.18,1.82.18,2.49ZM21.34,40.07c.01-1.04,1.05-1.53,1.02-2.31-.69.31-1.55,1.38-1.02,2.31ZM23,40.63c.76.08,1.76-.79,1.48-1.75-.63.41-1.64.85-1.48,1.75Z"/><path class="cls-1" d="M54.58,36.29c.8,1.35,2.97,1.15,3.42,2.68.54,1.86-2.27,4.85-3.88,4.99-.97.08-2.58-.7-3.05-1.11-2.42-2.15-.15-7.27,3.51-6.56ZM55.13,38.23c-.6.72-1.14,1.51-1.48,2.49.64-.4.71-1.45,1.57-1.29.55.1.35.7.92.92,1.06-.69-.13-1.98-1.02-2.12ZM51.81,41c.11-.11.1-.33.09-.55h-.28c0,.24-.05.54.18.55Z"/><path class="cls-1" d="M15.06.46c.1.51.23,1,.37,1.48,8.61.22,16.48-1.22,25.02-.55,3.77.29,7.8-.35,11.64-.09.74.05,1.53.41,2.22,0,1.65.9,4.07.42,6.09.65.5.05.91.36,1.38.37.6,0,1.46-.42,2.03,0,.31.81.16,1.69.09,2.49-.31,3.82-1.4,7.86-2.4,11.36-.37,1.3-.55,2.54-1.01,3.79-.61,1.64-1.55,3.21-2.03,4.8-.25.83-.13,1.7-.65,2.31,1.32.78,3.8-.42,4.8.37-.27,1.51-.93,3.42-.74,4.8-.58,1.25-2.33.66-3.88.74.11.37.86.85,1.39,1.11,1.47,1.9,3.05,3.52,2.68,6.65-.25,2.13-1.86,4.18-3.51,5.54-1.92,1.59-5.01,1.75-7.39,1.02-.82-.25-1.33-.52-2.03-.92-1.76-1.02-3.71-3.05-3.42-6,.34-3.41,2.35-5.43,4.62-7.11-7.29-.16-14.19-.24-21.51-.46,2.29,1.47,4.38,3.79,3.23,7.57-.73,2.41-4.4,6.14-7.11,6.56-.42.06-1.06.1-1.48.09-5.5-.15-10.3-4.29-8.03-9.79.84-2.05,2.63-3.07,4.34-4.52-1.61-.11-3.08-.37-3.79-1.38-1.41-4.24-2.42-9.32-3.23-14.41-.19-1.19-.17-2.35-.92-3.14.1-.7.41-1.73-.28-2.03.33-1.97-.28-4.32-1.11-5.72-3.71-.3-6.54-.1-9.88-.74C0,4.78.26,3.67.2,2.77c-.06-.89-.5-1.87.18-2.22.75-.16.74.43,1.2.55.15-.25.17-.63.46-.74C3.73.39,5.72.02,7.67,0c1.88-.02,3.84.34,5.63.28.64-.02,1.22-.26,1.75.19ZM11.55,2.86c.09-.31.51-.29.46-.74-.28.06-.57.59-.46.74ZM44.24,2.77c-.29,2.03-.12,4.41,0,6.83,2.61.31,5.65.24,8.59.09.26-2.54.47-4.5.65-6.83-3.22-.28-6.66-.33-9.23-.09ZM24.39,3.14c.4,2.43.91,4.75,1.38,7.11,2.41-.58,5.31.01,7.66-.46-.41-2.13-.42-4.61-.74-7.02-2.71-.19-5.52.3-8.31.37ZM34.27,2.77c-.26,2.09.12,5.1.65,7.02,2.65-.16,5.45-.34,7.85-.09.02-2.29.15-4.79,0-6.92-2.45-.13-6.08-.15-8.49,0ZM62.15,3.6c-2.27-.19-4.93-.53-7.2-.64-.51,1.95-.53,4.4-.74,6.65,2.11.42,5.01,0,6.74.37.15,1.17-1.22,1.09-2.03,1.11-1.57.03-3.33-.1-4.8,0-.38,1.9-.55,4.01-.83,6,1.65.14,4.79-.38,6.65,0,1.31-3.86,2.37-8.46,2.49-13.2-.13-.05-.23-.15-.28-.28ZM10.35,4.43c.5.05.79-.86,1.02-1.39-.57.23-.72.88-1.02,1.39ZM15.98,3.51c.47,2.48,1.09,4.82,1.66,7.2,2.12.32,4.82.07,6.74-.37-.34-2.52-.83-4.88-1.48-7.3-2.36.2-5.09-.03-6.92.46ZM14.05,3.79c.34.06.41-.15.37-.46-.26.02-.39.16-.37.46ZM14.6,5.54c.5.14.41-.53.09-.55-.11.11-.1.33-.09.55ZM12.38,6.74c.35-.3.59-.71.74-1.2-.46.19-.74.56-.74,1.2ZM15.06,7.2c.24.03.3-.13.28-.37h-.28c0,.25-.15.19,0,.37ZM15.43,8.59c-.35,1.2-2.47,3.69-1.75,4.8.6-1.62,2.02-2.9,2.03-4.8h-.28ZM35.01,11.08c.04,2.48.43,4.62.74,6.83,2.69,0,4.57-.28,7.11-.37.05-1.89.04-4.58-.09-6.46-2.55-.29-5.26-.15-7.76,0ZM44.24,11.17c.04,1.8-.1,4.64.19,6.37,2.44-.25,5.19-.11,7.39-.37.4-1.9.72-3.89.83-6.09-2.76-.09-5.62-.04-8.4.09ZM26.05,11.54c.42,2.38.78,4.39,1.29,6.55,2.55-.03,4.58-.26,6.74-.09.22-2.31-.34-4.65-.55-6.83-2.9.35-5.02-.18-7.48.37ZM15.62,12.47c.25-.1.6-.56.37-.83-.14.26-.37.43-.37.83ZM24.57,11.73c-1.97.34-4.37.24-6.37.55.69,1.87,1.1,4.01,1.66,6,1.54-.35,4.25.36,6-.19-.39-2.16-.59-4.52-1.29-6.37ZM15.34,16.16c.55-.5,1.03-1.55,1.02-2.31-.32.79-1.06,1.15-1.02,2.31ZM13.95,15.33c.36.07.36-.44,0-.37v.37ZM15.71,19.02c-.29.48-1.06.86-.83,1.57,1.33-1.41,2.11-3.37,2.77-5.45-.02-.1-.1-.14-.18-.18-.56,1.38-1.54,2.34-1.76,4.06ZM14.23,17.27c-.12.49.19.55.19.92.42-.34.99-1.45.74-1.85-.24.38-.56.67-.92.92ZM53.1,18.47c-.34,2.98-.96,5.86-1.01,8.96,1.07.09,3.15.07,4.43-.18.65-3.41,2.26-5.87,3.05-9.14h-.18c-1.76.57-4.18-.05-6.28.37ZM44.33,18.74c-.38,2.64-.29,5.9,0,8.87,1.75.27,3.9-.08,5.91-.09.99-2.45.98-5.91,1.48-8.86-2.28-.15-4.75.13-7.39.09ZM35.74,19.3c.11,2.92.72,6.08,1.39,8.4,1.9-.06,4,.09,5.63,0-.03-2.58.05-6.74,0-8.77-2.32-.03-4.75.1-7.02.37ZM27.62,19.48c.59,2.76.93,5.78,1.85,8.22,2.15-.07,3.97.16,5.82,0-.1-2.89-.86-5.42-1.02-8.31-1.86-.17-4.67-.17-6.65.09ZM20.14,19.48c.91,2.57.94,6.02,2.59,7.85,1.37.42,3.18.39,4.99.37-.45-3.03-.86-5.53-1.66-8.22-1.79.03-3.66.28-5.91,0ZM17.46,21.7c-.64.59-.99,1.47-1.2,2.49-.36.27-.8.89-.28,1.29.62-1.66,1.64-2.91,2.22-4.62.35-.27.63-.6.55-1.29-.72.42-.91,1.36-1.29,2.12ZM18.75,22.81c.37-.03,1-.85.37-1.02-.13.33-.33.6-.37,1.02ZM15.15,22.16c.03.28-.1.72.18.74.14-.23.33-.41.37-.74-.27-.08-.28-.08-.55,0ZM17,26.59c.61-1.05,1.2-2.12,1.66-3.32.14-.02.01-.15-.09-.19-.51,1.12-1.58,2.17-1.57,3.51ZM19.31,25.02c.34-.06.45-.35.74-.46-.07-.21-.05-.5-.28-.56-.17.33-.33.65-.46,1.02ZM18.48,29.82c-.18.34-.94,1-.18,1.2.7-1.48.69-3.67,2.31-4.25-.03-.4-.06-.81-.37-.92-.64,1.27-1.5,2.32-1.76,3.97ZM16.63,27.24c.03-.19.25-.18.28-.37-.06,0-.11-.01-.09-.09h-.19c.06.17-.27.38,0,.46ZM20.05,30.38c.26-.7.94-1.44.83-2.22h-.28c-.13.74-.78,1.44-.55,2.22ZM58.37,28.26c-.37.96-1.26,1.39-1.2,2.77-.09.26-.7.34-.46.65h1.11c-.47-1.35,1.11-2.03,1.29-3.32-.3.02-.39-.16-.74-.09ZM59.57,30.56c.47-.7,1.21-1.13,1.57-1.94-.07-.02-.11-.08-.09-.18-.85.29-1.49,1.28-1.48,2.12ZM21.34,31.3c.73-.54,1.01-1.51,1.29-2.49-.13,0-.2-.04-.28-.09-.48.66-1.27,1.49-1.02,2.59ZM50.79,28.81c.07,1.15-1.09,1.78-1.29,2.95h.65c.32-1.22,1.23-1.84,1.75-2.86-.35-.25-.61-.11-1.11-.09ZM53.01,28.81c.21,1.23-1.21,1.53-1.2,2.86.27.18.92.1,1.2,0-.42-1.15.73-1.93,1.11-2.86-.35-.19-.71-.02-1.11,0ZM53.93,31.67h1.57c-.08-1.07.81-1.79,1.02-2.86-2-.19-1.6,2.03-2.58,2.86ZM48.02,28.99c-.11.39.39.16.46.37.15,1.07-.71,1.14-.74,2.03,1-.48,1.34-1.61,1.94-2.49-.54.05-1.27-.1-1.66.09ZM23,31.3c.12.13.4.09.65.09.37-.71.72-1.43.92-2.31-1.1-.2-1.12,1.46-1.57,2.22ZM25.13,31.39c1.54.13,1.37-1.46,1.94-2.31-1.36-.5-1.55,1.28-1.94,2.31ZM36.11,29.09c-.08,1-1.06,1.58-.83,2.58,1.05-.18.94-1.52,1.66-2.03.23-.14.63-.11.65-.46-.34-.36-.94-.07-1.48-.09ZM37.96,29.09c.98.9-1.29,1.86-.46,2.58.82-.26,1.38-3.21,2.86-1.94-.23.78-.99,1.04-1.01,2.03.69.05.79-.78,1.01-1.2.26-.48.61-.96.74-1.48-.86-.13-2.28-.17-3.14,0ZM45.44,31.86h.55c.31-1.16,1.24-1.71,1.57-2.86-1.19.47-1.36,1.97-2.12,2.86ZM27.62,31.39c.3-.02.39.16.74.09.55-.59.8-1.48,1.11-2.31-1.5-.51-1.57,1.2-1.85,2.21ZM31.5,31.58c.77-.46.76-1.7,1.48-2.22,0-.16-.07-.24-.18-.28-.52.68-1.2,1.68-1.29,2.49ZM33.34,31.58c.59.02.73-.72.92-1.11.24-.47.53-.92.74-1.38-1.04.34-1.39,1.37-1.66,2.49ZM41.47,31.76c.68.09.74-.43.74-1.02.58-.31.77-1.01,1.02-1.66-1.37.1-1.4,1.55-1.75,2.68ZM43.59,31.86c.56.07.61-.38.74-.74.6-.51,1.04-1.18,1.29-2.03-1.74-.2-1.69,1.88-2.03,2.77ZM30.48,30.1c.41-.09.41-.57.65-.83-.5-.01-.48.5-.65.83ZM16.45,41.74c1.11,2.9,6.67,4.98,9.79,3.32,1.72-.91,4.1-3.43,4.52-5.45.12-.58.16-1.36.09-1.94-.18-1.42-.88-2.2-1.94-2.96-1.86-1.33-4.34-2.52-7.02-1.57-1.24.43-2.07,1.19-2.86,1.85-.97.8-2.02,1.53-2.49,2.58-.34,1.64-.64,2.71-.09,4.16ZM53.66,33.52c-2.56.35-4.82,2.37-5.82,4.25-2.32,4.37,1.41,8.63,5.54,8.77,3.6.12,7.03-2.79,7.39-6,.21-1.9-.52-2.77-1.2-3.79-1.03-1.55-2.19-2.75-3.97-3.32,0-.05-.07-.11-.09,0-.66.2-1.3.02-1.85.09Z"/></g></svg>