<?xml version="1.0" encoding="UTF-8"?><svg xmlns="http://www.w3.org/2000/svg" viewBox="0 0 64 62.44"><defs><style>.cls-1{isolation:isolate;}.cls-2{mix-blend-mode:multiply;}.cls-3{fill:#5f5c5d;fill-rule:evenodd;}</style></defs><g class="cls-1"><g id="Layer_2"><g id="Layer_1-2"><g class="cls-2"><path class="cls-3" d="M41.99,22.42c.75-.21,1.48.23,1.57.83.26,1.68-2.52,2.18-2.56.5-.01-.52.29-1.13.99-1.32Z"/><path class="cls-3" d="M26.94,24.16c1.17-.3,2.76.18,2.73,1.32-.02.72-1.07,1.63-1.57,1.74-2.01.43-3.39-2.48-1.16-3.06Z"/><path class="cls-3" d="M25.69,33.34c.54-.53,1.48.23,1.9-.5.36,0,.31.41.66.41,5.2-.28,10.48-.92,15.39-1.99.07.02.08.08.16.08.11,1.17.47,2.21.33,3.31-.19,1.55-1.79,2.45-2.07,3.89-1.56,1.49-4.05,2.86-6.54,3.14-.54.06-1.19.06-1.74,0-1.68-.19-3.96-1.44-5.38-2.4-1.7-1.15-2.67-3.36-2.73-5.96ZM38.93,33.01c-1.32.21-2.67.15-3.48.5-.66.28-1.48,1.07-1.82,1.57-.8,1.17-1.1,2.76-1.24,4.72,2.38.19,4.69.72,6.45-.08.96-.44,2.71-2.02,3.23-2.81.74-1.14.86-2.88.91-4.55-1.39.05-2.6.43-4.05.66ZM33.06,34.75c.25-.33.51-.65.66-1.08-.73-.19-.96.76-.66,1.08ZM30.99,34.75c-.05-.31.39-.6,0-.75-.09.11-.17.65,0,.75ZM28.92,36.65c.85-.15.67-1.32.91-2.07-.02-.06-.07-.1-.17-.08-.3.66-.5,1.43-.75,2.15ZM30.08,37.73c.33-.69.73-1.75.66-2.56-.26.81-.68,1.47-.66,2.56ZM31.4,38.47c-.24.23-.33.61-.83.58-.27-.06-.2-.46-.33-.66-.36-.06-.47.14-.83.08-.18-.23-.27-.56-.25-.99-.31.05-.33.38-.58.5.67.88,1.73,1.36,3.06,1.57.06-1.55.45-3.21.17-4.38-.27,1.03-.97,2.19-.41,3.31Z"/><path class="cls-3" d="M32.15.91c.39,2.53,1.38,4.47,2.07,6.7,1.52-1.51,2.72-3.35,4.22-4.88.56-.82,1.04-2.16,1.9-2.4.47.2.24,1.09.41,1.57.44-.2.6-1,1.24-.74.01,1.87-.75,4.1-.66,6.04,1.41-1.65,3.05-3.07,5.05-4.14.37.04.33.66.25.91.59.03.86-.95,1.57-1.08.39,1.95-.69,4.24-.99,6.29,1.12-.29,2.05-1.16,3.14-1.74.55-.29,1.2-.5,1.74-.83.51-.31.9-.93,1.57-.91.39.61-.18,1.32-.25,2.15.39.27.49-.44,1.08-.25.41.6-.19,1.04-.41,1.49-.89,1.81-1.91,3.75-2.73,5.71,2.06-.17,4.46-2.21,6.87-1.24.49,1.2-.53,2.25-.83,3.39.77-.25.8-1.24,1.74-1.32-.04,1.31-1.09,2.45-1.82,3.48-.75,1.05-1.56,2.05-2.07,3.31,2.27,1.12,5.66,1.12,8.69,1.49,0,.34.02.68-.08.91-1.67.68-3,1.69-4.55,2.48.33.67,1.33,1.11,2.32,1.66,1.34.74,2.98,1.55,1.74,3.14-1.78-.16-4.21.18-5.87.66,1.59,2.3,3.89,3.89,5.96,5.71-.07.68.28.93.58,1.24-.07.26-.05.61-.17.83-2.08-.36-4.02-1.38-6.54-1.41.37,1.39,1.27,1.99,2.4,2.98.69.61,1.86,1.16,1.74,2.4-.39.22-1.07.15-1.08.74-1.43-.57-3.58-.52-5.46-.83.65,1.47,2.03,2.21,3.14,3.23-.1,1.15.85,1.25.74,2.4-1.58.5-4.01.8-5.96.41.15,1.37,1.21,2.54,1.41,4.14-.14.34-.78.19-.99.25-.16.26.14.75-.17.99-1.5-.2-2.14-1.51-3.06-2.32-.76-.67-1.72-1.03-2.56-1.65-.74,1.65.73,4.74-.08,6.54-.44.06-.53-.24-.83-.33-.16.33-.02.97-.5.99-1.23-.34-1.38-2.68-2.4-3.47-.4,2.27-.89,4.46-1.32,6.7-.67.38-1.02-.08-1.24-.58-2.7-.83-3.25-3.82-4.8-5.79-1.55,1.82-2.67,4.06-4.05,6.04-.77-.35-.62-1.28-.99-1.9-.34-.57-.82-1.08-1.16-1.65-.71-1.19-1.3-2.43-2.15-3.47-.75.41-1.81.93-2.65,1.65-.92.8-1.74,2.28-2.65,2.98-2.37,1.82-2.34-3.16-2.81-4.88-.63.33-1.5.87-2.48,1.57-.63.46-1.9,2.19-2.32.83,1.03-.87,2.19-1.62,3.06-2.65-2.46.46-4.14,2.87-6.95,2.98-.23-.4.05-.7.33-.83.55-2.92,2.26-4.69,3.31-7.11-1.14-.34-2.28.3-3.39.58-2.17.55-4.41,1.1-6.95.99-.13-.29-.17-.5-.08-.83,3.01-1.76,4.94-4.6,6.78-7.53-1.92-.57-4.88.48-6.7-.08-.13-.59.4-1.19.66-1.66-.05-.36-.43-.4-.5-.74,1.53-1.78,3.85-2.77,5.29-4.63-1.72-.38-3.77-.42-5.63-.66-.27-.74.32-1.11.99-1.16.92-.43,1.89-.81,2.65-1.41-1.7,0-3.64.68-5.29.17-.22-.44-.11-.68.17-.99,3.02-.16,6.63-.42,9.18-1.32-2.36-.62-4.71-1.25-7.11-1.82.74.48,1.49.94,2.48,1.16.04.51-.02.92-.33,1.08-2.07-.88-4.33-2.29-6.37-3.48.2-.76-1.01-1.25-.5-2.07,2.42-.42,5.43.12,7.36-.66-.46-1.11-1.68-1.46-2.48-2.23.02-.31.26-.4.33-.66-.21-.81-1.07-.97-1.24-1.82.2-.1.27-.34.5-.41,2.27,1.41,6.12,1.17,8.69.33-.11-1.2-1.02-1.74-1.74-2.65-.45-.57-.96-.77-.91-1.16.09-.62.76-.37,1.16-.66-.1-.64-.37-1.12-.58-1.66.16-.2.35-.49.66-.5.28,0,.27.22.58.41.47.29,1.9,1.2,2.73,1.32,1.19.17,1.88-.19,3.14-.08-.22-1.93-.22-4.76-.5-6.87-.08-.6-.44-1.25.08-1.65.87,0,.97.95,1.65,1.32.78.43,1.9.57,2.81.91.93.34,1.72.83,2.56,1.16,1.73-1.9,3.1-4.1,4.3-6.7.46-.99.9-2.07,1.49-2.81.72.05.67.88,1.41.91ZM28.34,5.96c-.89,1.35-2.02,2.42-2.48,3.89.29.23.67.38,1.16.41,1.3-1.9,2.12-4.21,3.06-6.37.33-.75,1.05-1.55.74-2.48-.11,0-.11-.11-.25-.08-.83,1.55-1.32,3.24-2.23,4.63ZM38.68,4.22c.64-.64,1.65-1.18,1.24-2.23-.11,0-.11-.11-.25-.08-1.46,2.4-3.74,3.98-4.88,6.7,1.29-1.21,2.51-3.01,3.89-4.38ZM28.76,10.01c-1.14.07-.93,1.38-1.99,1.32-.6-.03-.86-.65-1.57-.74-.36.38-.26,1.23-.83,1.41-2.19-.76-3.51-2.4-5.29-3.56.12,1.53.77,4.06,1.49,5.63.07.16.68.69.66.91,0,.07-.51.6-.74.66-.39.1-.96-.25-1.32-.08-1.55,1.24-4.49-.71-6.45.33.39.58.19,1.04.66,1.74.35.53,1.98,1.4,2.07,1.9.1.54-.32.86-1.08.91.02.41-.1.67-.33.83-2.4.19-5.64-.46-7.2.74.8,1.44,2.7,1.77,3.89,2.81-.24.2-.18.7-.41.91-2.23.72-5.63.27-7.78,1.08,3.77,1.03,7.1,2.5,11.75,2.65.03.36.1.68.16.99-.33.79-1.35.52-2.15.83-.24.09-.43.32-.66.41-1.88.76-3.88,1.15-5.21,2.4.87.19,1.88.29,2.9.41,1.01.12,2.14.04,2.9.5-.12.29-.11.71-.33.91-2.24.83-3.9,2.23-4.96,4.22,1.87.61,4.25.71,6.37,1.08.07.54-.1.83-.17,1.24-1.79,1.85-3.57,3.71-5.05,5.87,2.47.29,6.15.44,7.78-.66.05.11.18.15.33.17.42,1.19-.16,1.79-.66,2.73-.84,1.59-1.7,3.17-2.32,4.8,2.32-.96,4.19-2.38,6.45-3.39.31.19.19.81.5.99.87-.12.67-1.31,1.74-1.24.48.42.08.87,0,1.32-.25,1.41,0,3.33.66,4.3,2.11-.59,3.26-2.86,5.05-4.05.16.15.33.27.66.25.46-.15.51-.71,1.08-.74.52.28.24.77.33,1.24.18.9.71,1.83,1.08,2.73.39.96.55,2.04,1.24,2.65.96-.66,1.34-1.93,1.9-2.98.58-1.08.99-2.26,1.9-2.98.36.11.34.6.74.66.26-.57,1.02-1.53,1.49-.5.29,2.54,1.3,5.04,2.9,6.54.55-2.4.73-5.17,1.82-7.03,1.06-.68.91.88,1.32,1.49.38.56,1.21,1.11,1.65,1.41.08-1.93.8-3.48.66-5.38.21,0,.12-.32.33-.33.5.15.68-.03,1.16-.08,1.1,1.25,2.04,2.64,3.97,3.06-.23-1.34-.64-2.5-.99-3.72.28-.44.72-.72,1.16-.99,1,.52,2.38,1.09,3.81.91-.17-.41-.4-.76-.58-1.16-.6-.34-1.72-.59-1.74-1.24.41.06.47.47,1.08.33.05-.58-.49-.56-.58-.99-.08-1.05-.41-1.85-.99-2.4.04-.49.2-.85.41-1.16,1.93.33,3.6.92,5.71,1.08-.84-1.32-1.84-3.07-2.98-4.14-.32-.3-.97-.54-.99-.99-.01-.31.53-1.08.91-1.16.33-.07.71.26.99.33,1.33.35,2.93.54,4.3.58-1.19-1.86-4.27-3.87-5.46-5.79-.38-.62-.44-1.34.25-1.57,1.58.32,3.75.14,5.38,0-1.4-1.08-2.82-2.14-4.22-3.23.22-.75-.18-.78-.16-1.49.95-.85,2.82-.76,3.56-1.82-1.31-.07-3.93-.76-5.54-.91-.74-.07-1.52.16-1.65-.41-.13-.54.35-.74.83-.74-.08-.33-.48-.34-.41-.83,1.29-1.93,2.55-3.9,3.06-6.62-2.53.2-4.46,1.72-7.03,2.15-.42-.61.23-1.16-.41-1.74.95-1.73,1.58-3.77,2.23-5.79-2.27.76-3.5,2.57-5.87,3.23-.16-.22-.05-.72-.08-1.08-.57,0-.4.75-1.16.58-.12-2.19,1.12-4.17.91-6.45-1.9,1.16-3.06,3.07-4.96,4.22-.24-.13-.29-.32-.33-.58-.23-1.6.38-4.21-.08-5.87-1.5.95-2.76,2.69-3.81,4.05-.32.42-.72.81-.91,1.16-.3.54-.45,1.85-1.32,1.41-.89-2.31-1.59-4.81-2.81-6.78-1.02,1.96-1.75,4.21-2.56,6.37ZM41.91,8.19c.69-.57,1.38-1.15,2.07-1.74.65-.56,1.57-1.04,1.82-1.99-1.83.65-3.5,1.91-3.89,3.72ZM46.46,6.37c-.22,1.39-.73,2.98-.91,4.38.38-.06.44-.45.75-.58.22-1.83,1.2-3.76.91-5.54-.7.29-.62.95-.75,1.74ZM52.58,7.2c-1.28.55-2.67,1.24-3.81,1.99-1.06.69-2.09,1.12-2.07,2.4,1.89-.65,3.68-2.11,5.63-2.98.1-.51.37-.84.41-1.41h-.16ZM21.48,9.02c.79.73,1.6,1.44,2.81,1.74.07-.17.25-.24.25-.5-.85-.49-2.18-1.34-3.06-1.24ZM51.92,12c.44-1,1.1-1.77,1.41-2.9-.85.2-1.29,1.96-1.41,2.9ZM19.16,14.64c.24,0,.54.04.66-.08-.2-.96-.44-1.88-.99-2.48.07.9.14,1.79.33,2.56ZM12.54,15.14c.3-.03.65,0,.66-.33-.31-.05-.48-.23-.75-.33-.19.2-.01.5.08.66ZM53.16,15.3c.67-.26,1.62-.25,2.07-.74-.6.02-1.53.39-2.07.74ZM6,21.01c-.04.27.48.35.5.08-.17-.06-.33-.26-.5-.08ZM1.21,26.06c.26.16.92.13.99-.17-.33.06-.92-.14-.99.17ZM6,41.04c-.17.27-.44.44-.41.91,1.31.15,2.61-.03,3.81-.17-.85-.53-2.38-.38-3.39-.74ZM56.31,48.56c.04.4.36.52.41.91.3-.03.73.07.91-.08-.07-.61-.72-1.03-1.32-.83ZM6.25,50.3c1.43-.17,2.96-.24,3.97-.83-1.25.07-3.99-.72-3.97.83ZM53.16,53.69c-.17-.57-.26-1.23-.74-1.49.17.53.12,1.68.74,1.49ZM20.98,57.09c.17.99.28,2.14,1.08,1.74.21-.32-.42-.37-.5-.66-.28-1.33-.22-3.28-.66-4.63-.72.6-.15,2.25.08,3.56ZM29.17,55.1c-.03-.41,0-.87-.41-.91-.24.39.2.71.41.91ZM37.19,54.6c-.02.12-.18.09-.25.17.23,1.09.7,1.95,1.32,2.65-.39-.91-.51-2.09-1.08-2.81ZM34.13,57.5c.69-.75,1.3-1.57,1.65-2.65-.9.54-1.18,1.69-1.65,2.65ZM46.79,57c.16-.48.1-1.41-.17-1.74-.03.53-.45,1.56.17,1.74ZM41.99,58.33c-.11,1.02-.62,2.14-.25,2.73.37-1.58,1.05-3.4.83-5.05-.02-.06-.07-.1-.17-.08-.26.83-.31,1.46-.41,2.4Z"/><path class="cls-3" d="M52.58,27.38c.41,0,.66-.38,1.08-.08.3.21.26.86.41,1.49.28,1.15,1.04,2.49.99,3.72-.04,1.08-.96,2.66-1.57,3.81-1.84,3.43-4.26,6.48-7.2,8.85-1.01.82-2.18,1.39-3.23,2.15-2.95,2.14-7.38,3.95-12.33,3.56-4.62-.37-7.58-3.17-9.35-6.54-.54-1.02-.73-2.17-1.24-3.47-.49-1.26-1.25-2.32-1.65-3.56-.41-1.25-.77-2.78-.75-4.38.02-1.32.49-2.91.66-4.47.07-.58-.06-1.1.08-1.65.14-.54.59-1.15.91-1.74.31-.58.5-1.26.83-1.82,1.37-2.39,3.74-4.46,6.29-6.04,2.55-1.58,5.51-2.87,10.09-2.56,5.41.36,9.72,2.28,12.41,5.38.33.38.74.91.99,1.32.58.98.66,2.04,1.08,3.06.42,1.04,1.29,1.69,1.49,2.98ZM32.15,16.38c3.59-.26,6.88.29,9.76.99-1.99-1.61-6.86-2.03-9.76-.99ZM19.41,27.55c.97-.76,1.5-1.96,2.15-2.98,1.92-3.02,4.37-5.37,7.2-7.45,0-.1-.02-.2-.17-.17-4.4,2.19-7.82,5.36-9.18,10.59ZM46.13,41.7c.81-1.05,1.66-2.52,2.48-3.89.86-1.41,1.78-2.84,2.32-4.05.62-1.41,1.07-3,.66-4.72-1.08-4.5-3.63-7.76-7.03-9.76-3.63-2.14-11.29-3.31-15.64-1.24-.27.24.2.49,0,.66-.65.39-1.4.69-2.15.99-1.87,2.18-3.69,4.42-4.96,7.2.24.12.6-.2.91.08-.81,1.79-3.03,3.04-2.4,5.71.75-.74.78-2.63,1.99-2.65.15.74-.42,1.38-.74,1.99-.34.63-.69,1.33-1.16,1.82-.28.7-.05,1.42.08,2.15.8-.69.26-2.72,1.49-2.98.73,1.31-1.07,2.98-1.08,4.38,0,.46.25,1.05.66,1.41.43-.98.09-2.67,1.41-2.4.09,1.18-.92,2.53-.83,3.72.05.62.85,1.72,1.08,1.57.42-.96-.01-2.77.99-3.14.64,1.2-.63,3.05-.08,4.47.52.45.98.95,1.74,1.16.11-1.18-.56-4.07.91-3.97.06,1.24-.49,3.38.16,4.72.47.19.91.42,1.49.5-.08-.96-.7-2.81.33-3.23.51,1.12.07,2.68.74,3.64.41.2.89.32,1.41.41.03-.56-.29-2.21.5-2.48.62.6.1,2,.5,2.81.94.39,2.3.77,3.39.74-.1-.38-.19-1.01.25-1.08.52.03.3.8.5,1.16,3.92-1.3,7.88-2.83,10.09-5.71ZM46.3,19.03c-.07-.21-.48-.51-.66-.33.29.04.29.37.66.33ZM48.45,21.18c-.31-.99-1.19-1.41-1.9-1.99-.06.02-.16,0-.16.08.74.58,1.3,1.34,2.07,1.9ZM52.83,33.26c.68-1.41.88-3.47-.08-4.63-.05,1.68-.09,3.02.08,4.63ZM53.74,33.09c-.32.88-1.07,1.66-1.49,2.56-.8,1.71-1.14,3.23-2.23,4.47-1.07,1.14-2.48,2.01-3.64,3.06-.58.52-1,1.21-1.57,1.74-3.09,2.88-7.17,4.31-13.07,4.3,0,.23.54.55.74.83,1.58-.1,3.13-.23,4.55-.5,1.97-1.06,4.51-1.55,6.04-3.06,3.72-1.88,6.85-5.59,9.1-9.27,1.03-1.69,2.22-3.34,2.07-5.54,0-.05-.01-.1-.08-.08-.26.45-.24,1-.41,1.49ZM19.16,35.82c.24-.68.08-2.03-.17-2.73-.14.81-.49,2.18.17,2.73ZM47.87,40.37c.75-.83,1.39-1.54,2.15-2.56,1.01-1.36,1.89-2.31,1.9-4.47-1.27,2.37-2.93,4.79-4.05,7.03ZM21.39,41.12c0-.36-.28-1.08-.66-1.32.05.61.33.99.66,1.32ZM25.86,48.23c-.44-1.19-1.48-1.77-1.9-2.98-.87-.51-1.49-1.7-2.32-1.99.97,2.09,2.23,3.89,4.22,4.96ZM26.36,45.67c-.25-.08-.56-.54-.83-.33.25.1.64.69.83.33ZM31.24,47.32c-1.44-.19-2.64-1.06-3.89-1.16-.02.12-.14.14-.17.25,1.29.7,2.56,1.41,4.39,1.57-.02-.31-.26-.4-.33-.66ZM32.56,48.15c.2.03.18-.15.41-.08.06-.31-.29-.21-.41-.33-.11.11-.11.3,0,.41Z"/></g></g></g></g></svg>