<?xml version="1.0" encoding="UTF-8"?><svg id="Layer_2" xmlns="http://www.w3.org/2000/svg" viewBox="0 0 64 52.5"><defs><style>.cls-1{fill:#5f5c5d;fill-rule:evenodd;}</style></defs><g id="Layer_1-2"><path class="cls-1" d="M39.61,18.86c-.97.71-2.66.17-2.56-.93.14-1.62,4.15-1.27,2.56.93Z"/><path class="cls-1" d="M35.31,21.88c-.6,1.26-.5,2.91.46,3.84.43.41,1.64,1.18,2.21,1.28.73.13,1.51-.49,2.09.23-.2,1.6-2.44,1.66-3.96.81-2-1.12-3.54-3.36-2.68-6.4.5-.63,1.57-.49,1.86.23Z"/><path class="cls-1" d="M41.24,21.42c.36,1.87-2.36,1.57-2.91,2.91-.52-.23-.86.09-1.28-.23-.21-.4.02-.56,0-1.05,1.34-.51,2.38-2.34,4.19-1.63Z"/><path class="cls-1" d="M43.45,23.05c.55-.3,1.93.18,2.1.81.23.9-.61,1.45-.93,1.51-1.32.28-2.35-1.68-1.16-2.33Z"/><path class="cls-1" d="M46.95,45.28c2.36-.88,3.6-2.91,6.17-2.91,1.86,0,3.12,1.83,4.77,1.86,1.86.04,3.14-1.8,4.89-1.16-.19,1.12-1.33,1.18-2.33,1.63-.85.38-1.84,1.12-2.79,1.16-1.61.06-2.95-1.89-5-1.74-2.44.18-4.24,2.99-6.17,2.91-1.27-.05-2.23-1.65-3.26-1.86-1.32,0-2.21-.45-3.26-.46-2.36-.03-5.32,1.16-8.03.46-2.4-.61-4.24-2.8-6.63-3.14-1.32-.19-2.84-.12-4.07,0-1.19.12-2.34.75-3.61.7-3.23-.13-5.63-3.69-9.2-2.68-1.12.32-2.1,1.64-2.91,2.56-.85.97-1.34,2.37-2.68,2.79-.99-1.18.47-2.53,1.28-3.38,1.44-1.5,2.7-3.66,5.12-3.84,2.95-.22,5.34,1.88,7.8,2.56,2.5.69,6.46-1.04,9.66-.23,2.25.57,4.53,3.12,7.22,3.38,2.45.23,4.36-.93,6.75-.82,2.56.13,4.51,1.38,6.29,2.21Z"/><path class="cls-1" d="M63.94,49.7c.65,2.36-4.17,3.26-7.1,2.56-1.93-.46-2.76-2.36-4.19-2.56-2.58-.36-5.64,2.84-8.5,2.33-1.12-.2-2.51-1.28-3.61-2.1-1.16-.86-2.43-1.99-3.49-2.1-2.44-.24-4.71,2.3-7.45,1.98-1.56-.19-3.05-1.66-4.66-2.1-.74-.2-1.96-.39-3.03-.23-2.06.3-4.05,2.11-5.82,1.98-.75-.05-1.2-.67-1.75-.93-4.11-1.92-8.49-.77-11.18,1.75-.24.22-1.05,1.73-1.51,1.75-1.12.03-.69-1.07-.35-1.63.61-1.01,1.88-1.97,3.14-2.68,1.71-.96,3.39-2.1,6.4-1.87,1.11.09,2.08.48,3.02.82.92.33,1.96,1.01,2.8,1.05,1.63.08,3.84-1.68,5.7-1.87,1.66-.16,3.03.3,4.31.82,1.09.44,2.22,1.34,3.49,1.51,1.21.16,2.33-.49,3.61-.93,1.21-.42,2.9-1.37,4.07-1.05,1.13.31,2.25,1.34,3.49,2.21,1.23.86,2.65,2.03,3.49,2.1,1.39.1,2.84-.93,4.19-1.4,1.31-.45,3.06-1.29,4.42-1.05,1.3.23,2.18,1.99,3.49,2.56,1.59.7,4.08.43,5.59-.23.49-.22.79-.81,1.4-.7Z"/><path class="cls-1" d="M39.26,3.72c-.08.34-.35.51-.23,1.05-2.2,1.65-5.29,3.81-7.45,6.4-.64.76-1.17,1.92-1.86,3.03-1.1,1.76-3.03,4.24.23,4.89,1.21-1.49,1.75-3.31,3.14-4.42.98-.78,2.52-1.69,3.84-2.1.08-.02.24-.12.23-.12,7.17-1.05,15.44,3.29,14.78,11.18-.13,1.57-.57,2.88-1.16,3.84-.44.71-1.16,1.06-1.74,1.75-.21.25-.32.78-.58,1.05-1.44,1.46-4.52,2.51-7.68,2.21.84,1.61,2.46,3.44,3.38,5.35,2.18-.45,3.07-2.18,5.24-2.21,2.6-.04,4.07,3.28,7.92,2.91.8-.08,1.8-.3,2.56-.58.52-.19.93-.65,1.51-.58.66.68-.26,1.32-.46,1.86-1.75.86-3.46,1.28-5.36.93-1.73-.32-2.76-1.29-4.07-1.98-3.85-2.03-6.98,2.63-10.24,3.03-3.78.46-5.8-4.36-10.13-4.43-.82,0-1.76.08-2.56.23-2.38.47-5.17,2.42-8.15,1.52-.82-.25-1.77-.91-2.56-1.4-2.1-1.3-4.32-3.32-7.8-3.03-4.14.35-7.05,3.38-8.62,6.4-3.29.53.04-3.07.7-3.84,1.6-1.86,3.89-3.66,7.1-4.07.87-.11,1.9-.17,2.44-.12,1.29.12,2.09.55,2.91-.46.55-3.33,2.91-4.85,4.77-6.87-.29-.81-.86-1.39-1.4-2.1-.51-.66-.96-1.21-1.51-2.21-.87-1.57-2.29-4.16-1.28-6.63.68-1.66,2.85-4.03,4.19-5.36.7-.68,1.61-1.47,2.56-2.21,2.14-1.65,3.96-3.08,6.4-4.54,1.27-.76,2.94-1.67,4.07-1.98.19-.05.98-.1.93-.12,2.11.92,4.8,2.05,5.94,3.72ZM33.56,1.98c-1.34,1.3-2.69,2.59-3.84,4.07-.05.51.36.38.12.81-1.11,1.8-2.65,3.17-3.72,5.01.17.25.58.27.58.7-.93,1.28-2.13,2.29-2.91,3.72.35.04.42.35.58.58,2.04-3.32,4.15-6.56,6.64-9.43.32-2.56,2.69-3.05,3.26-5.35-.27,0-.34-.2-.7-.12ZM28.09,5.82c.46-.08.47.31.93.23,1.06-1.23,2.15-2.43,3.14-3.73-1.84.22-2.94,2.19-4.08,3.49ZM32.51,5.7c-.02.37.31.39.23.81-1.44,1.5-2.68,3.22-4.07,4.77v.93c-1.37,1.43-2.51,3.08-3.61,4.77-.09.39.47.15.35.58-1.32,1.75-2.02,4.11-3.26,5.94.09.74-.32,1.31.23,1.63,1.18-2.51,2.51-4.87,3.49-7.57,2.33-3.61,4.1-7.77,7.45-10.36.48-1.85,2.23-2.43,2.56-4.42-1.64.01-2.32,1.94-3.38,2.91ZM36,4.77c.46-.16.76-.48.93-.93-.58.04-.79.45-.93.93ZM26.69,5.35c-.2.38.06.51.23.81-.99,1.81-2.78,3.43-3.49,5.12,1.5-.6,2.04-2.15,2.91-3.38.43-.35.87-.69,1.05-1.28-.04-.27-.4-.21-.35-.58.48-.68,1.15-1.18,1.51-1.98-.94.1-1.18.91-1.86,1.28ZM20.29,12.22c-.33.14-.72.14-1.05,0-.7,1.82-3.06,2.48-2.44,5.24,2.04-2.31,3.44-5.25,5.59-7.45.37-.02.39.31.82.23.55-1.17,1.8-2.23,1.98-3.38-2.07.88-3.43,3.47-4.89,5.36ZM24.71,11.41c1.14.59,1.6-1.04,2.1-1.75.62-.9,1.53-1.71,1.75-2.68-1.8.95-2.58,2.92-3.84,4.42ZM21.8,12.11c-1.59,1.97-3.32,3.82-4.66,6.05.09.88.43,1.51,1.05,1.86.06-.52.31-.86.46-1.28-.14-.22-.74.26-.82-.23,1.17-2.36,3.09-3.97,4.31-6.28-.15,0-.16-.15-.35-.12ZM24.95,12.34c-1.18,1.5-2.55,2.8-3.49,4.54.42-.03.43.35.82.35.92-1.68,2.25-2.95,3.03-4.77-.15,0-.16-.15-.35-.12ZM23.31,12.8c-.02-.09-.1-.14-.23-.12-1.24,1.33-2.46,2.66-3.38,4.31.37-.11.16.38.47.35.96-1.6,2.26-2.86,3.14-4.54ZM45.78,20.14c-1.43-.86-2.68-2.13-3.84-3.38-.3-.32-.78-.49-1.05-.81-.54-.64-.99-1.69-1.63-1.86-1.36-.36-3.29.61-4.31,1.28-1.77,1.16-2.66,2.95-3.26,4.54.23.27.27.74.23,1.28-.25.22-.57.36-.82.58-.2,1.43-.41,3.66-.12,5.01,1.48,2.19,3.69,4.06,6.87,4.07.5,0,1.07-.18,1.63-.12.5.06.91.33,1.4.35,3.28.16,5.98-1.49,7.33-3.61-1.75-1.35-.63-4.15-.23-6.17-.56-.56-1.28-.97-2.21-1.17ZM21.45,21.65c-.25.45-.44,1.38-1.16,1.28.02-.75.5-1.7.93-2.56.38-.76,1.42-1.72.46-2.33-.83,1.65-3.64,4.85-.46,5.82,1.08-1.9,1.76-4.02,2.56-5.94-.03-.09-.1-.13-.23-.12-.7,1.35-1.44,2.68-2.1,3.84ZM18.66,21.3c.82-.21,1.43-2.2,1.63-3.03-1.2.3-1.41,2.13-1.63,3.03ZM26.46,18.97c-.86,1.93-2.24,3.34-2.79,5.59.33-.12.49-.12.82,0,.94-1.7,1.69-3.59,2.68-5.24-.28-.06-.25-.45-.7-.35ZM27.85,20.02c-.69.84-.99,2.27-1.63,3.26-.4.62-1.62,1.33-.58,1.98.8-1.84,1.91-3.37,2.68-5.24h-.47ZM26.81,24.79c-.04.39.52.19.35.7-1.88,3.74-4.72,7.15-5.93,11.17.23.28.77.24,1.28.23.98-3.52,3.03-6.97,4.66-10.24.05-.28-.21-.25-.12-.58.82-1.74,2.13-3.59,2.56-5.35-1.28,1.01-2.12,2.46-2.79,4.07ZM28.21,25.38c.12-.27.53-.24.93-.23-.03-.48.19-.55,0-.93-.51.11-1.12.74-.93,1.16ZM18.31,35.04c.37.17.41.68.93.7,1.52-3.37,3.57-6.21,4.77-9.89-.03-.09-.1-.13-.23-.12-1.73,3.2-4.01,5.84-5.47,9.31ZM24.83,26.54c-.12,1.05-.97,1.36-1.05,2.45-.98,1.27-2.01,3.04-2.79,4.54-.26.48-.7,1.18-.47,1.63.13-.6.72-.75,1.16-1.05,1.07-3,2.89-5.25,4.07-8.15-.16-.03-.2-.19-.35-.23-.05.42-.29.64-.58.81ZM16.56,34.11c1.94-2.17,3.12-5.1,4.77-7.57-.01-.14-.04-.28-.23-.23-1.56,2.47-4,4.69-4.54,7.8ZM29.48,26.89h-.35c-1.79,3.02-3.57,6.06-4.89,9.55.52.09.7-.16,1.16-.12-.07-.5.08-.77.12-1.17.6-1.06,1.1-2.46,1.75-3.72.57-1.13.94-3.04,2.44-2.91-.41,2.14-2.45,3.8-3.14,6.17-.1.36.16.87-.23,1.16.76-.25.52-1.5,1.16-1.86.76-1.81,1.33-4.4,3.26-4.65.08.86-.56.99-.93,1.39-.44,1.85-1.78,2.79-2.09,4.77.59.08.85-.16,1.28-.23.52-2.04,1.49-3.64,2.33-5.36-.7-.93-1.54-1.72-1.86-3.03ZM16.91,31.31c.3-.71,1.38-1.76,1.05-2.33-.37.67-1.56,1.53-1.05,2.33ZM18.08,33.41c1.1-.68,1.69-2.5,2.09-3.49-.66,1.21-1.61,2.11-2.09,3.49ZM29.95,35.15c.94-.34.9-1.66,1.4-2.44.63-.34.79-1.15,1.51-1.4-.08-.43-.4-.61-.82-.7-.56,1.65-1.89,2.54-2.1,4.54ZM31.35,34.92c.45.17.88.36,1.51.35.45-1.21,1.11-2.23,1.4-3.61-1.76-.15-2.38,1.8-2.91,3.26ZM33.79,35.73c.58.29.69-.54.81-1.05.5-.64,1.25-1.6,1.16-2.45-1.47.35-1.45,2.19-1.98,3.49ZM37.17,32.48c-.88,1.09-1.66,2.3-2.1,3.84.63.11.72.76,1.4.81.1-1.96,1.39-2.72,1.63-4.54-.4.05-.65-.05-.93-.12ZM23.55,35.73c.67-.58,1.48-2.23,1.28-2.91-.34,1.06-1.11,1.68-1.28,2.91ZM37.75,36.78c-.09.41-.71.3-.7.82.17.13.29.34.58.35.53-1.3,1.13-2.52,1.75-3.72-.86-.77-2.11,1.61-1.63,2.56ZM20.17,36.32c.53,0,1.03-1.17.7-1.28-.13.53-.66.66-.7,1.28ZM38.91,37.71c.65-.67,1.06-1.58,1.51-2.44-.99-.12-1.16,1.55-1.51,2.44ZM39.61,39.11c.28.06.25.45.7.35.58-.66.9-1.59,1.28-2.44-1.06-1.29-1.54,1.29-1.98,2.1Z"/></g></svg>