<?xml version="1.0" encoding="UTF-8"?><svg id="Layer_2" xmlns="http://www.w3.org/2000/svg" viewBox="0 0 427.52 441.27"><g id="Layer_1-2"><path d="M334.79,440.98c-31.13-2.11-62.68-1.23-93.23-9.1-15.43-3.97-30.44-9.59-45.6-14.6-15.64-5.17-31.29-10.2-47.85-11.57-18.13-1.5-27.78-11.77-27.81-29.89-.07-55.81.02-111.62-.06-167.44-.01-9.56,3.47-17.13,11.2-22.74.13-.1.25-.23.39-.31,21.27-10.46,33.19-30.25,47.39-47.71,9.24-11.36,18.25-22.93,26.96-34.7,14.41-19.48,21.7-42.17,28.53-65.02,1.76-5.9,3.41-11.83,5.21-17.72,4.69-15.32,16.55-22.49,32.21-19.53,7.03,1.33,14.08,2.56,21.08,4.04,8.16,1.73,14.43,6.37,17.82,13.94,3.94,8.79,7.44,17.8,10.58,26.91,6.14,17.84,2.18,35.11-3.44,52.3-4.18,12.81-7.91,25.76-11.65,38.71-2.54,8.8.12,12.32,9.26,12.22,16.32-.18,32.63-.82,48.94-.82,13.5,0,26.56,2.44,38.05,10.17,24.9,16.76,32.46,53.35,15.86,79.59-5.65,8.93-6.64,16.77-2.17,26.57,5.13,11.27,3.48,22.8-3.65,33.19-1.5,2.19-3.19,4.3-5.05,6.18-6.25,6.31-7.45,13.69-5.56,22.12,1.22,5.48,2.32,11.14,2.3,16.72-.02,7.25-4.65,12.68-9.45,17.62-5.92,6.09-8.41,12.98-6.34,21.41.87,3.55,1.35,7.2,1.81,10.83,1.48,11.86-3.6,21.41-11.02,29.97-11.77,13.59-26.43,20.48-44.74,18.63Z"/><path d="M101.95,297.26c0,29.48.01,58.96,0,88.43,0,12.51-6.55,19.02-19.18,19.04-21.14.03-42.28.04-63.42-.01C6.62,404.69-.02,397.99,0,385.29c.06-41.96.17-83.92.2-125.87.01-17.15-.17-34.3-.19-51.45-.01-11.82,6.74-18.72,18.48-18.77,21.64-.08,43.28-.08,64.93-.02,11.88.03,18.52,6.74,18.53,18.66.03,29.81,0,59.62,0,89.43Z"/></g></svg>