<?xml version="1.0" encoding="UTF-8"?><svg id="Layer_2" xmlns="http://www.w3.org/2000/svg" viewBox="0 0 427.69 440.85"><g id="Layer_1-2"><path d="M307.35,148.42c0,28-.14,55.99.06,83.99.07,10.07-3.49,18.47-12.05,23.19-17.35,9.58-29.16,24.4-40.77,39.7-9.97,13.13-20.44,25.87-30.52,38.91-12.91,16.71-20.96,35.84-27.17,55.83-3.11,10-6.07,20.05-9.03,30.09-4.66,15.79-16.87,23.2-32.85,19.96-6.83-1.38-13.71-2.58-20.54-3.96-7.64-1.54-13.59-5.81-17.14-12.6-6.33-12.13-11.19-24.86-13.63-38.43-2.29-12.73.51-24.82,4.14-36.85,4.38-14.5,8.83-28.97,13.13-43.49,2.78-9.41.21-12.85-9.57-12.75-17.32.17-34.64.8-51.95.65-12.67-.11-24.71-3.18-35.39-10.52-19.32-13.28-29.1-41.73-21.46-63.9,2.3-6.68,5.59-13.09,8.96-19.33,3.24-5.99,4.19-11.78,1.23-18.09-7.45-15.89-5.52-30.48,6.72-43.23,6.73-7,8.11-14.79,5.54-23.91-2.32-8.25-4-16.75.99-24.66,2.38-3.77,5.44-7.14,8.39-10.52,4.61-5.29,5.88-11.21,4.78-18.1-1.07-6.69-2.32-13.56-1.86-20.24C38.47,24.11,60.54-.49,83.67,0c19.31.42,38.59,1.71,57.9,2.42,33.79,1.25,65.13,12.32,96.72,22.98,13.92,4.69,28.65,7.35,43.21,9.64,15.94,2.5,25.83,12.65,25.85,28.89.03,28.16,0,56.32,0,84.49Z"/><path d="M325.63,143.45c0-29.16-.02-58.33,0-87.49.01-13.38,6.59-19.87,19.99-19.87,20.83,0,41.65,0,62.48.01,13.13.01,19.61,6.55,19.58,19.74-.07,37.66-.22,75.32-.24,112.97-.01,21.32.18,42.65.23,63.97.03,12.03-6.79,18.82-18.94,18.85-21.33.05-42.66.05-63.99.01-12.39-.02-19.09-6.77-19.1-19.21-.02-29.66,0-59.33,0-88.99Z"/></g></svg>