<?xml version="1.0" encoding="UTF-8"?><svg id="Layer_2" xmlns="http://www.w3.org/2000/svg" viewBox="0 0 51.66 64"><defs><style>.cls-1{fill:#1a1a1a;fill-rule:evenodd;}</style></defs><g id="Layer_1-2"><path class="cls-1" d="M12.23,30.35c.44-1.47.4-3.41,1.34-4.37.55,1.33-.26,3.16-.45,4.49-.44.09-.58.12-.89-.11Z"/><path class="cls-1" d="M8.63,26.65c.08.61.06,2.35-.34,3.25-.49.11-.52-.23-.78-.34.14-1.2.59-2.1,1.12-2.92Z"/><path class="cls-1" d="M12.56,35.62c-2.54-.28-7.31,1.24-9.09-.22-1.19-.99-1.16-3.34-1.01-5.27.14-1.8.63-3.46.79-5.27-1.34-.49-2.26-1.41-3.25-2.24.46-4.6,3.61-6.89,8.3-7.74,4.26-.77,9.61-1.19,14.02-.34.04-2.11-2.55-3.7-4.94-4.26-2.53-.59-8.46-.77-10.21,0-.7.3-1.33,1.11-1.46,1.79-.2,1.03.87,3.08-.9,2.8-.27-2.11-.06-4.37,1.57-5.38,1.78-1.1,6.03-.76,8.97-.56,2.77.19,4.81,1.13,6.05,2.02.51-.93,1.67-1.62,1.57-2.69-.08-.9-1.91-1.76-2.46-2.02-2.62-1.23-7.23-2.5-9.65-.11-.64.63-1.42,2.33-1.91,2.35-1.48.08.08-1.78.45-2.13,1.17-1.13,2.17-2.27,4.04-2.69.72-2.18,7.06-5.52,8.64-2.35,3.66-.34,7.2-.12,9.87,1.23,2.89,1.46,5.72,5.4,7.4,8.19.62.15.89.01,1.57,0,.27-.67.76-1.11,1.68-1.12.57-2.23,4.82-2.42,7.07-1.57.35.31,0,.66.22,1.01.48.04,1.15-.11,1.46.11.51,3.87.22,9.22,0,13.35-.18,3.5-.19,7.11-.79,10.43-.15.48.53.14.45.56-1,1.55-1,4.09-1.35,6.28-.8.25-1.46.64-1.91,1.23-.57.12-.25-.65-.67-.67-1.32-.09-2.24-.34-3.48,0-.51-1.49-.09-4.13-.67-5.83-.39-.54-1.55-.32-2.13-.11-1.15,1.8-2.28,3.83-4.26,4.6-1.26.49-2.5.59-3.48.9-2.69.87-5.42,2.82-7.29,4.82-2.03,2.18-4.11,5.16-5.83,7.96-1.06,1.72-2.3,3.22-2.92,5.5.24.55,1.14-.25,1.12.56-.19.37-.95.17-1.23.45-.92,1.18-.73,4.84-2.47,4.82-.95,0-2.2-.35-2.92-.79-1.43-.87-3.28-3.46-3.93-5.72-1.25-4.32-.89-9.72-.34-13.79.73-.92.8-2.06,1.23-3.03.94-2.11,2.82-3.28,4.04-5.05ZM19.4,32.37c-.85,1.47-1.94,2.7-2.92,4.04-2.17.48-3.13,1.49-4.6,2.92-2.13,2.08-3.59,4.05-3.81,7.63-.41,6.59.94,13.73,5.49,15.37.5-.96.55-2.37,1.12-3.25-1.2-.63-2.7-.97-3.7-1.79,1.18-2.48,1.29-6.04,2.47-8.53,2.18.21,4.03.76,6.28.9.97-1.95,2.26-3.57,3.36-5.38,2.2-1.96,4.45-3.93,7.29-5.38,1.42-.73,3.03-1.03,4.38-1.91,1.34-.87,2.53-1.71,3.7-2.69.36-.02.86.11.79-.34-.87-.16-1.72.3-2.36,0,1.26-1.25,3.63-1.38,5.83-1.68.18-.38.07-1.05.34-1.35.27-.15.78-.05,1.01-.22,1.48-5.22,1.32-14.11-1.12-18.51-1.52-.03-2.69.3-4.26.22-1.52-1.5-2.11-3.44-3.59-4.82-2.46-2.3-6.38-3.21-10.54-3.81.45,2.79-.81,6.53-.34,9.31,1.42-1.31,2.86-2.93,3.93-4.49.32-.47.56-1.35,1.23-1.35-.39,1.46-1.26,2.57-2.36,3.93-1.06,1.31-3.82,3.47-2.02,5.27,1.12-1.4,2.6-2.63,3.7-4.04.41-.52.49-1.41,1.35-1.46.45.78-.38,1.34-.79,1.79-1.39,1.55-2.74,2.99-3.81,4.71.49.9-.79,2.25-.34,3.48,1.96-1.53,3.6-3.77,5.16-5.61.48-.57.97-1.53,1.79-1.57-1.19,2.37-3.56,4.73-5.38,6.84-.79.92-2.13,2.54-1.23,3.48.75-.17.61-1.07.89-1.57.62-1.08,1.82-2.08,2.69-3.03.92-1,1.62-2.47,2.92-2.58-1.24,2.09-3.73,3.9-4.82,6.51,3.11.23,3.95-1.8,5.16-3.48.73-.17.39-1.4,1.46-1.23-.58,1.81-2.05,2.73-2.8,4.37,1.37.26,3.26.07,3.37,1.12.14,1.38-1.52.3-1.91,1.35-.69-.94-1.59-.2-2.92,0-2.55.38-5.4.41-5.61,2.58-2.54.38-1.59,4.25-4.49,4.26ZM15.14,57.83c1.32-1.47,2.86-4.86,3.59-6.84-1.52-.53-3.21-.75-4.94-.67-.82,1.76-1.09,4.07-1.57,6.17.46.39,2.54,1.76,2.92,1.35ZM46.32,37.42c.81-1.32,1.45-3.36,2.36-4.49-1.68.94-3.16,3.04-4.71,4.49-.06.7.18,1.1.22,1.68.48.19,1.07.27,1.79.22-.68-.82.04-1.41.34-1.91ZM47.56,38.65c-.04.26-.39.21-.34.56.41.17.62-.41.34-.56ZM48.57,34.84c-.62.2-1,1.24-.9,1.79.43-.46.97-.82.9-1.79ZM17.27,33.38c-.53-.05-.81.16-1.23.23-.02.8-.27,1.38-.67,1.79.14,0,.15.14.33.11.43-.81,1.27-1.2,1.57-2.13ZM49.58,28.89c-1.72,1.79-3.3,4.33-4.38,6.39,1.51-2.01,4.47-3.16,4.38-6.39ZM44.3,34.72c-.41-.11-.45.55-.11.56-.05-.27.21-.25.11-.56ZM18.28,31.7c.54-1.11,1.27-2.02,2.69-2.24,1.18-1.41,1.72-4.04.45-5.72-1-.6-1.86-1.02-3.25-1.12-4.53-.34-10.46.28-13.35,2.02-1.36,2.4-2.19,7.34-.34,9.76,3.21.66,7.64.26,10.32-.67.28-.17-.53-.56-.11-.9,1.13-.43,2.49-.65,3.59-1.12ZM47.78,29.79c-1.06,1.01-2.46,2.11-2.58,3.7.09-.02.22,0,.22-.11.75-1.16,2.07-2.34,2.36-3.59ZM50.25,23.84c-1.75,2.1-3.07,4.62-4.6,6.95.03.09,0,.22.11.22,1.6-2.21,4.85-3.37,4.49-7.18ZM49.35,21.04c-1.17,1.63-3.82,2.98-3.14,5.72,1.29-1.67,2.3-3.6,3.14-5.72ZM23.33,22.16c-.27-.21-1.29.24-1.68-.11.35-.74,1.6-.57,2.13-1.12.07-.28.41-.86.11-1.12,0,.57-.93,1.13-1.35.56.54-1.26,1.98-2.69.56-4.04-.65.19-.69-.18-1.46-.11-.05-.21.15-.68-.22-.56-2-.56-3.99-.52-6.39-.56-.55.68.32,2.79-1.12,2.58-.62-.73.3-1.47.22-2.36-2.38-.09-5.13.4-7.07,1.12-.18.59.23,1.62-.67,1.91-.76-.37-.03-1.31,0-1.91-2.95.6-4.7,2.4-5.38,5.27.68,1.08,2.16,1.36,2.8,2.47,2.95-2.31,10.4-3.42,15.48-2.58,2.46.41,3.71,2.04,3.93,4.38,1.83-.61-.38-2.14.11-3.81ZM50.47,22.84c-.07-.62.42-1.47-.22-1.68-.28.74-1.39,1.8-1.12,2.36.35-.38.68-.92,1.35-.67ZM49.24,18.24c-.8,1.56-2.22,3.08-2.47,4.82.74-1.57,3.32-2.74,2.47-4.82ZM47.44,19.81c-.64.03-.76.58-1.34.67v1.12c.81-.24.89-1.2,1.34-1.79ZM48.57,14.42c-.93.04-1.17.77-1.91,1.01.16.88-.46,2.01.11,2.58.58-1.21,1.66-1.93,1.79-3.59ZM48.9,16.33c-.33-.06-.6.51-.34.67.06-.27.43-.24.34-.67ZM47,10.72c-.8.03-1.74-.09-2.13.34,1.79.02.14,2.74,1.23,3.59.18-1.43.54-2.67.9-3.93ZM47.44,11.84c0,.49-.52,1.04-.22,1.46.2-.29,1.05-1.19.22-1.46ZM49.35,12.07h-.34c.03.2-.11.56.22.45.04-.15.16-.21.11-.45ZM46.88,8.81c-.99.04-3.2-.32-3.59.67,1-.14,2.66-.14,3.59-.67ZM20.08,4.44c-.34-.67-2.12-.98-2.8-.56,2.18.7,4.2,1.56,6.06,2.58-.73-.98-1.69-2.24-3.25-2.02ZM23.55,3.65c-.31.1-1.05-.23-1.01.22.41.23.68.59,1.12.79-.02-.35.08-.82-.11-1.01ZM31.63,4.1c-1.67-1.09-4.04-1.92-6.51-1.57,2.06.55,4.86,1.19,6.51,1.57ZM20.97,1.41c-1.61-1.03-4.01.07-5.05,1.01,1.98.26,4.35.49,5.05-1.01Z"/></g></svg>