<?xml version="1.0" encoding="UTF-8"?><svg xmlns="http://www.w3.org/2000/svg" viewBox="0 0 82.16 85.69"><defs><style>.cls-1{isolation:isolate;}.cls-2{mix-blend-mode:multiply;}.cls-3{fill:#3f529f;fill-rule:evenodd;}</style></defs><g class="cls-1"><g id="Layer_2"><g id="Layer_1-2"><g class="cls-2"><path class="cls-3" d="M80.74,41.15c-.75-13.14-15.35-33.58-26.17-32.44-10.82,1.15-20.6-10.34-34.35-1.38C6.46,16.3-1.98,48.59,8.36,62.91c10.34,14.32,22.76,25.12,48.38,14.35,25.62-10.77,24.85-21.05,23.99-36.11Z"/><path class="cls-3" d="M71.63,73.58c.47-.21.07.38.1.54-.37.07-.03-.39-.1-.54Z"/><path class="cls-3" d="M0,49.99c-.03-.37.13-.23.15.21-.06.02-.1-.17-.15-.21Z"/><path class="cls-3" d="M32.19,84.43c-.27-.11.09-.15.15-.19.21.08-.13.13-.15.19Z"/><path class="cls-3" d="M4.79,62.42c-.19-.42.12-.24.3.09.07.26-.21-.08-.3-.09Z"/><path class="cls-3" d="M4.64,61.98c-.2-.3-.03-.39.11-.06l-.11.06Z"/><path class="cls-3" d="M36.4,84.11c-.42-.05-.05-.16.01-.25.17.08.01.14-.01.25Z"/><path class="cls-3" d="M10.68,69.61c-.34-.45,0-.27.12-.24.13.2-.11.14-.12.24Z"/><path class="cls-3" d="M17.86,76.64c-.41-.32,0-.28.11-.31.27.3-.09.15-.11.31Z"/><path class="cls-3" d="M2.09,52.08c0-.1,0-.19.01-.22.29.01.18.38-.01.22Z"/><path class="cls-3" d="M70.89,71.74c-.26.12-.33-.03-.26-.18.23-.1.15.15.26.18Z"/><path class="cls-3" d="M16.29,74.67c-.04-.66.94-.62,1.37-.9-.05.58-.96.65-1.37.9Z"/><path class="cls-3" d="M10.73,67.28c-.05-.22.17-.34.39-.18.07.26-.28.11-.39.18Z"/><path class="cls-3" d="M3.64,52.48c-.04-.29.2-.22.26.06-.12-.07-.19-.01-.26-.06Z"/><path class="cls-3" d="M31.54,81.46c-.13-.05-.2-.31.15-.22-.15.08.03.17-.15.22Z"/><path class="cls-3" d="M6.62,60.21c-.14-.26.02-.28.11-.17.1.21-.09.09-.11.17Z"/><path class="cls-3" d="M6.05,51c-.04-.14.14-.18.21-.13,0,.22-.15.06-.21.13Z"/><path class="cls-3" d="M9.46,60.42c-.07-.12.05-.26.18,0-.05.04-.09.07-.18,0Z"/><path class="cls-3" d="M6.42,51.04c.11-.54.54-.35.7,0-.04-.43.12-.15.21-.31-.06-.56-.3.07-.36-.53.22-.04.71-.18.63,1.05-.3-.06-.74.05-1.18-.21Z"/><path class="cls-3" d="M68.29,68.38c-.18.12-.1-.08-.18-.09.14-.06.3-.05.18.09Z"/><path class="cls-3" d="M7.3,39.79c.06-.87-.91-.9-1.4-1.07-.29-.1-.8.18-1.07-.04,0-.59-.29-.49-.4-.67-.12-.19-.17-.64-.27-.77-.02-.02-.3-.05-.22-.03.17.37.31.84.48,1.21-.21.08-.56-.28-.73-.31.02-.17.08-.05.1-.19-.06-.29-.22.3-.35.16-.11-.58-.26-1.06-.22-1.94,1.38-.3,2.57.92,4.03.3l.12-.67c-1.13-1-2.8-.52-3.83-1.81.05-.05.1.15.14-.08-.12-.1-.24.06-.36.03.39-.98.87-.97,1.23-1.01.16-.02.32.06.48.11.72.24,1.65.25,1.95,1.47.11-.15.12.06.19-.06-.05-.62-.42-.61-.51-1.13.09-.05.18-.55.26-.55.77.1,1.55-1.24,1.93-3.78.12.05.26,0,.39-.08.09-.22.17-.41.26-.74-.3-.56-.82-.75-.36-2.44.36.06.68.45,1.09.2.11-.16.26-.59.39-.9-.25-.83-.82-.9-1.2-1.25,0-.34-.05-.57.21-1.22.65.12,1.22.88,2,.79.2-.02.34.19.64-.24.28-1-.65-.34-.5-1.2-.54.11-.85-.64-1.2-1.02-.17-.18-.56.03-.37-.64.97-.36,1.39,1.46,2.73-.37.29-.82-.35-.49-.29-1.17-.03-.1-.19.28-.2.11-.16-.7-.89-.87-1.26-1.42.09-.29.25-.65.53-1.12.96.47,1.76,1.43,3.01,1.64.13-.19.27-.34.43-.62.2-.59-.23-.6-.34-.91.35-.33.42.13.7.01.6-.82.14-.65.04-.78-.33-.46-.63-1.28-.89-1.75.94.37,1.44,1.23,2.39,1.58.97-1.23-.14-.96-.11-1.51.18-.22.37-.38.48-.58-.48-.27-.8-1-.94-1.61.97-.13,1.42,1.27,2.36,1.18.54-.58.61-.75,1.03-1.1.17-.11.16.07.43-.17.32-.26.21-.33.27-.48.24.04.23.41.58.45.8-.58.47-.7.34-.93.29-.22.27-.1.49-.32.07-.33-.15-.55.05-.9.27-.18.41-.17.55-.31,0-.19.08-.4.09-.59.12.09.63-.2.97-.33.14.1-.07.36.18.35.22-.14.35-.12.58-.21.52-.59-.27-.88.24-1.49.12.81.94,1.04,1.38,1.59.55-.15.79-.27,1.26-.41.38-.4.25-.79.4-1.26.24-.1.44-.17.68-.21.19.49.12,1.11,1.12,1.27.67-.18.59-.47.94-.65.25-.04.29.02.51-.03-.25-.4.6-.75.8-1.04.34-.47-.23-1.12.84-1.45-.05.46.02,1.03-.02,1.51-.02.19-.31.47.58.58.79-.36.13-1.09.96-1.56.19.68-.26,1.13.1,1.8.06.08.44.14.52.23-.04.05-.16.06-.12.15.19.07.35.13.7.18.98.02.4-.74.98-.92-.28.44.8.99.26,1.29.73.3.99.25,1.82.55.46,0,.4-.32.65-.44.19.16.72.34,1.18.54-.2.09-.1.32.76.57,1-.38.3-1.28,1.38-1.54.27.11.26.05.5.14-.05.56-.3,1.17-.23,1.67.05.37-.29.65.41,1.08.14.04.2.03.41.11.51-.49,1.07-.96,1.77-1.33l-.22.71c.53.23.44.42.6.63.43.1.37.1.86.23.86-.56.43-1.41.88-2.04.74.3.68.46.59.69-.25.68-.71,1.24-.45,1.9.45.17.59.19,1.12.26.19-.36.72-.72.22-1.09.76-.11.47-.67,1.46-.68-.38.93-1.09,1.79-1.02,2.82.29.04.25.09.59.13.91-.02.48-.29.56-.46.34-.74.79-1.63.73-2.36.4.03.42,0,.77.07-.17.59-.6,1.09-.7,1.65.23.11.6.04.72.08.7.27-.26.45.21.68.56.07.72-.04,1.14-.05.21-.21.09-.48.11-.72.71-.08,1-.24,1.2-.4.23-.17.28-.34.5-.48.29.35.05.69.44.91.2,0,.21,0,.41.03.4-.14.49-.32.53-.53.04-.21.04-.41.37-.49.29.29-.61.36-.04.64.18.03.36.06.54.12.18-.03.14-.21.32-.24.29.09.43.18.7.3.22.06.15-.1.46.01-.22.1-.44.34-.33.59.2.13.41.15.6.29.39.1.26-.25.51-.28.34.14.39.28.76.46.41.11.26-.32.66-.23.12.15-.05.2-.07.3,1.12.99,2.02,1.12,2.35,1.05.13.31.3.52.9,1.02.35-.12,1.14.62,1.54.61.19.28.4.46.75.78.44.17.77.07,1.05.08.11.56-1.08.06-.47,1,1.09,1.15.5-.54,1.49.38-.09.24-.02.61.24,1.11-.14.1-.35.06-.27.36.11.18.34.43.39.57.66.44.47-.37,1.04-.08-.07.34.26.97.76,1.8.49.35.54-.19.9-.04,0,.18.34.65.34.74-.67-.57-.24.61.55,1.56.34.39.44.01.85.64.16.35-.2.21-.01.59.12.26.3.54.47.77.2.07.37.01.55.02.79.96,1.54,2.67,2.3,4.02.09.31,0,.54.22.89.28.62.37.09.65.71.13.36-.16.16-.13.38.12.31.11.44.29.86.19.33.3,0,.5.35.06.48-.3.13-.39.36.06.28.05.51.27,1.06.29.36.54.08.84.57.1.5-.03.56.25,1.39.21.31.37.26.6.89.16.43.23,1.03.38,1.47.33,1.15.76,2.25,1.08,2.46-.46-1.3-.98-3-1.53-5.06.14,0,.27-.05.23-.38-.39-1.51-.67-.95-1.06-1.91.23-.11.42-.29.41-.79-.15-.45-.26-.54-.41-.95.12-.02-.03-.44-.17-.82-.2-.45-.31-.33-.5-.68.05-.08.12-.14.12-.28-.06-.25-.33-.76-.3-.89.22,0,.22-.3-.04-.9-.3-.49-.45-.39-.7-.7-.16-.37-.26-.59-.45-.82-.16-.21-.2.05-.39-.26-.14-.33.11-.22-.12-.64-.53-.9-.74-.63-1.12-1.02,0-.28-.43-.76-.53-1.12.36-.02.85.21.91-.32l-.5-.8c-.45-.33-.76-.26-1.21-.58.03-.52.94-.06.71-.85-.68-1.04-.97-.52-1.5-.99.12-.1.17-.25.13-.48-.51-.69-.89-1.1-1.16-1.49-.65-.61-.79-.2-1.42-.73.15-.23.47-.14.42-.49-.24-.31-.35-.36-.56-.62-.08-.19.13-.17-.2-.52-1.14-1.23-.97-.15-2.01-1.13.04-.21.53.04.68-.23-.25-.37-.26-.49-.88-1.08-.32-.27-.32-.08-.6-.29.02-.09-.06-.24,0-.31-.53-.41-.79-.64-1.32-1.08-.32-.18-.4-.07-.81-.36-.46-.49.14-.34.06-.61-.53-.42-.83-.4-1.13-.67l.13-.18c-.1-.17-.41-.28-.52-.41.04-.21.35-.15.46-.29-.9-.68.22-.62-.23-1.14-.83-.55-1.17-.55-1.41-.54-.25.02-.45.08-1.13-.2-.52-.3-.55-.47-1.03-.66.01-.2.4-.19.3-.41-.27-.13-.56-.26-.93-.4-.65-.11-.24.33-1.11.12.2-.19.6-.31.43-.6-.41-.16-.64-.16-.9-.28.08-.07-.02-.15-.1-.22-.44-.07-.57-.15-1.1-.21-.71.07-.4.4-1.18.46-.21-.08-1.05-.02-1.28.03-.13.07-.16.15-.22.23-.03.04-.07.08-.14.11-.04.03-.09.06-.18.08,0-.2.04-.28-.04-.47-.32-.02-.54,0-.79.05-.23.32-.34.78-1.02.93-.31-.38.34-.58.14-.98-.25.01-.29-.04-.66-.06-.76.62-1.52,1.33-1.94,2.07-.08.13.12.4-.48.39.27-.92.94-1.81.75-2.82-.73-.11-.92.05-1.07.23-.15.18-.27.38-.91.22-.27-.42.64-.6.27-1-.26-.06-.57-.16-.71-.16-.38.44-.84.83-1.72.96.39-.31.54-.84.98-1.19-.27-.11-.53-.23-.82-.28-.21.11-.28.3-.44.43-.31-.14-.53-.08-.67-.2-.04-.19.5-.31.61-.57-1.68-.64-1.03.34-1.74.45-1.6-.95-2.13-.48-2.78-.2-.15.06-.61.1-.72.16-.31.19-.25.57-.73.57-.59-.68.24-1.34-.39-2.05-.25-.05-.55-.12-.76-.15-.26.17-.47.35-.8.48-.28-.32-.09-.63-.44-.96-2.28-.6-1.85.33-2.93.46-.1-.35.38-.56.11-.83-.77-.02-.71-.11-1.26-.2-.15-.01-.16.02-.35,0-.71.3-.86.89-1.09,1.4-.17.4.14.82-.55,1.14.01-.76-.64-1.57-.47-2.41.07-.36,1.04-.76.1-.94-1.38.11-1.21.63-1.39.99-.07.14-.18.3-.43.43-.07-.05-.29-.05-.48-.06-.08-.54.97-1.09.68-1.58-.43.04-.69.1-.99.15-.56.45-.28.95-.76,1.4-.44.03-.32.11-.68.19-.05-.08-.25-.16-.3-.25-.9.22-.98.39-1.07.57-.59.16-.71.28-.97.42-.05.12.31.18-.23.39-.36-.35.63-1.32-.44-1.23-.73.42-1.06.84-1.32,1.19-.19.25-.11.42-.33.67-.31.13-.63.32-.78.47-.27.33.25.41-.42.86-.29-.2.65-1.25-.22-1.12-1.43.87-.39.95-.73,1.47-.12.12-.63.36-.74.48-.36,1.25.56,1.91.78,2.83.03.13.06.31-.16.6-.33-.41-.61-.85-1.01-1.16-.12-.92-.9-1.41-1-2.47-.26.12-.2-.12-.53.08-.18.16-.35.27-.62.55-.25,1.94.31,3.26.91,4.44.13.25.42.36.29.85-.59,0-.65-.69-1.07-.78-.05-.09.27-.22.17-.26-.76-.23-.61-1.02-1.29-1.29.13-.29.24-.5-.08-.4-1,.96-.45,1.01-.65,1.49-.11-.07-.4.19-.68.41.25-.4,0-.6-.45-.24-.34.52-.43.9-.44,1.19,0,.36.34.51.11,1.04-.43-.14-.86-.25-1.41-.13-.44.56-.49.75-.76,1.19-.1.75.39.77.59,1.04.12.16.31.45.07.92-.4-.39-.96-.42-1.39-1.02-.68.78-.36-.61-1.1.21-.44.84-.17,1.05-.09,1.34.26.89.94,1.4,1.43,1.91-.05.23-.04.4-.24.81-.71.16-.57-.97-1.42-.64.06-.08.24-.32.13-.29-.47.19-.44-.96-1.01-.3-.21.52-.16.74-.08.93-.24.58-.19-.08-.41.39-.48.97.19.53-.1,1.26-.28.24-.08-.67-.51-.36-.16.3-.13.36-.3.69-.08.47.19.47.01,1.06.39.95,1.15,1.8,1.86,2.37.3.24.65.13.38.91-1.11-.28-2.03-1.23-3.22-1.39-.09.02.19-.49.07-.43-.17.13-.37.51-.62,1.14.13,1.62.74,2.2,1.18,3.32-.09-.18-.15,0-.3.12.02-.24,0-.26-.05-.34-.29-.47-.85-.35-1.28-.54-.32-.14-.59-.41-1.01-.34-.36,1.48.45,1,.53,1.74.85.63,2.04,1.41,2.86,2.15-.44.2-.72-.25-1.09-.31-.68-.11-1.5.07-1.79-.84.05-.27.22-.36.12-.41-.06,0-.03-.18-.06-.24-.17.28-.12.79-.22.93-.45.07-.78-.57-1.27-.14l-.15.52c.43,1.55,1.8,1.5,2.49,2.29-.6.04-1.4.5-1.8-.12-.77.31-1.42-1.13-2.28-.56-.06.96.26,1.26.49,1.57.43.54.96.92,1.44,1.29-.03.36-.07.73-.15,1.26-.37-.37-.89-.17-1.33-.25-.44-.08-.76-.79-1.18,0-.03.92.28,1.09.47,1.3.67.72,1.52,1.31,2.31,1.75.05.78.29,1.04.34,1.92-.53.15-1.3-.5-1.64.47.04.45.18.68.36.35.02.13.03.31.09.33.33-.05.79.4,1.23.52.3.08.65-.2.67.66-.33-.62-.83.02-1.3-.19-.29-.13-.9-.04-1.29-.3-.18-.12-.29-.38-.46.29.07.82.37.95.62,1.1.27.16.59.03.8.45.14-.36.29.05.42.12.44.22,1.03-.21,1.4.45-.42-.03-.8.11-1.21-.03-.9-.3-1.85-.85-2.79-.84,0,.26.03.32,0,.66.23.11.45.48.68.45.01,0,.08-.22.1-.21.03.01.1.31.12.32.22.17.51.01.76.22.72.59,1.72,0,2.42,1.44-.46.07-1.04.06-1.41.02-.61-.06-1.34-.07-1.86-.4-.2-.13-.41-.76-.52,0,.1.86.38.54.56.75.08.09.14.37.21.42.42.33.73.17,1.12.38.55.29,1.1.52,1.63.74.45.19.91.33,1.32.61.16.1.36,0,.54.54-.24.69-.79-.07-1.05.4-.05-.11-.09-.32-.16-.28-1.47-.18-2.74-.12-4.07-1.16-.08.93-.61-.84-.67.37,0,.47.12.19.15.43.02.3-.17.62-.05.67.31.41.58-.1.93.13.35.23.82.38,1.15.75.09.1.16.36.24.4.39.2.73-.52,1.16.16-.3.4-.69.57-.9,1.2-.07-.33,0-.33-.09-.52-.13.04-.37-.23-.43-.04.15.35.34-.01.47.58-.46.08-1.01.3-1.52-.87-.11-.02-.07.35-.21.25-.02-.47-.16-.28-.18-.87-.07.7-.42.12-.55.18.12.91.48-.03.55.94.28-.01.59-.1.89.87.02.29-.04.37-.14.36.13.61.31.59.47.7-.08.35-.5,0-.58.35.63.03,1.34-.14,2.07-.02.73.12,1.48.54,2.28,1.63-.75-.19-1.42.16-2.13-.35-.04.55-.89-.5-.79.56.46,1.06.51-.06.87.53-.04-.42.28-.6.49-.26-.56.73-1.57.46-2.15.66.05.29.09.55.27.99.22.26.54.49.6.15.58,1.07,1.18,1,1.57,1.05-.31-.45-.51-.48-.76-.76.76-.07,1.83.03,2.79.11-.64.73-1.8.45-2.33,1.13.38,1.11-.42.29-.56.62.47,1.06.66.63,1.02,1.02.19.4-.21.1.15.7.56.42.65-.12.94-.28.52-.28,1.26-.27,1.66-.72.08-.09.06-.34.13-.43.42-.47,1.42,0,1.15-1.39-.13-.24-.36-.61-.29-.67.71.11,1.37-.32,2.11-.1-.15.23-.62.07-.59.41.37.18.6-.29,1.02.18-.18.33-.98.28-1.07.84.53-.09,1.07-.37,1.39-.67-.2-.33-.28-.36-.44-.66.06-.28.35-.13.48-.36-.07-.26-.24-.24-.37-.42-.18.34-.57.36-.94.38-.38.04-.91,0-1.26.03-.26.02-.51.29-.88-.1-.03-.39.25-.38.51-.42.64-.08,1.49.21,1.77-.4-.16-.48-.32-.65-.49-.97-.14.39-.62-.22-.66.35.26.18.46-.19.82.31.04.14-.02.17-.01.28-.58.13-1.33.12-1.99.27-.27-.37-.53-.89-.77-1.02.91-.35,1.91-.37,2.84-.27-.09-.17-.19-.47-.27-.62-.31-.14-.56.21-.97-.13-.03.44-.34.14-.54.18-.14.03-.21.21-.34.21-.39,0-.88-.54-1.15-.23-.35.42-1.12-.37-1.64-1.08.63.14,1.49-.02,2.21.32.03.18-.14.01-.09.22.17-.03.48.38.52-.06-.08.03-.16.08-.24-.12.58.13,1.11-.41,1.64-.29-.11-.26.06-.09-.05-.35-.31-.55-.49,0-.77-.25.09.38.18.1.27.3-.07.13-.53.16-.53-.42-.17.1-.33-.03-.49-.07-.05.01.15.44.07.46-.2-.14-.38.19-.6-.23.2-.25.51.44.48-.22-.09-.04-.18.17-.26-.03.06-.18.18-.32.32-.36.25-.07.66.29.68-.25-.18-.62-.32-.33-.53-.35-.15-.02-.36-.27-.47-.28-.31-.03-.52.44-.87.07-.02-.31-.1-.84-.19-1.14-.42-.41-.87-.57-1.3-.7.14-.34.6-.09.86-.11.07.06-.07-.46,0-.39.34,0,.61.04.92-.21-.06-.65-.18-.92-.31-1.31,0-1.23-.19-1.95-.38-2.6-.22-.64-.45-1.19-.46-2.06-.3-.36-.67-.59-.77-1.53.38.16.89.12,1.4.18,0-.3.06-.28.06-.58-.09-.88-.59.46-.66-.44-.14.28-.15.25-.2-.01-.03.09,0,.24-.09.29-.51-.27-1.11-.05-1.24-1.52.56-.18,1.02.01,1.58-.15.07.02-.02.47.08.41.07-.01.08-.47.16-.38.41.03.84.15,1.26-.16,0-.15.09-.46.09-.67ZM6.16,52.16c-.02.61-.47-.1-.48.58-.39-.49-.89.07-1.43-.36-.1-.1-.03.17-.06.22-.3-.15-.55.26-.88-.06-.04-.44.21-.17.14-.66.38.26.55-.59.91-.55.16.02.38.3.55.33.4.06.86-.16,1.26.5ZM1.78,32.47c.22-.62.37-.28.58-.2.43.17,1.01.22,1.34.42-.17.54-.39.67-.48,1.19-.12.07-.11-.13-.1-.35-.46.09-.74-1.13-1.34-1.06ZM1.18,35.88c.02-.12.04-.19.06-.21.35.26.77,0,1.23.11.19.04.48,0,.52.2.07.42.15,1.15.15,1.83-.22-.16-.49-.19-.57-.72-.06,0-.11.18-.17.3-.32-.76-.86-.91-1.23-1.5ZM.54,49.6c0-.51.09.09.17-.01-.04.28-.1.19-.17.01ZM23.11,2.42c.33-.12.38.04-.04.21-.12-.04.13-.15.04-.21ZM.88,49.57c.27-.58.69,0,1.1.12.21.06.4-.14.59-.05.08.04.16.27.23.3.45.14.89,0,1.34.18-.97.84-2.33-.39-3.26-.55ZM44.67,4.03l.29.1c.07.12-.26-.01-.24.08-.21-.07,0-.11-.05-.17ZM36.94,2.24c-.68-.16-1.06-.09-1.15.08-.81-.36,0-.69.71-.72.63.2.35.42.43.64ZM45.13,4.24l.29.1c-.29.48-.73.86-1.16,1.25-.33-.63.46-1.06.88-1.34ZM43,3.57c1.12.92-1.25.7-.96,1.55-.71-.42-.11-.59-.13-.9-.01-.17-.33-.44-.25-.55.12-.19.73-.19,1.35-.09ZM23.1,2.7c.34.73.74,1.42.38,2.35-.84.11-1.19-.4-1.01-.94.06-.11-.29.07-.35.04.07-.13.08-.24.2-.38.13-.04.23-.06.24-.02.04-.13.4-.45-.12-.27.48-.31.5-.53.67-.79ZM3.3,30.08c.04-.09.07-.18.11-.19.38.53,1.04-.28,1.25.67-.05.23-.09.13-.13.29.16.02.23.12.31.19-.63.09-1.07-.44-1.53-.96ZM2.98,57.74c.72-.43,1.92-.66,2.72-.68.13,0-.09-.29-.07-.4.06-.05.17.27.25.34.48-.42,1.09-.68,1.89.66-1.74,0-3.09.24-4.79.09ZM27.07,1.74c.13-.02.21-.02.24,0-.47.88-.53,1.71-1.09,2.63-.35-.58.16-1.31-.1-1.66.45-.33-.03-.57.96-.97ZM2,53.64c.08-.49.54.18.71-.24.04.33.11.19.16.52-.2.2-.6-.14-.87-.27ZM4.36,27.39c.03-.12.06-.18.09-.19.41-.05.84.19,1.19.5.69.6,1.84.1,2.1,1.52-.83.61-1.13-.6-1.75-.76-.68-.16-1.16-.42-1.63-1.06ZM17.02,6.76c.36-.22.77-.02.4.31-.46.27-.72.1-.4-.31ZM57.74,6.56c.17.04.25.27-.16.17-.04-.09.07-.13.16-.17ZM48.05,5.71c.05.15.06.49-.51.43.28-.1.16-.33.51-.43ZM52.12,6.55c.34.01.11.13.17.19-.26-.03-.16-.12-.17-.19ZM5.19,61.81l-.16-.3c.29-.03.53-.03.82-.19.06.57-.56.36-.66.48ZM51.13,6.54c.08.02.16.03.17.06.23.38-.35.58-.66.75-.11.06.21.26-.32.17.34-.31.74-.68.81-.98ZM1.75,44.57c0-.15.21-.24.17.11-.08.05-.08-.19-.17-.11ZM7.64,20.35l.14-.29c.12.06.34.27.46.45-.33.33-.33-.3-.6-.17ZM6.29,49.12c-.11-.33-.3-.48-.41-.16-.07-.17-.12-.37-.2-.48-.64.17-1.34-.36-1.99-.59,0-.11.04-.07.04-.21-.26.32-.58-.25-.82-.07-.03-.2-.08-.07-.03-.31-.3.22-.66-.26-.97-.29,1-.45,2.25.14,3.33-.1-.02.28.09.85.21.49-.1-.38-.06-.68-.02-1.18-.09-.93-.66-.88-.78-.69-.26-.43-.5-.22-.76-.31-.08.04-.03-.37-.09-.41-.05.09-.05.45-.1.2.18-.42.43-.28.67-.19.34.13.73.43,1.08.32.31.89.98,2.1.85,3.98ZM24.82,3.08c.2.1-.27.4-.17.55-.15-.01-.44-.29.17-.55ZM29.33,2.16c.47-.06.13.17.24.24-.4.03-.17-.16-.24-.24ZM2.04,42.77c.4-.14,1.17-.11,1.84-.1.46,0,.77.16,1.01.96-.35.72-.73-.17-1.12.26-.04-.1-.04-.34-.09-.41-.4.35-.76.02-1.01-.46-.06.21,0,.21.03.32-.31.44-.36-.7-.66-.56ZM36.91,2.82c.14.28.15.57-.37.65.07-.28.04-.5.37-.65ZM54.18,6.93c.17-.02.31.02.32.06,0,.04-.13.1-.31.09v-.15ZM2,44.68c.48-.49.96-.12,1.4.34-.39.09-1-.04-1.4-.34ZM10.26,15.73c.25-.48.2-.1.26-.09.31.03.84.14,1.11.44-.16.35-.24.63-.46,1.05-.51-.17-.77-.7-.92-1.4ZM57.16,7.06c.22.12.41.22.08.24-.26-.07-.02-.16-.08-.24ZM3.26,34.42c1.18.59,2.49.98,3.64,1.54-.42.34-.73.25-1.16.19-.27-.03-.44-.11-.68-.12-.39-.02-.71-.54-1.11-.52-.08,0-.17.24-.25.27-.22.09-.35-.31-.55-.31.01-.31.01-.61.1-1.05ZM5.86,25.22c.24-.3.1.35.31.23-.27.59-.26-.08-.31-.23ZM7.58,21.02c.18-.3.52-.14.43.19-.07-.12-.28-.07-.43-.19ZM5.26,60.89c-.13-.59.08-.65.32-.76.59-.25,1.36-.61,1.95-1.02.3-.21.53-.49.99-.26.19.48.23.7.29.99-.07-.07-.12-.04-.2-.1.03.66-.51.45-.85.56-.36.11-.4.86-1.04.21.17.72-.49.18-.78.16-.04,0,.05.21.01.23-.04.03-.22-.24-.24-.24-.2.07-.08.43-.46.23ZM6.12,24.64c.89.1,2.12.57,2.87.98-.16.67-.03,1.13-.29,1.81-.26-.33-.77-.29-1.09-.7-.1.04.03-.21.08-.29-.05-.17-.18.35-.24.24-.56-.49-.96-1.25-1.34-2.03ZM54.2,7.12c.81.54-.52,1.18-.46,1.87-.45-.66.51-1.23.46-1.87ZM8.23,19.93c.05-.08.1-.16.14-.17.03.18.27-.04.42-.02.26.02.38.41.57.63.2.22.56.13.46.68-.6,0-1.22-.45-1.6-1.11ZM13.84,11.2c.58-.32.6.45.75.76-.25.33-.31.28-.56.61-.09-.4-.28-.76-.19-1.37ZM20.75,5.32c.11-.07.17-.09.2-.09.15.33.36.85-.14,1.45.07-.48-.12-.88-.06-1.36ZM34.83,2.76c.45.19.07.42-.28.42.04-.16-.04-.38.28-.42ZM12.37,13.17c.44-.34.62.08.99.07-.07.16-.42.64-.55.76.02-.35-.4-.48-.43-.83ZM57.11,7.38c.43.11.03.3-.16.32-.31-.15.34-.14.16-.32ZM9.09,18.71c.46-.13.9.38,1.23.64-.6.37-1.06-.11-1.23-.64ZM55.82,7.4c.26.07.03.21.1.3-.38-.04-.25-.26-.1-.3ZM3.12,52.99c-.04-.41.08-.03.15-.13.04.38-.08,0-.15.13ZM6.02,61.48c-.19-.29.02-.4.15-.08l-.15.08ZM6.15,25.77c.05-.12.1-.19.14-.17.56.93,1.33,1.6,2.04,2.23.16.14.49-.1.37.54-.64-.14-1.23-.29-1.66-.87-.39-.52-.68-.94-.89-1.73ZM46.31,6.45c.16.07.22.16.06.15-.24-.08-.2-.16-.06-.15ZM29.07,2.92c.63-.02-.08.31.16.48-.46-.05-.27-.3-.16-.48ZM58.28,7.95c.18.04.18.07.32.11-.19.28-.25.75-.53,1.11-.42-.48.21-.85.21-1.22ZM3.47,53.9l-.07-.31c.1.02.21.08.31.37-.08.09-.16-.07-.24-.06ZM2.88,41.04c.09-.1.18.1.26-.39.48.03.85-.08,1.01,1.12-.46-.13-.91-.34-1.28-.73ZM8.33,20.91c0-.09.29-.21.22-.01-.18.29-.09-.01-.22.01ZM6.25,61.48c-.16-.32,0-.18.08-.17.1.25.02.21-.08.17ZM50.31,7.57c.3.07.12.09.08.14-.25-.05-.21-.13-.08-.14ZM15.51,10.12l.21-.23c.17.23.49.4.55.68-.58.36-.58-.33-.77-.44ZM48.08,7.15c.18.6.06,1.31-.1,1.71-.44-.11-.37-.22-.67-.33.31-.52.27-.92.78-1.38ZM52.63,7.87c.09,0,.17.01.19.04-.63.64-.49,1.31-1,1.97-.96-.34.26-.85-.23-1.18.51-.23.54-.6,1.04-.83ZM39.33,4.43c.35.08.18.25.04.22-.46-.15,0-.14-.04-.22ZM5.01,30.65c.03-.12.06-.18.08-.19.27.03.62-.04.94.04.46.13.89.5,1.3.57.06,0,.2-.17.3-.33.07-.24.04-.31.14-.48.09-.49-.18-.36-.24-.59.16-.27.3-.08.46-.17.13-.19.19-.64.27-.75.07.18.29.25.45.14-.05.56-.3,1.78-.67,2.68-.15.05-.29.33-.43.5-1.06.09-1.96-.29-2.59-1.42ZM19.71,6.7c.5-.18.12.42.38.4-.45.34-.33-.21-.38-.4ZM3.67,53.43c.07-.46.37-.67.56-.21-.2.02-.29.52-.56.21ZM3.5,38.49c.84.16,1.5.52,2.08,1.69-.77.15-1.87.54-2.08-1.69ZM8.11,22.07c.42.36,1.69-.29,1.16,1.39-.45-.34-.97-.73-1.16-1.39ZM5.12,58.37c-.06-.16-.04-.18-.08-.31.95,0,1.81-.01,2.77-.02-.36,1.01-1.83.12-2.69.32ZM36.26,3.76c.38.11.15.36.02.41-.39-.11-.13-.35-.02-.41ZM24.96,4.22c.16-.05.18-.03.31-.06-.26.47-.02.94-.23,1.52-.6-.25-.23-.91-.08-1.46ZM18.01,8.15c.31-.21.36.08.31.22-.42.31-.27-.11-.31-.22ZM44.34,6.31c.34.18-.08.19-.03.41-.38-.19-.05-.33.03-.41ZM45.37,6.75c.37.09.13.2.04.19-.21-.08,0-.13-.04-.19ZM15.09,11.16c.29-.23.43.09.47.14-.37.28-.49,0-.47-.14ZM13.07,13.8c.16-.16.36-.45.49-.54.71.71,1.25,1.54,1.73,2.49-.3.36-.46.08-.38-.15-.55.12-.35-.5-.96-.43-.16.01.17-.37.01-.36-.65.23-.68-.58-.88-1.01ZM22.06,5.71c.14-.09.17-.07.28-.13.34.69,1.18,1.35.84,2.3-1.04-.29-1.07-1.34-1.13-2.17ZM71.91,19.39c-.05.63-.73.46-1,.77-.21-.76.49-.89,1-.77ZM50.73,8.16c.12,0,.18.02.2.04.04.3-.49.53-.72.72-.1.09.22.31-.36.26-.22-.13.19-.15.15-.27-.02-.06-.29-.17-.29-.18.03-.06.44-.05.54-.1.26-.13.1-.34.48-.47ZM17.59,8.79c.18-.06.33.12.24.28-.21.06-.52.06-.24-.28ZM3.68,51.11c.05-.61.37.2.42-.26-.01.62-.28.11-.42.26ZM35.17,3.88c.58.66-.01,1.19-.13,1.81-.25-.46-.41-1.38.13-1.81ZM12.06,15.5c.22-.29.34-.05.33.09-.24.31-.31.02-.33-.09ZM14.1,12.63c1.03-.94,1.1.21,1.47.65.2.24.64.15.43.72-.7-.53-1.36-.77-1.9-1.37ZM63.27,11.11c.29.16.15.35-.1.14l.1-.14ZM73.07,21.23c.13.42-.28.19-.46.2-.11-.41.23-.29.46-.2ZM60.25,9.48l.28.13c-.4.43-.6.89-1.15,1.12.12-.6.72-.84.87-1.25ZM3.48,44.81c.03-.24.16-.04.12.31-.09.11-.03-.39-.12-.31ZM28.95,3.78c.46.11.18.52.19.75-.17-.21-.35-.48-.19-.75ZM71.14,18.81c.09.16.19.31.1.32-.08-.15-.27-.46-.1-.32ZM4.27,53.52c-.02-.16.05-.1-.03-.41.56-.26,1.16-.26,1.75-.03-.13.41-.51.23-.64.74.21.18.48-.35.74.24-.44-.04-.55.35-.95-.19-.13-.43.14-.03.08-.32-.27-.26-.68.21-.94-.02ZM43.03,6.34c.34.46-.12.91-.58,1.06-.31-.49.23-.77.58-1.06ZM18.15,8.65c.28-.27.21-.07.38-.19.56.77,1.48,1.38,1.39,2.57-.26-.09-.57-.23-.57-.52-.66-.43-.72-1.37-1.2-1.86ZM37.24,4.59c.34.71-.15,1.55-.33,2.08-.72-.45-.03-.67-.05-.98-.03-.32.13-.79.38-1.1ZM38.03,4.8c.29.33.22.86.01,1.07-.49-.32,0-.76-.01-1.07ZM41.56,5.9c.46.16-.09.09.03.22-.21-.09,0-.14-.03-.22ZM73.97,22.86c.1.13.08.16.15.27-.51-.11-.72.53-1.37.16-.25-.45.18-.43.32-.33-.22-.45.13-.18.04-.52.06.14.2.34.09.31.33.28.5.03.77.1ZM26.14,4.46l.3-.08c.06.04-.05.08-.07.12-.18.04-.24.02-.23-.04ZM63.21,11.39c-.1.37-.08.81-.57.84-.31-.48.45-.59.57-.84ZM17.54,9.36c.15-.14.14-.04.34-.24.11.4.56.68.54,1.06-.59.4.03-.58-.52-.28.1-.32-.37-.13-.17-.49-.04-.06-.3.12-.19-.06ZM10.9,18.16c.48.32.9,1.12,1.38,1.33-.49.64-.95.16-.88-.25-.14-.22-.61.26-.52-.28-.17.07-.19.06-.31.06.13-.32.13-.48.33-.87ZM26.08,4.63l.3-.08c.04.05,0,.11-.27.17l-.03-.09ZM30.41,3.93c.15.29.52.84.24,1.23-.15-.12-.16-.27-.21-.42-.1-.07-.09.08-.29,0,.41-.19-.02-.59.26-.82ZM39.61,5.6c.27.2-.29.36-.2.64-.48-.25-.05-.56.2-.64ZM78.02,31.14c.11.26-.01.27-.1.15-.08-.21.08-.08.1-.15ZM10.42,19.52c.27-.44.14.11.29.04-.15.18-.18-.05-.29-.04ZM57.84,9.21c.15.08.3.38-.17.26.06-.08-.03-.25.17-.26ZM54.05,9c.31.05-.09.17.12.22-.39-.02-.1-.14-.12-.22ZM4.87,53.82c-.05-.23.09-.08.12-.03.03.17,0,.23-.05.22-.02-.12-.04-.18-.07-.19ZM15.48,12.04c.06-.08.13-.16.2-.23.69.14.69.97,1.04,1.29-.81.1-.8-.82-1.24-1.06ZM61.94,11.11c.23.22.11.45-.25.22-.05-.09.28-.03.25-.22ZM76.41,28.29c.14.29-.03.21-.09.27-.19-.35.07-.17.09-.27ZM74.95,25.73c.3.44,0,.39-.15.09l.15-.09ZM9.91,21.2c.07-.15.1-.15.16-.26.41.54.86.88,1.32,1.29-.27.47-.21.03-.29-.03-.43-.29-.94-.56-1.19-1ZM71.7,21.08c.11.19.16.33.06.33-.1-.19-.21-.45-.06-.33ZM24.87,5.78c.23-.09.21,0,.23.06-.32.16-.16-.04-.23-.06ZM4.63,42.21c.06.02.13.03.1.31-.07.02-.14,0-.1-.31ZM39.21,6.2c.56.26-.46.11-.3-.07.14.04.27.09.3.07ZM25.57,5.69c.63.11.45.74.36,1.08-.39-.18-.2-.75-.36-1.08ZM4.76,46.24v-.4c.17.05.38-.06.42.59-.21.19-.29-.34-.42-.19ZM38.96,6.33c.31.06.24.29-.05.17l.05-.17ZM4.89,44.64s-.01-.25-.01-.4c.09.18.28,0,.34.31-.04.47-.26-.17-.32.09ZM62.28,12.23l.25.16c.07.22-.34.18-.38.4-.32-.3.15-.35.14-.55ZM9.21,24.74l.11-.28c.07.06.21,0,.19.18-.13.28-.32.31-.3.09ZM38.89,6.56c.35.09.11.13.15.2-.35-.09-.1-.13-.15-.2ZM5.48,39.67c.03-.19,0-.06,0-.4.44.15,1.19.1,1.52.58-.25.58-.69.2-.92.49-.2-.18-.45-.57-.6-.67ZM29.71,5.34c.25,0,0,.13.01.17-.2.01-.1-.14-.01-.17ZM7.9,28.95c.09-.3.15-.29.21-.25-.08.27-.15.26-.21.25ZM18.52,10.58c.22.18.65.65.97.92.09.08.48-.02.06.46-.55-.25-.91-.79-1.02-1.38ZM9.42,24.93c.05-.15.09-.15.13-.27.08.22.31.03.29.33-.19.26-.23-.1-.43-.06ZM29.63,5.55c.16.05.26.14.02.22-.37.02-.1-.16-.02-.22ZM28.06,5.78c.24.18.56.66-.39.82.18-.27.14-.59.39-.82ZM45.3,9.06c.22.09.05.18-.24.05-.06-.1.12-.06.24-.05ZM39.53,7.2c.57.31-.11.4.09.68-.45-.29-.24-.59-.09-.68ZM53.82,10.59c.53,0,.07.17.01.22-.55-.02.07-.13-.01-.22ZM6.33,53.01c-.06-.27.07-.19.13-.22.07.32-.05.37-.13.22ZM36.72,6.64c.15.03.16.07.28.1-.16.1-.06.19-.09.33-.53-.15-.11-.29-.19-.43ZM16.75,13.13l.15.13-.12.15c0-.1-.28,0-.03-.28ZM29.67,6.07c.1-.02.16-.02.18,0,0,.32.22.58.28.86.06.26-.04.51-.64.81-.67-.14-.55-.67-.74-1.1.7.04.5-.41.92-.57ZM20.43,9.79c.5-.2.09.35.31.41-.49.18-.11-.33-.31-.41ZM30.58,6.05c.37.04.11.25.19.37-.41-.05-.32-.31-.19-.37ZM8.9,28.33l.09-.28c.08.05.24-.02.12.35-.08.13-.22.08-.21-.07ZM16.13,14.23c.23-.29.3,0,.27.09-.17.14-.17-.09-.27-.09ZM53.72,10.97c.47.01-.05.16.13.27-.26.02-.17-.04-.36-.04.15-.11.15-.14.23-.23ZM6.99,54.14c-.02-.28.21-.14.29-.17-.01.22-.21.08-.29.17ZM55.54,11.21c.46.06-.02.09.07.2-.16-.03-.03-.14-.07-.2ZM11.56,22.63c.16-.3.12-.07.11.05-.16.3-.12.07-.11-.05ZM43.15,9.87l.3.1c-.02.07,0,.17-.34.04l.05-.14ZM20.41,11.07c.21-.17.19.05-.04.23-.08-.03.03-.15.04-.23Z"/><path class="cls-3" d="M29.87,78.71c-.08.73-.5,1.64-1.22,2.21-.05.04-.27-.02-.34.01-.33.13-.03.49-.21.63-.24.19-1.38.09-.42.56,0-.12.47.05.68.05.48-.03.34-.41,1.11-.28-.21.43-.25.88-.89,1.08.06.32-.08.61-.57.69.49.33-1.05.13-.08.65,1.03.32.89-.09,1.27-.19-.19-.05-.3-.03-.34-.08.66-1.56,1.38-3.29,3.44-4.28.37.26,0,.53.05.79-.26-.06-.31-.12-.3-.02-.11.09.26.02.29.11-.13,1.55-.81,2.71-1.04,3.61-.55-.04-.56.2-.31.38,1.37.34.78-.15,1.21-.19-.27-.12-.37,0-.56-.15.28-.03.19-.23.4-.29.36.05.14.12.43.17.1-.02.1-.08.46-.02.76-.88,1.23-2.05,2.48-2.81-.25.81.12,1.97-.45,2.78.15.08.09.18.32.26-.55.02-.41.32.08.43.89.11,1.36-.58.72-.69-.33.02.09.28-.24.3-.26-.66-.14-1.22-.1-1.82.04-.73-.29-1.57.24-2.18.38-.42.98-1.02,1.51-1.47.18.07.05.22.09.32.03.08.3-.1.38,0-.08,1.54-.34,3.21-.88,4.69-.02.04.22.1.22.15,0,.11-.14.35-.23.52-.19.39-.85.78.09.91.73-.1.41-.31.58-.49.34-.04.4.01.91,0,.44-.65.81-1.4,1.24-2.08.11-.17-.08-.37.6-.55.12.15-.13.24-.29.35.1.03.43-.01.32.09.03.55-.59.94-.12,1.45-.23.22-.55.51-.29.72.38-.06.47-.02.67-.02.74-1.22,1.21-2.47,1.37-3.67.08-.59-.1-1.15,0-1.71.03-.15.13-.39.52-.55,0,2.35.11,4.4-.69,6.6.32-.05.3,0,.57-.04.57-.19.3-.32.4-.49.32-.56.65-1.18.96-1.81.3-.66.6-1.32.87-1.91.07-.16-.14-.31.33-.5.16,1.24-.12,2.13.04,3.16-.33.16-.51.58.1.53,1.19-.38.54-.64.61-.91.01-.04.27-.14.3-.19.47-.71.54-1.49.62-2.22.11-1.12-.37-2.18-.05-3.34.24-.02,0,.2.24.18.01-.05-.13-.1.17-.13-.02,1.72.39,3.53-.55,5.42.22.03.47-.19.63-.16-.25.35.16.51.27.7.14.25-.69.67-.15.84.01-.07.2,0,.44-.09.41-.17-.4-.22.15-.36.26,0,.14.17.49.12,1.06-.23.57-.32.67-.5.43-.89.78-1.9.89-2.84.1-.81-.2-1.52.28-2.32.27,1.01.49,1.84.74,2.79-.2.08-.21.16-.37.24.4.49-.22,1.44.71,1.62.98-.37.61-.62.74-.94.19-.49.2-.95.47-1.32-.31-.25-.1-.59.02-.93.6.65.2,1.28.2,1.95.71-.03-.65.97.75.54.52-1.24-.23-2.34.34-3.5.53.23-.21.86.54.88.05.42.14,1.19.18,1.73,1.2-.43.86-.68.91-.93.14-.71.34-1.42.55-2.08.18.34.61.78.28,1.27.53.23-.06.97.58,1.18.04-.09.22-.06.4-.15.17-.37-.3-.77.29-1.27.07.12.04.3.25.33.49-.14.41-.32.66-.34.14.05-.28.43.22.25.59-.25.36-.35.38-.44.14-.46-.21-.6-.19-.97.01-.28.13-.59.08-.85-.15-.83-.02-1.71-.58-2.33,0,.95.38,1.43.25,2.35-.37-.07-.53-.39-.54-.73-.03-.56-.04-1.21.14-1.71.03.03,0,.1.13.05.28-.35-.49-.39.07-.84.21,1.26,1.47,2.46,1.2,3.95.65-.16-.12.46.41.41-.39.48-.27.85-.26,1.25.22-.11.37-.16.41-.13.47-.19.11-.22.63-.42.2-.07.11.08.34-.02.36-1,.48-2.11.11-3.02-.11.2.13.33-.19.57-.18-.31-.42-.55-.17-1.09.66-.13-.14.56.51.36-.1-.58.15-1.57-.51-1.8.1.43.12.88.18,1.33-.6-.26-.41-1.07-.31-1.62.27-.06-.16.34.38.09-.1-.73-.56-1.08-.48-1.91,1.03,1.36,1.15,3.23,2.28,4.43-.29.17-.22.04-.41.13.21.5.81.53.89,1.1.26-.04.67-.4.76-.39.04.07.18.16.26.28.57-.29.78-.51,1.11-.68.04-.09-.26-.08.11-.25.49.18.04,1.01.76.97.6-.32.67-.69.7-.77.18-.6-.19-1.07-.17-1.65,0-.26.18-.6.16-.81.77.07-.21,1.19.62,1.09-.14.23-.53.96.28.49.36-.27.31-.42.12-.45.41-.8-.03-1.4-.07-2.03,0-.13-.02-.32.37-.62.42.67.24,1.73.86,2.45.23-.07.38-.31.66-.4.29.16-.09.8.22.79.71-.39.49-.69.58-.95.78-.53.81-.85.88-1.12-.44.26.14.1-.3.36-.07,0,.04-.18-.16-.04-.09.09.02.1-.24.26,0-.29-.39-.26-.15-.64.32-.25.38-.2.67-.41.49-.46.27-.63.52-1,.17.04.21.22.43.21.11.03.39-.35.47-.3l.15.2c1.06-.68-.11.64.91.08.3-.17.21-.29.56-.6.04.06.05.17.36-.11.04-.08.16-.2.32-.34.46-1.31-.51-1.77-.63-2.8.41-.18.24.21.81-.24.79-.74.23-.76.56-1.32-.13-.11-.22-.29-.43-.27.32-.56-.17-.66.09-1.09.07.1.18.08.36.19.21-.17.25-.37.37-.38.45.13.27.88.66.88.59-.54.46-.65.61-.93.02.19.35-.31.62-.65.09-.44-.16-.6.25-1.31-.16-.21-.39-.13-.23-.67.5.13.29.95.85.83.65-1.19.33-1.51.15-1.86-.23-.43-.64-.55-.61-1.17.83-.31.89,1.32,1.76.41.32-.81.11-.99-.01-1.22-.11-.22-.23-.53-.36-.73-.23-.33-.67-.27-.42-1.15.59-.12.89,1.14,1.53.65.38-1.56-.44-1.52-.65-1.78-.01-.28-.17-.31-.24-.49.55-.3.65.89,1.23.54.17-.67.07-1.07-.07-1.33-.14-.26-.34-.39-.49-.54-.46-.45-.84-.96-1.19-1.43l.63.09c.07-.02.06-.44.12-.39.44.1,1.07,1.02,1.6.86.14-.56,0-1-.07-1.2-.47-1-1.36-1.1-1.82-2.02-.09.23-.28.29-.32-.12.3-.58.92.4,1.04-.76.35.02.59.11.89-.18.02-.33-.03-.37,0-.73-.21-.39-.55-.63-.73-.93.04-.33.14.19.17-.1.08-.39-.15-.61-.06-1.03.31.13.64.5.99.09.03-.52-.07-.51-.06-.94-.54-.75-1.35-.74-1.73-1.89.35-.43.81.92,1.08-.15-.07-.73-.42-1.12-.59-1.82.14-.04.43.11.6-.24-.05-1.23-.34-.78-.51-.79-.55-.04-1.35-.42-1.91-.51-.1,1.19.26,1.53.47,1.81.02,1.25-.48.18-.67.44-.15,2.21.89,1.86,1.12,2.89-.31.03-.55-.28-.87-.17-.28,2.83,1.03,2.02,1.19,3.4-.37-.26-.88.02-1.25-.22-.43,1.96.82,2.05.84,3.1-.33-.18-.61-.69-.99-.48-.12.55-.43.65-.44,1.39.33.75.83.97,1.09,1.83-.47.14-.83-.62-1.16-.23-.05.37-.04.28-.12.65.04.35.16.45.16.81-.1.13-.18-.2-.34,0-.17.35-.14.62-.24.8-.14.21-.12-.17-.26.01-.12.3-.09.31-.27.68.08.3.28.45.38.74-.5.37-.76-.25-1.22-.4-.11.17-.2.22-.34.61-.06.57.05.85.35.96-.17.36-.2.43-.24.7-.54-.3-.81-.89-1.48-.93-1.17,1.6.6,1.38.33,2.24-.43.41-.33-.2-.52-.25-.21.25-.18.2-.45.55-.06.35.3.39.16.81-.32-.33-.86-.38-1.25-.68-.13-.1-.21-.28-.33-.3-.13-.03-.28.09-.72.52-.49.84.6.66-.09,1.59-.25.23-.25,0-.5.24-.24.22-.26.29-.53.49-.53-.05-.42-1.03-1.36-.47-.33.45-.2.68-.21.99-.37.3-.32.04-.7.42-.3.26.15.25,0,.45-.24.16-.37.2-.57.31,0,.08.09.12-.14.28-.25-.05-.06-.46-.66-.14-.23.24-.21.24-.58.44-.17.52.49.3.71.55.08.09-.05.33.04.39.03.03.36-.08.43-.04.09.06.05.13.13.18.23-.05.18-.24.3-.24.03.27.65.38.34.82.19-.11.35-.18.39-.12-.11.75.45,1.27.4,1.98-.89-.91-1.38-1.86-2.4-2.69-.5.04-.48-.43-.83-.59-.69.46-.64.15-1.16.44.14.05-.35.4-.38.46-.22.36.19.48-.82,1.04-.43-.15.38-1.39-.76-.78-.52.43-.38.63-.66.97-.31.17-.35.12-.62.26-.41.34-.23.54-.34.81-1.12.43-.14-.81-1.43-.26.07.07-.12.29,0,.42-.21.11-.29.09-.43.22-.32.56.94.61.18,1.26-.77.05.18-.96-1.16-.37-.11.3.09.55-.64.96-.58-.42-.3-1.16-.85-1.4-.05.1-.24.07-.44.2-.36.53.47.42.23.76-.03-.02-.01-.07-.12-.03.18.26.56.32.18.65-.17.07-.19.11-.35.18-.56.21-.19-.13-.49-.13-.25.13-.25.07-.46.18-.62.9.45,1.15.33,1.8-.02.1-.2.22-.2.3,0,.38.36.61-.09,1.09.02.12.61.22-.13.5-.44-.88-.32-2.07-.9-3.01-.13-.02-.39.06-.43-.02.02-.27-.15-.62-.39-.72,0,.06-.39.16-.45.17-.63.54.8.7-.63,1.32-.08-.14.16-.32.03-.46-.26.11-.3.05-.56.16-.36.56.58.72-.22,1.4-.19-.5-.85-.45-.58-1.05-.71.07.23-.68-.75-.4-.61.44.82.64-.28,1.25-.23-.21-.24-.7-.23-.99-.27.08-.37.05-.56.09-.3.18-.17.34-.43.51-.19.02-.2-.07-.57.07-.23.23-.11.51.17.59-.15.78.92,1.25.03,2.2-.18-.7.11-1.45-1.17-1.68-.47.16-.41.37-1.15.49-.72.36-.87.76-1.3,1.15-.1-.22-.03-.62-.17-.82-.94.1-.64.46-.83.68-.49.02-.89.25-1.21.23-.05-.46-.03-.74-.17-1.15-.36.05-.27.04-.63.07-.24.17-.37.3-.13.43-.46.3-.2.58-.08.85.23.54-.29.98-.61,1.46-.17.25.07.48-.53.73-.34-.63.42-1.6-.1-2.25-.43,0-.54.14-.92.25-.11-.12-.58-.17-.67-.33-.09-.18.51-.44-.2-.52-.83.05.04.57-.53.69-.47-.14.01-.54-.19-.69-.94-.02-.84.27-.64.42-.38.1.05.21,0,.35-.09.23-.85.48-1.14.67.12.25-.11.58-.62.78.09-.8.18-1.39-.39-2.1-.37-.02-.42-.09-.71-.13-.39,0-.67.14-1,.07.15-.02.15-.13-.16-.14-.12-.02-.23-.05-.35-.08-.61.24-.31.75-.48,1.1-.12.25-.41.46-.62.67-.31.31-.57.67-1.2.87.27-1,1.03-1.76.78-2.78-1.41-.29-.74.42-1.07.5-.36-.23-.94-.48-1.51-.68,0-.11.17-.21.02-.33-1.13-.41-.66.04-.75.18-.09.14-.33.24-.6.32-.26.07-.54.09-.71.15-.5.16-.61.56-1.32.54.2-.65,1.55-.99,1.28-1.82.05-.22.29-.4.2-.64.22.03.4-.13-.12-.36-.89-.2-.32.57-.58.79-1.42-.27-1.66.41-2.53.52-.15-.54.93-.68.57-1.35-.34-.22-.39-.15-.65-.37-1.04.7-1.19,2.53-3.38,2.4.35-.49.66-1.04,1.02-1.46.6-.7,1.45-1.3,1.93-2.13-.71-.44-.91-.32-1.83-1.09-.1-.13.07-.14-.2-.34-.29-.17-.27-.21-.52-.4-.54-.28-.29.34-.81.08-.45.84-2.29.68-3.63.62.8-.85,2.45-1.32,2.83-2.41-.22-.18-.23-.26-.39-.42-.21-.16-.3-.11-.47-.2-.11,0,.25.3.11.29-1.08.01-1.36.62-2.29,1.05.4.23.56.1.7,0,.46-.32.92-.68,1.69-.75.04.58-.48.69-.84,1.01-.52.47-1.21.83-1.77,1.26-.43.33-1.54-.18-2.11-.1-.64-.34-1.15-.22-1.77-.81,1.47-.84,3.63-1.72,4.72-2.97-1.15-1.35-.6-.03-1.26-.56.03.58-1.31.11-1.01.91.25-.28.99-.13,1.37-.31.15-.07.01-.55.54-.1-1.12,1.04-3.07,1.87-4.46,2.55-.1.05-.02.44-.54-.09.57-1.1,1.64-1.72,2.53-2.5.65-.56,1.73-.77,1.24-2.36-1.08-1.46-1.2-.92-1.86-1.51.1-.08.22.01.21-.17-.15-.19-.23-.21-.31-.38-.34-.23-.62-.36-.58-.05-.14-.05-.29-.14-.42-.18-.02.5-.72.2-.98.5-.7-.34-1.13-.06-1.92-.59.65-.47,1.59-.37,1.96-1.08l-.42-.56c-.65-.13-1.08.49-1.78.67.68.53.79-.26,1.36,0-1.47.82-3.1,1.29-4.44,1.84.2.23.13.24.29.44.58.48.84.2,1.2.16-.21-.34-.1.05-.31-.29.75-.49,1.64-1.5,3.23-.49-.67.31-1.89.22-2.38.76.92.09,1.49-.3,2.25-.41.39-.06.6-.4,1.17,0-1.1.15-1.57,1.06-2.86,1.03-.03.57-1.02.13-.94.84.62.87,1.06.89,1.09.62-.26-.31-.23.01-.48-.29.05-.31.48-.21.71-.41.89-.77,2.22-1.7,3.44-1.77.34-.02,1.38.2,1.9.63.15.12.58.49.62.76-.12.01-.5-.58-.63-.62-.6.18-1.42.7-1.95.95.72.33.85-.26,1.45-.16-1,.84-2.23,1.51-3.44,2.17-.06.05-.21-.11-.31-.15.28.65-.59.18-.62.64-.23-.15-.6-.34-.51,0l.4.5c.25.07.61.1.45-.23.02-.14.31.28.38.24-.03-.89.98-.84,1.64-1.23,1.05-.62,2.16-1.72,3.16-2-.34,2.12-2.59,2.42-3.64,3.63-.35.42.08,1.2-.23,1.61-.37-.36-.6-.21-.55.05.71.8,1.09.75,1.4.77.19,0,.21-.2.5-.03.02-.07-.01-.17-.03-.26.99.53,1.61.39,2.59.89-.96.58-1.66.74-2.41,1.35,1.1,1.1,1.38.66,1.62.54-.27-.15-.33.02-.73-.35.12-.02.23-.06.42.04.63-1.7,2.68-1.74,4.99-1.58-.05.16-.34.19-.23.42.77-.07.94-.88,2.1-.54-1.52,1.16-3.19,2.25-4.49,3.49-.31.03-1.09-.1-.75.53.1.03.25.15.45.33,1.45-1.51,3.49-2.8,5.14-4.18.16-.13.05-.42.95.15.08.69-.29,1.2-.87,1.32-.21.34-.43,1.05-1.1.97-.02.03.22.18.21.22-1.07.12-1.36,1.28-2.15,1.62.2.27.7.45.79.59-.04.2-.44.08-.17.42-.4-.27-.48-.01-.4.17.8.68.8.37.99.34.48-.07,1.1-.17,1.16-.54-.38.02-.41.4-1.08.05.16-.43.58-.6,1.08-.67.51-.08,1.13-.11,1.66-.18.15-.02-.03-.29.51-.04-.42.79-1.24,1.21-1.54,2.1,1.05.66.85.17.8-.06.37.34,1.1.26.79-.07-.29-.08-.18.23-.62,0,.44-.79.41-2.11,1.85-2.37.78-.13,1.21-.54,2-.7-.26.36-.09.9-.52,1.25-.18.14-.46.35-.78.45-.04.01-.28-.06-.32-.04-.28.15-.28.46-.56.61-.12.06-.46-.05-.6.01-.28.11-.21.5-.74.44.42.21.15.2.51.4.36,0,.77-.05,1.06-.17-.15.84-1.29,1.43-1.77,2.16.43.2.47.27.83.4.24.03.32-.06.35-.19-.09-.08-.26-.18-.26-.24.67-1.42,2.23-3.08,4.51-3.61-.06.56-.64.8-.75,1.33.54.01.5-.35.68-.63.21-.32.45-.66.81-.79-.7,1.24-1,2.58-2.16,3.61.15.56-.76.86-.87,1.55.98.41,1.01.1,1.23,0,.37-.18,1.01-.32.72-.66-.12.14-.2.33-.8.24-.2-.26.16-.35.21-.55.41-1.61,1.88-2.9,2.04-4.35.23,0,.46.02.83.13.58.55.16.81.12,1.19ZM71.24,74.81c-.28.19-.33.05.02-.17.11,0-.1.14-.02.17ZM70.25,75.32c-.77.17.03-.8-.61-.76.26-.22-.17-.21.32-.51.1.44.4.8.29,1.27ZM60.77,79.6l-.29.13c-.08-.1-.08-.21.18-.38.32-.07-.06.21.11.25ZM65.76,77.15c-.85.25-.48-.33-.74-.48l.38-.19c.35,0-.22.56.35.43-.53.3-.05.18,0,.25ZM64.33,77.66c-.43.19-.2-.19-.36-.23.51-.2.17.15.36.23ZM71.7,73.28c-.31.17-.18-.02-.2-.1.17-.08.35-.07.2.1ZM60.73,79.26c-.28-.25-.72-.65.02-1.22-.09.38-.06.8-.02,1.22ZM49.01,83.45c-1.11-.7-.04-2.21.2-3.32.11-.47-.05-.86.45-1.37.07,1.51-.11,3.12-.65,4.69ZM66.32,76.39c-.24-.34-.13-1.12-.57-1.48.96-.07.61.95.57,1.48ZM71.57,73.1c-.15-.22-.3-.43-.82-.42.31-.21.33-.24.87-.64.13.31.17.68-.05,1.06ZM43.25,84.26c-.23.04-.29.02-.44.02.14-.07-.04-.18.42-.22.25.03-.09.11.03.2ZM66.87,75.61c-.32.18-.2-.02-.18-.1.21-.11.1.08.18.1ZM11.75,71.79c-.13-.32.21-.32.68.1-.27-.05-.52-.14-.68-.1ZM45.9,83.55c-.12.03-.19.03-.22.02-.14-1.7-.82-3.43.16-5.32.41,0,.41.11.45.21.14.41.08.92.11,1.39.08,1.2-.21,2.5-.5,3.7ZM57.24,79.98c-.16.07-.18.04-.31.09-.02-.6-.52-1.01-.76-1.59-.24-.6.29-1.5.12-2.13.59-.09.25.28.3.46.31.97.5,2.19.64,3.16ZM57.49,79.75c-.32.07.07-.15-.08-.18.37-.12.04.12.08.18ZM37.83,84.18c-.06-1.58.34-3.68.58-5.23-.12-.13-.39-.37.09-.44.6.2.05.48.11.76.06.31.46.64-.08.94.59.52-.14,1.27-.07,1.85.02.16.26.32.22.47-.14.51-.57.98-.85,1.66ZM61.32,78.03c-.33.1-.17-.2-.23-.25.24-.05.13.19.23.25ZM63.97,76.71c-.22.1-.09-.09-.17-.11.45-.24.34-.01.17.11ZM66.83,75.09c-.42.21-.21-.18-.36-.21.42-.21.21.18.36.21ZM32.23,83.51c-.5-.34.07-.48.13-.73.29-1.24.16-2.92.89-4.02.21-.32.67-.88,1.61-.92.22.45-.18.85-.24,1.29-.06.41.15.84-.04,1.24-.03.07-.29.12-.32.19-.2.46-.2.95-.49,1.39-.36.55-1.27,1.04-1.55,1.56ZM65.09,75.88c-.3.18-.18,0-.25-.01.28-.15.37-.09.25.01ZM57.58,79.42c-.37.15-.26-.11-.18-.17.23-.06.1.13.18.17ZM70.69,72.4c-.99-.83-1.05-2.15-1.46-3.19.73.02.66.87,1.25,1.05.14.01-.29.26-.18.28.99-.22.31.95,1.19.94-.18.25-.05.35-.06.47-.22.23-.37.18-.73.46ZM41.2,83.64c-.17.03-.19,0-.32,0-.07-1.07-.34-2.47,1.1-3.67-.16,1.13-.36,2.42-.77,3.66ZM61.31,77.51c-.4.18-.17-.13-.31-.16.4-.18.17.13.31.16ZM63.73,76.25c-.42.11-.14-.2-.27-.3.35-.13.35.18.27.3ZM74.54,69.08c-.25.17-.25-.02-.25-.11.21-.13.15.1.25.11ZM43.21,83.15c-.12.02-.19.02-.22,0-.19-1.09.06-2.48.11-3.63,0-.22-.15-.5-.12-.78.02-.18-.09-.38.69-.57.66,0,.31.34.38.52.53,1.25-.58,3.03-.85,4.46ZM19.42,77.28c.06-1.08,1.2-1.2,1.79-1.77-.34.68-.92,1.47-1.79,1.77ZM65.89,74.72c-.24.12-.22.02-.26-.03.44-.22.15-.01.26.03ZM68.33,73.25c-.52.22-.35-.31-.31-.5.31.01.34.26.31.5ZM58.74,78.15c-.27.07-.49.01-.19-.18.34-.1.05.12.19.18ZM69.98,72.11c-.38.25-.2-.11-.34-.12.46-.28.16.08.34.12ZM67.54,73.57c-.26.1-.7,0-.19-.32l.19.32ZM53.15,80.21c-.15-.17-.43-.29-.7-.44.16-.02.23.01.25.09.2-.77-.68-1.2,0-2.16.34.85.33,1.69.45,2.52ZM54.6,79.61c-.75-1.2-1.33-2.65-1.45-4.15-.02-.26-.63-.45.37-.93-.16.38.79.34.18.75.53-.03.39.36.46.64.27,1.17.85,2.2.43,3.69ZM52.61,80.24c-.37.14-.26-.07.06-.15.05.04.02.1-.06.15ZM51.35,80.41l-.3.09-.03-.09c.26-.09.34-.06.33,0ZM59.91,76.95c-.45.2,0-.1-.17-.11.21-.07.31,0,.17.11ZM65.66,74.09c-.1.06-.17.08-.2.07-.25-.4-.56-.81-.61-1.32-.01-.17-.03-.43.27-.76.35.47.77,1.15.53,2.01ZM29.27,81.4c-.12-.04-.18-.07-.19-.09.84-.99,1.51-2.46,2.17-3.73-.1,1.33-.56,2.77-1.86,3.79.02.05-.11,0-.12.04ZM69.64,71.6c-.51.1-.42-.49-.69-.66.5-.09.42.49.69.66ZM73.99,68.15c-.09.08-.15.12-.18.12-.7-.81-1.28-1.49-1.75-2.1,1.22.22,1.33,1.1,1.93,1.98ZM39.1,82.45c-.18,0-.2-.02-.21-.05.22-1.27.28-2.45.46-3.65.43.48.28.94.26,1.4-.01.25.23.51.14.76-.17.45-.7.91-.45,1.43-.19,0-.06.08-.21.1ZM67.01,73.09c-.42.02.05-.59-.4-.68.67-.2.71.31.4.68ZM51.25,80.11c-.11.04-.18.05-.21.04-.36-.67-.48-1.47-.66-2.12-.13-.45-.78-.78-.16-1.47.32,1.11.82,2.16,1.02,3.55ZM64.91,74.23c-.22.09-.1-.1-.19-.13.39-.17.07.08.19.13ZM59.78,76.66c-.41-1.04-1.59-2.05-1.42-3.36.02-.16-.23-.29.38-.6.16-.02.27.13-.09.28.37.07.47.2.33.47-.09.17,0,.07.18.16.16.08.02.26-.12.46.77.59.5,1.74.9,2.44-.11.06-.18.12-.16.15ZM79.55,60.27c-.23.12-.43.07-.41-.3.25-.35.27.23.41.3ZM57.37,77.58c-.09.03-.18.06-.21.04-.14-1.06-.56-1.9-.71-2.95.84.68.95,1.91.91,2.91ZM55.64,78.26c-.34.14-.49,0-.05-.14l.05.14ZM63.83,74.39c-.61-.14-.6-.57-.54-1.03.19.16.53.62.54,1.03ZM55.72,77.89c-.38.09-.32-.1-.3-.2.37-.12.2.14.3.2ZM64.44,73.78c-.22.08-.11-.13-.21-.17.3-.14.3.07.21.17ZM40.2,81.69c-.39.04-.16-.2.09-.23.08.09-.09.15-.09.23ZM81.02,46.37c-.13.48-.53.2-.61-.39.22.05.38.4.61.39ZM80.97,49.65c-.05.16-.11.72-.19.4,0-.28.1-.09.11-.3-.03-.27-.24.09-.21-.41.15-.09.22.11.29.31ZM78.27,61.37c-.2.31-.17.07-.13-.07.12-.19.16,0,.13.07ZM69.05,70.72c-.32.15-.46-.03-.19-.29l.19.29ZM55.59,77.57c-.34.15-.17-.04-.25-.06.34-.15.17.04.25.06ZM40.29,81.41c-.21-.12-.27-.4.16-.56-.12.19.13.33-.16.56ZM67.4,71.74c-.14.09-.16.07-.28.14-.11-.02.09-.13.02-.16.22-.13.22-.03.25.02ZM66.82,71.97c-.35.22-.18-.07-.29-.09.35-.22.18.07.29.09ZM80.74,48.72v.31c-.05.22-.16,0-.17-.31h.17ZM62.1,74.39c-.05.04-.51.06-.19-.15.37-.16.15.09.19.15ZM67.27,71.53c-.32.12-.52-.22-.27-.44l.27.44ZM80.6,47.4v.2c-.24.68-.81-.2-1.11.02-.03-.26-.14-.15-.13-.6.41.12.84.19,1.24.38ZM22.81,76.92l-.26-.16c.28-.38.56-.63.94-.76.25.56-.56.5-.68.91ZM35.04,80.87c-.41-.28.25-.6.28-.89.2.3.06.7-.28.89ZM61.98,74.15c-.22.08-.28,0,.04-.16.05.04.03.09-.04.16ZM70.28,69.13c-.33.23-.3-.07-.05-.24.08.05.08.14.05.24ZM80,53.03c-.07.15-.17-.04-.17-.32.08.04.23-.11.17.32ZM48.83,79.15c-.15.04-.26-.11.06-.17.03.05.05.11-.06.17ZM63.34,73.23c-.27.13-.46-.09-.04-.29.06.08.11.17.04.29ZM70.12,68.91c-.09.06-.08,0-.19.08-.22-.48-.86-.74-.79-1.4.4.47.77.75.98,1.33ZM51.29,78.24c-.38.09-.28-.22-.2-.3.24,0,.11.22.2.3ZM61.82,73.82c-.31.13-.31-.14-.31-.17.17,0,.23.1.31.17ZM77.75,60.1c-.19.36-.15-.07-.22-.11.13-.19.2.03.22.11ZM48.17,79.02c-.11.04-.17.05-.2.03-.03-.64-.35-1.34-.3-1.92.42-.07.44.13.47.25.13.46.11,1.15.03,1.64ZM21.53,75.23c-.17-.13.03-.11,0-.18.22.16.12.24,0,.18ZM76.97,61.43c-.19.29-.22.05-.24-.03.13-.17.15.05.24.03ZM63.81,72.61c-.37,0-.45-.48-.49-.69.42-.01.49.45.49.69ZM63.18,72.93c-.29.14-.29-.05-.19-.15.13,0,.29.05.19.15ZM78.88,56.81c-.16.34-.21-.14-.31-.09.1-.16.29-.06.31.09ZM63.06,72.71c-.34.19-.26-.08-.19-.15.17-.02.26.04.19.15ZM51.2,77.65c-.4-.55-1.09-1.27-.55-1.97.56.37.18,1.34.62,1.87.04.03-.08.07-.07.1ZM23.68,76.07c-.43-.32-.07-.61.35-.39-.12.13-.12.38-.35.39ZM77.3,59.57c-.06.17-.22.23-.15.03.11-.32.16-.11.15-.03ZM40.47,79.75c-.38.01-.02-.12-.21-.2.39-.05.12.14.21.2ZM57.34,74.94c-.11.05-.17.07-.19.06-.23-.22-.29-.55-.37-.86-.06-.23-.53-.36.09-.8.32.48.4,1.15.48,1.6ZM72.17,66c-.21.11-.4-.01-.31-.19.16-.04.18.16.31.19ZM59.75,73.7c-.43.14-.2-.23-.36-.3.4-.12.22.22.36.3ZM64.59,71.14s-.14.11-.24.17c-.34-.13-.34-.57-.18-.93.4,0-.12.79.42.75ZM23.98,75.56c-.19-.15-.16-.48.25-.23-.09.07-.05.27-.25.23ZM10.8,62.47c-.25-.3.02-.21.16,0,0,.11-.14-.08-.16,0ZM74.16,63.47c-.17.26-.15.06-.21.06.17-.21.25-.16.21-.06ZM71.89,65.7c-.46.11-.79-.26-.53-.72.15.25.53.39.53.72ZM38.04,79.22c-.47-.02-.35-.34,0-.37v.37ZM73.74,63.72c-.15.17-.17.12-.34.32-.32-.33-.75-.83-.94-1.33.48.18,1.09.49,1.28,1.01ZM45.37,78.32c-.15.04-.17.01-.29.03-.03-.06.13-.11.17-.16.21-.04.06.09.12.13ZM44.87,78.3c-.24.05-.24-.04-.12-.1.17-.01.26.03.12.1ZM67.08,69l-.25.15c0-.13.01-.25-.17-.27.42-.25.15.15.42.12ZM42.63,78.28l-.28.03c0-.14-.11-.29.14-.39.36,0,.21.27.14.36ZM20.83,72.33c-.29-.35.12-.29.42-.07-.06.13-.32,0-.42.07ZM67.86,67.76c-.32.19-.05-.15-.23-.17.26-.14.28.05.23.17ZM63.45,70.49c-.39-.07-.77-.53-.18-1.12.17.27.28.68.18,1.12ZM68.6,67.17c-.35.14-.38-.09-.51-.22.39-.25.33.12.51.22ZM18.84,70.16l-.2-.2c.05-.07.1-.14.27,0,.31.32-.07.12-.07.21ZM42.57,77.86c-.52-.04-.16-.46-.09-.64.19.14.2.46.09.64ZM69.21,66.57c-.39.18-.37-.1-.39-.21.31-.14.44.04.39.21ZM50.05,75.7l-.37.11c.03-.11.14-.23.19-.34.32-.02.08.13.17.23ZM60.22,71.26c-.32.15-.23-.09-.2-.18.29-.08.08.09.2.18ZM49.45,75.37c-.28.08-.36-.03-.23-.11.22-.04.4,0,.23.11ZM63.27,69.17c-.38.18-.09-.14-.21-.19.51-.29.12.13.21.19Z"/></g></g></g></g></svg>