<?xml version="1.0" encoding="UTF-8"?><svg xmlns="http://www.w3.org/2000/svg" viewBox="0 0 71.9 84.09"><defs><style>.cls-1{isolation:isolate;}.cls-2{mix-blend-mode:multiply;}.cls-3{fill:#5f5c5d;fill-rule:evenodd;}</style></defs><g class="cls-1"><g id="Layer_2"><g id="Layer_1-2"><g class="cls-2"><path class="cls-3" d="M1.27,43.32c.55,12.98,13.11,33.3,22.55,32.28s17.86,10.41,29.91,1.71c12.05-8.7,19.64-40.48,10.74-54.73C55.57,8.35,44.83-2.44,22.44,7.93.04,18.3.64,28.45,1.27,43.32Z"/><path class="cls-3" d="M8.23,12.45c-.43.22-.09-.35-.12-.49.34-.08.05.35.12.49Z"/><path class="cls-3" d="M71.9,35.97c0,.34-.13.21-.12-.2.06-.02.08.16.12.2Z"/><path class="cls-3" d="M44.77,1.52c.25.11-.09.13-.15.17-.19-.08.13-.12.15-.17Z"/><path class="cls-3" d="M68.26,24.35c.14.4-.12.2-.28-.11-.04-.24.19.09.28.11Z"/><path class="cls-3" d="M68.35,24.77c.15.29-.02.36-.11.04l.11-.04Z"/><path class="cls-3" d="M40.78,1.58c.4.1.04.16-.02.23-.16-.09,0-.13.02-.23Z"/><path class="cls-3" d="M63.39,17.16c.28.44-.03.25-.13.21-.1-.2.11-.12.13-.21Z"/><path class="cls-3" d="M57.4,10.03c.33.35-.04.26-.14.28-.2-.31.1-.13.14-.28Z"/><path class="cls-3" d="M70.04,34c0,.09,0,.18-.03.2-.27-.02-.14-.36.03-.2Z"/><path class="cls-3" d="M9.04,14.08c.24-.12.31,0,.25.15-.21.1-.15-.12-.25-.15Z"/><path class="cls-3" d="M58.68,11.98c-.04.63-.91.47-1.34.69.09-.53.96-.51,1.34-.69Z"/><path class="cls-3" d="M63.18,19.3c.03.21-.18.3-.38.14-.05-.24.27-.08.38-.14Z"/><path class="cls-3" d="M68.63,33.57c.03.27-.19.2-.24-.07.11.07.18.02.24.07Z"/><path class="cls-3" d="M45.21,4.29c.11.06.17.29-.16.19.14-.07-.02-.16.16-.19Z"/><path class="cls-3" d="M66.34,26.22c.1.26-.04.26-.12.15-.07-.2.09-.08.12-.15Z"/><path class="cls-3" d="M66.33,34.86c.03.14-.14.17-.2.11,0-.21.14-.05.2-.11Z"/><path class="cls-3" d="M63.73,25.73c.06.12-.07.24-.16-.02.05-.03.09-.06.16.02Z"/><path class="cls-3" d="M65.98,34.8c-.11.5-.51.31-.65-.02.02.41-.12.13-.2.29.05.53.28-.06.32.51-.19.02-.68.15-.55-1.02.27.07.68-.02,1.08.25Z"/><path class="cls-3" d="M11.69,17c.16-.12.1.07.17.07-.13.06-.27.06-.17-.07Z"/><path class="cls-3" d="M65.04,45.38c-.04.82.85.84,1.31.99.27.09.74-.18.99.03,0,.55.27.46.38.62.11.18.16.6.25.71.02.02.28.05.2.03-.16-.34-.29-.78-.45-1.12.2-.08.52.25.68.28-.02.16-.07.04-.09.18.06.27.2-.28.32-.15.1.53.26.98.23,1.79-1.28.3-2.39-.82-3.74-.22l-.1.63c1.07.91,2.61.43,3.59,1.61-.04.05-.09-.13-.13.07.12.09.22-.06.33-.04-.35.92-.8.91-1.12.96-.14.02-.3-.05-.45-.09-.67-.21-1.54-.19-1.84-1.32-.1.14-.11-.05-.17.06.06.58.39.56.49,1.05-.08.05-.14.52-.23.52-.72-.08-1.42,1.2-1.69,3.59-.12-.05-.24,0-.36.09-.08.21-.15.39-.23.7.29.51.82.67.42,2.26-.34-.04-.65-.39-1.01-.14-.1.15-.2.57-.31.86.26.76.79.8,1.16,1.1,0,.31.08.53-.13,1.15-.61-.08-1.17-.75-1.89-.63-.18.03-.33-.16-.59.25-.22.95.61.28.52,1.09.49-.14.82.56,1.17.89.16.16.52-.06.38.57-.88.39-1.39-1.29-2.5.51-.23.77.35.43.33,1.06.03.09.16-.27.18-.12.18.64.88.75,1.25,1.24-.07.27-.17.62-.41,1.08-.92-.37-1.72-1.21-2.9-1.32-.11.18-.22.34-.36.62-.14.57.26.55.38.83-.31.33-.41-.09-.66.03-.5.82-.08.62.02.73.33.4.69,1.15.96,1.56-.91-.27-1.42-1.02-2.34-1.27-.8,1.25.2.89.22,1.41-.14.24-.33.37-.41.57.46.21.83.86,1.01,1.41-.89.21-1.42-1.04-2.3-.87-.45.59-.49.79-.86,1.14-.15.11-.16-.05-.38.21-.27.28-.16.34-.2.49-.22-.01-.25-.36-.58-.35-.7.62-.37.71-.23.9-.25.24-.24.13-.42.36-.04.3.2.48.06.82-.22.19-.34.2-.44.35.02.18-.03.37-.02.54-.12-.08-.58.21-.89.35-.14-.08.04-.32-.2-.31-.2.12-.31.15-.51.27-.41.64.34.82-.07,1.43-.19-.72-.97-.9-1.42-1.39-.5.12-.68.37-1.09.52-.32.36-.17.72-.26,1.14-.19.08-.4.17-.6.25-.11-.21-.15-.47-.28-.67-.13-.21-.35-.33-.8-.43-.59.15-.5.43-.8.64-.22.06-.25.03-.45.06.24.38-.51.68-.69.95-.3.45.24.99-.74,1.39.04-.42-.03-.95,0-1.39.01-.19.28-.43-.53-.55-.71.31-.12,1.01-.87,1.43-.17-.61.24-1.05-.08-1.64-.05-.06-.39-.14-.46-.22.04-.05.14-.05.11-.14-.17-.07-.32-.13-.63-.19-.88-.03-.38.68-.91.85.27-.4-.7-.95-.2-1.21-.66-.32-.88-.25-1.64-.56-.42-.02-.38.28-.62.38-.17-.16-.64-.34-1.06-.55.19-.07.1-.29-.68-.56-.94.31-.34,1.17-1.35,1.36-.25-.12-.24-.06-.45-.16.07-.52.33-1.07.29-1.53-.03-.34.3-.59-.33-1.02-.13-.04-.18-.04-.37-.12-.5.43-1.04.83-1.71,1.15l.23-.65c-.49-.24-.39-.41-.53-.61-.41-.11-.35-.1-.8-.25-.82.49-.45,1.29-.89,1.86-.68-.31-.62-.46-.53-.67.26-.62.7-1.12.48-1.74-.44-.16-.57-.19-1.07-.27-.19.33-.7.64-.22,1-.72.09-.44.59-1.39.61.38-.89,1.06-1.64,1-2.61-.27-.05-.23-.1-.58-.12-.88,0-.47.26-.55.42-.32.68-.75,1.5-.69,2.18-.38-.04-.4-.01-.72-.08.15-.55.56-1,.65-1.52-.22-.11-.57-.05-.68-.09-.7-.19.25-.44-.22-.61-.56,0-.7.05-1.11.07-.2.2-.07.44-.09.67-.34.04-.58.1-.75.16-.08.06-.14.13-.19.2-.1.15-.16.32-.37.44-.23-.36.01-.64-.31-.91-.17,0-.18.02-.35-.05-.77.12-.33.77-.92.85-.23-.31.6-.25.11-.59l-.48-.16c-.17,0-.15.17-.32.18-.26-.13-.37-.21-.61-.35-.2-.08-.15.08-.42-.07.21-.07.44-.26.37-.5-.17-.16-.37-.17-.53-.33-.35-.15-.27.2-.5.19-.3-.18-.34-.28-.66-.51-.37-.16-.28.26-.63.13-.1-.14.07-.18.1-.27-.94-1.04-1.76-1.26-2.08-1.22-.09-.29-.21-.53-.74-1.03-.34.08-.99-.7-1.37-.72-.15-.27-.32-.47-.62-.8-.4-.19-.71-.14-.96-.17-.05-.53,1,.04.53-.88-.92-1.15-.51.46-1.34-.49.11-.22.06-.56-.14-1.05.14-.08.33-.02.28-.31-.09-.18-.27-.44-.31-.57-.59-.46-.47.31-.98-.01.09-.32-.16-.93-.56-1.73-.42-.37-.51.13-.83-.04,0-.17-.28-.62-.27-.71.57.59.29-.55-.39-1.49-.29-.39-.39-.05-.74-.66-.12-.34.2-.18.05-.55-.09-.25-.23-.53-.37-.75-.18-.08-.34-.04-.51-.06-.65-.96-1.27-2.58-1.87-3.88-.07-.29.03-.5-.15-.84-.23-.59-.34-.11-.57-.69-.1-.34.15-.14.14-.35-.09-.3-.07-.41-.22-.81-.16-.31-.28-.01-.45-.35-.02-.46.28-.11.38-.31-.03-.27-.02-.48-.19-1-.26-.35-.49-.1-.74-.57-.07-.47.04-.52-.17-1.31-.18-.3-.33-.26-.53-.85-.11-.41-.19-.96-.29-1.38-.28-1.08-.66-2.12-.95-2.31.41,1.21.85,2.81,1.28,4.74-.13,0-.25.03-.23.34.31,1.41.57.92.9,1.83-.22.09-.4.25-.41.72.11.43.21.51.33.9-.11.01,0,.41.11.77.16.43.27.32.43.66-.05.07-.11.12-.13.25.04.24.24.73.21.84-.21-.01-.21.27-.01.83.23.48.39.39.6.69.13.35.21.56.36.79.13.2.19-.03.34.27.11.31-.11.19.07.6.42.87.63.64.97,1.02-.01.26.34.74.41,1.08-.33,0-.77-.25-.86.23l.41.77c.39.34.67.31,1.07.63-.06.48-.88-.01-.71.73.54,1.02.84.56,1.32,1.03-.11.08-.18.22-.16.44.41.69.74,1.08.95,1.47.54.63.73.24,1.25.79-.15.2-.45.09-.43.42.19.31.29.37.47.62.06.18-.13.14.14.5.94,1.24.89.22,1.75,1.22-.06.19-.48-.09-.64.14.19.37.21.46.71,1.07.26.28.29.11.52.33-.03.08.04.22-.02.28.46.43.65.68,1.12,1.12.27.2.36.1.7.42.39.49-.16.3-.12.55.45.44.72.45.97.73l-.13.16c.09.16.35.3.44.43-.06.19-.34.1-.45.22.75.73-.27.55.08,1.07,1.46,1.14,1.09.26,2.27.95.44.34.47.48.88.71-.03.18-.39.13-.32.35.24.15.47.32.82.47.58.18.26-.28,1.03.03-.2.15-.58.21-.46.5.35.21.6.2.81.35-.08.06,0,.14.07.21.4.12.5.22,1.02.31.67.02.4-.3,1.15-.29.22.06,1,.14,1.23.1.27-.12.14-.3.68-.39-.01.19-.09.26.02.43.68-.01.69,0,.95-.05.19-.32.29-.66.87-.9.27.34-.29.56-.11.92.21-.03.26.04.58.06.34-.27.68-.59.98-.93.31-.31.59-.64.79-.97.07-.12-.1-.38.45-.35-.27.85-.9,1.65-.75,2.6,1.32.27.66-.69,1.81-.37.23.4-.61.53-.28.92.23.07.52.17.64.17.36-.4.8-.73,1.62-.82-.37.27-.54.76-.96,1.06.24.12.48.23.74.3.19-.09.27-.27.43-.38.28.14.49.1.62.22.02.18-.48.27-.6.5,1.53.67.97-.27,1.64-.34,1.45.96,1.95.56,2.58.32.14-.05.57-.06.68-.12.3-.16.25-.52.7-.5.52.66-.28,1.24.3,1.91.23.05.51.14.71.17.25-.14.45-.31.76-.41.25.31.06.59.41.89,2.14.65,1.75-.26,2.79-.38.09.33-.35.51-.1.77.73.04.68.12,1.2.22.14.02.16-.02.34,0,.69-.35.81-.86,1.01-1.34.15-.37-.15-.76.48-1.05.01.71.66,1.46.53,2.24-.05.34-.97.7-.06.87,1.33-.23,1.14-.7,1.29-1.03.06-.13.16-.28.39-.4.07.05.28.04.46.05.1.5-.87,1.02-.57,1.47.41-.05.67-.1.95-.16.51-.45.21-.91.63-1.39.41-.09.29-.14.63-.23.05.07.25.14.3.22.85-.23.91-.4.98-.58.52-.23.62-.37.84-.53.04-.12-.31-.14.19-.36.37.29-.5,1.25.51,1.1.66-.43.98-.81,1.15-1.19.14-.26.05-.41.22-.68.26-.18.54-.37.68-.51.23-.31-.27-.36.34-.81.3.16-.53,1.17.3,1,.65-.43.72-.67.66-.86-.06-.18-.23-.3-.1-.56.1-.13.54-.43.64-.56.21-1.17-.73-1.69-1.03-2.51-.05-.12-.09-.28.08-.58.35.34.65.72,1.05.96.21.84.99,1.21,1.2,2.17.23-.14.2.08.48-.13.14-.17.3-.28.51-.56,0-1.81-.61-2.95-1.29-4-.15-.22-.42-.3-.35-.76.55-.05.67.58,1.06.62.05.08-.23.24-.13.26.72.14.66.88,1.31,1.07-.09.28-.16.49.12.36.82-.98.33-.96.46-1.43.1.06.35-.21.58-.44-.19.4.06.55.43.19.29-.5.33-.86.31-1.13-.03-.34-.36-.44-.19-.95.4.1.84.17,1.32.01.36-.55.37-.74.6-1.15.06-.69-.41-.68-.61-.91-.13-.14-.32-.4-.14-.85.4.33.92.32,1.36.85.56-.77.37.54,1-.26.37-.79.08-.98,0-1.24-.31-.81-.97-1.24-1.44-1.68.03-.22.02-.37.18-.76.64-.19.59.86,1.35.51-.05.08-.19.31-.1.28.42-.21.48.86.95.22.16-.49.09-.69,0-.87.2-.55.18.06.37-.38.4-.91-.2-.48.02-1.17.24-.24.12.62.49.31.13-.29.09-.34.24-.65.06-.44-.19-.42-.06-.98-.42-.86-1.16-1.62-1.83-2.11-.28-.21-.61-.09-.38-.83,1.04.21,1.94,1.06,3.04,1.15.09-.02-.16.46-.05.4.15-.12.33-.48.51-1.08-.16-1.49-.78-2-1.22-3.02.08.16.14,0,.27-.12-.02.22,0,.24.05.31.28.42.8.29,1.2.45.3.12.56.36.94.28.29-1.37-.44-.9-.55-1.59-.82-.55-1.93-1.24-2.72-1.9.41-.2.67.21,1.02.26.63.09,1.4-.11,1.68.73-.04.25-.2.34-.1.38.06,0,.03.17.06.22.15-.27.1-.73.18-.86.42-.08.74.5,1.18.09l.12-.48c-.46-1.42-1.71-1.34-2.37-2.05.56-.05,1.29-.5,1.67.07.71-.3,1.34,1.01,2.12.46.02-.89-.28-1.16-.5-1.44-.4-.49-.9-.83-1.36-1.16.02-.33.03-.68.11-1.17.34.34.83.14,1.24.21.41.07.71.71,1.09-.02.02-.85-.27-.99-.46-1.19-.64-.66-1.43-1.19-2.17-1.59-.05-.72-.29-.96-.33-1.78.49-.14,1.21.45,1.51-.44-.04-.42-.17-.63-.34-.32-.02-.12-.03-.28-.09-.3-.31.05-.74-.37-1.14-.48-.28-.07-.6.19-.62-.62.31.58.77-.02,1.2.17.27.12.84.04,1.2.28.17.11.27.35.43-.27-.06-.76-.34-.88-.58-1.02-.25-.15-.54-.03-.74-.42-.13.33-.27-.05-.39-.11-.4-.21-.96.19-1.29-.43.39.03.74-.1,1.12.04.83.29,1.71.8,2.58.79,0-.24-.03-.3,0-.6-.21-.1-.42-.44-.63-.42-.01,0-.08.2-.1.2-.03-.01-.09-.29-.11-.3-.2-.16-.47-.02-.7-.21-.67-.55-1.59,0-2.23-1.36.42-.06.96-.04,1.3,0,.56.06,1.24.08,1.72.39.19.12.37.71.48,0-.08-.8-.34-.5-.51-.7-.07-.09-.12-.34-.19-.39-.38-.31-.68-.17-1.03-.37-.49-.28-1-.5-1.49-.72-.41-.19-.83-.33-1.22-.6-.14-.1-.35,0-.48-.52.25-.64.73.09.99-.34.05.1.06.3.13.27,1.34.21,2.53.19,3.74,1.17.09-.85.55.79.63-.33,0-.43-.11-.18-.13-.4-.02-.27.17-.57.06-.62-.27-.38-.54.08-.85-.15-.32-.22-.75-.37-1.05-.72-.08-.09-.14-.33-.22-.38-.36-.19-.69.46-1.07-.19.3-.36.69-.5.89-1.08.05.31,0,.31.06.49.12-.03.33.23.4.06-.11-.33-.31,0-.41-.55.42-.06.98-.24,1.36.85.1.02.08-.32.21-.22-.01.43.14.26.14.8.08-.64.4-.09.51-.15-.08-.83-.47.01-.47-.88-.26,0-.54.07-.8-.83-.01-.26.05-.34.14-.32-.1-.57-.25-.55-.39-.66.1-.32.46.03.56-.29-1.18-.09-2.63.44-3.96-1.72.69.23,1.35-.07,1.95.45.08-.5.77.51.77-.47-.38-.99-.48.03-.79-.54.02.38-.29.53-.47.21.56-.63,1.48-.33,2.03-.47-.04-.27-.07-.51-.18-.92-.18-.25-.44-.48-.54-.18-.49-1.01-1.03-.99-1.38-1.08.23.44.42.48.64.75-.72.01-1.71-.15-2.57-.32.66-.62,1.69-.27,2.25-.85-.26-1.05.42-.23.58-.52-.38-1-.56-.62-.85-1.02-.13-.38.21-.08-.06-.65-.5-.43-.62.05-.91.17-.51.21-1.2.13-1.61.5-.08.07-.08.3-.15.37-.44.39-1.31-.15-1.2,1.18.09.25.27.62.21.67-.67-.17-1.29.16-1.96-.14.16-.2.58,0,.58-.33-.32-.21-.58.2-.95-.28.2-.29.93-.14,1.07-.67-.49.01-1.02.21-1.35.46.14.36.23.38.37.68-.09.26-.33.08-.48.29.04.26.2.26.3.46.2-.32.56-.28.9-.26.35.01.86.08,1.19.09.24,0,.51-.23.81.18-.01.37-.27.34-.51.35-.58.01-1.37-.34-1.66.2.1.48.22.68.38.99.15-.35.57.26.63-.27-.23-.19-.45.15-.74-.38-.02-.14.03-.17.04-.27.54-.06,1.23.02,1.85-.06.22.37.46.87.65,1.01-.87.26-1.78.19-2.65.03.08.17.16.46.22.61.27.17.53-.15.87.21.06-.43.32-.1.51-.13.13-.02.21-.19.33-.17.34.03.8.57,1.06.29.34-.37,1.03.41,1.45,1.11-.59-.16-1.37-.06-2.01-.44-.02-.17.13,0,.09-.2-.16.02-.44-.38-.49.02.07-.02.15-.06.22.13-.54-.16-1.05.32-1.54.16.09.26-.05.07.03.34.24.56.45.04.68.3-.05-.37-.15-.11-.22-.31.08-.12.5-.11.45.44.16-.08.31.04.46.09.04,0-.12-.43-.04-.44.17.14.36-.16.54.26-.19.22-.46-.44-.46.18.08.04.17-.15.24.05-.06.17-.18.29-.31.32-.23.05-.6-.31-.64.2.15.59.28.33.48.36.14.02.31.28.41.29.28.04.51-.39.8-.03,0,.29.08.8.15,1.08.37.4.76.57,1.17.71-.14.31-.56.06-.8.08-.07-.06.06.43-.01.37-.31-.01-.57-.06-.86.16.05.62.13.87.25,1.25-.02,1.15.13,1.84.31,2.45.2.6.39,1.13.41,1.93.28.34.61.55.71,1.43-.35-.15-.82-.12-1.3-.17,0,.28-.06.27-.06.55.08.83.54-.43.61.41.13-.26.14-.24.18.01.03-.08,0-.22.09-.27.47.25,1.03.05,1.15,1.41-.52.17-.95,0-1.46.15-.06-.02.01-.44-.08-.38-.07.01-.07.44-.15.36-.38-.03-.78-.14-1.16.16,0,.14-.08.44-.08.63ZM66.28,33.76c.03-.57.44.12.46-.52.36.48.83-.03,1.32.39.09.1.03-.16.06-.2.28.15.52-.22.82.09.02.41-.19.14-.16.6-.34-.25-.55.53-.88.48-.14-.02-.33-.3-.49-.33-.36-.07-.79.12-1.15-.52ZM70.27,52.1c-.19.58-.33.27-.53.2-.41-.14-.94-.18-1.26-.36.14-.51.35-.63.43-1.11.11-.07.11.12.1.32.42-.09.7,1.02,1.26.95ZM70.77,48.94c-.02.11-.03.17-.05.19-.33-.23-.72,0-1.15-.08-.17-.03-.45.01-.48-.18-.07-.39-.16-1.06-.17-1.69.21.15.46.17.54.66.06,0,.1-.17.15-.28.3.7.82.83,1.16,1.37ZM71.39,36.31c-.02.47-.08-.08-.16,0,.04-.25.1-.17.16,0ZM52.48,81.39c-.31.13-.36-.01.03-.19.12.03-.11.15-.03.19ZM71.07,36.33c-.26.52-.64-.02-1.01-.14-.19-.06-.38.12-.55.03-.07-.04-.13-.26-.2-.28-.41-.14-.82-.03-1.23-.2.93-.75,2.15.43,2.99.59ZM32.27,80.13l-.26-.1c-.06-.12.24.03.22-.06.19.08,0,.1.04.16ZM39.45,82.12c.64.17.99.12,1.08-.03.75.36-.01.64-.68.64-.59-.21-.32-.41-.4-.61ZM31.85,79.92l-.26-.1c.29-.43.72-.76,1.14-1.1.28.6-.48.96-.87,1.2ZM33.8,80.64c-1-.9,1.19-.59.96-1.39.64.43.07.55.08.84,0,.16.29.42.21.53-.12.17-.69.14-1.26.02ZM52.47,81.14c-.39-.66-.81-1.23-.57-2.13.74-.22,1.1.21,1,.75-.04.11.25-.1.31-.09-.05.13-.04.24-.13.38-.11.06-.2.09-.21.05-.02.13-.31.48.14.24-.39.36-.39.57-.54.8ZM68.93,54.34c-.03.08-.06.17-.09.18-.37-.48-.94.29-1.18-.59.04-.21.07-.12.11-.27-.15-.02-.22-.1-.29-.17.58-.1.99.38,1.45.84ZM69.5,28.76c-.7.35-1.82.49-2.55.45-.12-.01.05.28.02.38-.07.04-.13-.27-.2-.34-.5.37-1.02.55-1.71-.75,1.64.13,2.9,0,4.44.26ZM48.8,82.32c-.12.04-.19.05-.22.04.38-.87.39-1.6.85-2.46.38.52-.05,1.2.22,1.51-.41.31.07.52-.85.92ZM70.17,32.56c-.09.44-.5-.19-.67.2-.02-.3-.09-.18-.11-.48.2-.18.53.16.78.29ZM68.04,56.86c-.03.11-.05.17-.08.18-.38.06-.79-.15-1.12-.42-.66-.54-1.7-.03-2-1.34.73-.6,1.07.52,1.65.64.63.13,1.1.35,1.55.93ZM57.7,76.74c-.3.24-.7.1-.4-.24.39-.3.65-.17.4.24ZM20.1,77.31c-.15-.06-.2-.28.16-.14.03.09-.08.11-.16.14ZM29.23,78.44c-.04-.14-.04-.46.49-.38-.26.08-.16.3-.49.38ZM25.56,77.59c-.3,0-.1-.11-.15-.17.23,0,.14.11.15.17ZM67.83,24.87l.11.29c-.27,0-.48-.02-.77.09.01-.53.55-.28.66-.38ZM26.46,77.63c-.07-.02-.14-.04-.16-.06-.21-.36.32-.52.6-.69.1-.06-.19-.22.3-.17-.32.3-.68.65-.74.93ZM70.19,40.92c0,.14-.19.22-.16-.1.07-.05.08.18.16.1ZM65.3,63.5l-.11.27c-.11-.05-.33-.23-.46-.4.28-.32.32.26.57.12ZM66.05,36.61c.1.32.27.46.37.16.06.16.11.35.18.45.59-.14,1.24.36,1.84.59,0,.1-.04.07-.04.19.26-.29.52.24.76.08.02.18.07.07.03.29.28-.2.61.25.89.28-.93.4-2.09-.17-3.09.04,0-.26-.07-.8-.19-.46.09.36.05.64,0,1.11.07.87.59.83.71.66.23.41.46.21.7.3.07-.03.03.35.08.38.04-.08.05-.42.1-.19-.17.39-.4.26-.62.17-.32-.12-.68-.41-1-.3-.27-.84-.87-1.98-.73-3.75ZM50.81,80.9c-.19-.07.21-.42.11-.53.15.01.43.22-.11.53ZM46.64,82.1c-.45.06-.13-.16-.24-.22.38-.04.17.15.24.22ZM69.91,42.58c-.37.13-1.09.1-1.7.09-.42,0-.71-.15-.93-.9.32-.67.68.16,1.04-.24.04.09.04.32.08.39.39-.32.7-.01.93.43.06-.2,0-.19-.03-.29.28-.4.33.65.61.52ZM39.48,81.59c-.14-.26-.14-.53.36-.6-.07.26-.05.45-.36.6ZM23.57,77.28c-.5.04-.5-.14,0-.14v.14ZM69.97,40.82c-.44.45-.89.1-1.29-.32.36-.08.93.05,1.29.32ZM63.16,67.93c-.21.46-.18.1-.24.1-.29-.01-.79-.07-1.06-.34.13-.33.19-.6.36-1,.48.13.77.61.94,1.24ZM20.69,76.92c-.2-.13-.36-.26-.05-.23.23.09,0,.15.05.23ZM68.87,50.32c-1.11-.53-2.34-.86-3.41-1.37.39-.32.67-.24,1.08-.2.25.03.41.1.63.1.36.01.67.49,1.04.46.07,0,.16-.22.23-.26.2-.09.33.28.51.28,0,.29,0,.56-.07.98ZM66.73,58.92c-.21.29-.1-.32-.3-.2.23-.56.24.07.3.2ZM65.33,62.88c-.16.28-.48.15-.4-.16.07.11.27.06.4.16ZM67.66,25.71c.06.55-.12.59-.36.67-.57.18-1.31.44-1.88.77-.29.17-.52.4-.95.15-.16-.46-.15-.69-.17-.97.06.07.11.05.17.12.05-.63.51-.37.84-.44.34-.07.47-.76.97-.09-.07-.69.47-.12.73-.08.04,0-.02-.2.01-.22.04-.02.18.25.19.24.19-.04.13-.39.45-.17ZM66.51,59.46c-.84-.06-1.99-.44-2.7-.79.12-.63,0-1.04.2-1.69.26.29.72.24,1.04.61.09-.04-.02.2-.06.28.06.15.15-.34.21-.23.55.44.93,1.12,1.31,1.83ZM23.56,77.1c-.47-.25-.27-.52-.02-.82.26-.3.54-.6.49-.91.44.61-.41,1.13-.47,1.73ZM64.79,63.92c-.04.08-.08.15-.12.16-.04-.17-.25.05-.39.05-.24,0-.37-.35-.56-.55-.19-.2-.52-.09-.47-.61.55-.03,1.15.36,1.54.95ZM60.2,72.37c-.52.34-.59-.36-.76-.64.2-.33.26-.29.46-.62.12.37.33.68.29,1.26ZM54.41,78.5c-.1.07-.16.09-.18.09-.17-.3-.38-.72,0-1.35-.01.45.21.82.19,1.26ZM41.44,81.69c-.43-.15-.07-.38.27-.4-.04.15.04.35-.27.4ZM61.39,70.43c-.37.34-.58-.03-.91.01.05-.15.33-.63.44-.75.01.33.41.41.47.73ZM20.77,76.64c-.38-.15,0-.27.19-.29.28.15-.33.11-.19.29ZM64.05,65.1c-.41.15-.85-.3-1.17-.52.53-.38.99.04,1.17.52ZM21.98,76.74c-.25-.07-.01-.19-.07-.28.36.05.22.25.07.28ZM69.12,33.11c.03.38-.08.02-.15.12-.03-.36.07,0,.15-.12ZM67.03,25.1c.14.28-.06.36-.15.06l.15-.06ZM66.44,58.42c-.05.11-.09.18-.13.16-.54-.84-1.31-1.44-1.98-1.99-.15-.12-.45.11-.36-.49.6.1,1.15.23,1.57.75.37.47.66.85.89,1.57ZM30.86,77.82c-.14-.08-.2-.16-.05-.14.22.08.18.16.05.14ZM46.85,81.4c-.59.02.06-.28-.17-.44.44.04.27.28.17.44ZM19.75,75.99c-.16-.06-.16-.09-.28-.15.21-.23.32-.66.61-.96.34.48-.29.76-.33,1.1ZM68.84,32.26l.04.29c-.09-.02-.19-.09-.26-.36.08-.08.14.07.22.06ZM69.14,44.19c-.08.1-.17-.09-.24.37-.45-.03-.79.08-.94-1.04.43.12.84.32,1.19.67ZM64.63,63.02c0,.08-.25.21-.21.02.16-.28.09,0,.21-.02ZM66.83,25.07c.11.31-.03.17-.09.15-.06-.24,0-.19.09-.15ZM27.21,76.65c-.28-.06-.11-.08-.07-.13.23.04.19.13.07.13ZM58.75,73.51c-.06.08-.12.15-.18.23-.17-.19-.49-.33-.57-.57.51-.39.57.25.75.34ZM29.25,77.1c-.15-.56-.02-1.22.15-1.58.4.12.34.22.61.33-.31.47-.29.85-.77,1.25ZM25.09,76.41c-.08,0-.16-.01-.18-.04.56-.59.43-1.27.91-1.87.9.33-.24.78.22,1.1-.48.19-.5.55-.95.81ZM37.26,80.02c-.32-.09-.16-.24-.03-.21.42.16,0,.13.03.21ZM67.33,53.86c-.02.11-.04.17-.07.18-.25-.02-.57.06-.86-.01-.43-.11-.84-.44-1.22-.49-.05,0-.18.17-.27.32-.06.22-.03.29-.12.45-.07.46.17.33.24.54-.14.25-.28.08-.42.18-.11.18-.14.6-.21.71-.06-.17-.27-.22-.42-.12,0-.53.23-1.67.53-2.53.13-.05.26-.32.39-.48.99-.11,1.82.22,2.44,1.25ZM55.23,77.09c-.44.23-.16-.38-.4-.32.39-.34.34.16.4.32ZM68.62,32.69c-.08.42-.36.61-.53.17.18,0,.31-.47.53-.17ZM68.58,46.55c-.78-.14-1.4-.47-1.94-1.55.72-.14,1.72-.52,1.94,1.55ZM64.79,61.94c-.41-.31-1.54.36-1.15-1.24.44.29.94.63,1.15,1.24ZM67.58,28.04c.05.15.03.17.06.29-.88-.07-1.68-.1-2.57-.2.44-.92,1.68.05,2.51-.09ZM40.11,80.72c-.36-.11-.13-.34,0-.38.36.12.12.33,0,.38ZM50.57,79.85c-.14.07-.16.05-.28.1.19-.49-.06-.89.09-1.42.58.2.29.82.19,1.32ZM56.64,75.57c-.26.23-.34-.04-.31-.17.35-.33.26.07.31.17ZM32.69,78.04c-.31-.18.08-.18.04-.38.34.19.03.31-.04.38ZM31.75,77.58c-.34-.1-.12-.19-.03-.18.19.08,0,.12.03.18ZM59.04,72.51c-.25.24-.4-.05-.45-.09.31-.29.45-.04.45.09ZM60.7,69.9c-.13.16-.3.45-.4.54-.72-.6-1.28-1.33-1.79-2.18.25-.37.42-.11.36.11.5-.16.36.44.92.33.14-.03-.13.36.01.33.57-.27.67.49.9.87ZM53.14,78.23c-.13.09-.15.07-.26.14-.38-.61-1.23-1.16-.98-2.03,1,.21,1.12,1.15,1.24,1.9ZM8.25,64.07c.08-.57.72-.37.98-.63.13.72-.53.79-.98.63ZM26.83,76.13c-.11,0-.16-.02-.18-.04-.04-.28.45-.48.68-.68.09-.08-.2-.29.34-.23.2.13-.18.14-.14.25.02.05.27.16.26.18-.03.05-.41.03-.5.08-.25.14-.1.33-.45.46ZM56.96,74.93c-.16.08-.32-.07-.25-.23.19-.08.47-.11.25.23ZM68.53,34.84c-.06.56-.34-.2-.39.23.02-.58.26-.09.39-.23ZM41.12,80.65c-.53-.63.03-1.11.14-1.68.22.44.36,1.29-.14,1.68ZM61.5,68.26c-.18.28-.31.07-.31-.06.19-.3.28-.04.31.06ZM59.83,71.06c-.86.97-1.03-.1-1.41-.48-.2-.21-.6-.08-.46-.63.69.43,1.31.6,1.87,1.11ZM15.49,72.51c-.25-.17-.11-.34.1-.12l-.1.12ZM7.31,62.28c-.08-.41.27-.15.44-.15.07.39-.23.25-.44.15ZM18.1,74.35l-.24-.16c.41-.35.64-.73,1.19-.91-.17.53-.76.71-.95,1.07ZM68.6,40.68c-.03.22-.14.03-.11-.29.09-.1.03.36.11.29ZM46.92,80.61c-.44-.1-.2-.48-.22-.69.17.19.36.44.22.69ZM8.91,64.67c-.07-.15-.14-.3-.06-.3.06.15.21.45.06.3ZM68.08,32.57c.01.15-.06.09,0,.39-.52.22-1.1.2-1.62-.05.15-.38.49-.19.65-.66-.19-.18-.46.3-.68-.26.41.06.52-.3.88.23.09.4-.13.02-.09.3.23.26.65-.16.86.06ZM33.9,78.07c-.3-.45.15-.83.58-.95.27.47-.25.71-.58.95ZM56.46,75.13c-.23.28-.18.08-.33.22-.6-.65-1.51-1.11-1.54-2.23.25.05.55.14.58.42.65.32.81,1.19,1.29,1.6ZM39.21,79.95c-.29-.67.19-1.43.37-1.92.65.45,0,.63.02.92.02.3-.14.72-.39,1.01ZM38.48,79.72c-.25-.32-.18-.81.02-1,.45.32-.02.71-.02,1ZM35.24,78.56c-.42-.17.09-.08-.02-.21.19.09-.01.13.02.21ZM6.61,60.7c-.08-.13-.06-.16-.11-.26.46.14.71-.44,1.27-.05.2.43-.2.38-.31.28.18.43-.13.15-.07.47-.05-.13-.17-.33-.06-.29-.29-.28-.46-.07-.71-.15ZM49.49,79.79c-.09.05-.18.06-.27.09-.06-.03.04-.08.06-.11.17-.04.22-.05.21.02ZM15.57,72.26c.13-.33.15-.73.61-.71.24.48-.47.49-.61.71ZM56.95,74.4c-.13.14-.13.05-.29.25-.14-.36-.59-.57-.61-.92.53-.41.01.53.52.21-.07.29.36.09.2.42.05.05.28-.13.18.04ZM62.41,65.72c-.46-.27-.89-.98-1.35-1.15.41-.63.86-.22.82.17.15.2.55-.28.5.23.15-.08.17-.07.29-.08-.1.3-.08.46-.26.83ZM49.53,79.62c-.09.04-.17.08-.27.1-.05-.06,0-.09.23-.19l.03.09ZM45.55,80.54c-.15-.24-.51-.73-.27-1.11.14.09.16.23.21.36.1.05.08-.08.27-.04-.37.23.04.55-.21.79ZM37.04,78.92c-.24-.19.28-.32.21-.58.43.26.03.52-.21.58ZM3.4,52.75c-.09-.25.03-.25.1-.13.07.2-.08.07-.1.13ZM62.77,64.42c-.22.43-.14-.09-.27-.02.12-.18.17.04.27.02ZM20.29,74.87c-.13-.09-.24-.37.18-.23-.06.07,0,.23-.18.23ZM23.74,75.36c-.27-.05.07-.16-.11-.2.33.02.09.13.11.2ZM67.55,32.27c.02.22-.09.07-.11.02-.02-.16,0-.22.06-.2.02.11.04.16.06.18ZM58.61,71.73l-.17.23c-.64-.06-.72-.85-1.07-1.1.76-.15.81.69,1.23.87ZM16.72,72.66c-.2-.22-.06-.42.26-.18.03.08-.27,0-.26.18ZM4.72,55.49c-.11-.27.04-.19.09-.24.16.34-.07.15-.09.24ZM5.9,57.96c-.24-.43.03-.36.14-.07l-.14.07ZM63.15,62.83c-.05.14-.08.14-.13.25-.41-.48-.85-.78-1.29-1.13.23-.45.2-.04.27,0,.41.25.9.47,1.15.87ZM8.58,62.52c-.09-.18-.12-.31-.03-.31.08.18.16.44.03.31ZM50.54,78.43c-.21.09-.2,0-.23-.05.29-.16.15.03.23.05ZM67.52,43.1c-.06-.01-.12-.03-.1-.29.07-.01.13,0,.1.29ZM37.43,78.38c-.51-.26.43-.08.27.08-.12-.05-.25-.1-.27-.08ZM49.89,78.55c-.57,0-.47-.63-.42-.96.37.12.25.67.42.96ZM67.43,39.34v.37c-.16-.04-.36.05-.39-.56.2-.17.27.32.39.19ZM37.67,78.27c-.29-.07-.21-.28.05-.15l-.05.15ZM67.29,40.84s.01.23.01.37c-.08-.17-.26,0-.31-.29.04-.44.24.16.3-.08ZM16.51,71.58l-.21-.17c-.04-.21.34-.13.4-.33.26.32-.17.31-.18.5ZM63.65,59.51l-.09.26c-.06-.05-.2,0-.18-.16.12-.27.28-.3.28-.1ZM37.75,78.06c-.32-.1-.09-.13-.13-.19.32.1.09.13.13.19ZM66.73,45.48c-.03.18,0,.06,0,.38-.41-.13-1.11-.08-1.42-.53.23-.54.64-.19.85-.46.19.16.42.53.56.62ZM46.13,79.17c-.23,0-.02-.12-.02-.16.18-.01.1.13.02.16ZM64.71,55.54c-.06.28-.13.27-.18.24.07-.25.12-.24.18-.24ZM55.93,73.38c-.22-.14-.66-.53-.99-.75-.1-.07-.45.06-.09-.42.54.17.91.64,1.08,1.17ZM63.44,59.34c-.04.15-.07.14-.11.26-.08-.2-.29-.01-.28-.29.16-.25.22.08.4.04ZM46.19,78.98c-.15-.04-.24-.13-.03-.2.34-.02.1.14.03.2ZM47.61,78.66c-.23-.12-.56-.59.3-.78-.14.26-.09.51-.3.78ZM31.91,75.45c-.21-.09-.04-.17.22-.04.05.1-.11.05-.22.04ZM37.18,77.44c-.52-.31.12-.37-.06-.63.4.29.2.56.06.63ZM23.9,73.89c-.51,0-.07-.16-.02-.21.53.02-.06.12.02.21ZM66.14,32.96c.03.26-.07.18-.13.2-.05-.31.07-.35.13-.2ZM39.75,78.06c-.14-.04-.14-.07-.25-.1.15-.09.06-.17.09-.31.48.16.09.27.16.41ZM57.34,70.83l-.15-.11.11-.14c0,.09.26-.03.04.25ZM46.12,78.5c-.09.02-.15.01-.17,0-.04-.58-.82-1,.23-1.53.61.14.54.61.73.99-.63,0-.42.38-.8.54ZM54.23,74.32c-.44.25-.12-.31-.33-.35.43-.23.14.29.33.35ZM45.31,78.59c-.33,0-.11-.22-.18-.32.36,0,.3.25.18.32ZM63.8,56.15l-.08.27c-.08-.04-.22.03-.12-.32.07-.12.2-.09.2.06ZM57.82,69.75c-.19.29-.27.03-.26-.06.14-.15.16.07.26.06ZM23.98,73.54c-.45,0,.04-.14-.13-.25.25-.02.17.04.35.03-.14.1-.14.13-.21.21ZM65.59,31.86c0,.26-.2.12-.28.14.02-.21.2-.07.28-.14ZM22.6,73.24c-.4-.05.03-.08-.04-.19.14.03,0,.13.04.19ZM61.56,61.59c-.14.29-.11.07-.11-.04.14-.29.11-.07.11.04ZM33.95,74.8l-.27-.11c.02-.07,0-.16.32-.02l-.05.13ZM54.13,73.13c-.18.19-.18-.02.01-.22.08.02-.02.15-.01.22Z"/><path class="cls-3" d="M46.53,6.97c.13-.66.59-1.47,1.32-1.96.05-.03.25.03.32,0,.32-.1.07-.44.25-.56.24-.16,1.31,0,.44-.49-.02.11-.44-.07-.64-.09-.45,0-.36.37-1.06.18.23-.37.29-.79.92-.93-.03-.3.12-.55.59-.6-.44-.34,1.01-.05.13-.59-.96-.35-.85.01-1.21.05.17.08.27.07.31.12-.74,1.4-1.51,2.81-3.5,3.68-.33-.25.04-.49,0-.73.24.07.28.12.28.03.11-.08-.24-.03-.26-.12.22-1.42.93-2.46,1.2-3.28.52.06.54-.15.32-.34-1.29-.37-.75.1-1.16.12.25.12.35.02.52.16-.27.02-.19.2-.4.25-.34-.07-.12-.11-.4-.18-.1,0-.1.06-.43-.04-.75.72-1.27,1.83-2.46,2.49.27-.74-.03-1.82.54-2.56-.14-.08-.08-.17-.29-.25.52,0,.4-.28-.06-.4-.84-.11-1.31.44-.71.62.31,0-.08-.26.24-.27.22.62.09,1.13.03,1.69-.07.67.21,1.46-.31,2.01-.38.4-.93.82-1.43,1.28-.17-.06-.04-.2-.07-.3-.02-.08-.27.09-.35,0,.12-1.43.4-2.97.95-4.33.02-.04-.2-.09-.2-.14,0-.1.15-.32.24-.48.19-.35.83-.71-.06-.85-.69.08-.4.28-.56.45-.33.03-.38-.01-.86,0-.43.6-.8,1.29-1.21,1.91-.1.17.06.33-.57.48-.11-.13.12-.23.28-.32-.09-.04-.4.01-.3-.09-.03-.52.57-.85.13-1.35.22-.19.54-.43.29-.64-.37,0-.45,0-.64,0-.71,1.13-1.16,2.3-1.31,3.41-.08.55.09,1.07,0,1.59-.02.14-.12.36-.47.51-.01-2.18-.11-4.08.66-6.12-.3.05-.28,0-.54.04-.54.18-.28.29-.38.46-.62,1.03-1.22,2.32-1.71,3.46-.06.15.13.29-.3.46-.17-1.15.09-1.98-.07-2.93.31-.15.48-.55-.09-.49-1.12.37-.5.61-.57.85,0,.04-.25.14-.28.18-.44.66-.49,1.39-.55,2.06-.08,1.04.38,2.01.11,3.09-.22.02,0-.18-.23-.16,0,.05.12.08-.15.13-.02-1.61-.44-3.26.41-5.04-.2-.03-.44.19-.59.16.23-.33-.16-.47-.26-.64-.14-.23.64-.63.13-.78-.01.06-.19,0-.41.09-.39.16.38.2-.13.33-.24,0-.14-.15-.46-.11-.98.26-.53.32-.62.49-.39.84-.69,1.78-.78,2.65-.07.75.23,1.4-.2,2.16-.28-.93-.51-1.69-.77-2.56.18-.08.19-.15.34-.23-.38-.44.17-1.34-.7-1.48-.91.37-.56.59-.67.89-.16.46-.17.87-.4,1.24.29.21.11.55.02.88-.57-.58-.23-1.18-.26-1.82-.64.08.56-.96-.71-.45-.45,1.16.28,2.16-.21,3.26-.5-.19.17-.8-.54-.79-.06-.39-.17-1.1-.22-1.59-1.11.44-.79.66-.83.89-.1.66-.26,1.33-.44,1.94-.18-.3-.6-.7-.31-1.16-.5-.2.02-.9-.59-1.07-.03.09-.21.06-.37.16-.14.36.3.68-.21,1.2-.07-.1-.06-.28-.24-.29-.44.16-.37.31-.6.35-.13-.04.24-.41-.22-.22-.54.25-.32.34-.34.42-.12.43.22.54.22.89,0,.26-.1.55-.04.79.17.76.09,1.58.64,2.13-.04-.88-.41-1.3-.33-2.16.35.05.51.35.54.65.05.52.08,1.12-.06,1.59-.03-.02,0-.09-.13-.04-.25.33.48.34-.03.78-.25-1.16-1.47-2.22-1.28-3.6-.6.17.09-.43-.4-.36.35-.45.22-.8.19-1.17-.2.11-.34.16-.38.14-.43.19-.09.21-.57.41-.19.08-.11-.07-.32.03-.3.94-.36,1.97.03,2.81.09-.19-.14-.31.15-.55.18.29.41.49.2,1.01-.6.18.1-.54-.49-.3.12.54-.06,1.48.57,1.65-.11-.4-.16-.82-.23-1.23.56.19.43.98.37,1.5-.24.07.13-.32-.36-.06.12.66.57.98.54,1.74-1.02-1.21-1.22-2.93-2.33-3.99.27-.17.21-.05.38-.13-.22-.45-.78-.45-.88-.97-.25.05-.61.4-.7.4-.04-.07-.18-.14-.26-.25-.52.3-.71.51-1.01.68-.04.08.25.06-.09.24-.46-.14-.08-.93-.76-.86-.54.34-.59.71-.61.79-.13.59.24.99.25,1.53,0,.24-.14.56-.11.75-.73-.03.14-1.11-.64-.97.12-.22.45-.91-.29-.44-.33.27-.26.4-.09.42-.34.75.1,1.29.17,1.86.02.12.04.29-.31.59-.43-.59-.32-1.58-.94-2.2-.22.08-.35.3-.6.41-.28-.13.04-.76-.26-.72-.63.44-.41.71-.48.97-.69.58-.71.84-.75,1.11.4-.27-.14-.08.26-.35.07,0-.02.17.15.03.08-.09-.03-.09.21-.25,0,.27.38.21.18.58-.29.25-.34.21-.6.41-.43.46-.21.6-.43.95-.16-.03-.21-.19-.41-.17-.11-.03-.33.36-.41.33l-.15-.17c-.91.78.04-.63-.84.03-.26.21-.17.3-.48.6-.04-.05-.06-.15-.33.12-.03.07-.14.19-.28.33-.34,1.22.6,1.58.81,2.54-.35.22-.24-.17-.71.33-.69.74-.16.7-.43,1.24.13.09.23.25.42.21-.26.54.19.57.01,1.01-.08-.09-.17-.05-.35-.14-.16.19-.18.38-.28.41-.42-.07-.35-.81-.7-.75-.46.59-.35.66-.47.93-.03-.17-.31.3-.54.63-.05.41.22.54-.06,1.26.16.18.39.09.28.6-.46-.07-.36-.85-.86-.68-.53,1.13-.23,1.39-.02,1.7.27.39.65.46.7,1.04-.71.36-.96-1.15-1.65-.23-.27.76-.06.9.06,1.11.11.19.25.47.4.65.24.29.66.2.5,1.05-.53.15-.9-.99-1.45-.5-.3,1.44.45,1.36.67,1.59.04.26.19.28.27.45-.47.31-.68-.79-1.18-.44-.14,1.26.31,1.44.61,1.7.43.39.8.86,1.17,1.3l-.59-.07s-.05.42-.1.37c-.39-.08-1.04-.91-1.51-.75-.08.52.01.92.1,1.1.43.91,1.27.99,1.73,1.84.08-.21.26-.27.29.11-.28.54-.85-.36-.97.72-.33-.01-.55-.1-.83.17-.02.3.02.34,0,.68.22.36.53.58.69.87-.04.31-.12-.17-.16.1-.08.36.13.57.05.95-.29-.13-.59-.46-.92-.09-.03.48.05.48.06.87.5.7,1.24.7,1.59,1.77-.33.4-.74-.87-1,.13.05.68.38,1.05.52,1.7-.13.03-.4-.1-.56.21.03,1.14.31.73.47.74.51.05,1.24.41,1.76.5.11-1.11-.22-1.43-.41-1.69,0-1.17.44-.16.62-.4.17-2.06-.8-1.74-1-2.71.29-.03.5.27.81.17.26-2.65-.92-1.89-1.11-3.19.35.24.82-.03,1.17.2.4-1.85-.76-1.91-.82-2.9.3.16.58.63.93.43.1-.52.39-.62.4-1.32-.31-.7-.85-.9-1.08-1.69.44-.15.78.54,1.08.17.05-.35.03-.26.11-.61-.04-.33-.18-.43-.22-.77.08-.13.19.18.31-.03.12-.35.11-.59.19-.76.13-.2.12.15.24-.03.09-.28.1-.3.22-.65-.11-.28-.31-.41-.43-.68.42-.39.72.17,1.16.28.08-.18.18-.23.3-.6.06-.53-.09-.79-.38-.86.1-.36.12-.44.12-.69.52.22.84.77,1.46.73,1-1.6-.6-1.2-.47-2.05.33-.44.32.15.5.18.16-.26.11-.22.33-.56.04-.33-.3-.33-.2-.72.32.27.84.27,1.23.51.27.16.31.6.93-.31.32-.84-.65-.57-.07-1.47.22-.22.24-.02.46-.26.21-.22.2-.29.41-.51.48,0,.49.91,1.26.31.29-.42.14-.63.13-.9.33-.3.31-.05.62-.42.23-.27-.16-.22-.05-.42.19-.17.3-.22.47-.35,0-.07-.09-.1.11-.26.24.03.09.42.63.09.2-.23.18-.23.52-.43.12-.48-.48-.25-.7-.47-.08-.08.02-.3-.06-.36-.03-.02-.33.1-.41.06-.09-.05-.06-.12-.13-.16-.21.06-.15.23-.27.24-.04-.24-.63-.31-.37-.73-.17.11-.31.19-.36.14.06-.69-.5-1.14-.5-1.79.89.78,1.41,1.62,2.42,2.32.47-.06.48.36.82.49.57-.49.54-.2.99-.51-.13-.04.3-.38.33-.44.19-.34-.21-.43.7-.98.4.12-.27,1.29.76.68.46-.41.3-.62.52-.95.25-.19.31-.14.55-.28.36-.33.19-.51.27-.76,1.02-.44.17.74,1.34.19-.06-.06.1-.27-.01-.39.19-.11.26-.1.39-.22.26-.53-.9-.52-.23-1.16.69-.1-.11.91,1.06.27.09-.28-.11-.5.55-.91.55.37.33,1.06.85,1.26.04-.09.22-.07.4-.2.31-.5-.45-.38-.25-.69.02.02.02.06.11.02-.18-.23-.54-.27-.19-.59.16-.07.17-.11.32-.18.51-.21.18.11.46.11.22-.13.23-.08.42-.18.54-.86-.47-1.05-.38-1.65.01-.09.17-.22.17-.29,0-.36-.35-.54.03-1.03-.02-.1-.57-.18.1-.46.44.8.38,1.9.96,2.75.12.01.36-.07.4,0,0,.25.16.57.39.65,0-.06.35-.16.4-.17.56-.52-.77-.62.53-1.24.08.13-.13.3-.01.43.24-.11.27-.06.51-.16.31-.53-.56-.65.15-1.3.19.45.8.39.57.95.65-.09-.19.63.7.35.54-.44-.77-.53.21-1.2.22.19.25.65.24.91.25-.08.33-.06.51-.09.27-.17.14-.31.38-.48.18-.03.18.06.52-.07.21-.22.08-.47-.18-.54.11-.73-.88-1.14-.09-2.04.19.65-.06,1.35,1.12,1.53.43-.17.37-.34,1.04-.49.65-.34.79-.71,1.17-1.08.1.2.04.57.17.76.86-.1.58-.43.76-.64.45-.02.81-.25,1.11-.22.05.43.04.69.17,1.06.33-.05.25-.04.57-.06.22-.16.34-.28.11-.4.42-.28.18-.53.07-.79-.21-.5.27-.91.56-1.35.16-.23-.06-.45.49-.68.31.58-.4,1.49.07,2.08.39,0,.49-.15.84-.22.1.14.52.17.6.33.08.17-.47.41.17.48.75-.04-.03-.52.5-.64.43.13-.02.5.16.64.85.02.77-.24.59-.39.35-.09-.04-.2.01-.32.09-.21.79-.45,1.06-.56-.1-.25.12-.52.6-.7-.11.74-.22,1.28.26,1.95.34.02.37.09.63.13.35,0,.61-.12.9.01-.13,0-.14.1.13.15l.31.08c.58-.21.33-.68.51-1,.13-.22.41-.41.61-.59.3-.27.57-.59,1.18-.75-.33.9-1.08,1.57-.93,2.52,1.22.45.69-.3.99-.33.31.25.83.48,1.34.69-.01.1-.17.18-.05.3.97.53.59.05.69-.08.19-.24.91-.23,1.24-.3.49-.11.62-.47,1.29-.41-.24.57-1.54.81-1.37,1.57-.07.19-.31.35-.25.57-.2-.04-.39.09.08.33.79.29.35-.51.62-.68,1.23.47,1.55-.16,2.37-.2.09.5-.94.55-.66,1.18.3.23.36.15.57.39,1.03-.52,1.34-2.19,3.33-1.83-.37.42-.71.89-1.08,1.24-.63.59-1.48,1.07-2,1.78.62.47.86.32,1.6,1.17.08.13-.08.13.15.35.24.2.22.23.44.42.48.3.3-.29.77,0,.25-.36.8-.47,1.44-.47.63.03,1.35.17,1.96.26-.82.73-2.38.99-2.84,1.96.19.19.19.26.33.42.19.17.27.12.43.22.1,0-.21-.29-.09-.28,1.01.08,1.32-.45,2.23-.78-.36-.25-.52-.14-.66-.06-.46.26-.92.55-1.64.55,0-.53.5-.59.86-.86.52-.38,1.2-.66,1.76-1,.42-.26,1.44.28,1.95.28.54.39,1.01.32,1.56.91-1.44.66-3.51,1.29-4.63,2.34.97,1.34.55.08,1.14.62.01-.53,1.24,0,1.01-.75-.25.24-.93.04-1.31.17-.15.05-.05.5-.51.05,1.13-.87,3.01-1.47,4.35-1.98.09-.04.05-.4.5.12-.61.96-1.66,1.44-2.54,2.09-.65.47-1.65.55-1.35,2.11.89,1.45,1.06.94,1.63,1.55-.1.07-.2-.03-.21.14.13.19.19.22.25.39.29.25.54.4.53.1.12.06.26.15.37.2.05-.46.68-.13.95-.39.63.36,1.05.13,1.74.68-.64.39-1.5.22-1.9.86.13.19.22.36.31.52.55.15,1.03-.37,1.68-.47-.55-.54-.75.17-1.21-.11,1.4-.67,2.94-.92,4.26-1.25-.17-.26-.11-.26-.25-.48-.52-.56-.77-.32-1.11-.31.17.34.1-.04.27.31-.74.39-1.61,1.23-3.04.2.64-.23,1.77-.07,2.27-.54-.85-.15-1.41.17-2.12.22-.37.03-.59.33-1.09-.08,1.03-.06,1.53-.87,2.73-.74.06-.53.96-.05.93-.71-.53-.84-.9-.9-.96-.65.21.31.21,0,.42.31-.06.28-.46.16-.69.33-.88.64-2.17,1.41-3.31,1.37-.31-.02-1.26-.3-1.71-.74-.13-.12-.51-.48-.52-.75.11,0,.43.58.54.62.57-.12,1.37-.54,1.89-.73-.65-.36-.81.17-1.37.04.99-.69,2.18-1.22,3.36-1.74.05-.04.19.12.28.16-.21-.62.56-.13.62-.54.2.15.53.35.47.04l-.34-.49c-.23-.08-.56-.14-.43.18-.03.13-.27-.28-.34-.24-.04.82-.97.7-1.61,1.01-1.02.49-2.14,1.42-3.07,1.59.5-1.96,2.59-2.02,3.66-3.07.37-.36.04-1.12.35-1.47.32.36.54.23.51,0-.61-.79-.96-.77-1.25-.81-.18-.02-.21.17-.47-.01-.02.06,0,.15.01.24-.86-.57-1.4-.53-2.3-1.05.95-.45,1.61-.54,2.36-1.03-.94-1.1-1.24-.71-1.47-.63.24.16.31,0,.65.38-.11,0-.22.04-.39-.07-.73,1.5-2.65,1.38-4.74.98.06-.14.33-.14.25-.36-.73,0-.96.73-2.01.31,1.51-.91,3.18-1.78,4.5-2.79.29,0,1.01.18.74-.42-.09-.04-.22-.15-.4-.34-1.49,1.25-3.51,2.27-5.14,3.35-.16.11-.08.39-.85-.26-.02-.63.37-1.06.93-1.13.22-.29.5-.92,1.11-.79.03-.03-.19-.18-.18-.22,1-.01,1.39-1.04,2.14-1.28-.14-.28-.59-.49-.67-.62.05-.17.42-.04.2-.37.35.28.45.05.39-.12-.7-.69-.72-.4-.9-.39-.47.03-1.03.05-1.13.38.35.03.41-.32,1.01.06-.38.76-1.63.48-2.59.48-.15,0,0,.26-.47-.02.47-.69,1.28-.99,1.64-1.78-.93-.69-.79-.22-.77-.01-.32-.34-1.02-.32-.75,0,.26.09.19-.19.59.05-.49.68-.58,1.88-1.95,2.01-.75.08-1.17.38-1.9.42.27-.3.18-.84.61-1.11.18-.11.45-.26.75-.31.04,0,.25.1.28.09.27-.11.31-.4.57-.49.12-.04.43.08.57.04.27-.08.24-.44.74-.35-.37-.23-.12-.19-.45-.4-.35,0-.71-.04-.98.03.23-.78,1.32-1.17,1.83-1.79-.37-.25-.39-.32-.7-.49-.21-.06-.29,0-.34.13.07.09.21.2.21.26-.38.62-.96,1.27-1.72,1.78-.78.55-1.73.98-2.81,1.13.11-.52.66-.66.81-1.15-.48-.09-.48.26-.67.49-.22.27-.47.55-.81.62.75-1.07,1.15-2.29,2.3-3.09-.08-.55.77-.7.94-1.33-.85-.53-.91-.24-1.12-.17-.36.13-.98.22-.73.56.11-.11.23-.32.77-.15.15.27-.18.3-.24.49-.25.74-.76,1.34-1.22,1.94-.47.62-.9,1.23-1.05,1.88-.21-.02-.43-.04-.76-.16-.49-.53-.09-.74-.01-1.09ZM8.52,11.3c.25-.19.31-.07-.01.16-.11,0,.08-.14.01-.16ZM9.41,10.72c.69-.25.03.77.61.66-.22.24.17.19-.26.52-.13-.4-.42-.72-.35-1.17ZM18.06,6.19l.27-.13c.08.09.08.19-.15.36-.29.08.05-.19-.11-.22ZM13.51,8.71c.79-.27.47.28.71.41l-.35.2c-.32.02.18-.53-.35-.38.48-.3.04-.16-.02-.23ZM14.82,8.17c.4-.19.19.16.34.2-.47.21-.16-.13-.34-.2ZM8.18,12.72c.28-.17.17,0,.2.08-.16.08-.32.08-.2-.08ZM18.11,6.5c.27.22.7.57.03,1.13.06-.35.03-.74-.03-1.13ZM28.92,2.18c1.05.62.08,2.05-.11,3.09-.09.44.07.8-.39,1.28-.1-1.4.02-2.89.5-4.36ZM13.02,9.47c.24.3.19,1.05.61,1.35-.88.15-.62-.83-.61-1.35ZM8.31,12.88c.16.19.31.38.8.33-.28.21-.29.24-.78.64-.14-.27-.2-.61-.02-.98ZM34.32,1.33c.22-.03.28-.02.42-.02-.13.07.04.17-.39.21-.23-.02.09-.1-.02-.18ZM12.56,10.24c.29-.18.19,0,.17.08-.19.12-.1-.07-.17-.08ZM62.6,15.05c.09.3-.22.28-.63-.15.25.07.47.17.63.15ZM31.83,2.02c.12-.03.18-.03.2-.02.15,1.57.8,3.17-.08,4.94-.37,0-.38-.1-.42-.19-.14-.38-.09-.85-.13-1.28-.1-1.11.15-2.32.42-3.44ZM21.32,5.68c.14-.07.17-.05.28-.1.04.55.52.92.77,1.44.25.54-.21,1.42-.02,2-.54.11-.24-.25-.3-.41-.32-.89-.56-2.02-.73-2.93ZM21.11,5.91c.29-.09-.06.15.08.17-.33.15-.04-.11-.08-.17ZM39.43,1.46c.02,1.46-.42,3.41-.67,4.84.11.12.34.35-.09.41-.54-.19-.04-.45-.08-.71-.05-.29-.41-.6.09-.87-.53-.48.16-1.18.11-1.71-.02-.15-.23-.3-.19-.44.14-.47.56-.9.84-1.53ZM17.6,7.66c.31-.11.16.18.23.22-.23.05-.13-.17-.23-.22ZM15.2,9.04c.2-.1.09.08.17.09-.41.24-.31.03-.17-.09ZM12.63,10.72c.38-.22.2.15.35.18-.38.21-.2-.15-.35-.18ZM44.68,2.37c.45.34-.09.44-.16.67-.34,1.14-.33,2.68-1.08,3.66-.21.3-.64.68-1.5.73-.18-.42.2-.78.28-1.18.07-.37-.09-.78.1-1.14.03-.06.28-.1.31-.17.21-.42.23-.87.52-1.27.36-.52,1.22-.8,1.53-1.3ZM14.19,9.85c.28-.18.17-.01.23,0-.25.15-.34.1-.23,0ZM21.04,6.22c.33-.17.24.08.17.14-.21.08-.09-.11-.17-.14ZM9.19,13.48c.99.7,1.12,1.9,1.57,2.83-.69.02-.68-.76-1.24-.89-.14,0,.26-.25.15-.27-.92.26-.35-.85-1.18-.79.15-.24.03-.32.03-.43.19-.23.34-.18.66-.46ZM36.25,1.9c.16-.02.18,0,.3-.01.06.99.29,2.29-1.04,3.4.15-1.05.34-2.24.74-3.39ZM17.63,8.14c.37-.18.17.11.29.14-.37.18-.17-.11-.29-.14ZM15.44,9.45c.39-.12.14.18.27.27-.32.14-.33-.15-.27-.27ZM5.87,16.88c.21-.19.22-.01.23.08-.17.15-.14-.08-.23-.08ZM34.36,2.36c.12-.02.18-.02.2,0,.18,1.01-.06,2.3-.09,3.37,0,.21.14.46.11.72-.02.17.08.35-.63.52-.61,0-.29-.31-.36-.48-.51-1.16.51-2.81.76-4.13ZM56.05,9.27c-.15.98-1.23.99-1.84,1.46.38-.59.99-1.26,1.84-1.46ZM13.52,11.01c.21-.14.2-.04.24,0-.39.25-.14.03-.24,0ZM11.32,12.49c.48-.23.35.26.32.45-.29.01-.34-.22-.32-.45ZM20.01,7.45c.25-.07.46-.03.19.16-.31.11-.05-.11-.19-.16ZM9.87,13.69c.34-.25.19.09.32.09-.41.28-.15-.07-.32-.09ZM12.04,12.15c.24-.11.65-.04.19.28l-.19-.28ZM25.13,5.32c.15.16.41.25.67.39-.15.03-.22,0-.24-.07-.16.72.67,1.09.07,2-.34-.77-.37-1.56-.5-2.32ZM23.8,5.92c.74,1.09,1.33,2.41,1.49,3.79.03.24.6.39-.31.87.14-.35-.74-.29-.2-.68-.49.04-.38-.32-.45-.58-.29-1.07-.88-2-.53-3.4ZM25.64,5.28c.34-.16.25.06-.05.14-.05-.04-.02-.09.05-.14ZM26.8,5.05l.28-.09.03.09c-.24.09-.31.07-.31,0ZM18.96,8.6c.41-.2.01.1.16.1-.19.07-.29,0-.16-.1ZM13.77,11.58c.09-.07.15-.09.17-.09.26.35.56.72.64,1.19.03.16.05.4-.21.71-.35-.41-.78-1.02-.61-1.82ZM47.3,4.54c.11.04.16.07.18.1-.87.88-1.59,2.13-2.28,3.24.21-1.25.72-2.51,1.99-3.31-.01-.04.1,0,.12-.03ZM10.23,14.14c.48-.12.42.43.69.56-.46.11-.42-.42-.69-.56ZM6.46,17.69c.07-.09.12-.13.15-.13.72.69,1.32,1.27,1.81,1.79-1.11-.07-1.32-.89-1.95-1.66ZM38.2,3.05c.17,0,.19.02.2.05-.23,1.18-.31,2.27-.5,3.38-.39-.45-.24-.87-.22-1.3.01-.23-.21-.48-.12-.71.16-.42.67-.84.44-1.32.18,0,.06-.08.19-.09ZM12.57,12.57c.39-.04-.01.55.41.6-.62.21-.68-.25-.41-.6ZM26.9,5.33c.11-.04.17-.05.19-.04.36.61.49,1.35.68,1.94.14.41.75.71.19,1.36-.33-1.02-.83-1.97-1.06-3.26ZM14.45,11.38c.19-.11.1.09.18.1-.34.2-.07-.07-.18-.1ZM19.1,8.86c.42.95,1.56,1.83,1.46,3.05-.01.15.22.26-.33.57-.15.02-.26-.11.07-.26-.35-.05-.44-.17-.33-.43.07-.16,0-.06-.18-.14-.16-.07-.03-.24.09-.43-.74-.51-.54-1.59-.93-2.22.1-.06.16-.11.14-.15ZM2.03,25.49c.21-.12.4-.1.4.24-.22.34-.27-.19-.4-.24ZM21.31,7.93c.08-.03.16-.06.19-.04.17.98.6,1.73.77,2.7-.81-.6-.96-1.73-.96-2.66ZM22.88,7.2c.31-.14.45-.02.06.13l-.06-.13ZM15.44,11.16c.58.11.58.5.55.92-.19-.14-.53-.55-.55-.92ZM22.82,7.55c.35-.1.31.08.29.18-.34.12-.19-.12-.29-.18ZM14.91,11.76c.2-.09.11.12.2.14-.26.16-.28-.04-.2-.14ZM37.16,3.71c.36,0,.15.19-.08.22-.07-.08.08-.14.08-.22ZM1.07,38.47c.13-.45.49-.19.56.37-.2-.05-.35-.37-.56-.37ZM1.11,35.42c.05-.15.1-.67.17-.38,0,.26-.09.09-.1.28.03.25.22-.08.2.38-.13.08-.21-.1-.28-.29ZM3.13,24.37c.14-.31.15-.08.13.05-.08.19-.14.02-.13-.05ZM10.84,14.91c.29-.16.44,0,.2.25l-.2-.25ZM22.95,7.84c.31-.15.16.03.23.05-.31.15-.16-.03-.23-.05ZM37.08,3.97c.19.11.24.37-.16.52.11-.18-.11-.3.16-.52ZM12.28,13.83c.12-.09.15-.07.25-.14.1,0-.08.12-.01.15-.2.13-.2.04-.24,0ZM12.8,13.59c.32-.22.17.06.28.06-.31.22-.17-.06-.28-.06ZM1.35,36.28v-.28c.05-.21.15,0,.16.29h-.16ZM17.05,11.09s.48-.07.18.13c-.34.17-.15-.08-.18-.13ZM12.41,14.01c.29-.12.5.17.28.39l-.28-.39ZM1.47,37.51v-.19c.23-.63.75.19,1.03-.01.03.24.13.15.12.56-.38-.12-.78-.18-1.14-.36ZM52.9,9.24c.08.06.14.12.22.18-.3.32-.57.51-.94.59-.19-.53.57-.41.72-.78ZM41.93,4.64c.36.27-.26.55-.3.81-.17-.28-.03-.65.3-.81ZM17.17,11.31c.2-.09.26-.02-.03.15-.05-.03-.03-.08.03-.15ZM9.8,16.46c.27-.25.27.04.07.22-.08-.04-.09-.12-.07-.22ZM1.99,32.25c.06-.15.16.04.16.29-.07-.03-.21.11-.16-.29ZM29.18,6.16c.14-.04.24.1-.05.16-.03-.05-.05-.1.05-.16ZM15.95,12.21c.25-.13.44.07.05.26-.06-.08-.11-.15-.05-.26ZM9.96,16.65c.08-.06.08,0,.16-.09.25.43.84.61.85,1.24-.4-.4-.76-.63-1.01-1.15ZM26.92,7.06c.35-.09.26.19.2.27-.22,0-.11-.2-.2-.27ZM17.34,11.61c.28-.13.29.11.3.15-.16,0-.22-.08-.3-.15ZM3.74,25.51c.17-.35.14.06.21.08-.12.18-.19-.02-.21-.08ZM29.8,6.27c.1-.04.16-.05.18-.04.04.59.35,1.24.33,1.77-.38.07-.41-.11-.44-.22-.13-.42-.14-1.06-.07-1.52ZM53.88,10.97c.15.13-.03.1-.02.16-.19-.16-.09-.22.02-.16ZM4.3,24.18c.16-.28.21-.07.23,0-.12.17-.15-.03-.23,0ZM15.55,12.81c.33-.02.44.41.48.61-.37.05-.47-.38-.48-.61ZM16.12,12.49c.26-.14.27.04.19.13-.12.01-.28-.04-.19-.13ZM2.86,28.65c.12-.33.2.12.29.06-.08.16-.26.07-.29-.06ZM16.24,12.68c.3-.18.24.07.19.13-.16.02-.25-.03-.19-.13ZM27.02,7.6c.39.5,1.05,1.15.58,1.81-.52-.29-.22-1.26-.64-1.71-.04-.02.07-.07.06-.1ZM52,9.95c.38.32,0,.56-.36.33.12-.11.15-.33.36-.33ZM4.18,25.96c.05-.16.2-.23.14-.04-.09.3-.15.11-.14.04ZM36.89,5.51c.35-.01.02.11.19.19-.36.05-.11-.13-.19-.19ZM21.44,10.36c.1-.05.15-.07.18-.06.23.19.3.5.38.78.07.21.5.31-.05.74-.32-.43-.42-1.05-.51-1.46ZM8.33,19.51c.17-.13.36-.03.29.15-.13.06-.18-.13-.29-.15ZM19.25,11.6c.38-.16.19.2.34.25-.36.14-.21-.19-.34-.25ZM14.93,14.24s.13-.11.22-.17c.33.1.35.51.22.84-.37.02.06-.73-.44-.67ZM51.66,10.39c.16.15.11.45-.25.19.09-.06.07-.24.25-.19ZM62.76,23.74c.17.28-.05.19-.14-.01.02-.1.11.07.14.01ZM6.75,22.04c.14-.25.13-.07.19-.08-.14.21-.22.16-.19.08ZM8.62,19.77c.4-.16.73.16.56.61-.16-.22-.51-.31-.56-.61ZM39.11,6.05c.43.02.31.32,0,.34v-.34ZM7.11,21.76c.11-.18.14-.13.26-.34.33.28.78.7,1.02,1.15-.45-.12-1.03-.34-1.28-.81ZM32.39,6.86c.14-.04.15-.01.27-.04.03.05-.12.1-.15.15-.19.04-.06-.09-.12-.11ZM32.85,6.87c.22-.05.22.04.11.09-.15.01-.24-.03-.11-.09ZM12.79,16.38l.21-.16c.02.12.01.24.18.24-.35.27-.15-.13-.39-.07ZM34.91,6.88l.26-.03c0,.13.1.27-.12.36-.33,0-.2-.25-.13-.33ZM54.24,13.73c.25.33-.15.27-.4.02.07-.11.29.04.4-.02ZM12.14,17.55c.29-.19.06.14.23.14-.23.14-.26-.03-.23-.14ZM16.03,14.78c.35.03.74.45.23,1.02-.18-.24-.29-.6-.23-1.02ZM11.49,18.13c.3-.16.36.06.48.16-.34.25-.31-.08-.48-.16ZM55.89,15.94l.17.2c-.06.06-.1.12-.25-.02-.26-.32.07-.11.08-.19ZM34.96,7.26c.48.04.15.43.08.59-.17-.13-.18-.43-.08-.59ZM11.02,18.76c.33-.21.34.06.37.15-.25.16-.39,0-.37-.15ZM28.15,9.37l.33-.11c-.03.1-.12.21-.17.32-.3.03-.08-.11-.17-.21ZM18.95,13.9c.29-.15.22.08.19.16-.27.08-.08-.08-.19-.16ZM28.71,9.67c.26-.08.33.02.22.1-.2.05-.37,0-.22-.1ZM16.27,15.98c.35-.18.09.13.21.16-.46.29-.12-.11-.21-.16Z"/></g></g></g></g></svg>